<?xml version="1.0" encoding="UTF-8"?>
<svg id="Air_Force" data-name="Air Force" xmlns="http://www.w3.org/2000/svg" viewBox="0 0 232.6 144.9">
  <defs>
    <style>
      .cls-1 {
        fill: #00428d;
        fill-rule: evenodd;
        isolation: isolate;
        opacity: 1;
        stroke-width: 0px;
      }
    </style>
  </defs>
  <path class="cls-1" d="M78.83,2.34h14.78c7.84,26.69,15.71,53.37,23.61,80.05,3.58.07,7.16.1,10.75.07v-24.39h-9.09v-13.75h67.41v22.84h-13.75v-9.09h-29.86v24.39c6.28.01,12.56,0,18.85-.04.02-1.8.05-3.6.07-5.4,3.97-.04,7.93-.05,11.9-.04v24.69c-3.97.01-7.93,0-11.9-.04-.02-1.8-.05-3.6-.07-5.4-6.28-.04-12.56-.05-18.85-.04v32.52c3.05-.02,6.09,0,9.13.07.05,4.56.05,9.12,0,13.67-5.48.05-10.96.07-16.45.07s-10.97-.02-16.45-.07c-.05-4.56-.05-9.12,0-13.67,3.04-.07,6.08-.1,9.13-.07v-32.52h-34.89v-13.75h8.06c-.92-3.58-1.86-7.15-2.81-10.72-7.83-.02-15.67,0-23.5.07-1.02,3.52-2.03,7.04-3.03,10.57,2.39.07,4.78.1,7.17.07v13.75h-32.74v-13.75c3.28.05,6.55,0,9.79-.15,7.6-26.65,15.17-53.31,22.73-79.97ZM86,29.17c.07,0,.12.03.15.11,3,9.55,6,19.1,9.02,28.64-5.67.07-11.33.1-17,.07,2.63-9.6,5.24-19.21,7.83-28.83Z"/>
</svg>