<?xml version="1.0" encoding="UTF-8"?>
<svg id="Alaska_Anchorage" data-name="Alaska Anchorage" xmlns="http://www.w3.org/2000/svg" viewBox="0 0 232.6 144.9">
  <defs>
    <style>
      .cls-1 {
        fill: #fdc420;
      }

      .cls-1, .cls-2 {
        stroke-width: 0px;
      }

      .cls-2 {
        fill: #00573a;
      }
    </style>
  </defs>
  <path class="cls-2" d="M121.83,6.04c4.39.02,8.54.4,12.67,1.19,7.66,1.46,14.86,4.13,21.62,7.99,5.3,3.03,10.1,6.71,14.4,11.04,5.79,5.84,10.32,12.54,13.59,20.09,2.06,4.76,3.51,9.71,4.46,14.81.24,1.27.41,2.55.59,3.83.04.25.13.39.38.5,2.67,1.23,5.45,2.19,8.22,3.17,4.58,1.62,9.2,3.15,13.68,5.04,2.82,1.19,5.61,2.44,8.1,4.27,1.1.8,2.1,1.7,2.7,2.96.39.82.43,1.65.17,2.52-.1.31-.2.36-.5.25-2.65-.93-5.31-1.84-7.97-2.76-3.28-1.14-6.56-2.28-9.84-3.42-.23-.08-.38-.06-.55.14-3.63,4.1-7.26,8.2-10.91,12.3-.24.27-.11.36.11.49,1.7,1,3.51,1.2,5.41.75,2.42-.57,4.57-1.76,6.66-3.04.32-.2.67-.36.94-.6.56-.5,1.17-.54,1.87-.38,3.21.74,6.31,1.75,9.15,3.44.49.29.48.29.16.76-1.55,2.24-3.38,4.21-5.4,6.03-.23.21-.44.25-.73.2-5.08-.95-10.17-1.88-15.27-2.75-4.45-.76-8.91-1.48-13.38-2.11-3.35-.47-6.7-.9-10.06-1.25-3.05-.32-6.1-.61-9.16-.82-3.07-.21-6.15-.34-9.23-.41-2.59-.06-5.17-.05-7.76.07-4.01.18-8.01.49-11.99,1.02-3.7.49-7.4,1.04-10.99,2.13-.74.22-1.47.49-2.18.79-1.05.43-1.88,1.11-2.51,2.08-1.66,2.57-2.7,5.38-3.26,8.37-.17.92-.31,1.84-.38,2.77-.02.29-.05.57-.04.86.02.91.44,1.35,1.35,1.39,1.47.06,2.93-.05,4.4-.13,2.31-.12,4.63-.26,6.94-.4,3.73-.23,7.47-.44,11.21-.59,5.12-.2,10.24-.35,15.36-.24,4.06.09,8.1.39,12.12.98,6.32.92,12.38,2.72,18.24,5.22.86.37,1.67.82,2.38,1.46,1.5,1.36,1.57,3.35.17,4.81-1.64,1.7-3.86,2.12-6.28,1.18-1.71-.66-3.3-1.55-4.94-2.34-1.17-.57-2.34-1.17-3.65-1.37-.31-.05-.53.01-.76.25-4.15,4.37-8.88,8.01-14.05,11.07-6.69,3.96-13.84,6.75-21.48,8.26-4.2.83-8.44,1.27-12.72,1.31-3.97.04-7.9-.25-11.82-.87-5.02-.79-9.86-2.18-14.57-4.05-6.16-2.46-11.83-5.79-17.13-9.75-.24-.18-.24-.26-.03-.46,1.43-1.36,3.09-2.39,4.78-3.37,4.48-2.59,9.16-4.77,13.8-7.04,1.32-.64,2.39-1.47,2.88-2.92,1-2.97-1.24-6.14-4.41-6.21-1.45-.03-2.81.39-4.14.91-2.34.9-4.51,2.14-6.69,3.36-4.44,2.48-8.82,5.07-13.04,7.91-.78.52-1.54,1.06-2.28,1.63-.3.24-.5.22-.81.01-2.21-1.5-4.43-2.98-6.67-4.45-.33-.21-.27-.34-.03-.52.72-.54,1.44-1.09,2.18-1.62,6.46-4.56,13.22-8.64,20.28-12.21,4.23-2.14,8.63-3.89,13.05-5.58,1.41-.54,2.81-1.1,4.21-1.65,2.1-.83,3.71-3.24,3.58-5.37-.11-1.85-1.36-3.52-2.99-3.98-1.08-.31-2.18-.26-3.23.07-2.62.81-5.19,1.75-7.71,2.82-6.7,2.82-13.13,6.2-19.44,9.8-5.9,3.37-11.7,6.91-17.32,10.73-.65.44-1.28.93-1.91,1.4-.17.12-.29.15-.49.02-2.43-1.56-4.87-3.11-7.31-4.65-.34-.22-.11-.29.05-.4,2.02-1.43,4.07-2.8,6.15-4.14,3.48-2.24,7.01-4.4,10.57-6.51,6.78-4.02,13.66-7.88,20.81-11.21,4.51-2.1,9.08-4.07,13.79-5.69,2.77-.95,5.57-1.79,8.39-2.58,1.58-.45,3.11-1.01,4.44-2.02,1.2-.91,1.72-2.06,1.59-3.55-.12-1.39-.41-2.7-1.49-3.71-.62-.58-1.33-.91-2.21-.92-1.82-.03-3.57.4-5.29.91-5.69,1.68-11.23,3.78-16.69,6.09-7.46,3.15-14.7,6.77-21.78,10.7-8.88,4.92-17.42,10.38-25.82,16.07-.45.31-.91.61-1.35.92-.19.13-.33.18-.57.03-2.17-1.35-4.31-2.75-6.58-3.94-.25-.13-.2-.23-.05-.39.87-.95,1.89-1.72,2.91-2.5,4.68-3.59,9.6-6.83,14.61-9.93,9.47-5.84,19.29-11.02,29.43-15.59,7.14-3.22,14.43-6.08,21.86-8.58,6.61-2.22,13.33-4.01,20.1-5.62,3.59-.85,7.18-1.68,10.8-2.41,4-.81,8.02-1.49,12.06-2.07.5-.07.98-.2,1.44-.44,1.44-.75,1.81-2.27.82-3.55-.68-.88-1.42-1.7-2.14-2.54-3.9-4.47-7.93-8.81-12.15-12.98-1.66-1.64-3.31-3.28-5.16-4.71-.23-.18-.46-.27-.74-.31-2.14-.29-4.28-.22-6.41.03-4.77.56-9.29,2.04-13.75,3.76-.34.13-.33.27-.21.56.89,2.05,1.84,4.08,2.51,6.22.77,2.46,1.07,4.94.51,7.52-.6,2.78-2.3,4.51-4.87,5.45-2.49.91-5.04,1.68-7.54,2.55-7.37,2.55-14.6,5.45-21.71,8.65-7.2,3.25-14.24,6.8-21.13,10.66-6.31,3.53-12.46,7.32-18.47,11.34-4.03,2.69-7.99,5.48-11.86,8.4-.27.21-.47.24-.79.06-2.09-1.17-4.2-2.31-6.3-3.46-.53-.29-.58-.81-.12-1.18,2.26-1.83,4.57-3.58,6.93-5.29,6.24-4.52,12.64-8.8,19.21-12.83,4.76-2.92,9.56-5.79,14.57-8.27.8-.4,1.59-.81,2.42-1.14.5-.2.73-.53.87-1.01.8-2.67,1.81-5.26,2.98-7.79,2.36-5.13,5.32-9.88,8.85-14.29,4.98-6.22,10.83-11.46,17.62-15.65,5.69-3.51,11.77-6.08,18.24-7.75,3.09-.8,6.23-1.35,9.41-1.69,2.53-.27,5.08-.41,7.43-.42ZM62.5,51.41c2.24-1,4.41-1.97,6.58-2.92,2.08-.91,4.17-1.81,6.26-2.7,3.03-1.29,6.08-2.5,9.16-3.67,3.2-1.22,6.43-2.35,9.73-3.27.23-.06.47-.13.65-.31,1.27-1.22,1.81-2.7,1.51-4.44-.31-1.78-1.2-3.33-2.04-4.89-.75-1.4-1.51-2.81-1.83-4.39-.44-2.17.15-3.98,1.88-5.41,1.21-1,2.62-1.57,4.05-2.13,2.71-1.05,5.51-1.83,8.34-2.5,4.07-.96,8.19-1.62,12.37-1.81,2.82-.13,5.63-.08,8.42.4.32.06.59.16.83.39,1.09,1.02,2.2,2.02,3.31,3.02,2.26,2.04,4.45,4.16,6.6,6.32,2.84,2.85,5.61,5.77,8.26,8.8,1.98,2.27,3.92,4.58,5.77,6.95,1.83,2.34,3.6,4.72,5.25,7.19.24.37.54.55.96.6.37.04.74.11,1.1.19,3.6.77,6.26,2.72,7.76,6.15.55,1.26.99,2.56,1.52,3.82.78,1.88,2.07,3.28,3.92,4.15,1.73.82,3.6,1.14,5.47,1.42,1.57.24,3.15.43,4.68.87.61.18,1.21.4,1.84.61,0-.14,0-.26-.03-.37-.54-3.45-1.31-6.84-2.4-10.15-1.55-4.75-3.6-9.27-6.25-13.52-.91-1.46-1.85-2.9-2.88-4.28-2.75-3.68-5.87-7.03-9.37-10.01-3.3-2.82-6.86-5.27-10.65-7.38-3.26-1.81-6.66-3.34-10.18-4.56-3.14-1.09-6.35-1.94-9.63-2.56-3.34-.63-6.7-.97-10.09-1.06-2.59-.07-5.17.05-7.75.29-3.3.32-6.56.9-9.77,1.71-2.26.57-4.48,1.29-6.67,2.12-2.65,1.01-5.22,2.2-7.71,3.57-2.78,1.53-5.43,3.24-7.95,5.17-2.12,1.63-4.15,3.36-6.06,5.23-1.98,1.94-3.83,4.01-5.56,6.18-1.94,2.43-3.68,5.01-5.24,7.7-1.06,1.83-2.02,3.73-2.82,5.7-.5,1.21-1.04,2.41-1.38,3.78ZM91.92,127.96c12.35,6.21,25.28,8.67,38.91,6.7,13.58-1.96,25.53-7.47,35.51-17.02-.26-.12-.49-.18-.73-.22-2.65-.45-5.31-.76-7.98-.97-2.61-.21-5.22-.27-7.83-.37-2.16-.09-4.33-.07-6.5.05-1.66.09-3.33.09-4.99.2-2.83.18-5.66.42-8.49.74-2.74.31-5.46.7-8.17,1.17-2.85.49-5.68,1.08-8.49,1.78-3.14.78-6.24,1.69-9.3,2.74-2.96,1.02-5.87,2.18-8.71,3.51-1.06.5-2.13.97-3.22,1.69ZM142.94,83.81c1.94-.06,3.87-.26,5.8-.48,2.2-.25,4.4-.52,6.62-.55.32,0,.52-.1.72-.35,1.9-2.47,4.5-3.77,7.48-4.41,2.35-.51,4.74-.55,7.13-.57.33,0,.52-.11.7-.38.48-.71.57-1.53.61-2.34.06-1.06.03-2.13.12-3.19.04-.45-.1-.53-.48-.61-2.37-.51-4.52-1.48-6.39-3.05-2.56-2.15-4.19-4.93-5.32-8.03-.56-1.54-1.49-2.77-2.8-3.74-1.76-1.3-3.81-1.86-5.92-2.2-2.6-.42-5.21-.38-7.83-.11-2.47.25-4.88.74-7.25,1.49-1.67.53-3.05,1.41-4.14,2.8-.91,1.17-1.81,2.35-2.69,3.53-1.6,2.13-3.22,4.23-5.23,6.01-1.84,1.63-3.88,2.82-6.38,3.04-.25.02-.22.15-.2.32.22,2.06.44,4.12.66,6.18.02.19.06.29.27.28.21,0,.43.05.64.05,1.77.03,3.54.05,5.31.08,1.79.02,3.56.21,5.29.71.39.11.69.32.93.65,1.53,2.07,3.58,3.42,6.02,4.18,2.06.64,4.18.72,6.32.7Z"/>
  <path class="cls-2" d="M109.54,46.79c-.11-.22.11-.3.2-.41,1.8-2.2,3.04-4.67,3.5-7.48.89-5.32-.67-9.73-4.99-13.07-.05-.04-.11-.08-.2-.15.23-.07.41.02.59.05.2.04.4.07.59.11,8.81,1.86,16.92,5.31,24.21,10.63,1.79,1.3,3.52,2.68,5.13,4.2-.02.02-.03.03-.05.05-1.25-.3-2.51-.6-3.79-.76-1.78-.21-3.55-.24-5.33-.09-4.71.4-9.11,1.9-13.39,3.78-2.19.96-4.34,2.01-6.46,3.12h0Z"/>
  <path class="cls-2" d="M182.46,111.2c.73-.69,1.38-1.31,2.04-1.92,1.01-.94,2.01-1.89,3.03-2.82.26-.24.16-.34-.07-.49-1.25-.82-2.66-1.2-4.1-1.5-.55-.11-1.09-.24-1.65-.32-.31-.04-.31-.14-.19-.38.59-1.11,1.36-2.1,2.2-3.02.45-.49.93-.95,1.37-1.44.15-.16.29-.2.49-.18,5.75.65,11.42,1.72,16.99,3.27.58.16,1.15.36,1.72.55.04.01.07.04.15.09-6.09,5.99-13.25,9.04-22,8.16Z"/>
  <path class="cls-2" d="M183.87,98.75c-1.02.86-2.02,1.57-3.05,2.21-3.15,1.95-6.46,3.55-10,4.66-2.63.83-5.32,1.33-8.1,1.16-.93-.06-1.85-.22-2.75-.5-.23-.07-.24-.15-.18-.36.41-1.45,1.21-2.69,2.04-3.91,1.08-1.59,2.28-3.1,3.11-4.85.1-.21.24-.2.42-.2,2.07.07,4.14.18,6.2.37,3.45.32,6.88.79,10.33,1.17.63.07,1.25.15,1.98.24Z"/>
  <path class="cls-2" d="M163.62,96.64c-.98.99-1.97,1.82-3,2.6-3.9,2.95-8.3,4.74-13.08,5.64-2.18.41-4.38.59-6.6.63-.38,0-.42-.13-.39-.44.15-1.39.72-2.61,1.46-3.77.84-1.31,1.91-2.46,2.63-3.83.39-.74.92-.89,1.65-.96,4.46-.41,8.93-.31,13.4-.09,1.27.06,2.55.1,3.93.24Z"/>
  <path class="cls-2" d="M143.41,96.26c-.44.49-.81.92-1.2,1.34-2.95,3.21-6.29,5.89-10.33,7.61-3.03,1.29-6.2,1.89-9.5,1.75-.07,0-.14-.02-.22-.01-.38.03-.46-.11-.4-.5.4-2.68,1.32-5.16,2.69-7.49.12-.2.28-.22.45-.25,1.47-.25,2.95-.49,4.42-.72,3.2-.5,6.4-.94,9.61-1.35,1.37-.17,2.74-.3,4.12-.37.08,0,.16,0,.34,0Z"/>
  <path class="cls-2" d="M138.56,40.69s.09.01.06.07c0,0-.07-.01-.1-.02.02-.02.03-.03.05-.05Z"/>
  <path class="cls-2" d="M109.54,46.79s-.05-.01-.08-.02c.01-.01.03-.03.04-.04.01.02.02.04.04.06,0,0,0,0,0,0Z"/>
  <path class="cls-1" d="M62.5,51.41c.34-1.36.89-2.56,1.38-3.78.8-1.97,1.76-3.87,2.82-5.7,1.56-2.69,3.3-5.26,5.24-7.7,1.73-2.17,3.58-4.24,5.56-6.18,1.91-1.87,3.94-3.6,6.06-5.23,2.52-1.93,5.17-3.65,7.95-5.17,2.49-1.37,5.06-2.56,7.71-3.57,2.18-.83,4.4-1.55,6.67-2.12,3.21-.81,6.47-1.39,9.77-1.71,2.58-.25,5.16-.37,7.75-.29,3.39.09,6.75.43,10.09,1.06,3.27.61,6.48,1.46,9.63,2.56,3.52,1.23,6.92,2.75,10.18,4.56,3.8,2.1,7.35,4.56,10.65,7.38,3.5,2.99,6.62,6.33,9.37,10.01,1.03,1.38,1.97,2.82,2.88,4.28,2.65,4.25,4.7,8.77,6.25,13.52,1.08,3.32,1.86,6.71,2.4,10.15.02.11.02.23.03.37-.63-.21-1.23-.43-1.84-.61-1.53-.45-3.11-.63-4.68-.87-1.87-.28-3.74-.6-5.47-1.42-1.85-.88-3.13-2.27-3.92-4.15-.53-1.27-.97-2.57-1.52-3.82-1.5-3.43-4.16-5.38-7.76-6.15-.36-.08-.73-.15-1.1-.19-.42-.05-.72-.24-.96-.6-1.65-2.47-3.42-4.85-5.25-7.19-1.86-2.37-3.79-4.68-5.77-6.95-2.65-3.03-5.42-5.95-8.26-8.8-2.15-2.15-4.34-4.28-6.6-6.32-1.11-1-2.22-2-3.31-3.02-.25-.23-.51-.33-.83-.39-2.79-.48-5.61-.53-8.42-.4-4.18.19-8.3.85-12.37,1.81-2.83.67-5.63,1.44-8.34,2.5-1.43.55-2.85,1.13-4.05,2.13-1.73,1.43-2.32,3.24-1.88,5.41.32,1.58,1.08,2.98,1.83,4.39.84,1.56,1.73,3.11,2.04,4.89.3,1.74-.24,3.22-1.51,4.44-.19.18-.42.24-.65.31-3.3.92-6.53,2.05-9.73,3.27-3.07,1.17-6.13,2.38-9.16,3.67-2.09.89-4.18,1.79-6.26,2.7-2.17.95-4.34,1.93-6.58,2.92Z"/>
  <path class="cls-1" d="M91.92,127.96c1.08-.72,2.16-1.2,3.22-1.69,2.84-1.33,5.75-2.49,8.71-3.51,3.06-1.05,6.16-1.96,9.3-2.74,2.81-.7,5.64-1.29,8.49-1.78,2.71-.47,5.44-.85,8.17-1.17,2.82-.32,5.65-.56,8.49-.74,1.66-.11,3.33-.11,4.99-.2,2.17-.11,4.33-.13,6.5-.05,2.61.1,5.22.17,7.83.37,2.68.21,5.34.53,7.98.97.24.04.47.09.73.22-9.98,9.55-21.92,15.06-35.51,17.02-13.63,1.97-26.55-.49-38.91-6.7Z"/>
  <path class="cls-2" d="M145.54,79.57c-6.09-.06-10.83-4.86-11.02-10.54-.22-6.68,5.14-11.39,10.79-11.47,6.19-.09,10.69,4.74,11.15,9.85.69,7.67-5.67,12.26-10.92,12.16Z"/>
</svg>