<?xml version="1.0" encoding="UTF-8"?>
<svg id="Arizona_State" data-name="Arizona State" xmlns="http://www.w3.org/2000/svg" viewBox="0 0 232.6 144.9">
  <defs>
    <style>
      .cls-1 {
        fill: none;
      }

      .cls-1, .cls-2, .cls-3, .cls-4 {
        stroke-width: 0px;
      }

      .cls-2 {
        fill: #fff;
      }

      .cls-2, .cls-3, .cls-4 {
        fill-rule: evenodd;
      }

      .cls-3 {
        fill: #8b274c;
      }

      .cls-4 {
        fill: #ecb73a;
      }
    </style>
  </defs>
  <path class="cls-3" d="M69.21,70.95s-4.3-3.49-5.1-18.76c0,0,9.5,12.47,12.3,12.57l-2.7.8s4.6,4.49,13.3,7.18c8.7,2.69,12.7,4.49,14.7,5.79,0,0,1.3-6.98.4-11.77-.9-4.79-4.86-15.11-10-20.45-2.4-2.49-2.8,1.6-2.9,3.49-.1,1.9-.3,6.39-.3,6.39,0,0,1.8-.1,3.2.1,1.4.2,5.1,2.89,4.9,6.09-.2,3.19-2.52,7.6-6.8,6.58-4.2-1-8.5-5.51-9.2-13.07-.9-9.78.38-17.98,2.4-24.14,1.8-5.49,3.9-3.09,5.8-1.4,1.9,1.7,9.5,8.48,12.2,11.67,0,0-4.7-8.18-4.4-16.66,0,0-2.5-4.09-2.5-9.58s2.9-9.28,5.9-11.17c0,0-.5,7.28,2,8.48,0,0,4.6-3.09,8.4-2.89,0,0,2.3-2,2.3-4.69s-1-4.49-1-4.49c0,0,9.9,1.4,9.9,11.47,0,0,9.2,6.58,9.8,17.06,0,0,7.3,0,7.3,10.88,0,6.19-2.3,7.78-2.3,9.38s3.3-1.2,3.3,14.97v7.78s9.7-1.8,9.7,6.19,1.2,9.98,1.7,11.08c0,0,.53-4.58,1.4-7.78,2.8-10.38,8-10.78,7.6-16.46,0,0,5.4,2.1,5.4,12.57s-3.9,11.97-4.9,15.67c-1,3.69-3.1,10.78-6.4,10.78s-13.3-6.68-14.8-18.46c0,0-2.3,15.17-2.3,19.86s-4.5,5.79-6.7,5.79-8.3-3.39-8.3-7.88,4.7-5.49,6-6.19c1.3-.7,2.4-2.89,2.4-8.78,0,0-12.4,3.19-21.7,9.38-9.3,6.19-12.68,9.02-18.7,9.68-5.5.6-6.8-8.68-7.1-12.37-.3-3.69-2.25-1.46-3.6,0-3.5,3.79-10.3,6.59-10,9.28,0,0-2.22-3-2-5.69.5-6.09,6.82-13.16,15-17.96,8.5-4.99,5.33,6.89,9.5,12.67,1.8,2.49,6.3-6.39,7.8-8.58,0,0-4.6-4.89-11.1-7.18-6.5-2.29-17.6-7.98-19.5-9.98l-.31,2.8h0Z"/>
  <path class="cls-1" d="M69.21,70.95s-4.3-3.49-5.1-18.76c0,0,9.5,12.47,12.3,12.57l-2.7.8s4.6,4.49,13.3,7.18c8.7,2.69,12.7,4.49,14.7,5.79,0,0,1.3-6.98.4-11.77-.9-4.79-4.86-15.11-10-20.45-2.4-2.49-2.8,1.6-2.9,3.49-.1,1.9-.3,6.39-.3,6.39,0,0,1.8-.1,3.2.1,1.4.2,5.1,2.89,4.9,6.09-.2,3.19-2.52,7.6-6.8,6.58-4.2-1-8.5-5.51-9.2-13.07-.9-9.78.38-17.98,2.4-24.14,1.8-5.49,3.9-3.09,5.8-1.4,1.9,1.7,9.5,8.48,12.2,11.67,0,0-4.7-8.18-4.4-16.66,0,0-2.5-4.09-2.5-9.58s2.9-9.28,5.9-11.17c0,0-.5,7.28,2,8.48,0,0,4.6-3.09,8.4-2.89,0,0,2.3-2,2.3-4.69s-1-4.49-1-4.49c0,0,9.9,1.4,9.9,11.47,0,0,9.2,6.58,9.8,17.06,0,0,7.3,0,7.3,10.88,0,6.19-2.3,7.78-2.3,9.38s3.3-1.2,3.3,14.97v7.78s9.7-1.8,9.7,6.19,1.2,9.98,1.7,11.08c0,0,.53-4.58,1.4-7.78,2.8-10.38,8-10.78,7.6-16.46,0,0,5.4,2.1,5.4,12.57s-3.9,11.97-4.9,15.67c-1,3.69-3.1,10.78-6.4,10.78s-13.3-6.68-14.8-18.46c0,0-2.3,15.17-2.3,19.86s-4.5,5.79-6.7,5.79-8.3-3.39-8.3-7.88,4.7-5.49,6-6.19c1.3-.7,2.4-2.89,2.4-8.78,0,0-12.4,3.19-21.7,9.38-9.3,6.19-12.68,9.02-18.7,9.68-5.5.6-6.8-8.68-7.1-12.37-.3-3.69-2.25-1.46-3.6,0-3.5,3.79-10.3,6.59-10,9.28,0,0-2.22-3-2-5.69.5-6.09,6.82-13.16,15-17.96,8.5-4.99,5.33,6.89,9.5,12.67,1.8,2.49,6.3-6.39,7.8-8.58,0,0-4.6-4.89-11.1-7.18-6.5-2.29-17.6-7.98-19.5-9.98l-.31,2.8h0Z"/>
  <path class="cls-4" d="M110.3,41.22c-4.7-1.8-5.8-6.68-5.8-11.17,0-4.81,3-9.78,8.8-9.78,3.5,0,4.6,1.8,6.2,3.19,0,0-.8-1.3-.8-3.29s1.4-2.79,2.6-2.79,8.9,1.7,8.9,14.87c0,0,0-.2,1.9-.2s4.8,1.4,4.8,7.78c0,8.18-5.3,16.06-10.5,19.66,0,0-2.9,5.49-6,5.49,0,0,1.1-.9,1.1-4.29,0,0-.1-.2-4.7-.2s-12.2-5.59-12.2-12.47c0-6.88,5.7-6.78,5.7-6.78h0Z"/>
  <path class="cls-1" d="M110.3,41.22c-4.7-1.8-5.8-6.68-5.8-11.17,0-4.81,3-9.78,8.8-9.78,3.5,0,4.6,1.8,6.2,3.19,0,0-.8-1.3-.8-3.29s1.4-2.79,2.6-2.79,8.9,1.7,8.9,14.87c0,0,0-.2,1.9-.2s4.8,1.4,4.8,7.78c0,8.18-5.3,16.06-10.5,19.66,0,0-2.9,5.49-6,5.49,0,0,1.1-.9,1.1-4.29,0,0-.1-.2-4.7-.2s-12.2-5.59-12.2-12.47c0-6.88,5.7-6.78,5.7-6.78h0Z"/>
  <path class="cls-2" d="M118.42,37.24c1.26-.98,1.07-3.93-.43-6.58-1.5-2.65-3.74-4.01-5-3.03-1.26.98-1.07,3.93.43,6.58,1.5,2.65,3.74,4.01,5,3.02Z"/>
  <path class="cls-3" d="M117.32,32.44c.39.22,1.03.73,1.34,1.28.62,1.1.68,2.34.13,2.77-.55.43-1.5-.12-2.12-1.22-.34-.6-.49-1.52-.48-2.04l1.16.71-.04-1.5h0Z"/>
  <path class="cls-2" d="M127.25,33.99c1.57-.34,2.44-3.08,1.94-6.11-.5-3.03-2.18-5.21-3.75-4.87-1.57.34-2.44,3.08-1.94,6.11.5,3.03,2.18,5.21,3.75,4.86Z"/>
  <path class="cls-3" d="M126.75,29.63c.29.36.74,1.1.84,1.73.21,1.26-.18,2.4-.86,2.55-.68.15-1.41-.75-1.61-2.01-.11-.69.07-1.57.27-2.05l.87,1.14.5-1.36ZM130.4,17.37c-4.6,0-4,11.27-6.85,11.27-1.5,0-2.3-.8-2.3-3.49,0,0,.25.7,1.05.7,1.5,0,.45-9.98,5.65-9.98,1.85,0,2.45,1.5,2.45,1.5h0Z"/>
  <path class="cls-1" d="M130.4,17.37c-4.6,0-4,11.27-6.85,11.27-1.5,0-2.3-.8-2.3-3.49,0,0,.25.7,1.05.7,1.5,0,.45-9.98,5.65-9.98,1.85,0,2.45,1.5,2.45,1.5h0Z"/>
  <path class="cls-3" d="M106.5,25.41c1-1.35,1.8-2.15,3.65-2.15s5.35,3.29,7.05,5.19c1.7,1.9,2.05-.7,1.85-1.35,0,0,2,2.98,1,4.44-1.17,1.72-3.15.55-4.45-.65-1.3-1.2-3.9-5.94-7.1-5.94-.85,0-1.67.18-1.93.45h-.07,0Z"/>
  <path class="cls-1" d="M106.5,25.41c1-1.35,1.8-2.15,3.65-2.15s5.35,3.29,7.05,5.19c1.7,1.9,2.05-.7,1.85-1.35,0,0,2,2.98,1,4.44-1.17,1.72-3.15.55-4.45-.65-1.3-1.2-3.9-5.94-7.1-5.94-.85,0-1.67.18-1.93.45"/>
  <path class="cls-3" d="M123,36.81c-.57.1-2.17.67-2.17,2.47s2.47,2.67,2.47,2.67c0,0-.97.1-1.9.1s-3.23-.2-3.77-.55c0,0,1.7,2.92,6.45,2.92,1.4,0,2.32-.92,2.32-1.6s.05-1.15.05-1.4.42-.37.42.03.7,1.4,1.52,1.4c1.93,0,4.4-2.2,4.4-7.16,0,0-.97,3.54-2.65,3.54,0,0,.43-.65.43-2.49s-2.1-1.92-3.38-1.92-1.37.02-1.7.02-.63.4.07.4c.41,0,1.15.08,1.9.27.71.19,1.82.37,1.82,1.52,0,0,.3,2.67-4.72,2.67-.8,0-2.18.17-2.18-.85,0-.75.45-1,.8-1.22.35-.22.8-1-.2-.82h0Z"/>
  <path class="cls-3" d="M118.82,38.45c1.45,0,1.7-2.57,3.55-2.57-1.22,0-.67,2.57-3.55,2.57Z"/>
  <path class="cls-3" d="M113.8,43.22c-1.13,0-6.32-.52-5,5.59,0,0-1.3-1.65-1.3-3.49,0-4.52,6.26-2.1,6.3-2.1h0Z"/>
  <path class="cls-1" d="M113.8,43.22c-1.13,0-6.32-.52-5,5.59,0,0-1.3-1.65-1.3-3.49,0-4.52,6.26-2.1,6.3-2.1h0Z"/>
  <path class="cls-3" d="M122.7,46.21c-5,0-8.4-1-9.7-1.5-1.3-.5-4.9-1.1-1.7,3.29s6.6,7.58,10.4,7.58c6.2,0,11.35-8.58,11.5-13.17.04-1.11,1.1.05,1.5.95,0,0,.45-2.29-.45-3.79-.6-1-.75-1.45-1.65.55-.9,1.99-4.75,6.09-9.9,6.09Z"/>
  <path class="cls-2" d="M123.2,47.91c-4,0-8.75-1.1-9.35-1.4-.6-.3-2.45-.8-.55,1.6,1.9,2.39,3.8,5.89,9.25,5.89,4.92,0,7.86-7.05,8.05-7.83.31-1.26.15-1.35-.75-.65-.9.7-4.25,2.39-6.65,2.39h0Z"/>
  <path class="cls-1" d="M116.8,47.06v5.54M122.85,47.41v6.74M128.1,45.56v5.54"/>
  <path class="cls-3" d="M129.07,54.19c-.69.81-3.57,3.32-6.82,3.32-1.42,0-1.37-.05-2.65-.45-.57-.18-1.27.65.05,1.27,0,0,1.12.67,2.87.67s5.84-2,7.25-4.42c.53-.9-.27-.9-.7-.4h0Z"/>
  <path class="cls-1" d="M129.07,54.19c-.69.81-3.57,3.32-6.82,3.32-1.42,0-1.37-.05-2.65-.45-.57-.18-1.27.65.05,1.27,0,0,1.12.67,2.87.67s5.84-2,7.25-4.42c.53-.9-.27-.9-.7-.4h0Z"/>
  <path class="cls-3" d="M121.3,65.14s2.22-1.72,2.22-4.94l-2.22,4.94Z"/>
  <path class="cls-1" d="M121.3,65.14s2.22-1.72,2.22-4.94"/>
  <path class="cls-3" d="M124.9,59.78c0,2.35-1.75,4.17-1.75,4.17l1.75-4.17Z"/>
  <path class="cls-1" d="M124.9,59.78c0,2.35-1.75,4.17-1.75,4.17"/>
  <path class="cls-4" d="M81.22,50.73c-2.07-2.14-3.95-4.17-4.41-4.62-2.25-2.25-3.85-.55-1.8,1.5.36.36,2.88,3.01,6.21,6.58v-3.46Z"/>
  <path class="cls-1" d="M81.22,50.73c-2.07-2.14-3.95-4.17-4.41-4.62-2.25-2.25-3.85-.55-1.8,1.5.36.36,2.88,3.01,6.21,6.58"/>
  <path class="cls-4" d="M131.93,109.04c4.04,4.38,6.57,7.11,6.57,7.11l-7.5,6.59c9.2,7.78,16.4,21.15,16.4,21.15-.8-8.38-10-21.05-10-21.05l4-3.59,14.7,15.46-2.1,1.2s7.6,2.69,9.1,3.79c0,0-3-5.99-3.7-9.18l-1,2.19-13.8-16.06,4.4-4.39s10.8,10.48,19.5,13.17c0,0-16.35-15.02-20.2-18.86l-6.7,6.78s-2.6-2.67-6.95-7.18c0,0-.9-.05-1.7.75-1.5,1.5-1.02,2.12-1.02,2.12h0Z"/>
  <path class="cls-1" d="M131.93,109.04c4.04,4.38,6.57,7.11,6.57,7.11l-7.5,6.59c9.2,7.78,16.4,21.15,16.4,21.15-.8-8.38-10-21.05-10-21.05l4-3.59,14.7,15.46-2.1,1.2s7.6,2.69,9.1,3.79c0,0-3-5.99-3.7-9.18l-1,2.19-13.8-16.06,4.4-4.39s10.8,10.48,19.5,13.17c0,0-16.35-15.02-20.2-18.86l-6.7,6.78s-2.6-2.67-6.95-7.18c0,0-.9-.05-1.7.75-1.5,1.5-1.02,2.12-1.02,2.12h0Z"/>
  <path class="cls-4" d="M127.25,98.44c-11.14-11.57-22.27-23.14-33.41-34.7,0,0-.88.15-1.35.6-.77.75-.6,1.4-.6,1.4,10.85,11.71,21.69,23.42,32.52,35.14l2.85-2.44h0Z"/>
  <path class="cls-1" d="M127.25,98.44c-11.14-11.57-22.27-23.14-33.41-34.7,0,0-.88.15-1.35.6-.77.75-.6,1.4-.6,1.4,10.85,11.71,21.69,23.42,32.52,35.14"/>
  <path class="cls-3" d="M122.5,103.88c0-4.49,4.7-5.49,6-6.19l-6,6.19Z"/>
  <path class="cls-2" d="M127.67,74.65s-.7-1.6,2.8-5.09l.2,4.09s-1.7.6-3,1h0Z"/>
  <path class="cls-3" d="M81.24,48.07s-.43,4.52.24,7.18c.59,2.37,1.76-4.92,1.76-4.92l-2-2.26Z"/>
  <path class="cls-1" d="M81.24,48.07s-.43,4.52.24,7.18c.59,2.37,1.76-4.92,1.76-4.92l-2-2.26Z"/>
  <path class="cls-3" d="M159.75,103.52c0-1.21.98-2.11,2.15-2.11s2.14.89,2.14,2.11-.99,2.12-2.14,2.12-2.15-.89-2.15-2.12ZM161.9,105.29c.96,0,1.71-.75,1.71-1.77s-.76-1.75-1.71-1.75-1.72.75-1.72,1.75.76,1.77,1.72,1.77ZM161.45,104.74h-.37v-2.44h.93c.58,0,.86.21.86.69,0,.43-.27.63-.63.67l.7,1.07h-.41l-.64-1.06h-.43v1.06h0ZM161.89,103.37c.31,0,.59-.02.59-.4,0-.3-.27-.36-.53-.36h-.5v.75h.44s0,0,0,0Z"/>
</svg>