<?xml version="1.0" encoding="UTF-8"?>
<svg id="Army" xmlns="http://www.w3.org/2000/svg" viewBox="0 0 232.6 144.9">
  <defs>
    <style>
      .cls-1 {
        fill: #66573f;
        opacity: 1;
      }

      .cls-1, .cls-2, .cls-3, .cls-4, .cls-5, .cls-6 {
        fill-rule: evenodd;
        stroke-width: 0px;
      }

      .cls-1, .cls-4 {
        isolation: isolate;
      }

      .cls-2 {
        fill: #e0ba78;
      }

      .cls-3 {
        fill: #2a2524;
      }

      .cls-4 {
        fill: #292524;
        opacity: 1;
      }

      .cls-5 {
        fill: #2a2624;
      }

      .cls-6 {
        fill: #dfb978;
      }
    </style>
  </defs>
  <path class="cls-4" d="M59.9,1.73c.51-.01,1.01,0,1.52.03.3.05.58.12.86.23.1-.06.19-.14.26-.23,1.67-.04,3.34-.04,5.02,0l3.37,3.37c35.29.03,70.58.04,105.87.03-.02,18.59,0,37.17.07,55.74-.07,14.6-3.42,28.41-10.03,41.45.78.78,1.56,1.56,2.34,2.34.04,3.63.04,7.26,0,10.89-3.59.05-7.19.09-10.79.1-8.56,11.14-19.32,19.41-32.28,24.82-2.64,1.06-5.33,1.95-8.09,2.67-7.43-1.99-14.35-5.09-20.76-9.27-10.87-7.22-19.55-16.47-26.04-27.75-.68-1.2-1.34-2.41-1.98-3.63-3.65-1.94-7.05-4.23-10.2-6.9,1.72-1.7,3.41-3.41,5.08-5.15-3.15-9.19-4.78-18.61-4.88-28.25-.05-15.1-.09-30.2-.1-45.31-1.1-1.1-2.2-2.2-3.3-3.3-.04-.07-.08-.15-.1-.23,0-1.57,0-3.15,0-4.72.11-.13.22-.26.33-.4-.72-2.69.12-4.72,2.51-6.11.44-.18.88-.32,1.32-.43Z"/>
  <path class="cls-2" d="M63.53,3.78c1.03.07,2.05.07,3.07,0,.46.45.91.91,1.35,1.39-.56.59-1.13,1.18-1.72,1.75,4.23,4.21,8.43,8.43,12.61,12.67.07.04.13.04.2,0,2.83-2.53,5.89-4.74,9.17-6.63.77.73,1.52,1.47,2.24,2.24-8.68,5.01-15.57,11.83-20.69,20.46l-2.28-2.28c1.78-2.97,3.81-5.75,6.11-8.35.04-.04.04-.09,0-.13-4.22-4.2-8.41-8.41-12.57-12.64-.04-.04-.09-.04-.13,0-.52.6-1.08,1.17-1.68,1.68-.46-.39-.9-.81-1.32-1.25-.04-1.08-.04-2.16,0-3.23.24-.3.49-.58.76-.86-.91-1.12-1.01-2.3-.3-3.56.99-1.21,2.21-1.51,3.66-.89.23.14.44.31.63.5.29-.3.59-.59.89-.86Z"/>
  <path class="cls-2" d="M69.54,7.21c35.05,0,70.1,0,105.14.03.07,18.4.09,36.79.07,55.18-.3,13.47-3.45,26.26-9.47,38.38-.82-.8-1.62-1.62-2.41-2.44,5.72-11.91,8.6-24.47,8.65-37.65V10.54c-32.94-.02-65.87-.04-98.81-.07-1.09-1.06-2.15-2.15-3.17-3.27Z"/>
  <path class="cls-2" d="M61.29,15.52c1.08,1.04,2.14,2.1,3.2,3.17.01,14.49.04,28.98.1,43.46.09,8.15,1.34,16.17,3.76,24.06-.81.91-1.66,1.79-2.54,2.64-2.75-8.37-4.26-16.91-4.52-25.64V15.52Z"/>
  <path class="cls-2" d="M117.32,17.31c13.41.05,24.84,4.85,34.29,14.39,9.09,9.77,13.43,21.36,13,34.78-.43,8.45-2.94,16.22-7.52,23.3-4.1-4.07-8.16-8.16-12.18-12.28,3.32-7.03,3.94-14.27,1.88-21.71-2.42-7.79-7.14-13.74-14.16-17.85-7.3-3.95-14.96-4.83-22.97-2.64-1.64.47-3.23,1.09-4.75,1.85-.07.04-.13.04-.2,0-4.06-4.05-8.11-8.11-12.14-12.18,7.52-4.89,15.77-7.44,24.75-7.66Z"/>
  <path class="cls-2" d="M92.7,17.57c.56.46,1.08.95,1.58,1.49-2.21,1.23-4.35,2.57-6.4,4.03-.56.39-1.09.82-1.58,1.29,5.52,5.62,11.09,11.22,16.7,16.8-1.33,1.33-2.66,2.66-3.99,3.99-5.63-5.69-11.27-11.36-16.93-17.03-3.31,3.3-6.1,7-8.35,11.09-.05.12-.12.17-.23.17-.48-.48-.97-.97-1.45-1.45,4.98-8.73,11.86-15.52,20.66-20.36Z"/>
  <path class="cls-3" d="M116.93,24.37c.69,0,1.39,0,2.08,0,.58.05,1.14.1,1.68.13-.21,2.53-.45,5.06-.73,7.59-1.27-.06-2.56-.08-3.86-.07-.24-2.5-.49-5-.76-7.49.53-.07,1.06-.13,1.58-.17Z"/>
  <path class="cls-5" d="M112.77,24.7c.11,0,.18.03.23.13.25,2.51.48,5.01.69,7.52-1.27.13-2.51.37-3.73.73-.75-2.4-1.49-4.81-2.21-7.23,0-.05.03-.09.07-.13,1.64-.42,3.29-.76,4.95-1.02Z"/>
  <path class="cls-5" d="M123.13,24.7c1.76.25,3.5.62,5.21,1.12-.73,2.37-1.45,4.75-2.15,7.13-.03.06-.07.11-.13.13-1.21-.32-2.43-.57-3.66-.76.19-2.54.43-5.08.73-7.62Z"/>
  <path class="cls-5" d="M105.38,26.42c.81,2.44,1.56,4.9,2.24,7.39-.83.24-1.63.55-2.41.92-1.91-1.91-3.81-3.81-5.71-5.71,1.89-1.03,3.85-1.9,5.87-2.61Z"/>
  <path class="cls-5" d="M130.66,26.48c1.69.55,3.32,1.24,4.88,2.08-1.16,2.25-2.35,4.48-3.56,6.7-1.12-.53-2.26-1-3.43-1.42-.04-.05-.06-.1-.07-.17.72-2.4,1.44-4.8,2.18-7.19Z"/>
  <path class="cls-3" d="M137.65,29.65c1.58.88,3.07,1.88,4.49,3-1.62,1.95-3.21,3.92-4.79,5.91-1.04-.77-2.11-1.49-3.2-2.18,1.17-2.25,2.33-4.49,3.5-6.73Z"/>
  <path class="cls-6" d="M82.08,34.01c4.69,4.64,9.35,9.3,13.96,13.99.04.07.04.13,0,.2l-.89.89s-.09.04-.13,0c-4.28-4.34-8.58-8.66-12.9-12.97-.03-.7-.04-1.41-.03-2.11Z"/>
  <path class="cls-3" d="M143.92,34.2c.07,0,.14,0,.2.03,1.28,1.17,2.49,2.4,3.63,3.7-1.93,1.63-3.86,3.25-5.81,4.85-.88-.92-1.78-1.83-2.71-2.71,1.55-1.97,3.11-3.93,4.69-5.87Z"/>
  <path class="cls-2" d="M92.64,99.41c-.21-.02-.41,0-.59.07h-1.78c-.16-.06-.34-.09-.53-.07-8.63-.34-16.36-3.12-23.17-8.35,7.15-7.2,14.3-14.39,21.45-21.58,3.36-.01,6.72-.04,10.07-.1,3.96-.17,6.99-1.93,9.11-5.28.33-.63.6-1.28.83-1.95-5.7-.04-11.4-.04-17.09,0-3.38,3.37-6.75,6.75-10.1,10.13-1.95.08-3.91.09-5.87.03,10.34-10.38,20.68-20.77,31.02-31.15,5.72-2.94,11.7-3.71,17.95-2.31,7.42,1.9,13.01,6.15,16.8,12.77,3.75,7.21,4.21,14.62,1.39,22.24-2.41,5.88-6.4,10.35-11.98,13.4,3.02,3.02,6.02,6.06,8.98,9.11-6.21,1.44-11.87.24-16.96-3.6-.73-.62-1.45-1.27-2.15-1.95-.55-.64-1.1-1.28-1.65-1.91-7.3,6.52-15.87,10.02-25.71,10.49Z"/>
  <path class="cls-3" d="M149.2,39.81c.12.02.22.09.3.2,1.01,1.35,1.94,2.74,2.81,4.19-2.22,1.22-4.44,2.44-6.67,3.66-.67-1.09-1.4-2.15-2.18-3.17,1.92-1.63,3.83-3.26,5.74-4.88Z"/>
  <path class="cls-5" d="M153.29,46.35c.08-.01.14,0,.2.07.8,1.57,1.46,3.2,1.98,4.88-2.42.73-4.84,1.48-7.26,2.24-.42-1.22-.89-2.4-1.42-3.56,2.18-1.2,4.34-2.41,6.5-3.63Z"/>
  <path class="cls-3" d="M156.13,53.54c.1.06.15.14.17.26.45,1.65.77,3.32.96,5.02-2.43.24-4.86.51-7.29.79-.11-.01-.2-.06-.26-.13-.17-1.22-.42-2.42-.76-3.6,2.41-.77,4.81-1.55,7.19-2.34Z"/>
  <path class="cls-3" d="M157.06,61.2c.19-.03.36.01.5.13.12,1.72.12,3.46,0,5.21-2.51-.24-5.03-.46-7.56-.66.08-1.28.08-2.58,0-3.89,2.37-.23,4.72-.49,7.06-.79Z"/>
  <path class="cls-3" d="M149.8,68.26c2.53.22,5.06.44,7.59.66-.21,1.75-.54,3.48-.99,5.18-2.42-.65-4.84-1.32-7.26-2.01.26-1.27.48-2.54.66-3.83Z"/>
  <path class="cls-3" d="M148.41,74.4c2.46.65,4.9,1.35,7.33,2.11-.71,2.17-1.6,4.26-2.67,6.27-1.87-1.87-3.74-3.74-5.61-5.61-.04-.09-.04-.18,0-.26.35-.83.67-1.66.96-2.51Z"/>
  <path class="cls-2" d="M142.73,81.2c8.14,8.08,16.24,16.2,24.32,24.35.03,2.66.04,5.32.03,7.99-2.64.01-5.28,0-7.92-.03-7.17-7.15-14.31-14.31-21.42-21.48-.04-.7-.04-1.41,0-2.11,7.34,7.36,14.67,14.72,22.01,22.08,1.94.04,3.87.04,5.81,0-8.76-8.81-17.53-17.62-26.3-26.43-.04-.04-.04-.09,0-.13,1.29-1.3,2.45-2.71,3.47-4.22Z"/>
  <path class="cls-2" d="M92.9,105.55c-.21-.02-.41,0-.59.07-.73,0-1.48,0-2.24,0-.16-.06-.34-.09-.53-.07-10.2-.43-19.28-3.77-27.26-10.03-.07-.03-.08-.08-.03-.13.46-.47.94-.94,1.42-1.39,10.63,8.07,22.55,10.98,35.77,8.75,6.82-1.34,12.99-4.08,18.51-8.22,5.87,5.32,12.72,7.37,20.56,6.17,1.34-.27,2.66-.6,3.96-.99.51.51,1.01,1.01,1.52,1.52-2.26.96-4.61,1.55-7.06,1.78-7.14.61-13.52-1.33-19.14-5.84-7.46,5.2-15.76,7.99-24.88,8.38Z"/>
  <path class="cls-1" d="M89.73,99.41c.19-.02.37,0,.53.07-.18.05-.36.03-.53-.07Z"/>
  <path class="cls-1" d="M92.04,99.48c.18-.06.38-.09.59-.07-.19.1-.39.12-.59.07Z"/>
  <path class="cls-2" d="M117.98,101.33c1.12,3.35,2.22,6.72,3.3,10.1,3.54.05,7.08.09,10.63.1-2.88,2.06-5.74,4.15-8.58,6.27,1.08,3.32,2.15,6.64,3.23,9.97-.02.03-.04.07-.07.1-2.84-2.06-5.66-4.12-8.48-6.2-2.87,2.07-5.73,4.16-8.58,6.27,1.05-3.35,2.12-6.71,3.2-10.07-.05-.14-.14-.25-.26-.33-2.75-2-5.5-4-8.25-6.01,3.52-.02,7.04-.04,10.56-.07,1.12-3.37,2.22-6.75,3.3-10.13Z"/>
  <path class="cls-2" d="M72.44,103.97c1.57.61,3.15,1.18,4.75,1.72,6.91,11.19,16.08,20,27.52,26.43,4.23,2.31,8.67,4.15,13.3,5.51,8.9-2.68,16.92-6.94,24.06-12.77,4.65-3.87,8.82-8.19,12.51-12.97.77.76,1.53,1.53,2.28,2.31-8.78,11.54-19.96,19.92-33.53,25.11-1.76.65-3.54,1.21-5.35,1.68-9.72-2.77-18.45-7.33-26.2-13.7-7.92-6.59-14.37-14.37-19.34-23.33Z"/>
  <path class="cls-1" d="M89.54,105.55c.19-.02.37,0,.53.07-.18.05-.36.03-.53-.07Z"/>
  <path class="cls-1" d="M92.31,105.62c.18-.06.38-.09.59-.07-.19.1-.39.12-.59.07Z"/>
</svg>