<?xml version="1.0" encoding="UTF-8"?>
<svg id="BC" xmlns="http://www.w3.org/2000/svg" viewBox="0 0 232.6 144.9">
  <defs>
    <style>
      .cls-1, .cls-2, .cls-3, .cls-4 {
        fill-rule: evenodd;
        stroke-width: 0px;
      }

      .cls-2 {
        fill: #c6b67f;
      }

      .cls-3 {
        fill: #fff;
      }

      .cls-4 {
        fill: #7b002b;
      }
    </style>
  </defs>
  <path class="cls-1" d="M158.05,16.21c0-1.85-.43-3.27-1.28-4.69-1.7-2.56-4.97-4.26-9.94-5.26l-22.3-1.14h-42.18l-40.33,81.52,51.7-.14-26.27,53.26h50.7c13.07,0,22.3-1.28,27.41-3.55,2.98-1.42,5.4-3.27,7.53-5.82,1.99-2.27,3.98-5.4,5.97-9.52l9.09-18.32h-26.84l-1.7,3.27-1.42-.71c-.57-2.27-2.27-5.4-4.83-9.52,2.7.99,5.11,1.99,7.39,3.27.57,1.14,1.42,2.13,2.41,2.7l.14.14v-.14l1.28-2.84c.28.28.43.85.43,1.56l-.28,1.85v.14l.28-.14c2.27-.85,3.55-1.99,3.83-3.27l.14-.28c.29-1.28-.28-2.7-1.56-4.12.43-.99-.28-2.41-2.13-4.4-1.02-1.18-2.22-2.18-3.55-2.98,2.98-1.56,5.82-4.83,8.52-9.8h3.41l-5.26,10.65h26.98l15.2-30.82h-24.57c3.69-2.13,6.11-5.11,7.53-8.81-2.13,2.27-4.26,3.69-6.25,4.12,2.84-2.84,4.55-6.39,5.11-11.22-2.84,3.83-4.97,5.96-6.11,6.39,5.68-7.24,7.1-14.34,3.98-21.16-.28,7.67-3.98,14.34-11.36,19.88-2.27,1.85-5.4,3.69-9.09,5.68l-7.38,3.98-3.55,2.56.71-1.28c1.28-2.84,1.99-5.25,1.99-7.53,0-1.56-.28-3.12-1.14-4.4l-.57-.99c5.11-2.13,8.95-5.68,11.22-10.37l3.83-7.81c1.99-3.98,3.12-7.39,3.12-9.94h0ZM127.09,105.97l1.56,1.28c-.99.43-1.42,1.28-1.42,2.27l.28,1.56.14.28v-.28c.14-.57.57-1.14,1.42-1.56l2.41-.28c.85.28,1.42.71,1.71,1.56.14.99-.28,2.13-1.28,3.27l-.28.43.42-.14c1.56-.71,2.56-1.42,2.98-2.56l.14-.99-.14-.57c.71.14,1.28.43,1.56,1.14l.14.28-2.27,4.4c-.99,2.13-2.7,3.27-4.97,3.27h-24.99l4.83-9.94c3.83.43,6.82.14,8.95-.85l3.12-4.4c1.28.71,2.41,1.14,3.83,1.56l1.85.28h0ZM86.62,66.63h-7.67l2.56-5.26,5.11,5.26ZM114.31,53.7l-1.56,3.27-4.12-3.27h5.68ZM125.53,31.12c-.71,1.42-2.41,2.13-5.26,2.13h-24.85l3.98-8.1h29.12l-2.98,5.97Z"/>
  <path class="cls-2" d="M144.28,107.53c1.14.71,1.7,1.56,1.85,2.84l-.43,1.85v.43l-.14-.43c-.14-.99-.71-1.7-1.56-2.27v.43c.14,1.14-.57,2.13-2.13,2.56l-.43.14-2.41,5.25c-2.13,3.98-5.26,6.11-9.52,6.11h-33.09l7.95-16.19c-4.12-1.42-6.96-3.55-8.38-6.53,7.81-1.85,13.63-4.83,17.47-8.95-4.4-.85-8.52-2.98-12.64-6.53l-1.42.14-23.86,48.43h42.61c12.36,0,20.88-1.14,25.42-3.27,2.56-1.14,4.55-2.7,6.25-4.97,1.56-1.7,3.12-4.4,4.83-7.81l5.54-11.22h-15.91Z"/>
  <path class="cls-3" d="M161.75,72.31h-8.81l-.99,1.85h6.82l-5.26,10.65h19.88l12.21-24.57h-19.74l-2.7,1.85h19.46l-10.37,20.88h-15.76l5.26-10.65h0ZM154.93,16.21c0-.99-.29-2.13-.85-2.98-1.14-1.99-4.26-3.41-9.09-4.12l-20.45-.85h-40.19l-37.35,75.27,50.84-.14-1.56-1.85-46.16.14L85.48,10.1h39.06l19.46.85c4.69.57,7.53,1.56,8.52,3.27.28.57.57,1.28.57,1.99,0,1.7-.85,4.26-2.56,7.81l-3.83,7.67c-1.7,3.12-4.12,5.68-7.53,7.39-3.41,1.85-7.81,3.12-13.49,4.12,9.66,1.14,12.78,5.11,9.37,11.79l-7.95,15.91,1.14,1.85.71-1.14,7.81-15.76c1.14-2.41,1.7-4.4,1.7-6.11,0-1.14-.14-2.13-.71-2.98-.85-1.42-2.41-2.7-4.83-3.41,7.53-1.56,12.64-5.11,15.34-10.79l3.83-7.67c1.84-3.83,2.84-6.67,2.84-8.66h0Z"/>
  <path class="cls-2" d="M153.08,16.21c0-.71-.28-1.42-.57-1.99-.99-1.7-3.83-2.7-8.52-3.27l-19.46-.85h-39.06l-35.36,71.58,46.16-.14c-2.41-3.12-4.26-6.39-5.4-9.94h-20.03l7.53-15.05c-1.28-2.13-1.99-4.26-2.41-6.25,1.85,1.85,4.12,3.27,7.1,4.12l.43-.71c-5.68-4.4-7.81-10.23-6.39-17.61,1.28,5.68,4.12,9.66,8.38,11.79-5.54-7.1-6.39-15.34-2.7-24.85-.57,8.24,1.99,15.48,7.53,21.59-5.11-11.36-4.4-20.45,2.27-27.27-1.14,3.55-1.42,7.53-.85,12.07l4.55-9.23h32.1c2.84,0,4.55.57,5.26,1.85l.57,1.56c0,.85-.28,1.85-.85,2.98l-3.27,6.68c-1.7,3.41-4.97,4.97-9.8,4.97h-25.71l2.84,4.4c1.42,1.99,3.41,3.98,5.54,6.11h12.21c2.13,0,3.69.57,4.26,1.56.85,1.28.43,3.55-1.14,6.82l-1.56,2.98c4.69,3.98,8.24,7.53,10.37,10.79l7.95-15.91c3.41-6.67.28-10.65-9.37-11.79,5.68-.99,10.08-2.27,13.49-4.12,3.41-1.7,5.82-4.26,7.53-7.39l3.83-7.67c1.71-3.55,2.56-6.11,2.56-7.81h0Z"/>
  <path class="cls-3" d="M116.73,60.09l1.56-2.98c1.56-3.27,1.99-5.54,1.14-6.82-.57-.99-2.13-1.56-4.26-1.56h-12.21l1.99,1.85h10.23c1.42,0,2.41.28,2.7.71l.14.85c0,.85-.43,2.27-1.42,4.12l-1.28,2.7,1.42,1.14ZM90.88,71.6l-.57-1.85h-16.47l5.68-11.22-1.14-1.99-7.53,15.05h20.03ZM128.37,32.54c-1.28,2.56-3.98,3.83-8.1,3.83h-26.56l.85,1.85h25.71c4.83,0,8.1-1.56,9.8-4.97l3.27-6.68c.57-1.14.85-2.13.85-2.98l-.57-1.56c-.71-1.28-2.41-1.85-5.26-1.85h-32.1l-4.55,9.23.57,2.98,5.11-10.37h30.96c2.13,0,3.41.28,3.83.85v.71l-.57,2.13-3.27,6.82ZM142.15,111.79c.14-.43,0-.85-.14-1.28l-.85-.85-3.83,7.81c-1.56,3.27-4.26,4.97-7.81,4.97h-30.11l6.82-13.63-1.85-.57-7.95,16.19h33.09c4.26,0,7.38-2.13,9.52-6.11l3.12-6.53h0Z"/>
  <path class="cls-3" d="M143.14,105.68l-.57,1.14,1.71.71h15.91l-5.54,11.22c-1.7,3.41-3.27,6.11-4.83,7.81-1.7,2.27-3.69,3.83-6.25,4.97-4.55,2.13-13.07,3.27-25.42,3.27h-42.61l23.86-48.43h-2.13l-24.71,50.28h45.59c12.78,0,21.59-1.14,26.42-3.41,2.56-1.28,4.69-2.98,6.53-5.25,1.7-1.99,3.41-4.83,5.11-8.52l6.96-13.78h-20.02Z"/>
  <path class="cls-2" d="M152.94,72.31h8.81l-5.26,10.65h15.76l10.37-20.88h-19.46l-5.26,3.98c-1.85,1.56-3.41,3.55-4.69,5.96l-.28.28Z"/>
  <path class="cls-4" d="M107.92,65.06c-9.09-5.68-15.91-12.07-20.31-19.32,2.7,9.09,8.38,17.33,17.04,24.71-4.4-1.99-9.94-5.4-16.62-10.51,5.26,7.81,10.65,13.35,16.33,16.76-2.56-.57-5.11-1.56-7.81-2.98,1.7,4.12,4.97,7.39,9.52,10.08,5.11,3.12,9.23,2.98,12.21-.43,2.13-2.56,2.13-5.54,0-8.95-1.99-3.27-5.54-6.39-10.37-9.37h0ZM151.95,62.93c5.82-3.27,10.23-7.1,13.07-11.36-1.42,1.28-5.11,3.55-10.94,6.96-4.69,2.84-7.81,5.4-9.51,7.95-1.28,1.7-2.13,3.98-2.84,6.53,1.7-1.28,3.27-1.99,4.69-2.27-.71,4.4-2.27,8.1-4.69,11.22,1.99-.85,3.69-2.13,4.83-3.98l3.12-5.54c2.7-5.4,6.96-9.37,12.5-11.93-2.7,0-6.11.85-10.23,2.41h0Z"/>
  <path class="cls-3" d="M107.35,99.86c-2.84,1.85-5.54,2.84-8.1,3.12,4.97,4.69,11.08,6.11,18.04,3.98-5.11-.85-8.52-3.27-9.94-7.1Z"/>
  <path class="cls-2" d="M140.44,106.96l-3.12-.99-.85.43,2.41.99-1.14,1.28c.85-.43,1.71-.57,2.84-.28.85.14,1.85.71,2.41,1.7l-.71-1.7c.85.14,1.7.43,2.56.99-.14-.99-1.7-1.7-4.4-2.41h0ZM129.79,105.54h-1.42l2.13,1.42c-.43.28-.85.57-1.56,1.28l2.98-.28c1.28.57,1.99,1.42,2.27,2.84.14-.99.14-1.7-.28-2.27.85.14,1.85.57,3.12,1.56-.57-1.14-2.13-2.27-4.83-3.41l-2.41-1.14Z"/>
  <path class="cls-4" d="M134.34,100.14l-4.69-.28c1.14,1.14,2.56,2.13,4.55,2.84h-2.84c.85.71,1.99,1.28,3.27,1.56l1.99.14c-.43-1.42-1.14-2.84-2.27-4.26h0Z"/>
  <path class="cls-4" d="M166.15,43.76c-1.56,2.27-4.4,4.4-8.24,6.53l-10.79,5.82c-9.23,5.54-15.06,12.92-17.33,22.16,1.7.71,3.27,1.85,4.55,3.27l-5.26-1.42h-.57c-.85-3.41-2.27-6.39-4.4-9.23-1.7-2.27-4.26-4.69-7.53-7.53l-9.23-7.24c-7.95-6.39-13.63-12.92-16.76-19.32,1.85,7.95,5.96,14.63,12.5,20.03l8.52,6.39c3.55,2.7,6.25,4.97,8.24,7.24,2.27,2.56,3.69,5.82,4.12,9.66.57,5.11-1.28,9.09-5.82,12.07l-1.7.99,1.28,1.56c1.85,1.85,3.98,3.55,6.82,4.97l-8.1-1.7c2.27,2.13,5.54,3.83,9.8,4.69h-3.98c2.13,1.28,4.55,1.7,6.96,1.14-.28-2.27-1.14-4.55-2.56-6.96-1.42,0-3.12-.43-5.11-1.14l9.23-.85-4.26-.99h-.14l.14-.14c1.56-1.28,3.12-2.27,4.97-2.84-2.13-.99-4.26-1.7-6.67-2.27h-.14.14c2.98-1.56,5.26-2.41,6.96-2.41l-2.41-3.69-.14-.14h.28c2.27.28,4.83.85,7.53,1.99-.28-3.41-.14-6.96.71-10.37,1.28-5.82,3.98-10.51,8.24-14.06l11.93-7.95c4.4-2.7,7.1-5.4,8.24-8.24h0Z"/>
  <path class="cls-2" d="M147.83,97.3c-.28-.99-.85-1.56-1.42-1.99l-3.98.28-2.41-.71c.71,2.13,1.85,3.98,3.12,5.26l-1.99-4.4c1.85.43,3.12,1.14,4.12,2.13.43.57.85,1.42.85,2.41l1.7-1.85v-1.14h0ZM145.98,95.6l.57.43c-.57-.29-1.21-.44-1.85-.43h1.28Z"/>
  <path class="cls-2" d="M143.28,97.16c.14.71.14,1.56,0,2.56l.57-2.13-.57-.43Z"/>
  <path class="cls-3" d="M146.84,96.31l-.85-.28c1.14.99,1.56,1.99.99,2.98.71-.71.71-1.7-.14-2.7ZM142.01,88.64c-2.98-2.13-6.25-3.55-9.37-4.12l2.13,3.12c-1.7-.28-3.55,0-5.97.85,1.7.28,3.41.99,5.26,2.27-1.42.71-2.7,1.56-3.69,2.27,3.98.99,7.1,2.27,9.66,4.12l-1.28-2.98,3.41.57,1.14-.28-.71-.57c-.43.43-.85.43-1.42,0s-.71-.99-.14-1.56c.14-.28.43-.28.71-.28-.28-.71-.71-1.42-1.85-2.13,1.28.71,1.99,1.14,2.27,1.85l.85,1.7c.42.43.71.57,1.13.28l.29-.71c.43.57.28.99-.14,1.28l1.85.28c.28-1.85-1.14-3.69-4.12-5.96h0Z"/>
  <path class="cls-2" d="M141.72,93.75c-.28-.28-.28-.57-.14-.71l.43-.28-.14-.43-.57.28c-.28.28-.28.71.14.99l.28.14h0Z"/>
  <path class="cls-4" d="M142.15,93.47v-.43l-.28.14c-.14.28,0,.28,0,.28h.28Z"/>
</svg>