<?xml version="1.0" encoding="UTF-8"?>
<svg id="BU" xmlns="http://www.w3.org/2000/svg" viewBox="0 0 232.6 144.9">
  <defs>
    <style>
      .cls-1 {
        fill: #e6e7e8;
      }

      .cls-1, .cls-2, .cls-3, .cls-4, .cls-5 {
        stroke-width: 0px;
      }

      .cls-3 {
        fill: #fff;
      }

      .cls-4 {
        fill: #939598;
      }

      .cls-6 {
        stroke-miterlimit: 12.06;
        stroke-width: 7px;
      }

      .cls-6, .cls-7 {
        fill: none;
        stroke: #960d32;
      }

      .cls-7 {
        stroke-miterlimit: 9.65;
        stroke-width: 4px;
      }

      .cls-5 {
        fill: #c00;
      }
    </style>
  </defs>
  <path class="cls-6" d="M44.48,137.85h135.24v-21.03H44.48v21.03Z"/>
  <path class="cls-5" d="M44.44,7.08v16.99h7.78v70h-7.78v16.99h52.41l10.65-10.77v-39.61l-7.54-7.78,7.54-7.54v-28l-10.53-10.3h-52.53v.03ZM114.81,7.08v16.99h7.78v76.58l10.65,10.41h36.74l10.42-10.41V24.06h7.77V7.07h-32.55v17h7.78v70h-23.81V24.06h7.77V7.07h-32.55ZM69.21,24.06h21.3v21.65h-21.3v-21.65ZM69.21,62.83h21.3v31.23h-21.3v-31.23ZM45.86,118.26v18.17h133.13v-18.17H45.86Z"/>
  <path class="cls-7" d="M44.44,7.08v16.99h7.78v70h-7.78v16.99h52.41l10.65-10.77v-39.61l-7.54-7.78,7.54-7.54v-28l-10.53-10.3h-52.53v.03ZM114.81,7.08v16.99h7.78v76.58l10.65,10.41h36.74l10.42-10.41V24.06h7.77V7.07h-32.55v17h7.78v70h-23.81V24.06h7.77V7.07h-32.55ZM69.21,24.06h21.3v21.65h-21.3v-21.65ZM69.21,62.83h21.3v31.23h-21.3v-31.23Z"/>
  <g>
    <path class="cls-3" d="M49.24,123.05v1.62h.74v6.66h-.74v1.62h4.98l1.02-1.03v-3.77l-.72-.74.72-.72v-2.67l-1-.98h-5ZM58.11,123.05l-1.04,1.07v7.75l.99,1.07h3.21l1.05-1.07v-7.75l-1.04-1.07h-3.17ZM65.02,123.05l-.88.87v3.79l.92.92h2.86v2.7h-2.16v-1.19h-1.62v1.76l1.07,1.06h3.14l1.18-1.22v-3.77l-.92-.93h-2.86v-2.36h2.16v1.16h1.62v-1.89l-.91-.89h-3.6v-.02ZM71.36,123.05v3.53h1.56v-1.91h1v6.66h-.74v1.62h3.1v-1.62h-.74v-6.66h1v1.91h1.56v-3.53h-6.74ZM80.97,123.05l-1.04,1.07v7.75l.99,1.07h3.21l1.06-1.07v-7.75l-1.04-1.07h-3.18ZM87,123.05v1.62h.74v6.66h-.74v1.62h3.1v-1.62h-.74v-3.92l2.36,5.54h1.48v-8.28h.74v-1.62h-3.1v1.62h.74v4.1l-2.38-5.72h-2.19ZM99.88,123.05v1.62h.74v7.28l1.02.99h3.49l.99-.99v-7.28h.74v-1.62h-3.1v1.62h.74v6.66h-2.26v-6.66h.74v-1.62h-3.1ZM108.68,123.05v1.62h.74v6.66h-.74v1.62h3.1v-1.62h-.74v-3.92l2.36,5.54h1.48v-8.28h.74v-1.62h-3.1v1.62h.74v4.1l-2.38-5.72h-2.19ZM117.44,123.05v1.62h.74v6.66h-.74v1.62h3.1v-1.62h-.74v-6.66h.74v-1.62h-3.1ZM122.36,123.05v1.62h.67l2.09,8.28h1.76l2.02-8.28h.74v-1.62h-3.16v1.62h.8l-1.28,5.41-1.28-5.41h.74v-1.62h-3.1ZM131.45,123.05v1.62h.74v6.66h-.74v1.62h6v-3.67h-1.62v2.05h-2.02v-3h2.02v-1.63h-2.02v-2.02h2.02v1.36h1.62v-2.98h-6ZM139.27,123.05v1.62h.74v6.66h-.74v1.62h3.1v-1.62h-.74v-2.33h.55l1.93,3.95h1.65v-1.62h-.68l-1.18-2.33h.54l.84-.88v-4.26l-.84-.81h-5.16ZM148.47,123.05l-.88.87v3.79l.92.92h2.86v2.7h-2.16v-1.19h-1.62v1.76l1.07,1.06h3.14l1.18-1.22v-3.77l-.92-.93h-2.86v-2.36h2.16v1.16h1.62v-1.89l-.91-.89h-3.61v-.02ZM154.81,123.05v1.62h.74v6.66h-.74v1.62h3.1v-1.62h-.74v-6.66h.74v-1.62h-3.1ZM159.72,123.05v3.53h1.56v-1.91h1v6.66h-.74v1.62h3.1v-1.62h-.74v-6.66h1v1.91h1.56v-3.53h-6.74ZM168.28,123.05v1.62h.72l2.11,4.01v2.65h-.74v1.62h3.1v-1.62h-.74v-2.68l2.01-3.98h.6v-1.62h-3.01v1.62h.69l-1.13,2.3-1.16-2.3h.79v-1.62h-3.23ZM51.6,124.66h2.02v2.06h-2.02v-2.06ZM58.68,124.66h2.02v6.66h-2.02v-6.66ZM81.54,124.66h2.02v6.66h-2.02v-6.66ZM141.64,124.66h2.03v2.71h-2.03v-2.71ZM51.6,128.35h2.02v2.98h-2.02v-2.98Z"/>
    <path class="cls-2" d="M124.85,119.21l-2.63-1.21s-2.37,3.32-3.82,4.77-4.08.83-4.96.25c-.89-.59-4.03-3.32-7.75-5.16-3.73-1.84-7.92-5.27-7.92-5.27-.67-.62-4.7-4.54-4.82-9.04-.13-4.92.31-8.91,5.05-9.65l.39-.87-3.44-3.91,4.94.72.87-1.64s.5-.39,1.16-.05,1.21.65,1.21.65l2.46-4.44s-.82-1.76-2.38-3.7c-1.55-1.95-2.15-3.76-1.8-6,.34-2.24,1.3-5.95,2.44-7.32.3.26-5.79-4.36-2.92-8.41,3.64-5.13,6.31-6.55,10.91-9.9,4.62-3.36,4.53-2.47,4.37-1.04-.16,1.42-1.97,2.97-3.53,4.03.14-.49-1.69,4.24-2.86,5.18.03.38-.86,2.55-1.07,2.68,0,0,4.59-3.93,7.97-3.09,3.38.84,7.11,3.53,7.11,3.53,0,0,1.42.1,1.8.23,0,0-1.77-1.92.39-4.25,1.49-1.61,3.5-3.11,7.63-4.65.61-.23,1.12.07.07,1.5-1.04,1.42-1.41,1.14-1.41,1.14,0,0-.7,2.02-1.41,3.17-.18.29-.58,2.25-1.42,4.4,0,0,7.23,4.32,9.03,8.93.74,1.88.28,3.53-2.11,6.29,0,0,.14,2.17-.71,3.72,0,0,1.77.96,2.79,2,0,0,3.34.77,3.8,1.64s1.43,5.63.06,9.22-3.34,5.65-4.8,5.68c0,0-.89,1.03-1.52,1.16-.62.13-1-.1-1.3.22-.3.31-.9,1.28-1.96,1.23-1.06-.05-1.38-.15-1.38-.15,0,0-2.99,1.49-4.01,1.65,0,0,5.41,3.93,5.85,13.52.19,4.27-2.58,4-4.18,3.56-1.38-.4-3.61-1.16-4.18-1.35"/>
    <path class="cls-3" d="M118.28,58.1s8.22,8.03,8.83,11.44c.15.83.14,1.92-.78,1.25-.92-.67-4.54-2.94-5.21-3.23-.67-.3-.92-.3-.5.47s1.77,3.29,5.21,6.28c3.44,2.99,4.16,3.64,4.34,4.24.18.6-.35,2.72-.6,3.1-.25.37-1.4.44-2.29.59-.91.15-3.17,1.13-5.09,3.27-.43.47-.86.57-1.99,1-1.13.43-3.57,1.97-4.14,4.46,0,0-2.2-3.41-4.02-4.01s-2.13-1.02-3.11.15c-.98,1.17-2.13,3.01-2.23,5.33-.1,2.33.32,4.79,1.6,6.16,1.28,1.38,2.01,2.12,2.51,2.04.5-.07,2.82-2.52,3.39-2.74,0,0-.75.83-.78,1.15,0,0,2.07-1,3.82-.67,0,0-.15-1.28-.13-1.54,0,0-1.75-.35-2.89.12s-2.98,1.28-3.7,1.29c-.72.03-1.64-.57-2.09-1.63-.45-1.04-.47-1.52-.47-1.52,0,0,.59,1.63,1.25,2.02,0,0-1.3-3.27.43-7.61,0,0-1,.92-1.6,2.3,0,0,.62-2.68,2.35-3.67.82-.47,1.42-.18,1.25-.03s-.48.3-.48.3c0,0,.92.59,1.25,1.04s.45.38.9.5,1.12,1.59,1.57,2.25c.45.65,1.2,1.22,1.65,1.42s.85.78.85.78c0,0,.02-1.42.59-1.85,0,0-.63,2.57-.28,4.49s1.55,5.41,4.2,5.86,6.23.2,8.84-1.6c2.62-1.79,4.64-4.07,6.28-7.74,0,0-.18,1.88-1.54,3.47-.14.17-.13.57.25.75.38.18,1.75.67,1.75.67,0,0,.55.07,1.32-.6.77-.67,3.06-2.99,3.49-7.06.43-4.07-.32-6.01-1.02-6.3-.7-.3-2.95-1.4-5.84-1.35-2.89.06-6.11.37-6.11.37,0,0,2.76-.97,7.63-.82,0,0-1.89-1.04-5.66-1.6,0,0,.08-2.22.45-3.04.37-.82,1.69-2.32,2.24-3.64.55-1.32,1.22-3.92,1.25-4.44.03-.53-.18-1-.43-.35-.24.66-.94,2.42-1.17,2.64-.22.22-.55.13-.65-.3s-.85-3.56-2.23-5.86c-1.37-2.29-3.34-4.69-6.08-4.96,0,0,2.97,2.35,3.36,3.47,0,0-2.82-2.72-5.81-4.49-2.97-1.76-3.95-2.04-3.95-2.04"/>
    <path class="cls-4" d="M116.43,75.62l2.46,1.72s.68.91.55,2.03c-.16,1.32-.41,2.93-1.63,3.55l-2.27.89s-1.52-1.66-1.45-3.46c.08-1.78.9-4.05,2.35-4.73"/>
    <path class="cls-2" d="M129.55,56.81s.2,2.06-.45,3.85c0,0,.55-1.15.74-2.43,0,0,.14.43.08.73,0,0,.3-1.61.39-2.37,0,0,.81-.51,1.12-2.5,0,0,1.53-.94,1.89-1.59,0,0-2.39,1.04-4.71,2.86-2.23,1.76-2.84,3.36-2.84,3.36,0,0-.14.91.84,2.13,0,0,.55-1.25,1.37-2.35.83-1.1,1.96-2.4,2.29-2.67,0,0-.67.87-.72.97"/>
    <path class="cls-1" d="M127.56,56.64s2.3-2.46,4.71-3.46c0,0-.22.34-.39.43-.16.1-2.85,1.7-4.33,3.02"/>
    <path class="cls-3" d="M119.84,78.19s3.87,2.81,5.01,2.98c0,0-3.99.82-5.38,1.22,0,0,.81-2.06.37-4.2"/>
    <path class="cls-3" d="M115.98,75.15s-2.23,2.09-2.29,4.7c-.06,2.61,1.07,4.23,1.07,4.23l-.47.13s-1.99-2.02-1.76-4.57,1.41-4.3,2.3-4.92c.33-.24.57-.17.78,0,.2.18.37.42.37.42"/>
    <path class="cls-2" d="M116.97,79.07c.14.38.48,2.24-.17,3.49s-1.45.47-1.63.13c-.17-.33-.43-1.72,0-2.81.44-1.08,1.4-1.93,1.79-.81"/>
    <path class="cls-1" d="M117.69,81.04s.33-.62.33-2.2c0,0,.64.91.17,2.85,0,0,.91-2.03.27-4.17,0,0-1.39-.95-1.65-1.18s-.71-.12-.95.11-1.16,1.17-1.36,2.29l.27-.27s-.47,1.19-.27,2.54c0,0,.67-3.17,1.65-3.46.91-.27,1.28.42,1.46,1.05.18.64.07,2.43.08,2.43"/>
    <path class="cls-1" d="M119.98,79.77s.86.36,1.5.8c.64.44,1.35,1.03,1.35,1.03l2.03-.43s-1.11-.13-5.01-2.98c0,0,.19,1.24.13,1.58"/>
    <path class="cls-1" d="M114.9,76.45s-.28-.63-1-.73c0,0,.64-.88,1.07-1.05.43-.17.59-.04,1.01.48,0,0-.78.79-1.08,1.3"/>
    <path class="cls-2" d="M111.06,76.53s-.52.88-.43,2.62c0,0,.22-1.83.7-2.38l-.27-.24Z"/>
    <path class="cls-1" d="M112.04,75.63s-1.2,1.72-1.34,4.19h.34s.09-2.11,1-4.19"/>
    <path class="cls-1" d="M112.6,76.69s-.65,2.12-.79,4.22c0,0-.22-.15-.22-.41,0-.25.41-2.94,1.01-3.82"/>
    <path class="cls-2" d="M120.54,76.97s1.58,1.58,7.51,3.26l.26-.58.27-.05s-.06.83-.22,1.1-.41.14-.41.14c0,0-5.34-1.59-7.41-3.87"/>
    <path class="cls-3" d="M134.5,79.18s.36.65-.06,1.58l.32.02s.7-1.22.15-2.02l-.42.43Z"/>
    <path class="cls-4" d="M134.34,79.41l-.24.28s-.02.69-.2.85c-.18.16-.39-.06-.41-.37l-.29.18s0,.32.19.34.74.02.74.02c0,0,.51-.48.2-1.3"/>
    <path class="cls-2" d="M133.38,80.98l.07.22s1.74.31,3.33,1c0,0-.35-.86-2.54-1.2-.31-.05-.86-.02-.86-.02"/>
    <path class="cls-2" d="M135.61,78.22s0,1.76-.55,2.66l.31.07s.74-.71.61-2.98l-.37.24Z"/>
    <path class="cls-1" d="M106.77,64.59s3.89-4.92,6.5-6.19c2.62-1.27,4.77.65,5.61,1.39.84.73,4.26,4.19,6.88,9.03,0,0-5.46-8.25-7.84-8.64s-3.26.16-3.26.16c0,0,.54-.81,2.18-.69,0,0-1.85-1.11-5.49,1.5-3.64,2.62-4.26,3.54-4.26,3.54l-.31-.08Z"/>
    <path class="cls-1" d="M110.18,69.89s2.25-.31,3.28.76c1.03,1.06,2.47,2.78,2.47,2.78,0,0-2.6-2.88-4.31-2.97s-3.38-.02-4.52,2.57c0,0,2.47-2.75,4.6-1.96s3.55,2.65,4.41,3.38,4.08,3.47,6.08,4.57c.34.19,1.61.67,2.25.79,0,0-4.62-2.27-7.04-5.45-.41-.53-3.28-4.77-5.18-4.85-1.9-.08-2.04.37-2.04.37"/>
    <path class="cls-1" d="M128.04,80.23s-7.32-1.82-9.14-5c0,0,2.96,2.39,6.77,3.35.83.2,1.99.5,2.58.53,0,0,.19.43-.21,1.13"/>
    <path class="cls-1" d="M128.55,80.92h.24s.67-1.41.59-1.84c-.12-.71-1.14-1.54-5.14-4.79,0,0,3.5,3.59,4.12,4.29.54.62.66,1.18.18,2.34"/>
    <path class="cls-3" d="M115.2,80.45c.08-.52.24-.91.36-.91.12.02.15.45.06.97-.08.51-.24.91-.36.9-.12,0-.15-.44-.06-.96"/>
    <path class="cls-2" d="M128.93,62.27s3.62,4.99,4.12,7.63c.24,1.28.14,2.49.55,1.7.42-.79,1.04-2.93,1.4-2.91.36.02.78.42.74,1.22-.04.81-.86,5.55-3.43,8.31,0,0,.05,1.69-.31,2.4,0,0,3.96-2.85,5.55-5.87,1.68-3.17-.36-5.64-2.17-7.55-3.26-3.42-6.45-4.94-6.45-4.94"/>
    <path class="cls-1" d="M129.53,62.75s1.84,2.58,2.55,4.23c0,0-.51-1.75-.98-2.46,0,0,3.16,1.89,5.33,4.58,0,0-1.94-3.36-6.9-6.36"/>
    <path class="cls-1" d="M132.89,78.75v-.41s2.95-2.29,3.66-3.23c.71-.94,1.13-2,1.04-3.72,0,0,.79,1.6-.21,3.33-1.01,1.72-1.86,2.63-3.8,4.38l-.6.09-.08-.44Z"/>
    <path class="cls-2" d="M132.98,79.12s1.44-1.16,2.99-2.91c0,0-1.53,2.23-3.09,3.56,0,0-.33.17-.35.04-.02-.13.06-.58.18-.86l.17-.18.09.36Z"/>
    <path class="cls-2" d="M108.35,85.11s1-1.46,3.63-.9c0,0,1.05,1.19,2.34.76s4.92-1.78,6.3-1.72c0,0-3.74,1.28-5.02,2.67,0,0,3.73-1.81,5.12-1.81l.56.25-.56.53s-3.28.76-4.59,3.17c0,0-.37-1.37-2.26-2.13,0,0,1.95,1.7,2.13,2.95l-.07,1.17s-1.96-3.66-5.43-4.16c-1.23-.18-2.87.76-4.72,4.98,0,0,.56-3.69,3.12-5.41,1.07-.72,2.67-.04,2.81,0s-1.4-.98-3.35-.35"/>
    <path class="cls-1" d="M119.03,83.68s-2.05.71-4.55,2.06c0,0,.75-.91,1.8-1.29,1.03-.38,2.74-.77,2.74-.77"/>
    <path class="cls-1" d="M115.73,86.67s2.89-2.21,4.62-2.38l.58.07-.74.38s-2.11.54-4.46,1.93"/>
    <path class="cls-1" d="M108.64,84.94s.91-.66,2.08-.4,2.43,1.07,3.07,1.6,1.99,2.09,1.99,2.89c0,0-1.27-2.28-2.99-2.76s-2.42-.87-3.3-.48c-.89.38-1.7,1.06-2.63,2.59,0,0,.61-1.63,2.01-2.66,1.4-1.04,3.94.26,3.94.26,0,0-.91-.89-1.96-1.06-1.05-.19-1.58-.15-2.19.03"/>
    <path class="cls-1" d="M129.38,86.65s-.16.36.91.92c1.08.56,2.26,1.24,2.38,1.81.11.57,1.87,1.88,2.38,2.17.52.29.06.96.52,1.02s1.25-.33,1.37-.91c.11-.57-2.38-3.88-2.38-3.88l-5.18-1.14Z"/>
    <path class="cls-2" d="M133.7,89.31s.96.74,1.4,1.24c.43.5,1.27,1.24,1.65,1.24s.7-.35,1.37-1.14c.67-.78.83-1.12,1.06-1.71s.82-1.78,1.14-2.12c.31-.33.62-.93.07-1.37-.55-.43-2.11-1.19-4.19-1.21-2.07-.03-4.66.14-6.13.91-1.47.78-1.22,1.71.16,1.99,1.37.29,3.13.98,3.83,1.6.26.23.75.62.29.57-.47-.05-.66,0-.65,0"/>
    <path class="cls-3" d="M138.24,85.74l-.2-.56s1.42.07,1.78.85c.06.15,0,.42,0,.42,0,0-.18-.37-.79-.57-.64-.2-.79-.13-.79-.13"/>
    <path class="cls-3" d="M137.57,86.36s-.08-.91-.75-1.42c0,0-2.01-.29-4.24.13-2.23.41-2.92,1.1-2.86,1.24s.83.47,1.42.62c0,0-.89-.47-.8-.75l.21-.16.98.29s1.11-.69,2.49-.79c1.37-.1,2.61,0,2.85.23l-.05-.3s.6.43.76.92"/>
    <path class="cls-1" d="M116.49,94.38s-.27,1.07-.18,1.76c0,0,.54-.74.87-.8v-.24s-.55-.65-.69-.71"/>
    <path class="cls-1" d="M116.68,96.28s.24-.38.51-.49l-.02.65s-.36-.14-.49-.16"/>
    <path class="cls-3" d="M116.1,94.2s-.22,1.11-.09,2c0,0-1.2.05-1.88.39,0,0,.78-2.01,1.97-2.38"/>
    <path class="cls-3" d="M115.74,94.01s-1.6,1.04-2.12,2.3c0,0-1.34-2.36-.13-5.42,0,0,1.03,2.3,1.76,2.81.15.12.49.3.49.3"/>
    <path class="cls-3" d="M112.75,91.57s-.6,3.08.53,5.24c0,0-1.56,1.18-3.07.98,0,0-.33-.11-.13-.95.2-.82.83-3.42,2.67-5.27"/>
    <path class="cls-3" d="M112.46,90.32s.62.05.71.25c0,0-3.02,2.93-3.51,6.24,0,0-1.4-3.88.79-7.9,0,0,.38-.29.65-.11.27.18,1.16,1.08,1.36,1.52"/>
    <path class="cls-1" d="M110.21,89.41s.17-.33.26-.51c0,0,.38-.29.65-.11.27.18,1.16,1.09,1.36,1.53,0,0,.62.05.71.25,0,0-1.64,1.59-2.69,3.74,0,0,0-2.31,1.18-3.55-.02,0-1.45-.99-1.47-1.36"/>
    <path class="cls-1" d="M112.22,96.66c-.2-.51-.14-3.31-.14-3.31-.42.32-1.43,1.63-1.43,1.63.41-1.07,1.06-2.35,2.1-3.4,0,0-.6,3.08.53,5.24,0,0-.29.21-.72.44,0,0-.13-.09-.33-.6"/>
    <path class="cls-1" d="M114.44,93.63c-.38-.16-.37-.91-.72-1.15s-.7.29-.7.29c.06-.58.2-1.21.47-1.89,0,0,1.03,2.3,1.76,2.81.16.11.49.3.49.3,0,0-1.6,1.04-2.12,2.3l-.1-.21c-.16-1.29.93-2.46.92-2.46"/>
    <path class="cls-1" d="M115.46,94.56c.19-.17.41-.3.64-.36,0,0-.22,1.11-.09,2l-.65.06c-.15-.62.1-1.69.1-1.69"/>
    <path class="cls-1" d="M124.7,61.18s4.55,3.58,5.33,6.33c0,0-.39-3.35-1.83-4.65-1.44-1.31-2.75-1.64-3.5-1.68"/>
    <path class="cls-1" d="M128.47,72.8s-.14.54.16.76c.3.23,2.11,1.53,2.68,1.53s1.08-.79,1.08-.79l-.28-.53s-.61.39-1.16.27c-.55-.1-2.47-1.25-2.48-1.25"/>
    <path class="cls-2" d="M128.11,73.22s2.53,2.24,3.28,2.13c.75-.1,1.15-1.16,1.15-1.16,0,0-.81.84-1.15.79-.34-.04-.84-.17-3.28-1.76"/>
    <path class="cls-1" d="M129.49,83.48c.66-.2,3.29-.9,7.47-.77,0,0-1.89-1.04-5.66-1.6,0,0,.08-2.22.45-3.04.37-.82,1.69-2.32,2.24-3.64.55-1.32,1.22-3.92,1.25-4.44.03-.53-.18-1-.43-.35l-.05.13-.31,1.36c-.14,1.39-1.67,4.76-2.75,5.52-1.09.76-2.04-.2-2.38-.51-.33-.3-4.39-3.72-6.15-5.68-1.76-1.97-.29-1.3.26-1.08.55.21,1.75.63,1.75.63-1.44-.93-3.54-2.23-4.04-2.45-.67-.3-.92-.3-.5.47s1.77,3.29,5.21,6.28c3.44,2.99,4.16,3.64,4.34,4.24.18.6-.35,2.72-.6,3.1-.25.37-1.4.44-2.29.59-.71.12-2.26.75-3.84,2.05,0,0,2.68-1.87,7.28-2.09l1.76.17s-2.55.21-4.14,1.17l1.13-.06Z"/>
    <path class="cls-1" d="M128.28,74.63s-.23-.57-.23-.79c0,0,2.06,1.86,3.02,1.77.96-.09,1.08-.55,1.08-.55l.77.03-.49.86-1.04.67-1.01-.37-2.11-1.62Z"/>
    <path class="cls-2" d="M127.7,74.2s2.51,2.7,3.81,2.62c0,0,.99-.19,1.42-1.74,0,0-.85,1.4-1.51,1.36-.65-.04-1.76-.7-3.72-2.24"/>
    <path class="cls-2" d="M131.32,78.64s-.13,2.04-.43,2.68l-.49.13s.65-1.66.91-2.81"/>
    <path class="cls-2" d="M130.17,82.33s1.89-.47,4.28-.34l.7.21s-3.72-.06-4.98.13"/>
    <path class="cls-1" d="M137.1,92.6c-.59,1.78-2.03,3.91-2.88,4.9-.85.99-2.08,2.21-4.81,3.59s-5.06,1.02-5.06,1.02l-.13-.55c-1.21.17-2.99-1.8-2.99-1.8,0,0,.31-.28.63-.44.31-.17.29-.39,0-.54-1.4-.73-2.38-2.9-2.38-2.9.34.15.95-.08.95-.08-.91-.33-1.05-1.54-1.02-2.15.05-.61-.72-1.4-.85-1.77-.13-.37.43-1.38.43-1.38-1.44.46-2.33,2.36-2.33,2.36,0,0-.17-.13-1.08-.93-.91-.81-.95-1.49-1.23-1.9-.28-.43-1.36-.57-1.4-.72-.08-.29-1.1-1.11-1.1-1.11.15-.25-.17-.52-.63-.49-2.42.11-3.15,4.15-3.15,4.15-.07-.92-.03-2.01,1.1-3.72,1.13-1.72,2.54-1.27,2.54-1.27-1.52-.53-1.86-.82-2.76.27-.98,1.17-2.13,3.01-2.23,5.33-.1,2.33.32,4.79,1.6,6.16,1.28,1.38,2.01,2.12,2.51,2.04.5-.07,2.82-2.52,3.39-2.74,0,0-.75.83-.78,1.15,0,0,2.07-1,3.82-.67,0,0-.15-1.28-.13-1.54,0,0-1.75-.35-2.89.12s-2.98,1.28-3.7,1.29c-.72.03-1.64-.57-2.09-1.63-.45-1.04-.47-1.52-.47-1.52,0,0,.59,1.63,1.25,2.02,0,0-1.3-3.27.43-7.61,0,0-1,.92-1.6,2.3,0,0,.62-2.68,2.35-3.67.82-.47,1.42-.18,1.25-.03s-.48.3-.48.3c0,0,.92.59,1.25,1.04s.45.38.9.5,1.12,1.59,1.57,2.25c.45.65,1.2,1.22,1.65,1.42s.85.78.85.78c0,0,.02-1.42.59-1.85,0,0-.63,2.57-.28,4.49s1.55,5.41,4.2,5.86,6.23.2,8.84-1.6c2.61-1.78,4.62-4.04,6.28-7.67l.08-1.04Z"/>
    <path class="cls-3" d="M110.24,98.73s.18,1.26.99.95,1.29-1.2,1.29-1.2c0,0-1.09.3-1.52.29-.42-.02-.77-.04-.77-.04"/>
    <path class="cls-3" d="M114.18,98.45s.24-.73,1.01-.84c.76-.11,1.15.06,1.15.06,0,0-.59.43-1,.48-.43.06-1.16.3-1.16.3"/>
    <path class="cls-1" d="M142.31,90.59c-.68,3.12-1.96,4.63-2.72,5.55-.75.92-1.59,1.49-2.61,1.23-1.01-.26-.87-1.19-.87-1.19-.18.3-.38.59-.63.88-.14.17-.13.57.25.75.38.18,1.75.67,1.75.67,0,0,.55.07,1.32-.6.77-.67,3.06-2.99,3.49-7.05v-.24Z"/>
    <path class="cls-1" d="M122.73,98.47s-.59-.15-.39-.43c.19-.29.46-.26.66-.37s-.13-.37.22-.4c.35-.02.37.3.32.58-.05.29-.06.57-.06.57l-.41.16-.34-.11Z"/>
    <path class="cls-2" d="M122.72,98.11s.21.42.48.33c.27-.08.3-.5.3-.5,0,0,.4.53-.06.73-.46.21-.65-.08-.68-.21-.06-.12-.03-.35-.03-.35"/>
    <path class="cls-1" d="M121.99,95.39s-.72-.09-.45-.44c.26-.34.34-.63.5-.69s.61.05.46.53c-.15.48-.5.61-.51.61"/>
    <path class="cls-2" d="M122.16,94.62s.61.43.25.81c-.36.38-.86.02-.9-.1,0,0,.5.02.63-.13.13-.14.02-.58.02-.58"/>
    <path class="cls-1" d="M106.07,85.42l-3.11,5.68s1.28,1.89,1.8,2.3c0,0,.28-3.56,1.37-5.09,1.08-1.52-.06-2.89-.06-2.89"/>
    <path class="cls-3" d="M105.7,86.07s-1.27,2.64-1.33,4.11c-.06,1.47-.13,2.61-.13,2.61l-1.28-1.69,2.74-5.03Z"/>
    <path class="cls-3" d="M118.44,100.94s-.25-1.15-.72-1.29c-.47-.16-3.47-.67-4.93.47,0,0,2.08.78,3.68.84,1.6.06,1.96-.02,1.97-.02"/>
    <path class="cls-1" d="M114.59,99.46c-.67.09-1.31.28-1.79.66,0,0,2.08.78,3.68.84s1.97,0,1.97,0l-.18-.57c-2.19.2-3.68-.91-3.68-.91"/>
    <path class="cls-3" d="M96.12,89.78l3.69.62-.57.92-1.93-1.17,1.76,1.51-.25.55-2.69-2.43Z"/>
    <path class="cls-3" d="M101.31,94.66s.95-.89,2.08-.04c1.14.84,1.09,1.86,1.09,1.86l-.58-.3s-.13-.88-.94-1.4c0,0,.47.82.47.99,0,0-1.79-1.05-2.12-1.1"/>
    <path class="cls-3" d="M107.24,99.19s.39-.29.72-.14l.95,1.22s0,.8-.08.97c0,0-1.27-1.74-1.59-2.05"/>
    <path class="cls-1" d="M109.14,100.51l-.06,1.01.18.51s.58-.25.33-1.21l-.46-.3Z"/>
    <path class="cls-5" d="M108.43,55.75s-2.05,1.61-3.01,2.91c-.96,1.29-.74,5.69-.74,5.69l.36-.43c.21-1.31.95-2.39.95-2.39-.21.47-.3,1.87-.3,1.87,2.34-3.88,2.74-7.65,2.74-7.65h0ZM129.29,57.2s-1.5,1.94-1.8,2.59.32,2.02.32,2.02c.04-.49.49-1.04.49-1.04-.35.63-.25,1.34-.25,1.34.41-.18.73-1.43,1.07-2.53.34-1.1.17-2.38.17-2.38h0ZM101.8,88.9c-.41,0-.51.35-.51.35l-2.35,4.81c.82.08,1.81.37,1.81.37,0,0,1.42-1.17,2.76-.2,1.93,1.4,1.66,2.85,1.66,2.85.29.17,1.54,1.59,1.54,1.59l.7-.29c-1.51-1.46-4.34-5.89-5.01-7.23s-.25-1.39-.25-1.39c.04.29.29.42.29.42l.45-.7c-.51-.44-.86-.57-1.11-.57h0ZM112.38,100.66c-1.06,1.6-2.18.82-2.18.82.25,1.01-.5,1.42-.5,1.42l.54,1.09,2.55.7-.62-.57c-.2-.33-.2-1.54.45-1.92,1.61-.91,2.31.05,2.31.05l1.91,4.76.89.62c2.47.05,4.56-1.28,4.56-1.28l-2.26.08c-.59-.17-.91-1.17-.57-2.13.33-.97,1.47-.97,1.47-.97-1.47-.43-2.23-1.83-2.23-1.83-3.36.44-6.31-.84-6.31-.84Z"/>
    <path class="cls-3" d="M115.07,105.87l-.97-.5-1.38-1.83s-.3-.88.68-1.16,1.39.18,1.57.69c.18.53,1.4,3.52,1.4,3.52l-.95-.59-1.53-2.47s-.41-.76.06-.96c0,0-.72,0-.62.65.04.33,1.74,2.64,1.73,2.64"/>
    <path class="cls-3" d="M125.5,105.5l-4.66.27s-1.15.19-1.16-.62.62-1.43,1.07-1.44c.44-.02,4.74,1.79,4.74,1.79"/>
    <path class="cls-1" d="M107.72,103.36s1.01.17,1.48.3c0,0-1.56-5.87-7.62-8.39-4.88-2.03-6.89.79-7.54,2.32,0,0,1.3-2.66,4.7-2.32,0,0-2.13.46-2.7,2.02,0,0,1.95-2.52,5.08-.82,3.12,1.72,6.07,4.87,6.59,6.89"/>
    <path class="cls-1" d="M118.63,108.05s2.57,1.75,3.23,2.51c0,0,3.11-.7,3.6-.7,0,0-2.5-2.4-3.55-2.51s-1.48.38-1.8.43c-.32.06-1.48.27-1.48.27"/>
    <path class="cls-3" d="M122.75,110.35s-.91-1.2-1.4-1.49c-.49-.29.16-.55.72-.39.55.17,2.61,1.49,2.61,1.49l-1.93.39Z"/>
    <path class="cls-2" d="M120.32,112.03s3.14-2.03,6.17-1.67c0,0-.3,2.05-.27,2.75,0,0-.78.25-.99.33,0,0-2.33-.52-3.64-.28-.33.06-.73.39-.83.25-.1-.13.5-.55.5-.69s-.13-.33-.38-.44c-.24-.08-.56-.25-.56-.25"/>
    <path class="cls-1" d="M125.56,110.32s-.31.11-.06.56c.25.46.25.75-.08.79-.33.04-2.63,0-3.22.33-.59.33-.76.5-.76.5,0,0-.35-.22-.33-.48.02-.25.2-.56.2-.56,0,0,2.61-1.21,4.25-1.15"/>
    <path class="cls-1" d="M127.58,105.32l-.43.02c.42.35,1.46,1.56,1.46,1.56-.31.53-.53,1.67-.53,1.67,0,0,.31-.71.49-1.01s.45.04.81.28c.36.24.21.49.21.49-1.4,1.46-1.65,3.93-1.65,3.93.18-1.03.91-2.08,1.35-2.73.56-.83.91.11,1.36,1.49,1.07,3.35.05,6.83.05,6.83,0,.81,1.2.88,1.2.88.39-.49.41-1.29.41-2.25,0-1.52.03-5.87-2.89-9.85-1.7-2.33-3.12-2.88-3.11-2.88.32,0,1.28,1.58,1.28,1.58"/>
    <path class="cls-3" d="M121.25,110.72c.5,0-3.76-3.49-8.58-5.37-4.81-1.87-6.55-2.1-9.77-1.19-1.6.45-2.85,3.02-2.8,4.45,0,0-.09,1.61.15,2.75.24,1.16,1.14,1.4,1.14,1.4l.55.03s.06-1.02.38-1.24c0,0-.09-5.17,3.34-6.64,0,0-2.95,2.16-2.48,5.65,0,0-.06,1.17.23,2.42.29,1.24,1.48,1.48,1.48,1.48,0,0,.49.21,1.04.21,0,0-.45-6.32,3.59-7.74,0,0-3.99,3.11-2.57,7.06,0,0,.65.09,1.01.97.36.88,1,1.52.81,1.88,0,0,2.52,2.69,6.42.78,3.9-1.92,3.25-5.96,3.25-5.96,0,0-.74-2.04-1.02-2.38,0,0,1.09,1.18,1.55,2.33.03-.02,1.78-.88,2.27-.88"/>
    <path class="cls-1" d="M116.13,107.15c.53.32,3.22,2.99,3.22,2.99-.18-.04-1.15.05-1.15.05.3.41.61.91.8,1.4,0,0,1.76-.86,2.25-.86.36,0-1.7-1.77-4.66-3.47l-.47-.1Z"/>
    <path class="cls-1" d="M107.74,108.91c-.84,1.28-1.37,3.31-.9,5.26,0,0,.15.47.47,1.36.24.65,1.53,1.6,1.53,1.6,0,0,2.45,2.38,6.36.46,3.9-1.92,3.25-5.96,3.25-5.96,0,0-.18-.49-.38-1.04,0,0,.38,4-2.5,5.47-2.88,1.47-4.26.89-4.94.8-.66-.08-1.15-.72-1.61-1.04,0,0-.54-.71-.71-1.06-.15-.29-.48-1.32-.48-1.32,0,0-.49-1.87-.36-2.84.13-.99.26-1.7.26-1.7"/>
    <path class="cls-1" d="M102.95,106.69c-.76.76-1.33,1.64-1.33,1.64-.95,1.66-1.52-.02-1.52-.02-.17.6-.12,1.8-.07,2.78.06,1.18,1.23,1.8,1.23,1.8l1.25.62s-.18-1.39-.18-1.99c0,0-.08-4.67,2.86-6.4-.02,0-1.49.79-2.24,1.55"/>
    <path class="cls-1" d="M106.78,108.46c-1.07.93-1.74,3.02-1.74,3.02-.91.97-1.83-.56-1.83-.56-.06.42.04,1.17.08,1.51.27,1.65,1.41,2.36,1.41,2.36,0,0,.67.28,1.22.28,0,0-.44-6.6,3.46-8.1,0,0-1.54.57-2.61,1.51"/>
    <path class="cls-3" d="M132.14,101.27s2.65-2.72,2.99-3.47c0,0,.56.55,1.15.7s.7.56.51.72-1.3.83-2.41.93c-.43.04-.91.79-1.23.95-.3.16-1.01.16-1.01.16"/>
    <path class="cls-1" d="M135.89,99.34c.23-.19,0-.3-.47-.37-.62-.1-1.68.6-1.68.6.64-.71,1.26-1.44,1.41-1.77,0,0,.56.55,1.15.7s.7.56.51.72-1.3.83-2.41.93c-.02,0-.04,0-.06,0,0,0,1.31-.63,1.55-.82"/>
    <path class="cls-1" d="M123.31,96.28s-.72-.09-.45-.44c.26-.35.35-.63.5-.69.16-.06.62.05.46.53-.16.48-.51.61-.51.61"/>
    <path class="cls-2" d="M122.85,96.01s.23.56.65.43c.42-.13.65-.68.13-.96,0,0,.04.55-.21.59-.24.05-.56-.06-.56-.06"/>
    <path class="cls-1" d="M123.97,95.11s-.59-.15-.39-.43c.19-.29.46-.26.66-.37.2-.11-.13-.37.22-.4.34-.02.37.3.32.59-.05.29-.06.57-.06.57l-.42.16-.33-.12Z"/>
    <path class="cls-2" d="M124.14,95.12s.5.17.67.02.13-.67-.35-.78c0,0,.15.4.06.52s-.38.24-.38.24"/>
    <path class="cls-1" d="M123.3,93.99s-.57-.06-.36-.28.28-.41.4-.44.49.03.37.33c-.13.3-.41.39-.41.39"/>
    <path class="cls-2" d="M123.19,93.97s.5.23.71-.08c.21-.31-.29-.73-.56-.65,0,0,.31.25.23.44-.08.18-.38.29-.38.29"/>
    <path class="cls-1" d="M97.29,90.15l1.76,1.51-.25.55-2.68-2.43,1.17.37Z"/>
    <path class="cls-1" d="M101.36,94.62s.9-.83,2.03,0c1.14.83,1.09,1.86,1.09,1.86l-.58-.3s-.12-.83-.88-1.36c0,0-.82-.33-1.66-.19"/>
    <path class="cls-1" d="M113.84,102.58c-.19.03-.58.16-.51.64.05.32,1.75,2.64,1.75,2.64l-.97-.5-1.38-1.83s-.31-.93.68-1.16c1.04-.24,1.22.14,1.22.14-.67-.03-.8.06-.79.06"/>
    <path class="cls-1" d="M125.5,105.5l-4.66.27s-1.15.19-1.16-.62.62-1.43,1.07-1.44c0,0-.4.43-.44.8s.23.5,1.41.56c1.17.06,2.5.11,2.5.11l1.28.31Z"/>
    <path class="cls-2" d="M120.48,104.14s-.24.67.23.71c.47.06,3.63.35,3.63.35l-3.59-.04s-.63.03-.53-.43c.1-.44.26-.6.25-.6"/>
    <path class="cls-3" d="M114.52,80.92s.94-4.44,3.07-3.76l-1.1-.71s-1.95.8-1.97,4.47"/>
  </g>
</svg>