<?xml version="1.0" encoding="UTF-8"?>
<svg id="Canisius" xmlns="http://www.w3.org/2000/svg" viewBox="0 0 232.6 144.9">
  <defs>
    <style>
      .cls-1 {
        fill: #fbba07;
      }

      .cls-1, .cls-2, .cls-3 {
        stroke-width: 0px;
      }

      .cls-2 {
        fill: #062454;
      }

      .cls-3 {
        fill: #fff;
      }
    </style>
  </defs>
  <path class="cls-1" d="M172.46,100.65c.45,1.34.61,2.72.6,4.13-.01,6.49-.01,12.97-.01,19.46,0,.64-.11,1.25-.36,1.83-.18.43-.49.7-.97.79-.56.1-1.09.05-1.61-.14-.61-.22-1.2-.49-1.77-.79-2.03-1.09-4.14-1.99-6.28-2.82-1.95-.76-3.92-1.47-5.91-2.1-1.57-.5-3.15-.95-4.74-1.4-1.86-.51-3.72-.98-5.6-1.41-2.16-.49-4.33-.93-6.51-1.33-3.27-.6-6.56-1.11-9.86-1.5-3.01-.36-6.02-.69-9.05-.88-2.04-.12-4.09-.2-6.14-.28-3.05-.12-6.11-.08-9.16-.05-1.83.02-3.67.08-5.51.22-1.36.09-2.71.16-4.06.29-1.98.18-3.95.41-5.92.64-2.73.32-5.42.78-8.11,1.32-.16.03-.33.03-.5.03s-.34-.04-.41-.23c-.02-.06-.03-.11-.03-.16,0-.13.06-.25.19-.34.09-.05.18-.11.31-.2-.35-.22-.38-.51-.21-.84.53-.99.64-2.06.56-3.16-.06-.74.1-1.46.09-2.19,0-5.65,0-11.3,0-16.95,0-.17.02-.33-.05-.49.07-.18.13-.35.03-.53-.21-.08-.36.08-.53.14-.35.14-.72.19-1.1.21-1.38.08-2.57-.43-3.65-1.22-.31-.22-.6-.36-.97-.26-.8-.08-1.59,0-2.39-.01-.96-.01-1.12-.3-.64-1.14.24-.44.48-.88.74-1.31.25-.43.36-.88.36-1.38-.01-1.75,0-3.51,0-5.27,0-.5-.03-.54-.52-.55-.73,0-1.47,0-2.2.03-.49.02-.49.04-.52.56-.02.29-.02.58-.02.88,0,10.54.01,21.08.02,31.63,0,1.8.01,3.6.01,5.39v.25c.03.31.15.39.4.24.81-.47,1.61-.96,2.42-1.43.18-.11.28-.22.27-.44-.02-.36.02-.71.02-1.07v-13.18c0-.12-.01-.25.02-.37.05-.3.17-.46.54-.45,1.53.03,3.05.02,4.58.03.31,0,.62,0,.94,0,.25,0,.37.15.39.39.01.17.01.34.01.5,0,4.18,0,8.35.02,12.52-.01.95,0,1.91,0,2.86,0,.5-.15.81-.59,1.05-1.44.8-2.88,1.62-4.3,2.46-2.02,1.18-4.05,2.33-6.03,3.58-.71.44-1.44.86-2.27,1.04-.47.1-.95.18-1.42-.03-.55-.24-.93-.63-1.08-1.22-.11-.42-.19-.85-.19-1.29v-43.88c0-1.32.4-2.54,1.31-3.49.93-.98,2.15-1.45,3.5-1.46,1.95-.03,3.89-.01,5.84-.02.22,0,.46.06.67-.09.49.22,1.02.25,1.54.29.09.02.17.05.25.07.45.34,1,.51,1.43.89.36.33.39.32.78.03.75-.54,1.56-.67,2.44-.47.45.1.9.16,1.37.18,1.47.05,2.86-.32,4.23-.77.32-.1.65-.17.98-.21.39-.05.67.06.91.4.96,1.37,2,2.68,3.05,3.98.48.6,1.06,1.07,1.73,1.43.43.23.82.48,1.14.85.17.2.36.42.69.41-.55-.7-1.09-1.4-1.46-2.23-.17.25.04.49-.08.74-.52-.16-.83-.54-1.17-.9-1.17-1.25-1.96-2.75-2.76-4.24-1.28-2.4-2.25-4.91-2.79-7.57-.14-.7-.35-1.37-.66-2.01-.24-.49-.41-1.01-.54-1.54-.04-.16-.1-.32-.15-.48-.03.88-.09,1.73.03,2.59.07.55.1.55-.38.82-1.66.92-3.37,1.76-5.12,2.5-1.65.69-3.32,1.27-5.1,1.52-.94.14-1.9.1-2.64-.5-1.09-.9-1.81-2.08-1.86-3.56-.02-.59.02-1.17.11-1.75.14-.91.31-1.81.37-2.73.15-2.14-1.18-4.6-3.53-5.28-.6-.17-1.2-.38-1.82-.47-.14-.02-.29-.12-.45.03.31.18.62.35.92.54.15.09.4.17.31.39-.06.19-.29.09-.44.09-.42-.02-.84-.08-1.24-.2-.5-.15-.99-.3-1.56-.48.24.43.57.65.87.89.32.26.69.47,1.03.71.32.21.74.21,1.09.51-.84.19-1.61.09-2.37,0-.26-.03-.52-.17-.77.05h-.01c-.25-.02-.33-.18-.38-.41.47-.14.97.12,1.44-.23-1.22-.74-2.1-1.68-2.44-3.19.76.25,1.38.65,2.12.44-.08-.44-.51-.53-.68-.87,1.31-.39,2.47.17,3.64.52.1-.31-.29-.42-.13-.69.07-.01.16-.04.24-.03,2,.17,4.24,1.27,4.93,4.04.09.37.19.73.34,1.07.38.85.45,1.73.4,2.64-.04.69-.06,1.38-.07,2.07-.01.82.27,1.56.65,2.27.36.65.81.83,1.65.59.18-.04.35-.15.51-.24,1.78-1.02,3.51-2.12,5.16-3.34,1.58-1.17,3.14-2.36,4.72-3.54.15-.11.29-.3.54-.28.08.27-.12.56.05.87.08-.12.14-.18.17-.25.57-1.43,1.56-2.56,2.64-3.62,1.44-1.43,3.19-2.1,5.21-2.1.67,0,1.34.02,2,.09,1.14.11,2.2-.17,3.28-.78-1.89.37-3.66.19-5.43.05.01-.16.09-.2.15-.24,1.8-1.28,3.71-2.35,5.67-3.36,1.77-.91,3.58-1.71,5.52-2.19,1.28-.32,2.51-.82,3.67-1.45.81-.45,1.66-.8,2.52-1.13.64-.24,1.3-.41,2.04-.53-.37.85-.93,1.55-.99,2.48.23-.19.33-.44.48-.67,1.19-1.84,2.78-3.15,4.91-3.75.67-.18,1.32-.4,1.92-.76.29-.19.61-.24.96-.19.38.05.76.13,1.16.09-.18-.2-.41-.24-.62-.31-.94-.31-1.74-.83-2.47-1.47-2.6-2.29-3.73-5.03-2.59-8.47.22-.66.41-1.32.6-1.98.77-2.62.28-4.99-1.38-7.15-.99-1.29-2.13-2.42-3.38-3.44-2.6-2.11-5.47-3.78-8.45-5.27-.87-.43-1.75-.83-2.38-1.04.45.3,1.2.7,1.95,1.11,2.95,1.62,5.74,3.44,8.21,5.74,1.47,1.39,2.75,2.93,3.62,4.77.84,1.74,1.07,3.55.63,5.43-.22.92-.46,1.83-.64,2.75-.59,3.11.69,6.81,3.86,8.6.09.05.18.1.19.23-.18.17-.42.25-.66.34-1.31.49-2.66.45-4.02.23-.82-.13-1.49-.52-2.08-1.09-.09-.09-.24-.18-.17-.39,1.14-.22,2.34-.34,3.35-1.06-1.08-.21-2.14-.45-3.18-.76-1.17-.35-2.3-.77-3.28-1.53-.18-.15-.41-.28-.46-.61,1.56-.12,3.08-.23,4.61-.35-.2-.16-.4-.21-.6-.26-1.33-.29-2.64-.67-3.88-1.23-1-.44-1.95-.97-2.75-1.72-.2-.19-.46-.35-.5-.72,1.23.12,2.41.32,3.6.37,1.17.05,2.35.16,3.55-.04-.12-.18-.26-.14-.37-.16-1.67-.3-3.31-.73-4.88-1.38-1.22-.5-2.41-1.08-3.4-1.98-.21-.19-.45-.36-.59-.73.51.07.96.14,1.4.19.46.06.92.11,1.37.16.46.04.92.07,1.38.09.48.01.96,0,1.44,0s.93.01,1.39,0c.43,0,.87.06,1.41-.17-4.86-.58-9.37-2.43-10.61-4.33.81-.18,1.62-.09,2.41-.28-.7-.23-1.38-.48-2.04-.76-.65-.28-1.29-.59-1.94-.88.43.61,1.09.88,1.7,1.38-.64.16-1.14-.07-1.78-.02,1.89,1.68,3.86,3.02,5.92,4.26-1.15.05-2.25-.16-3.48-.32,1.25,1.88,2.96,3.04,4.76,4.13-.76.15-1.51-.05-2.3-.06.13.36.37.58.57.81,1.32,1.53,3.02,2.51,4.89,3.27-.43.19-.86.13-1.29.15-.42.02-.85-.08-1.3.03.28.6.66,1.01,1.41,1.47,1.47.92,3.04,1.57,4.75,1.88.16.03.35.02.51.19-.58.25-1.15.24-1.71.29-.33.03-.67.04-.99.12-.23.05-.27.17-.16.36.27.45.6.85,1,1.19.74.62,1.61.97,2.53,1.22.18.05.39.06.56.24-1.33,1-2.78,1.42-4.38,1.35-1.65-.07-3.66-.61-4.23-1.16,1.38-.39,2.78-.68,4.11-1.29-.16-.18-.29-.16-.4-.16-1.98-.15-3.88-.65-5.76-1.25-.69-.23-1.38-.49-2.03-.83-.16-.09-.4-.12-.4-.42,1.73,0,3.44.04,5.15-.2-1.89-.46-3.75-1.02-5.55-1.77-1.8-.76-3.54-1.61-5.16-2.73.6-.12,1.17.03,1.74.06.58.02,1.17.09,1.75.1.61.02,1.22,0,1.82-.01.56-.02,1.12-.06,1.79-.14-.3-.16-.5-.16-.68-.2-2.09-.34-4.14-.82-6.11-1.61-1.21-.49-2.37-1.06-3.37-1.92-.2-.18-.47-.32-.55-.68,1.15.07,2.25.16,3.35.22,1.08.05,2.17.13,3.25-.03-.1-.08-.21-.09-.31-.11-2-.32-3.98-.78-5.88-1.53-1.17-.46-2.29-1.01-3.23-1.88-.17-.17-.39-.31-.42-.6,2.75.13,5.48.1,8.2-.09-.33-.06-.67-.11-1-.15-1.73-.19-3.44-.52-5.1-1.05-1.01-.33-2.01-.72-2.93-1.26-.2-.11-.46-.2-.53-.57,1.33-.08,2.63-.09,3.92-.41-2.26-.4-4.36-1.29-6.49-2.09.29.36.69.54,1.08.72.67.29,1.35.56,2.02.85.16.07.37.08.4.38-.44.03-.85.05-1.26.09-.4.03-.82-.08-1.24.08.24.42.56.68.88.94.91.73,1.94,1.23,3.02,1.64.2.08.43.11.64.4h-2.77c.3.7.74,1.19,1.22,1.65.84.81,1.85,1.37,2.89,1.86.18.09.4.12.51.38-.67.08-1.3-.14-1.99-.09.28.51.69.8,1.07,1.12.39.32.77.64,1.17.94.42.31.84.62,1.28.91.42.28.86.52,1.28.79.41.25.89.37,1.35.73-.79.09-1.49.01-2.26.11.33.46.68.72,1.02.99,1.81,1.39,3.77,2.48,5.9,3.28.2.07.44.08.58.34-.66.12-1.28,0-1.92.13,2.27,1.93,5.04,2.64,7.84,3.33-.95.48-2,.64-3.01.99.28.56.72.84,1.18,1.08.87.44,1.8.68,2.77.79.14.02.33-.04.41.16-.09.17-.25.22-.4.29-1.29.6-2.61,1.15-3.96,1.58-2.42.76-4.88,1.21-7.42.75-.64-.12-1.29-.23-2-.66.82-.26,1.41-.63,1.96-1.08.09-.07.24-.09.36-.1,1.35-.18,2.66-.56,3.97-.93.15-.05.32-.05.43-.25-.54.06-1.06.12-1.57.18-2.06.27-4.12.37-6.2.18-1.53-.15-3.01-.48-4.4-1.18-.25-.12-.54-.22-.69-.48.07-.13.17-.15.27-.17,1.06-.25,2.11-.52,3.16-.83.24-.08.49-.09.74-.08,2.08.05,4.14-.2,6.2-.42.16-.01.33-.01.45-.17-3,.03-5.98.01-8.96-.28-1.79-.17-3.57-.42-5.29-.96-.52-.17-1.01-.36-1.43-.69.04-.13.1-.13.16-.14,1.19-.16,2.33-.47,3.41-1.01.21-.11.44-.13.67-.11,1.13.1,2.26.03,3.39-.02.4-.01.79-.07,1.19-.1.38-.02.76-.05,1.13-.19-.15-.01-.29-.03-.43-.03-2.87-.03-5.73-.28-8.57-.66-2.14-.29-4.26-.66-6.33-1.26-1.05-.3-2.09-.63-3.01-1.22-.21-.13-.43-.25-.54-.49.24-.13.45-.06.64-.04,1.35.09,2.68.02,3.97-.44.36-.13.74-.13,1.12-.09,2.32.29,4.64.1,6.95-.02.43-.02.85-.09,1.38-.16-1.94-.17-3.79-.13-5.62-.29-2.42-.21-4.83-.53-7.18-1.15-1.28-.33-2.53-.75-3.7-1.37-.13-.07-.32-.11-.31-.36.69-.02,1.37,0,2-.21,1.26-.42,2.54-.52,3.87-.54,2.39-.02,4.77-.33,7.27-.74-.38,0-.61-.01-.84,0-.94.03-1.89.07-2.83.11-2.66.13-5.31-.05-7.93-.53-2.2-.39-4.3-1.08-6.18-2.32-.26-.17-.54-.31-.7-.67,1.04.09,2.03.01,2.98-.17,1.04-.19,2.04-.04,3.06.1,1.99.27,3.99.41,6,.28.57-.04,1.16-.03,1.79-.27-.6-.12-1.11-.06-1.62-.1-2.21-.18-4.42-.38-6.61-.74-2.17-.35-4.32-.82-6.38-1.61-1.19-.46-2.34-1.02-3.28-1.92-.19-.19-.41-.35-.45-.64.16-.1.3-.04.44-.02,1.44.21,2.87.34,4.31.07.16-.03.34-.02.5,0,1.27.2,2.54.3,3.81.36,1.04.05,2.08.2,3.11.05.08.02.15.04.23.06.13.05.27.1.39-.03,0-.12-.1-.13-.17-.12-.15.04-.3.07-.45.09-.35-.08-.71-.12-1.07-.16-2.14-.24-4.28-.5-6.4-.91-1.85-.35-3.69-.73-5.47-1.37-.63-.23-1.23-.52-1.79-.9-.21-.14-.46-.27-.51-.58.1-.02.16-.03.22-.03.17.01.33.03.5.06,2.11.34,4.2.27,6.3-.14,3.37-.67,6.55-1.9,9.61-3.42,2.57-1.28,5.23-2.21,8.08-2.61,2.04-.29,4.11-.44,6.19-.59-1.16-.18-2.32-.17-3.47-.2-1.46-.03-2.92.08-4.37.33-2.1.36-4.08,1.08-6.02,1.92-2.21.96-4.34,2.08-6.59,2.94-1.94.74-3.93,1.31-6.02,1.42-.28.02-.56.07-.85,0,.04-.09.04-.14.07-.15.09-.05.19-.09.29-.12,1.75-.53,3.37-1.35,4.96-2.25,3.3-1.86,6.68-3.54,10.3-4.73,2.94-.96,5.96-1.5,9.05-1.62,1.65-.06,3.3.07,4.94.26,3.99.47,7.78,1.57,11.32,3.5,1.91,1.04,3.74,2.21,5.53,3.45,1.99,1.36,4.02,2.65,5.89,4.17,1.62,1.3,2.97,2.82,3.92,4.68.26.51.39,1.05.37,1.63-.03.87-.28,1.68-.61,2.48-.44,1.06-1,2.07-1.54,3.09-.3.57-.59,1.15-.78,1.78-.12.41-.15.82,0,1.23.12.31.21.63.35.94,1.12,2.55,3.02,4.37,5.42,5.72.16.09.32.21.52.17.53.38,1.13.69,1.55,1.22.1.13.25.24.1.49-1.07-.25-2.15-.13-3.23.12-.02.13.02.18.08.2,0,0,.01,0,.01,0,.09.12.23.18.37.26,1,.55,1.59,1.39,1.75,2.51.19,1.3-.03,2.54-.52,3.74-.25.63-.47,1.27-.71,1.9.12-.05.19-.13.25-.21.57-.76.58-.77,1.11.04.84,1.31,1.42,2.75,1.76,4.27.27,1.24.36,2.48.15,3.74-.07.41-.11.42-.48.25-.06-.02-.11-.05-.17-.08-1.36-.65-2.81-.79-4.28-.75-.25,0-.54,0-.73.32.22.1.4.07.58.07.65.01,1.3.05,1.94.15,1.73.27,3.15.99,4.08,2.59.72,1.24,1.64,2.36,2.5,3.52,1.4,1.89,3.42,2.72,5.55,3.41.07-.21-.25-.24-.13-.46.83.16,1.51.6,2.09,1.18.23.22.46.44.75.56.65.28,1.29.6,1.9.98.26.16.48.13.75,0,.93-.43,1.67-1.1,2.25-1.94.28-.4.61-.69.99-.92.43-.28.92-.45,1.43-.6.21-.06.44-.09.59.09.27.34.64.37,1.01.4.45.03.86.18,1.22.46.15.12.24.26.18.48-.27.97-1.39,1.54-2.34,1.17-.14-.06-.28-.16-.46-.16.18.46.15.53-.22.67-.31.13-.66.08-.96.29.2.42.16.83.09,1.25-.11.78-.43,1.48-.72,2.2-.21.53-.24,1.06-.04,1.59.11.3.19.6.18.92,0,.24.11.38.32.48.59.26,1.18.54,1.77.82.21.1.43.15.67.12.25-.04.53-.08.61-.35.08-.26-.09-.47-.28-.65-.32-.3-.71-.36-1.11-.34-.24.01-.41-.02-.44-.3-.04-.31-.23-.54-.4-.78-.34-.48-.3-.88.07-1.36.67-.87,1.33-1.78,1.5-2.92.02-.17.14-.25.3-.27.12-.02.25-.03.37-.07.64-.18,1.33-.2,1.92-.53.66-.36.76-.33.93.42.01.06.03.13.05.2.03.16.04.33-.05.51-.3-.07-.49-.3-.7-.5-.15-.14-.29-.3-.54-.23-.48.13-.97.24-1.46.36-.16.04-.33.1-.38.29-.3,1.05-.96,1.89-1.6,2.75-.32.43-.46.81-.04,1.26.08.08.14.21.17.33.08.3.27.41.58.46.71.09,1.31.43,1.74,1.02.75,1.05.14,2.56-1.1,2.71-.15.02-.35.09-.41-.06-.17-.37-.49-.26-.76-.25-.55.02-1.03-.11-1.43-.5-.39-.35-.78-.69-1.17-1.04-.28-.25-.57-.49-.92-.65-1.08-.48-1.91-1.24-2.5-2.25-.02-.02-.03-.05-.05-.08-.16-.27-.32-.54-.56-.75-1.06-.89-2.26-1.51-3.65-1.68-.73-.09-1.43-.06-2.12.33-.92.52-1.94.79-2.97.97-.67.12-1.55.08-1.95-.07.15-.26.53-.28.62-.58-.15-.11-.32-.12-.49-.14-.81-.1-1.61-.25-2.41-.42-1.91-.41-3.75-1.01-5.5-1.9-.2-.11-.46-.17-.59-.46.43-.04.79.03,1.16.06.39.03.78.07,1.26-.14-1.27-.69-2.42-1.41-3.46-2.28-1.06-.89-2.03-1.85-2.91-3.04.86.07,1.56.45,2.46.49-2.96-2.97-4.44-6.46-4.59-10.66-.36.65-.47,1.2-.58,1.76-.1.52-.13.52-.66.44-.42-.07-.79-.29-1.21-.46.18.49.64.71.86,1.2-1.17-.09-2.23-.3-3.21-.85.05.11.1.2.18.26,1.03.81,2.15,1.43,3.46,1.66.24.04.53-.01.62.32.25.88.49,1.77.73,2.66.01.04.02.08.02.12,0,.41-.38.63-.73.44-.13-.07-.23-.18-.39-.18-.06.1-.04.21,0,.3.16.38-.01.62-.31.84-.48.34-.95.69-1.48.95-.29.14-.58.29-.9.45.18.29.45.43.65.64.15.15.19.34.07.51-.13.2-.32.15-.5.06-.29-.15-.51-.37-.72-.6-.42-.46-.53-.48-1.2-.2.07.09.13.16.19.24.15.17.26.36.07.55-.18.18-.4.11-.57-.02-.19-.13-.39-.26-.53-.44-.28-.33-.6-.38-1.01-.26.05.09.06.15.1.19.15.18.24.37.03.55-.19.17-.4.08-.58-.03-.25-.15-.44-.38-.64-.59-.18-.19-.37-.33-.63-.39-1.18-.29-2.22-.84-3.17-1.6-.1-.08-.2-.2-.4-.13.45,1.95,1.98,2.98,3.52,4.11-.75.2-1.35.03-1.93-.19-.61-.23-1.15-.58-1.68-.96-.49-.36-.75-.93-1.32-1.38.22.45.39.79.55,1.13-.05.05-.1.1-.15.16-.27.01-.5-.2-.8-.17.25.18.48.34.71.53,1,.81,1.35,1.92,1.43,3.15.07,1.07-.02,2.13-.14,3.19-.18,1.58-.37,3.15-.88,4.67-.12.36-.24.72-.36,1.07-.08.23.02.31.23.3.24-.02.45-.11.65-.23.6-.37,1.21-.74,1.76-1.19.42-.35.82-.73,1.1-1.19,1.22-1.95,2.55-3.82,3.72-5.81.3-.51.3-.5.88-.32.49.16.5.17.23.57-.89,1.36-1.78,2.73-2.69,4.08-1.25,1.87-2.62,3.64-4.73,4.64-.43.2-.55.53-.4.97-.11.43-.01.84.13,1.23.36,1.03.62,2.08.92,3.13.44,1.52.9,3.04,1.34,4.57.27.92.51,1.85.77,2.77.05.17.07.36.33.52v-1.13c-.01-3.98-.01-7.95-.01-11.93,0-.6.09-.73.66-.74,1.48-.02,2.97-.02,4.46-.01.34.01.52.17.52.41,0,.1-.04.23-.12.36-.05.09-.1.19-.17.26-.4.35-.5.8-.47,1.31.02.24,0,.5,0,.75,0,8.03,0,16.07,0,24.1,0,.19.01.38,0,.57,0,.38.07.73.26,1.08.25.48.57.96.33,1.58.45.03.84.09,1.22-.04-.14-.58-.14-.74.21-1.34.34-.6.48-1.23.47-1.92-.06-5.5.08-11-.1-16.5-.08-2.66-.03-5.32-.01-7.97.01-.61-.06-1.16-.48-1.63-.09-.11-.17-.24-.23-.37-.03-.06-.04-.12-.04-.18,0-.16.12-.3.31-.34.1-.02.21-.01.32-.02,1.82-.09,3.64,0,5.46,0,.31.01.71-.16.91.22.23.42-.17.67-.39.9-.32.33-.42.68-.42,1.13.07,4.54-.05,9.07.09,13.61.11,3.73.03,7.45.02,11.18-.01.71.08,1.36.54,1.94.2.25.35.57.19.87-.17.33-.54.26-.85.25-.54-.04-1.08-.07-1.62.06,1.61-.13,3.21.14,4.81.07s3.18.17,4.78.06c-.18-.14-.37-.13-.55-.13-.72.01-1.42-.1-2.12-.23-.76-.15-1.51-.34-2.17-.77-.16-.1-.33-.19-.3-.42.78.46,1.6.83,2.51.94,1.83.23,3.66.32,5.51.26.48-.02.95-.12,1.41-.3,1.06-.41,1.58-1.15,1.58-2.3,0-2.47,0-4.94,0-7.41,0-.53-.1-1.03-.27-1.53-.25-.79-.64-1.49-1.19-2.12-1.76-1.99-3.49-4-5.24-5.99-.56-.64-.93-1.35-.94-2.21-.01-1.44-.01-2.88,0-4.33,0-.47.04-.51.48-.51.76-.01,1.51.03,2.26.01.36,0,.42.16.41.46,0,1.02,0,2.05,0,3.07.01.34-.08.6-.32.84-.28.28-.53.59-.78.9-.13.15-.08.27.12.3.08.02.17.01.25.01h4.58c.54-.01.54-.02.55-.58,0-1.51-.03-3.01.02-4.52.04-1.33-.73-2.31-1.95-2.77-.69-.26-1.42-.38-2.15-.4-1.23-.03-2.47-.02-3.7,0-.77.02-1.54.15-2.28.41-1.36.49-1.93,1.3-1.93,2.74s.05,2.89-.01,4.33c-.05,1.48.46,2.67,1.45,3.74,1.74,1.87,3.43,3.78,5.13,5.68.65.72,1.07,1.56,1.08,2.54.03,2.22.03,4.44.03,6.65,0,.43-.01.43-.47.45-.73.02-1.46-.06-2.19-.1-.47-.02-.48-.02-.48-.5,0-1.51.02-3.02-.01-4.52-.01-.46.12-.81.42-1.14.26-.3.55-.6.69-.97-.09-.13-.18-.12-.26-.12-1.65.02-3.31.03-4.96.05h-.06c-.22,0-.29.13-.3.32-.01.12,0,.25-.01.37-.01,1.76-.01,3.52-.03,5.27-.01.7,0,1.37.22,2.03h0c-.46-.33-.47-.86-.48-1.34-.03-2.15-.02-4.3,0-6.46,0-.68.08-.75.76-.75,1.62-.01,3.23-.01,4.84-.01.21,0,.42,0,.63.01.36.02.48.18.4.52-.04.14-.12.26-.22.38-.28.35-.56.72-.86,1.07-.11.14-.18.27-.18.45,0,1.44-.01,2.88-.01,4.33,0,.31.13.43.45.46.46.06.91.07,1.37.06.52-.01.59-.07.59-.57.01-1.84.01-3.68,0-5.52-.01-.95-.27-1.85-.85-2.58-.82-1.02-1.75-1.95-2.63-2.92-1.08-1.19-2.17-2.37-3.23-3.58-.67-.76-1.03-1.69-1.05-2.69-.04-1.78-.03-3.56,0-5.34.02-1.24.62-2.12,1.74-2.67.83-.4,1.69-.56,2.6-.62,1.71-.12,3.42-.12,5.13.08.45.05.9.17,1.32.36,1.29.55,2.08,1.5,2.12,2.91.06,1.65.03,3.31,0,4.96,0,.66-.12.75-.78.76h-4.96c-.19,0-.38.01-.57-.02-.37-.06-.47-.3-.28-.62.2-.37.48-.68.8-.96.26-.24.52-.51.52-.89.01-.9,0-1.8-.01-2.7,0-.23-.11-.34-.35-.34-.48.01-.96,0-1.44,0-.55.01-.58.03-.58.56-.01,1.17,0,2.34,0,3.52,0,.83.31,1.54.85,2.16,1.73,1.98,3.46,3.97,5.2,5.94,1.01,1.13,1.62,2.47,1.67,3.96.08,2.51.06,5.02.02,7.53-.02,1.22-.62,2.14-1.79,2.63-.97.41-1.99.44-3.02.41-.45-.01-.91-.11-1.35.09.78.15,1.57.13,2.35.18,1.99.13,3.97.3,5.94.46.91.08,1.82.18,2.72.29.61.07,1.21.16,1.82.24,2.22.3,4.43.6,6.63.98,1.09.19,2.17.45,3.28.55.14.03.28.04.43.07,1.94.45,3.88.9,5.82,1.36.05.05.12.16.17.15.32,0,.61.08.91.16q.6.17.61-.43v-.38c0-4.07,0-8.15.01-12.23,0-.66.06-.74.7-.74,2.42-.01,4.85,0,7.27.01.21,0,.43-.01.54.22.12.27-.05.44-.21.6-.43.43-.85.86-1.3,1.28-.24.22-.35.48-.38.81-.08.71-.08,1.42-.08,2.13,0,2.72,0,5.44-.01,8.16,0,.45.15.69.56.84.59.21,1.16.48,1.74.72.73.29.76.27.76-.51.01-3.7.02-7.4.01-11.1-.01-1.07-.07-2.13-.17-3.19-.04-.44-.2-.8-.53-1.1-.27-.24-.53-.47-.85-.65-1.92-1.09-3.85-2.16-5.82-3.19-1.51-.78-2.34-2.02-2.34-3.77v-10.91c0-.19.03-.38.05-.56.15-.07.29-.1.33.11.03.14.02.29.02.44,0,2.49-.01,4.98-.01,7.47,0,1.11.01,2.21,0,3.32-.02,1.58.73,2.71,2.06,3.49.17.09.33.18.5.26,1.84.91,3.61,1.95,5.39,2.95.32.18.6.39.87.63.42.37.67.83.72,1.41.08.89.16,1.79.18,2.69.08,4.14.02,8.28.04,12.42,0,.21.04.42-.05.63-.24.04-.44-.09-.65-.17-.89-.37-1.77-.76-2.67-1.1-.39-.15-.53-.35-.53-.78.03-1.65.01-3.31.01-4.96.01-1.93.02-3.85.02-5.78,0-.36.09-.63.37-.87.38-.33.74-.69,1.09-1.04.13-.12.31-.22.28-.5-.12-.01-.24-.02-.36-.02h-6.53c-.08,0-.16.01-.25.01-.2,0-.3.11-.3.31v.32c-.03,4.22-.05,8.45-.08,12.67,0,.25.05.5-.08.75-.55-.07-1.06-.25-1.58-.39-6.1-1.55-12.27-2.64-18.51-3.36-4.98-.58-9.96-.93-14.96-1.03-4.54-.09-9.08-.07-13.62.21-2.86.17-5.72.38-8.57.69-3.87.42-7.71,1-11.53,1.75-2.09.41-4.16.87-6.2,1.44.84-.11,1.69-.19,2.52-.36,1.83-.37,3.68-.59,5.52-.83,5.8-.74,11.62-1.06,17.46-1.14,3.33-.05,6.66.06,9.98.23,5.71.3,11.39.89,17.04,1.75,3.86.58,7.71,1.3,11.52,2.18,4.28.99,8.51,2.16,12.66,3.63,3.51,1.24,6.99,2.57,10.26,4.37.57.32,1.17.56,1.83.64.88.11,1.4-.27,1.57-1.14.08-.43.09-.87.09-1.31v-19.84c0-.48-.02-.96-.09-1.44-.43-3.11-1.89-5.53-4.75-7.02-1.44-.76-2.86-1.57-4.3-2.34-.3-.16-.4-.36-.4-.69.01-4.15.01-8.29.01-12.43,0-.5.01-.51.54-.51.96.01,1.93.03,2.89.04.47.01.48.02.48.5,0,1.76.01,3.52,0,5.27-.02,2.08.29,1.4-1.22,2.83-.22.2-.49.37-.62.66.14.16.29.11.43.11,2.16,0,4.31,0,6.47-.01q.62,0,.62-.61c0-2.17.01-4.35-.01-6.52,0-.86,0-1.72-.11-2.57-.22-1.7-1.13-2.84-2.74-3.42-.72-.26-1.47-.32-2.22-.32-.35,0-.46-.15-.41-.46.81.05,1.62.02,2.42.25,2.01.59,3.01,1.68,3.41,3.88.09.49.1,1,.09,1.5v7.66c0,.9-.01.9-.86,1.05-.25.05-.5.07-.75.07h-6.21c-.28,0-.56.02-.69-.29-.14-.34.03-.58.27-.77.47-.38.9-.81,1.33-1.23.23-.21.34-.45.34-.77-.01-1.98-.01-3.97-.02-5.96,0-.42-.02-.44-.48-.45-.71-.01-1.42,0-2.13-.01-.33-.01-.45.13-.44.44.01.73,0,1.47,0,2.2,0,3.12.02,6.23-.01,9.35,0,.56.22.8.67,1.05,1.67.91,3.37,1.75,4.97,2.78,1.73,1.11,2.77,2.74,3.41,4.65ZM117.6,110.89c.61,0,.63-.04.35-.57-.05-.1-.11-.19-.17-.27-.32-.49-.43-1.02-.42-1.61.02-1.48,0-2.97,0-4.45,0-6.91,0-13.81-.01-20.72,0-.42.07-.77.38-1.08.12-.11.29-.24.26-.51-1.96-.11-3.91-.05-5.88-.08-.01.28.12.37.19.49.19.3.41.56.4.96-.01.73.05,1.47.05,2.2l.03,22.53c0,.99.03,1.97-.57,2.84-.17.25-.08.36.25.38.12.01.25,0,.37-.01,1.59-.14,3.18-.08,4.77-.1ZM109.62,111.1c.54-.04.55-.07.35-.56-.09-.21-.18-.42-.29-.62-.18-.33-.22-.67-.22-1.03,0-8.6-.01-17.2-.02-25.8,0-.31.07-.57.27-.81.14-.18.36-.34.36-.62-.23-.1-.44-.06-.64-.06h-3.27c-.85,0-.73-.01-.73.75-.01,4.96-.01,9.92-.01,14.88v.78c-.15-.18-.22-.37-.27-.56-.62-2.13-1.23-4.25-1.84-6.37-.55-1.87-1.09-3.75-1.63-5.62-.31-1.08-.71-2.15-.59-3.31.05-.54.02-.55-.55-.56-1.24,0-2.47,0-3.71.01-.13,0-.29-.04-.43.13.07.12.12.28.23.4.39.46.47.98.47,1.57-.02,4.77,0,9.54-.02,14.31,0,3.98,0,7.95,0,11.93,0,.54-.13,1.02-.36,1.5-.12.26-.33.49-.32.86,1.83-.21,3.65-.42,5.49-.64-.1-.39-.27-.65-.43-.91-.23-.39-.33-.8-.32-1.26.02-.77-.01-1.54-.01-2.32-.01-5.17-.01-10.33-.02-15.5,0-.17-.02-.34.12-.57.07.21.12.37.17.53,1.08,3.91,2.15,7.82,3.23,11.73.46,1.65.96,3.29.82,5.04-.07.88.02,1.76-.39,2.58-.02.04-.03.08-.04.12-.06.2.05.27.23.28.08,0,.16-.01.25-.01,1.37-.09,2.75-.18,4.13-.27ZM105.03,107.25c.03-.51-.05-1-.18-1.49-.91-3.32-1.83-6.63-2.74-9.95-.12-.42-.25-.83-.4-1.35-.13.28-.11.45-.11.62-.02,1.1-.04,2.21-.04,3.32,0,3.53,0,7.06.03,10.59,0,.78.1,1.48.57,2.12.11.15.16.34.23.51.07.19-.15.32-.16.51.84-.06,1.64-.12,2.52-.19-.31-.39-.29-.7-.11-1.05.13-.26.18-.56.26-.84.25-.92.09-1.87.13-2.8ZM96.67,98.13c.06-3.91.01-7.82.01-11.73,0-.23-.02-.46-.03-.69q0-.52-.45-.6c-.51-.09-1.02-.15-1.52-.25-.26-.05-.36.04-.34.28,0,.1.03.2.04.3-.01.09-.03.17-.03.25,0,8.28,0,16.56,0,24.84,0,.29.11.51.27.74.34.49.79.93.7,1.6.27.08.49.06.75-.08-.33-.44-.09-.82.1-1.21.24-.51.47-1,.47-1.6.02-3.95-.03-7.9.04-11.85ZM94.84,112.49c-.11-.33-.31-.58-.5-.81-.31-.38-.4-.79-.4-1.28.01-8.16.01-16.32.01-24.48v-1c-.03-1.24-.57-2.16-1.71-2.71-.73-.35-1.5-.52-2.3-.55-2.9-.11-5.81-.03-8.72-.06-.1,0-.22,0-.25.18.16.18.32.41.52.59.36.32.43.71.43,1.18-.02,2.78,0,5.56-.02,8.34,0,6.85,0,13.69,0,20.53,0,.74-.06,1.45-.44,2.12-.11.18-.22.4-.16.6.11.1.19.07.27.05,1.7-.46,3.41-.83,5.12-1.22.53-.12.54-.16.25-.59-.05-.09-.11-.18-.18-.26-.38-.4-.47-.88-.46-1.43,0-6.47,0-12.93,0-19.39v-6.09c0-.49.01-.5.48-.51.77,0,1.55.01,2.32,0,.33,0,.45.12.44.44-.02.55,0,1.09,0,1.64v7.21c0,.56-.01.56-.56.57-.44.01-.88,0-1.31,0-.19,0-.33.04-.37.26-.15.9-.31,1.8-.47,2.68.23.14.42.1.61.1.56,0,1.13.01,1.69,0,.28,0,.45.08.42.39,0,.09,0,.17,0,.25,0,3.58,0,7.16.02,10.74,0,1.06.06,2.13-.5,3.11-.19.35-.1.42.32.35,1.43-.23,2.85-.47,4.27-.72.38-.07.79-.03,1.18-.22ZM89.19,110.5c.04-3.67-.08-7.34-.1-11.02,0-.04-.01-.08,0-.12.02-.26-.09-.39-.36-.39-.52,0-1.04.01-1.57,0-.24,0-.34.1-.33.34,0,.18,0,.37,0,.56,0,3.93,0,7.85-.01,11.78,0,.6.14,1.11.54,1.54.25.27.43.56.29.96.38.05.67-.07,1.09-.14-.35-.4-.27-.75-.08-1.1.42-.75.54-1.55.54-2.41ZM89.09,94.44v-7.7c0-.1-.01-.21-.01-.31.01-.22-.11-.3-.31-.3-.54-.01-1.08-.01-1.63-.01-.23,0-.33.12-.32.35,0,.19,0,.38,0,.57v8.26c.23-.23.49-.23.74-.24.32,0,.63.01.94,0,.58-.02.59-.02.59-.62ZM79.18,89.4c0-3.16,0-6.32-.01-9.48,0-1.6-.84-2.75-2.35-3.28-.69-.25-1.42-.36-2.16-.36-1.79,0-3.59.01-5.39,0-.57,0-1.13.05-1.68.19-1.69.43-2.78,1.48-3.22,3.17-.14.51-.15,1.03-.15,1.56,0,14.37,0,28.75.01,43.12,0,.38,0,.76.07,1.13.18,1.24.86,1.69,2.08,1.4.11-.03.2-.07.3-.1.67-.2,1.26-.56,1.85-.92,3.36-2.05,6.75-4.04,10.19-5.95.33-.18.47-.39.47-.78-.02-4.45,0-8.91-.02-13.37,0-.67,0-1.34,0-2.01-.01-.43-.02-.44-.47-.44-1.48-.02-2.97-.04-4.45-.04-.58-.01-.58,0-.58.59-.01,3.61-.01,7.23,0,10.85,0,1.01-.02,2.01.02,3.02,0,.47-.11.76-.55,1-1.05.57-2.06,1.19-3.09,1.79-.12.07-.23.19-.44.13-.1-.19-.06-.43-.06-.65,0-1.09.03-2.18.03-3.26.03-8.96.05-17.91.07-26.87v-3.51c0-1.8,0-3.6,0-5.4,0-.52,0-.53.51-.53.98-.01,1.97,0,2.95,0,.63,0,.64,0,.64.62,0,1.71-.05,3.43,0,5.14.03.93-.19,1.72-.69,2.48-.21.31-.37.65-.54.99-.11.2-.04.31.19.32.09.01.17.02.25.02,1.89.01,3.77.02,5.65.02.54,0,.56-.04.56-.59ZM79.2,77.66c0-.07-.05-.1-.11-.1-.07,0-.12.03-.12.1-.01.07.05.09.11.09s.11-.03.12-.09Z"/>
  <path class="cls-2" d="M172.62,82.02c.02,2.17.01,4.35.01,6.52q0,.61-.62.61c-2.16.01-4.31.01-6.47.01-.14,0-.29.05-.43-.11.13-.29.4-.46.62-.66,1.51-1.43,1.2-.75,1.22-2.83.01-1.75,0-3.51,0-5.27,0-.48-.01-.49-.48-.5-.96-.01-1.93-.03-2.89-.04-.53,0-.54.01-.54.51,0,4.14,0,8.28-.01,12.43,0,.33.1.53.4.69,1.44.77,2.86,1.58,4.3,2.34,2.86,1.49,4.32,3.91,4.75,7.02.07.48.09.96.09,1.44v19.84c0,.44-.01.88-.09,1.31-.17.87-.69,1.25-1.57,1.14-.66-.08-1.26-.32-1.83-.64-3.27-1.8-6.75-3.13-10.26-4.37-4.15-1.47-8.38-2.64-12.66-3.63-3.81-.88-7.66-1.6-11.52-2.18-5.65-.86-11.33-1.45-17.04-1.75-3.32-.17-6.65-.28-9.98-.23-5.84.08-11.66.4-17.46,1.14-1.84.24-3.69.46-5.52.83-.83.17-1.68.25-2.52.36,2.04-.57,4.11-1.03,6.2-1.44,3.82-.75,7.66-1.33,11.53-1.75,2.85-.31,5.71-.52,8.57-.69,4.54-.28,9.08-.3,13.62-.21,5,.1,9.98.45,14.96,1.03,6.24.72,12.41,1.81,18.51,3.36.52.14,1.03.32,1.58.39.13-.25.08-.5.08-.75.03-4.22.05-8.45.08-12.67v-.32c0-.2.1-.31.3-.31.09,0,.17-.01.25-.01h6.53c.12,0,.24.01.36.02.03.28-.15.38-.28.5-.35.35-.71.71-1.09,1.04-.28.24-.37.51-.37.87,0,1.93-.01,3.85-.02,5.78,0,1.65.02,3.31-.01,4.96,0,.43.14.63.53.78.9.34,1.78.73,2.67,1.1.21.08.41.21.65.17.09-.21.05-.42.05-.63-.02-4.14.04-8.28-.04-12.42-.02-.9-.1-1.8-.18-2.69-.05-.58-.3-1.04-.72-1.41-.27-.24-.55-.45-.87-.63-1.78-1-3.55-2.04-5.39-2.95-.17-.08-.33-.17-.5-.26-1.33-.78-2.08-1.91-2.06-3.49.01-1.11,0-2.21,0-3.32,0-2.49.01-4.98.01-7.47,0-.15,0-.3-.02-.44-.04-.21-.18-.18-.33-.11h-.01c-.41-.04-.83-.07-1.25-.11-.63-.21-1.16-.65-1.8-.84-.29-.44-.74-.77-.9-1.29.33.25.66.49.99.74.45.35.93.63,1.46.83.53.19.97.07,1.38-.3.8-.71,1-2.2.19-3.05-.22-.23-.53-.4-.62-.73h.01v-.02c.1-.14.25-.24.28-.45.13-.71.59-1.19,1.18-1.58.38-.25.81-.41,1.23-.61.34-.15.72-.27.98-.52.25-.23.49-.28.78-.28.4,0,.8-.01,1.19-.03.3-.02.58-.1.85-.21.29-.12.23-.36.17-.59-.07-.26-.26-.15-.4-.11-.81.26-1.63.37-2.47.22-.19-.04-.32.03-.44.16-.47.47-1.05.75-1.67.94-.41.13-.73.38-.98.74-.51.69-.7,1.48-.7,2.32h-.01v.02c-.25-.08-.49-.15-.82-.24.34-.15.43-.38.47-.67.17-1.1.5-2.15,1.06-3.13.05-.09.13-.18.13-.28-.02-.33.22-.41.46-.5.35-.13.69-.29,1-.51.13-.1.31-.19.33-.36.03-.26.17-.23.35-.2.26.06.53.12.8.15.54.05,1.05-.04,1.47-.39.62-.5.59-.6.17-1.12-.98-1.21-2.19-1.59-3.66-.77-.19.1-.36.22-.53.34l-.14-.17c.61-.46,1.26-.83,2.08-.86.16-.01.32-.09.47-.17.12-.07.24-.19.21-.35-.04-.19-.21-.18-.35-.18-.21.01-.42.03-.63.05-.5.04-.95.3-1.44.41,1.07-.78,2.2-1.2,3.51-.61-.18.14-.21.25.01.41.32.22.72.34.93.71-.4-.22-.72-.54-1.17-.67-.25-.07-.5-.19-.75.12.4.2.8.34,1.12.6.06.04.18.14.12.16-.42.17-.03.28.04.35.3.29.56.62.77.98.34.6.62,1.23.83,1.89.15-1.01,0-1.95-.55-2.82-.13-.21-.33-.36-.4-.6,0,0,0-.01-.01-.01.09,0,.15.03.23.07.58.35.87.26,1.17-.33.25-.51.24-.52-.28-.74-.51-.21-1.05-.18-1.58-.18,1.16-.25,2.29-.37,3.36.35.59.39,1.21.74,1.69,1.27,1,1.11,1.36,2.42,1.18,3.88-.01.09-.03.17-.05.25-.03.17-.08.32-.3.32s-.3-.11-.36-.29c-.27-.89-.79-1.64-1.39-2.34-.08-.1-.14-.29-.42-.16,1.34,1.14,1.89,2.61,1.85,4.31-.05.31.06.46.41.46.75,0,1.5.06,2.22.32,1.61.58,2.52,1.72,2.74,3.42.11.85.11,1.71.11,2.57ZM167.28,72.28c.08-.39-.03-.67-.13-.94-.52-1.35-1.51-2.28-2.77-2.93-.07-.04-.16-.08-.23-.08-.12-.01-.2.07-.23.18-.03.1.06.14.14.17.3.15.61.26.89.44.41.25-.12.2-.12.35,1.06.67,1.88,1.59,2.45,2.81ZM166.5,75.85c.06-.42.09-.84.06-1.25-.12-1.34-.69-2.42-1.87-3.13-.16-.1-.33-.24-.54-.05.21.15.41.28.58.43.11.1.3.17.22.39-.22-.07-.43-.15-.65-.22h-.03c.24.21.45.47.77.58.34.5.71.97.94,1.54.24.55.26,1.16.52,1.71ZM165.47,75.69c.13,0,.32.03.31-.19-.01-.2-.17-.2-.33-.21h-.12c-1.23,0-2.46-.04-3.69.01-1.3.05-2.51.41-3.56,1.22-.36.28-.67.62-.88,1.04-.08.16,0,.3.13.37.11.06.18-.07.23-.16.77-1.2,1.94-1.71,3.28-1.95.87-.16,1.75-.11,2.49-.12h.45c.56,0,1.12,0,1.69,0ZM165.12,74.22c.17-.05.37-.1.35-.36-.03-.3-.28-.62-.53-.59-.58.05-1.11-.07-1.64-.36-.27.46-.13.75.17,1.01.49.4,1.05.5,1.65.3ZM164.93,70.16c.02-.13-.03-.19-.09-.26-.33-.36-.91-.42-1.45-.2-.55.21-.24.59-.2.89.1.68.28.76.91.43.3-.16.54-.39.73-.67.04-.07.08-.15.1-.19ZM160.59,79.27c-.37.23-.69.44-1.02.63-.56.3-1.16.45-1.79.54-.22.04-.52.02-.57.35.14.17.37-.13.47.12-.1.21-.37.16-.49.32,1.16,0,2.83-.95,3.4-1.96Z"/>
  <path class="cls-1" d="M165.78,75.5c.01.22-.18.19-.31.19-.57,0-1.13,0-1.69,0h-.45c-.74.01-1.62-.04-2.49.12-1.34.24-2.51.75-3.28,1.95-.05.09-.12.22-.23.16-.13-.07-.21-.21-.13-.37.21-.42.52-.76.88-1.04,1.05-.81,2.26-1.17,3.56-1.22,1.23-.05,2.46-.01,3.69-.01h.12c.16.01.32.01.33.21Z"/>
  <path class="cls-1" d="M165.47,73.86c.02.26-.18.31-.35.36-.6.2-1.16.1-1.65-.3-.3-.26-.44-.55-.17-1.01.53.29,1.06.41,1.64.36.25-.03.5.29.53.59Z"/>
  <path class="cls-1" d="M164.95,72.24l.09.36c-.32-.11-.53-.37-.77-.58h.03c.22.07.43.15.65.22Z"/>
  <path class="cls-1" d="M164.84,69.9c.06.07.11.13.09.26-.02.04-.06.12-.1.19-.19.28-.43.51-.73.67-.63.33-.81.25-.91-.43-.04-.3-.35-.68.2-.89.54-.22,1.12-.16,1.45.2Z"/>
  <path class="cls-1" d="M163.16,67.84c.52.22.53.23.28.74-.3.59-.59.68-1.17.33-.08-.04-.14-.08-.23-.07-.21-.37-.61-.49-.93-.71-.22-.16-.19-.27-.01-.41l.48-.06c.53,0,1.07-.03,1.58.18Z"/>
  <path class="cls-1" d="M162.83,72.99c.06.23.12.47-.17.59-.27.11-.55.19-.85.21-.39.02-.79.03-1.19.03-.29,0-.53.05-.78.28-.26.25-.64.37-.98.52-.42.2-.85.36-1.23.61-.59.39-1.05.87-1.18,1.58-.03.21-.18.31-.28.45,0-.84.19-1.63.7-2.32.25-.36.57-.61.98-.74.62-.19,1.2-.47,1.67-.94.12-.13.25-.2.44-.16.84.15,1.66.04,2.47-.22.14-.04.33-.15.4.11Z"/>
  <path class="cls-2" d="M162.22,127.5c0,.14-.02.29-.03.45-.38.07-.7-.12-1.04-.19-.18-.04-.28,0-.29.2-.02.76-.04,1.51-.07,2.26,0,.2.09.31.28.36l.66.18c.56.17.45.08.47.63v.49c-.51-.01-.9-.28-1.39-.24-.06.83-.13,1.66-.1,2.49.01.26.12.38.37.43.2.04.4.09.6.15.45.13.46.14.44.6-.01.16.02.34-.07.51-.24.04-.44-.07-.66-.13-.7-.19-1.41-.38-2.12-.58-.47-.13-.48-.13-.46-.63.05-2.09.11-4.18.16-6.27.02-.65.01-1.3.01-1.87.17-.2.29-.13.41-.1.79.2,1.57.41,2.36.62q.46.13.47.64Z"/>
  <path class="cls-1" d="M162.04,68.84s.01.01.01.01h-.01Z"/>
  <path class="cls-1" d="M161.58,70.03c.42.52.45.62-.17,1.12-.42.35-.93.44-1.47.39-.27-.03-.54-.09-.8-.15-.18-.03-.32-.06-.35.2-.02.17-.2.26-.33.36-.31.22-.65.38-1,.51-.24.09-.48.17-.46.5,0,.1-.08.19-.13.28-.56.98-.89,2.03-1.06,3.13-.04.29-.13.52-.47.67.33.09.57.16.82.24.09.33.4.5.62.73.81.85.61,2.34-.19,3.05-.41.37-.85.49-1.38.3-.53-.2-1.01-.48-1.46-.83-.33-.25-.66-.49-.99-.74h0c0-1.08-.01-2.13,0-3.2.01-.67.04-1.34-.47-1.92.34-.14.62-.26.94-.4.42,1.31.64,2.62.82,3.93.24.01.26-.17.3-.29.57-1.76.54-3.49-.28-5.18-.04-.07-.09-.14-.13-.22-.09-.21-.07-.35.2-.4.57-.13.71-.06.98.47.05.12.11.23.17.34.02.03.06.05.14.12.19-.37.21-.76.21-1.13-.01-.41.13-.72.4-1.02.42-.46.85-.91,1.35-1.29.17-.12.34-.24.53-.34,1.47-.82,2.68-.44,3.66.77Z"/>
  <path class="cls-1" d="M160.01,68.05c.03.16-.09.28-.21.35-.15.08-.31.16-.47.17-.82.03-1.47.4-2.08.86-.12.09-.24.18-.36.28-.3.26-.61.53-.85.84-.23.29-.52.3-.83.3-.22,0-.19-.17-.12-.32.29.25.51.15.7-.13.12-.18.25-.37.37-.55.33-.43.67-.84,1.06-1.22.12-.1.25-.2.37-.3.49-.11.94-.37,1.44-.41.21-.02.42-.04.63-.05.14,0,.31-.01.35.18Z"/>
  <path class="cls-2" d="M63.48,60.3c.25-.22.51-.08.77-.05.76.09,1.53.19,2.37,0-.35-.3-.77-.3-1.09-.51-.34-.24-.71-.45-1.03-.71-.3-.24-.63-.46-.87-.89.57.18,1.06.33,1.56.48.4.12.82.18,1.24.2.15,0,.38.1.44-.09.09-.22-.16-.3-.31-.39-.3-.19-.61-.36-.92-.54.16-.15.31-.05.45-.03.62.09,1.22.3,1.82.47,2.35.68,3.68,3.14,3.53,5.28-.06.92-.23,1.82-.37,2.73-.09.58-.13,1.16-.11,1.75.05,1.48.77,2.66,1.86,3.56.74.6,1.7.64,2.64.5,1.78-.25,3.45-.83,5.1-1.52,1.75-.74,3.46-1.58,5.12-2.5.48-.27.45-.27.38-.82-.12-.86-.06-1.71-.03-2.59.05.16.11.32.15.48.13.53.3,1.05.54,1.54.31.64.52,1.31.66,2.01.54,2.66,1.51,5.17,2.79,7.57.8,1.49,1.59,2.99,2.76,4.24.34.36.65.74,1.17.9.12-.25-.09-.49.08-.74.37.83.91,1.53,1.46,2.23-.33.01-.52-.21-.69-.41-.32-.37-.71-.62-1.14-.85-.67-.36-1.25-.83-1.73-1.43-1.05-1.3-2.09-2.61-3.05-3.98-.24-.34-.52-.45-.91-.4-.33.04-.66.11-.98.21-1.37.45-2.76.82-4.23.77-.47-.02-.92-.08-1.37-.18-.88-.2-1.69-.07-2.44.47-.39.29-.42.3-.78-.03-.43-.38-.98-.55-1.43-.89.19-.28.38-.55.65-.77.16-.13.34-.23.55-.27.32-.04.45.06.44.36,0,.28-.21.63.09.81.24.15.51-.09.77-.15.49-.11.99-.24,1.49-.19.84.1,1.37-.37,1.83-.87.04-.11.02-.14-.03-.16-.18-.09-.44-.13-.45-.38,0-.28.24-.36.46-.45.11-.04.29-.04.32-.17.11-.53.56-.49.93-.56,1.15-.22,2.29-.1,3.42.18.24.06.48.12.83.2-.13-.69-.43-1.23-.59-1.82-.17-.58-.34-1.16-.49-1.75-.15-.6-.28-1.22-.42-1.84-.36,0-.61.21-.88.35-2.12,1.1-4.22,2.24-6.48,3.02-1.44.5-2.9.94-4.45.96-1.83.03-3.05-.85-3.83-2.43-.66-1.33-.78-2.72-.5-4.16.16-.82.32-1.64.38-2.48.08-1.07-.07-1.28-1.08-1.65-.48-.18-.94-.15-1.42-.05-1.05.22-2.11.33-3.18.08-1.21-.27-2.07-1.04-2.79-2-.23-.31-.17-.45.23-.58.07-.02.15-.04.26-.06-.08-.26-.27-.39-.41-.56-.62-.69-.97-1.51-1.17-2.4-.02-.12-.04-.25-.05-.37,0-.32.13-.42.43-.36.59.13.95.11,1.48-.07.71-.25,1.43-.23,2.17-.13.16.02.3.09.48.04,2.42-.6,5.14.51,6.23,2.84.85,1.82,1.56,3.7,1.3,5.79-.1.88-.04,1.76.24,2.61.09.28.2.55.35.8.32.55.48.61,1.07.4.47-.17.92-.4,1.35-.65,1.47-.85,2.86-1.82,4.22-2.83,1.79-1.34,3.57-2.7,5.26-4.17.32-.28.6-.58.83-.94,1.05-1.61,2.42-2.86,4.25-3.57,1.44-.56,2.79-1.3,4.04-2.24,1.24-.93,2.56-1.73,3.92-2.48.22-.12.45-.22.68-.46-.29-.12-.56-.14-.83-.17-.81-.1-1.62-.21-2.4-.48-.47-.17-.93-.38-1.32-.7-.35-.27-.31-.5.1-.68.28-.12.59-.18.94-.45-.43-.08-.74-.14-1.06-.19-1.51-.27-3-.6-4.39-1.26-.65-.31-1.26-.66-1.71-1.24-.1-.13-.2-.27-.26-.42-.12-.28-.03-.42.27-.49.25-.05.5-.09.75-.12s.5-.06.74-.18c-.13-.17-.32-.16-.49-.19-1.39-.27-2.78-.58-4.11-1.11-.51-.2-.99-.45-1.42-.79-.13-.1-.26-.22-.36-.35-.35-.45-.26-.67.32-.8.56-.12,1.16-.11,1.69-.41-.15-.21-.38-.17-.58-.2-2.53-.4-4.99-1.04-7.36-2.01-.84-.34-1.65-.74-2.38-1.27-.27-.2-.52-.42-.71-.7-.18-.28-.09-.49.25-.52.54-.05,1.08-.07,1.62-.11.44-.03.88-.02,1.36-.19-.29-.19-.6-.25-.88-.35-1.3-.45-2.6-.9-3.82-1.56-.35-.19-.7-.39-1-.65-.15-.12-.29-.25-.4-.4-.31-.42-.18-.7.34-.75.5-.05,1-.1,1.5-.14.07,0,.15-.03.22-.04,0-.22-.16-.19-.27-.22-1.95-.52-3.82-1.22-5.49-2.39-.57-.4-1.09-.84-1.53-1.38-.13-.14-.26-.29-.16-.5.1-.19.29-.14.45-.15.65-.04,1.31-.07,2.07-.12-.24-.25-.46-.28-.67-.36-1.27-.47-2.53-.99-3.67-1.74-.65-.42-1.25-.91-1.7-1.56-.18-.26-.33-.54-.41-.84-.11-.44,0-.57.44-.61.12-.01.24-.02.41-.03-.18-.22-.42-.24-.62-.32-.76-.31-1.5-.65-2.18-1.11-.49-.33-.89-.75-1.21-1.25-.12-.18-.22-.38-.11-.59.11-.22.33-.13.5-.13,2.28.05,4.45-.37,6.46-1.51,1.64-.92,3.31-1.78,4.96-2.68,3.23-1.75,6.62-3.11,10.2-3.95,1.74-.41,3.45-.88,5.23-1.02,2.03-.16,4.06-.16,6.08.07,1.81.2,3.61.44,5.38.9,2.81.73,5.46,1.83,7.93,3.38,2.9,1.82,5.77,3.71,8.53,5.75,1.65,1.22,3.19,2.57,4.6,4.07.28.28.57.57.75.92.18.34.38.35.71.24,1.51-.54,3.02-1.11,4.56-1.58,3.82-1.17,7.66-2.26,11.61-2.9,2.35-.38,4.61-.09,6.87.62,3.66,1.15,7.07,2.78,10.16,5.08,2.2,1.63,3.68,3.74,4.23,6.45.41,2.07-.32,3.76-2.09,4.92-1.2.8-2.56,1.21-3.92,1.62-1.39.42-2.82.62-4.24.84-2.91.45-5.69,1.34-8.4,2.47-.7.29-1.4.56-2.1.84-.19.08-.41.11-.59.35,3.08.93,6.12,1.9,9.08,3.16.14-.3-.05-.53-.06-.76-.02-.3.09-.53.34-.69.25-.17.49-.11.7.05.87.68,1.77,1.34,2.47,2.22.11.15.25.3.31.47.25.73.78,1.19,1.38,1.63.64.48,1.19,1.06,1.73,1.64.19.2.38.37.66.46.15.05.3.13.45.22,1.12.64,1.52,1.68,1.02,2.88-.14.35-.1.57.12.83.46.57.95,1.12,1.18,1.84.83,2.47.37,4.65-1.45,6.53-.5.52-1.06.96-1.67,1.33-.09.05-.17.12-.27.16-.34.15-.52.04-.52-.34-.01-.52-.05-1.04-.09-1.56-.03-.38-.13-.74-.25-1.1-.11-.33-.31-.59-.72-.66-.07.44.09.83.15,1.23.06.46.1.91.05,1.37-.07.57-.33.8-.89.87-.52.06-.94-.16-1.35-.43-1.2-.79-2.38-1.63-3.53-2.5-.79-.59-1.58-1.17-2.35-1.78-.34-.28-.66-.43-1.07-.2-.11.06-.24.08-.36.11-1.31.29-2.41.94-3.35,1.88-.5.5-.99,1.01-1.47,1.54-.48.55-.44,1.03.1,1.53.25.23.55.39.86.51,2.26.89,4.53,1.74,6.86,2.41.41.12.85.13,1.28.08l.02.26c-.82.05-1.75.66-2.1,1.52l.1.16c-.38.23-.71.52-.99.92-.58.84-1.32,1.51-2.25,1.94-.27.13-.49.16-.75,0-.61-.38-1.25-.7-1.9-.98-.29-.12-.52-.34-.75-.56-.58-.58-1.26-1.02-2.09-1.18-.12.22.2.25.13.46-2.13-.69-4.15-1.52-5.55-3.41-.86-1.16-1.78-2.28-2.5-3.52-.93-1.6-2.35-2.32-4.08-2.59-.64-.1-1.29-.14-1.94-.15-.18,0-.36.03-.58-.07.19-.31.48-.32.73-.32,1.47-.04,2.92.1,4.28.75.06.03.11.06.17.08.37.17.41.16.48-.25.21-1.26.12-2.5-.15-3.74-.34-1.52-.92-2.96-1.76-4.27-.53-.81-.54-.8-1.11-.04-.06.08-.13.16-.25.21.24-.63.46-1.27.71-1.9.49-1.2.71-2.44.52-3.74-.16-1.12-.75-1.96-1.75-2.51-.14-.08-.28-.14-.37-.26.05.03.12.03.18.03.58.04,1.04.39,1.53.63.53.25.79.78,1.04,1.3.28.61.44,1.26.63,1.9.49,1.58,1.38,2.8,2.97,3.42.12.05.29.06.29.28-.63.03-1.21-.12-1.78-.33-.58-.2-1.1-.54-1.7-.83.23.65.52,1.09,1.03,1.61,1.12,1.14,2.5,1.79,4.03,2.17.15.04.34,0,.4.26-1.15.55-2.39.42-3.62.44.1.1.18.15.28.2,1.02.51,2.11.61,3.23.6,1-.02,2.01-.06,3.01.02.73.05,1.46.14,2.13.47.1.04.26.05.2.27-1.59-.09-3.04.39-4.46,1.03-.46.21-.93.38-1.41.54-.93.3-1.88.38-2.82,0-.06-.03-.11,0-.16.06.17.44.49.74.93.95.99.46,2.03.44,3.07.25.99-.18,1.91-.61,2.84-.98,1.17-.46,2.38-.76,3.65-.69.27.01.55,0,.82-.01.03,0,.06-.04.1-.07-.03-.17-.36-.14-.28-.4.73,0,1.48.02,2.16-.27,2.05-.86,4.17-1.5,6.29-2.13,1.01-.31,1.4-1.07,1.67-2-.57-.11-1.1-.17-1.56-.42-.37-.2-.42-.13-.6.23-.44.9-1.4,1.27-2.32.93-.91-.34-1.3-1.15-1.15-2.25.02-.18.18-.14.29-.16.08.12.12.26.09.41-.04.32.02.62.19.91.26.46.85.76,1.37.69.58-.07,1.05-.47,1.21-1.04.16-.56.03-.86-.56-1.31-.05-.04-.1-.07-.15-.11-.54-.44-1.08-.5-1.64-.02-.07-.08-.13-.17-.12-.28.02-.13.05-.25-.11-.3-.14-.04-.25.02-.34.12-.07.1-.16.2-.2.31-.09.26-.16.52-.26.83-.16-.28-.09-.53-.07-.77.02-.25.22-.44.26-.67-.25-.15-.53-.01-.83-.14.41-.25.78-.26,1.16-.19.33.06.64.16.95.3.16.07.31.12.48.02q.26-.17.32-.14c.39.15.75.36,1.05.66.24.24.49.46.71.71.87.98,1.98,1.27,3.24,1.09l1.05-.15c.08-.01.19-.07.24-.04.45.25.84-.01,1.25-.11.32-.07.66-.11.99-.01.09.03.23.17.18.19-.26.13,0,.48-.27.59-.15-.07-.07-.21-.1-.32s-.08-.18-.2-.18c-.13.01-.17.1-.19.21-.17.61-.16.63.42.93.12.07.24.13.33.26.08.11.24.18.38-.03.47-.67.35-1.57-.29-2.07-.27-.21-.56-.37-.88-.49-.21-.09-.4-.21-.55-.4-.78-1.02-1.8-1.74-2.9-2.35-4.26-2.34-8.8-3.94-13.45-5.28-1.39-.39-2.83-.53-4.25-.81-2.22-.43-4.44-.84-6.72-.67-.49.03-.99.06-1.49.2.06.19.18.26.28.37-.2.04-.36-.08-.52-.17-2.4-1.35-4.3-3.17-5.42-5.72-.14-.31-.23-.63-.35-.94-.15-.41-.12-.82,0-1.23.19-.63.48-1.21.78-1.78.54-1.02,1.1-2.03,1.54-3.09.33-.8.58-1.61.61-2.48.02-.58-.11-1.12-.37-1.63-.95-1.86-2.3-3.38-3.92-4.68-1.87-1.52-3.9-2.81-5.89-4.17-1.79-1.24-3.62-2.41-5.53-3.45-3.54-1.93-7.33-3.03-11.32-3.5-1.64-.19-3.29-.32-4.94-.26-3.09.12-6.11.66-9.05,1.62-3.62,1.19-7,2.87-10.3,4.73-1.59.9-3.21,1.72-4.96,2.25-.1.03-.2.07-.29.12-.03.01-.03.06-.07.15.29.07.57.02.85,0,2.09-.11,4.08-.68,6.02-1.42,2.25-.86,4.38-1.98,6.59-2.94,1.94-.84,3.92-1.56,6.02-1.92,1.45-.25,2.91-.36,4.37-.33,1.15.03,2.31.02,3.47.2-2.08.15-4.15.3-6.19.59-2.85.4-5.51,1.33-8.08,2.61-3.06,1.52-6.24,2.75-9.61,3.42-2.1.41-4.19.48-6.3.14-.17-.03-.33-.05-.5-.06-.06,0-.12.01-.22.03.05.31.3.44.51.58.56.38,1.16.67,1.79.9,1.78.64,3.62,1.02,5.47,1.37,2.12.41,4.26.67,6.4.91.36.04.72.08,1.07.16-1.03.15-2.07,0-3.11-.05-1.27-.06-2.54-.16-3.81-.36-.16-.02-.34-.03-.5,0-1.44.27-2.87.14-4.31-.07-.14-.02-.28-.08-.44.02.04.29.26.45.45.64.94.9,2.09,1.46,3.28,1.92,2.06.79,4.21,1.26,6.38,1.61,2.19.36,4.4.56,6.61.74.51.04,1.02-.02,1.62.1-.63.24-1.22.23-1.79.27-2.01.13-4.01,0-6-.28-1.02-.14-2.02-.29-3.06-.1-.95.18-1.94.26-2.98.17.16.36.44.5.7.67,1.88,1.24,3.98,1.93,6.18,2.32,2.62.48,5.27.66,7.93.53.94-.04,1.89-.08,2.83-.11.23-.01.46,0,.84,0-2.5.41-4.88.72-7.27.74-1.33.02-2.61.12-3.87.54-.63.21-1.31.19-2,.21-.01.25.18.29.31.36,1.17.62,2.42,1.04,3.7,1.37,2.35.62,4.76.94,7.18,1.15,1.83.16,3.68.12,5.62.29-.53.07-.95.14-1.38.16-2.31.12-4.63.31-6.95.02-.38-.04-.76-.04-1.12.09-1.29.46-2.62.53-3.97.44-.19-.02-.4-.09-.64.04.11.24.33.36.54.49.92.59,1.96.92,3.01,1.22,2.07.6,4.19.97,6.33,1.26,2.84.38,5.7.63,8.57.66.14,0,.28.02.43.03-.37.14-.75.17-1.13.19-.4.03-.79.09-1.19.1-1.13.05-2.26.12-3.39.02-.23-.02-.46,0-.67.11-1.08.54-2.22.85-3.41,1.01-.06,0-.12,0-.16.14.42.33.91.52,1.43.69,1.72.54,3.5.79,5.29.96,2.98.29,5.96.31,8.96.28-.12.16-.29.16-.45.17-2.06.22-4.12.47-6.2.42-.25-.01-.5,0-.74.08-1.05.31-2.1.58-3.16.83-.1.02-.2.04-.27.17.15.26.44.36.69.48,1.39.7,2.87,1.03,4.4,1.18,2.08.19,4.14.09,6.2-.18.51-.06,1.03-.12,1.57-.18-.11.2-.28.2-.43.25-1.31.37-2.62.75-3.97.93-.12.01-.27.03-.36.1-.55.45-1.14.82-1.96,1.08.71.43,1.36.54,2,.66,2.54.46,5,.01,7.42-.75,1.35-.43,2.67-.98,3.96-1.58.15-.07.31-.12.4-.29-.08-.2-.27-.14-.41-.16-.97-.11-1.9-.35-2.77-.79-.46-.24-.9-.52-1.18-1.08,1.01-.35,2.06-.51,3.01-.99-2.8-.69-5.57-1.4-7.84-3.33.64-.12,1.26,0,1.92-.13-.14-.26-.38-.27-.58-.34-2.13-.8-4.09-1.89-5.9-3.28-.34-.27-.69-.53-1.02-.99.77-.1,1.47-.02,2.26-.11-.46-.36-.94-.48-1.35-.73-.42-.27-.86-.51-1.28-.79-.44-.29-.86-.6-1.28-.91-.4-.3-.78-.62-1.17-.94-.38-.32-.79-.61-1.07-1.12.69-.05,1.32.17,1.99.09-.11-.26-.33-.29-.51-.38-1.04-.49-2.05-1.05-2.89-1.86-.48-.46-.92-.95-1.22-1.65h2.77c-.21-.29-.44-.32-.64-.4-1.08-.41-2.11-.91-3.02-1.64-.32-.26-.64-.52-.88-.94.42-.16.84-.05,1.24-.08.41-.04.82-.06,1.26-.09-.03-.3-.24-.31-.4-.38-.67-.29-1.35-.56-2.02-.85-.39-.18-.79-.36-1.08-.72,2.13.8,4.23,1.69,6.49,2.09-1.29.32-2.59.33-3.92.41.07.37.33.46.53.57.92.54,1.92.93,2.93,1.26,1.66.53,3.37.86,5.1,1.05.33.04.67.09,1,.15-2.72.19-5.45.22-8.2.09.03.29.25.43.42.6.94.87,2.06,1.42,3.23,1.88,1.9.75,3.88,1.21,5.88,1.53.1.02.21.03.31.11-1.08.16-2.17.08-3.25.03-1.1-.06-2.2-.15-3.35-.22.08.36.35.5.55.68,1,.86,2.16,1.43,3.37,1.92,1.97.79,4.02,1.27,6.11,1.61.18.04.38.04.68.2-.67.08-1.23.12-1.79.14-.6.02-1.21.03-1.82.01-.58-.01-1.17-.08-1.75-.1-.57-.03-1.14-.18-1.74-.06,1.62,1.12,3.36,1.97,5.16,2.73,1.8.75,3.66,1.31,5.55,1.77-1.71.24-3.42.21-5.15.2,0,.3.24.33.4.42.65.34,1.34.6,2.03.83,1.88.6,3.78,1.1,5.76,1.25.11,0,.24-.02.4.16-1.33.61-2.73.9-4.11,1.29.57.55,2.58,1.09,4.23,1.16,1.6.07,3.05-.35,4.38-1.35-.17-.18-.38-.19-.56-.24-.92-.25-1.79-.6-2.53-1.22-.4-.34-.73-.74-1-1.19-.11-.19-.07-.31.16-.36.32-.08.66-.09.99-.12.56-.05,1.13-.04,1.71-.29-.16-.17-.35-.16-.51-.19-1.71-.31-3.28-.96-4.75-1.88-.75-.46-1.13-.87-1.41-1.47.45-.11.88,0,1.3-.03.43-.02.86.04,1.29-.15-1.87-.76-3.57-1.74-4.89-3.27-.2-.23-.44-.45-.57-.81.79,0,1.54.21,2.3.06-1.8-1.09-3.51-2.25-4.76-4.13,1.23.16,2.33.37,3.48.32-2.06-1.24-4.03-2.58-5.92-4.26.64-.05,1.14.18,1.78.02-.61-.5-1.27-.77-1.7-1.38.65.29,1.29.6,1.94.88.66.28,1.34.53,2.04.76-.79.19-1.6.1-2.41.28,1.24,1.9,5.75,3.75,10.61,4.33-.54.23-.98.16-1.41.17-.46.01-.93,0-1.39,0s-.96.01-1.44,0c-.46-.02-.92-.05-1.38-.09-.45-.05-.91-.1-1.37-.16-.44-.05-.89-.12-1.4-.19.14.37.38.54.59.73.99.9,2.18,1.48,3.4,1.98,1.57.65,3.21,1.08,4.88,1.38.11.02.25-.02.37.16-1.2.2-2.38.09-3.55.04-1.19-.05-2.37-.25-3.6-.37.04.37.3.53.5.72.8.75,1.75,1.28,2.75,1.72,1.24.56,2.55.94,3.88,1.23.2.05.4.1.6.26-1.53.12-3.05.23-4.61.35.05.33.28.46.46.61.98.76,2.11,1.18,3.28,1.53,1.04.31,2.1.55,3.18.76-1.01.72-2.21.84-3.35,1.06-.07.21.08.3.17.39.59.57,1.26.96,2.08,1.09,1.36.22,2.71.26,4.02-.23.24-.09.48-.17.66-.34-.01-.13-.1-.18-.19-.23-3.17-1.79-4.45-5.49-3.86-8.6.18-.92.42-1.83.64-2.75.44-1.88.21-3.69-.63-5.43-.87-1.84-2.15-3.38-3.62-4.77-2.47-2.3-5.26-4.12-8.21-5.74-.75-.41-1.5-.81-1.95-1.11.63.21,1.51.61,2.38,1.04,2.98,1.49,5.85,3.16,8.45,5.27,1.25,1.02,2.39,2.15,3.38,3.44,1.66,2.16,2.15,4.53,1.38,7.15-.19.66-.38,1.32-.6,1.98-1.14,3.44-.01,6.18,2.59,8.47.73.64,1.53,1.16,2.47,1.47.21.07.44.11.62.31-.4.04-.78-.04-1.16-.09-.35-.05-.67,0-.96.19-.6.36-1.25.58-1.92.76-2.13.6-3.72,1.91-4.91,3.75-.15.23-.25.48-.48.67.06-.93.62-1.63.99-2.48-.74.12-1.4.29-2.04.53-.86.33-1.71.68-2.52,1.13-1.16.63-2.39,1.13-3.67,1.45-1.94.48-3.75,1.28-5.52,2.19-1.96,1.01-3.87,2.08-5.67,3.36-.06.04-.14.08-.15.24,1.77.14,3.54.32,5.43-.05-1.08.61-2.14.89-3.28.78-.66-.07-1.33-.09-2-.09-2.02,0-3.77.67-5.21,2.1-1.08,1.06-2.07,2.19-2.64,3.62-.03.07-.09.13-.17.25-.17-.31.03-.6-.05-.87-.25-.02-.39.17-.54.28-1.58,1.18-3.14,2.37-4.72,3.54-1.65,1.22-3.38,2.32-5.16,3.34-.16.09-.33.2-.51.24-.84.24-1.29.06-1.65-.59-.38-.71-.66-1.45-.65-2.27.01-.69.03-1.38.07-2.07.05-.91-.02-1.79-.4-2.64-.15-.34-.25-.7-.34-1.07-.69-2.77-2.93-3.87-4.93-4.04-.08,0-.17.02-.24.03-.16.27.23.38.13.69-1.17-.35-2.33-.91-3.64-.52.17.34.6.43.68.87-.74.21-1.36-.19-2.12-.44.34,1.51,1.22,2.45,2.44,3.19-.47.35-.97.09-1.44.23.05.23.13.39.38.41h.01ZM63.48,60.31c-.01.14.1.2.2.28.57.43,1.2.69,1.91.72.75.03,1.5.02,2.25-.08.61-.09,1.22-.22,1.87-.16-.2-.18-.42-.24-.65-.27-.56-.08-1.12-.1-1.69-.06-.48.04-.96.05-1.44.09-.87.07-1.69-.04-2.45-.52ZM155.76,36.82c1.73-1.02,2.48-2.69,2.06-4.64-.5-2.32-1.72-4.21-3.56-5.68-1.36-1.08-2.85-1.98-4.36-2.84-1.76-.99-3.67-1.62-5.55-2.31-2.6-.97-5.23-1.18-7.96-.67-5.07.94-9.99,2.43-14.84,4.16-.3.11-.42.22-.29.54.52,1.26.56,2.57.3,3.88-.05.3.03.44.29.52.79.27,1.56.6,2.4.68.18.02.36.04.54.17-.1.09-.16.14-.22.2q-.37.3-.08.67c.4.5.91.85,1.49,1.12.83.39,1.71.53,2.61.65,1.48.18,2.96.3,4.42-.09.14-.03.3-.02.36-.22-.09-.23-.29-.39-.43-.59-.23-.32-.5-.47-.9-.45-.41,0-.79-.12-1.16-.25-.84-.31-1.7-.59-2.31-1.33,1.97.77,4.01,1.08,6.24,1-.42.39-.9.31-1.23.56.74.79,3.3,2.1,5.03,2.6,1.99.57,4.96.96,5.65.73-.2-.08-.36-.16-.54-.22-1.45-.52-2.7-1.32-3.63-2.57-.23-.32-.53-.53-.89-.67-.27-.1-.54-.22-.8-.34-.57-.26-.96-.52-1.36-.96,1.23.56,2.43.89,3.63,1.23,1.2.33,2.44.52,3.65.83-1.02.24-2.03.05-3.08-.06.13.25.32.31.48.4,1.09.63,2.24,1.11,3.4,1.59,2.03.85,4.12.85,6.24.57.6-.08,1.19-.26,1.66-.67.99-.87,1.15-1.98.79-3.15-.33-1.03-.85-1.96-1.79-2.59-.35-.23-.68-.49-1.03-.71-3.33-2.09-6.92-3.53-10.8-4.22-2.45-.45-4.91-.5-7.35.07-2.29.54-4.57,1.07-6.86,1.53-.27.05-.52.16-.84.1.11-.18.24-.19.35-.23,3.32-1.03,6.65-2.01,10.08-2.61,1.46-.26,2.93-.49,4.43-.28,1.05.14,2.1.35,3.13.63,3.13.85,6.11,2.04,8.81,3.86,1.33.9,2.55,1.91,3.36,3.32,1.32,2.28.39,4.93-2.05,5.9-1.53.61-3.14.87-4.75,1.09-1.64.24-3.29.41-4.87.91-3.33,1.06-6.58,2.33-9.83,3.62-.1.04-.24.06-.25.24.05.03.1.08.16.09.81.19,1.63.37,2.45.56.31.07.61.02.91-.1.92-.36,1.85-.69,2.76-1.04,2.72-1.05,5.5-1.9,8.39-2.33,1.54-.22,3.06-.51,4.54-.95,1.04-.31,2.06-.7,3-1.25ZM156.17,60.3c.24-1.2-.06-2.32-.59-3.38-.51-1.06-1.23-1.93-2.33-2.43-.12-.05-.24-.13-.35-.23-.35-.32-.73-.62-1.12-.9-.21-.15-.46-.28-.7-.01.46.51.93.97,1.59,1.21-.13.13-.21.1-.29.08-.46-.11-.8-.39-1.13-.74-.77-.8-1.86-.54-2.2.5-.01.02-.01.04-.02.06-.18.73-.66,1.2-1.32,1.49-.54.23-1.09.43-1.66.58-1.28.33-2.53.72-3.76,1.21-.21.08-.41.19-.62.3-.11.06-.21.16-.2.29.02.15.16.18.28.21.49.11.88.38,1.26.67,1.74,1.32,3.47,2.64,5.21,3.94.53.4,1.09.76,1.65,1.13.32.21.67.29,1.01.11.33-.18.28-.54.27-.85-.03-.78-.24-1.53-.43-2.28-.06-.27-.23-.48-.54-.53-.1.22.04.41.08.61.13.53.29,1.05.32,1.6.02.23.13.54-.13.69-.29.16-.5-.11-.7-.27-1.92-1.52-3.84-3.03-5.88-4.39-.36-.23-.77-.37-1.19-.64,1.54-.41,3-.71,4.53-.66.89.03,1.57.39,2.05,1.13.25.38.49.78.75,1.16.28.4.61.78,1.12.84,1.2.14,1.58.97,1.74,1.98.07.39.07.79.11,1.19.01.15-.05.33.07.45.04.02.06.03.08.03.07-.04.15-.07.21-.13.75-.58,1.41-1.24,1.94-2.03.41-.61.75-1.25.89-1.99ZM152.83,53.44c.01-.13-.1-.15-.22-.16-.09,0-.21.02-.19.15.01.1.1.17.21.19.13.02.19-.08.2-.18ZM147.91,60.08c.16-.73-.19-1.64-.69-1.94-.17-.11-.36-.11-.54-.08-.06.01-.15.02-.13.1.09.39-.09.24-.26.15-.5-.28-.51-.27-1.06-.02.91.61,1.78,1.19,2.68,1.79ZM144.29,69.29c.15-.14.31-.27.49-.44-.19-.19-.38-.22-.55-.28-1.21-.4-2.42-.79-3.61-1.24-1.42-.53-2.86-1.03-4.05-2.08-.36.59-.54,1.23-.7,1.88-.05.19.03.32.21.39.27.12.54.22.81.33,1.07.42,2.14.85,3.2,1.28.11.05.38.08.27.25-.16.25.01.28.15.33.65.25,1.29.49,1.94.72.23.08.46.25.71.17.23-.07.22-.35.35-.5.25-.28.52-.54.78-.81ZM137.92,59.73c-.39-.08-.77-.08-1.15.03-.87.24-1.68.63-2.45,1.09-1.19.73-2.4,1.42-3.8,1.72,1.03.21,1.99-.02,2.93-.38,1.6-.61,2.97-1.65,4.47-2.46ZM137.51,36.31c-.09-.13-.25-.14-.38-.18-1.15-.4-2.15-1.02-2.93-1.96-.25-.29-.46-.34-.8-.2-1.15.45-2.35.54-3.57.38-.2-.03-.4-.1-.67,0,1.78,1.37,7,2.58,8.35,1.96ZM133.39,37.86c-.25-.06-.44-.11-.64-.16-.85-.19-1.65-.48-2.39-.92-.28-.18-.56-.24-.88-.23-.92.01-1.84.02-2.75-.09-.37-.05-.73-.19-1.18-.12,1.39,1.52,5.9,2.45,7.84,1.52ZM128.33,35.56c-.09-.11-.11-.15-.15-.17-1.13-.74-2.27-1.49-3.41-2.23-.09-.05-.19-.11-.28-.12-1.02-.08-2.03,0-3.07.11.35.48.83.75,1.28,1.04,1.19.75,2.54.92,3.89,1.12.56.08,1.11.16,1.74.25ZM125.87,37.94c.23-.02.45-.09.68-.13-1.03-.42-1.85-1.04-2.54-1.85-.14-.17-.32-.17-.51-.18-1.43-.03-2.62-.62-3.63-1.61-.12-.11-.2-.27-.4-.28-.19.14-.25.37-.35.57-.28.56-.28.59.16,1.03,1.82,1.81,4.01,2.65,6.59,2.45ZM123.76,32.42c.12,0,.25,0,.25-.19-.02-.44-.54-1.07-.98-1.16-.57-.11-1.15-.22-1.66-.51-.15-.09-.26-.08-.36.08-.32.56-.63,1.12-.86,1.79h1.54c.69,0,1.38,0,2.07,0Z"/>
  <path class="cls-1" d="M157.82,32.18c.42,1.95-.33,3.62-2.06,4.64-.94.55-1.96.94-3,1.25-1.48.44-3,.73-4.54.95-2.89.43-5.67,1.28-8.39,2.33-.91.35-1.84.68-2.76,1.04-.3.12-.6.17-.91.1-.82-.19-1.64-.37-2.45-.56-.06,0-.11-.06-.16-.09.01-.18.15-.2.25-.24,3.25-1.29,6.5-2.56,9.83-3.62,1.58-.5,3.23-.67,4.87-.91,1.61-.22,3.22-.48,4.75-1.09,2.44-.97,3.37-3.62,2.05-5.9-.81-1.41-2.03-2.42-3.36-3.32-2.7-1.82-5.68-3.01-8.81-3.86-1.03-.28-2.08-.49-3.13-.63-1.5-.21-2.97.02-4.43.28-3.43.6-6.76,1.58-10.08,2.61-.11.04-.24.05-.35.23.32.06.57-.05.84-.1,2.29-.46,4.57-.99,6.86-1.53,2.44-.57,4.9-.52,7.35-.07,3.88.69,7.47,2.13,10.8,4.22.35.22.68.48,1.03.71.94.63,1.46,1.56,1.79,2.59.36,1.17.2,2.28-.79,3.15-.47.41-1.06.59-1.66.67-2.12.28-4.21.28-6.24-.57-1.16-.48-2.31-.96-3.4-1.59-.16-.09-.35-.15-.48-.4,1.05.11,2.06.3,3.08.06-1.21-.31-2.45-.5-3.65-.83-1.2-.34-2.4-.67-3.63-1.23.4.44.79.7,1.36.96.26.12.53.24.8.34.36.14.66.35.89.67.93,1.25,2.18,2.05,3.63,2.57.18.06.34.14.54.22-.69.23-3.66-.16-5.65-.73-1.73-.5-4.29-1.81-5.03-2.6.33-.25.81-.17,1.23-.56-2.23.08-4.27-.23-6.24-1,.61.74,1.47,1.02,2.31,1.33.37.13.75.26,1.16.25.4-.02.67.13.9.45.14.2.34.36.43.59-.06.2-.22.19-.36.22-1.46.39-2.94.27-4.42.09-.9-.12-1.78-.26-2.61-.65-.58-.27-1.09-.62-1.49-1.12q-.29-.37.08-.67c.06-.06.12-.11.22-.2-.18-.13-.36-.15-.54-.17-.84-.08-1.61-.41-2.4-.68-.26-.08-.34-.22-.29-.52.26-1.31.22-2.62-.3-3.88-.13-.32-.01-.43.29-.54,4.85-1.73,9.77-3.22,14.84-4.16,2.73-.51,5.36-.3,7.96.67,1.88.69,3.79,1.32,5.55,2.31,1.51.86,3,1.76,4.36,2.84,1.84,1.47,3.06,3.36,3.56,5.68Z"/>
  <path class="cls-2" d="M157.25,69.43l.14.17c-.5.38-.93.83-1.35,1.29-.27.3-.41.61-.4,1.02,0,.37-.02.76-.21,1.13-.08-.07-.12-.09-.14-.12-.06-.11-.12-.22-.17-.34-.27-.53-.41-.6-.98-.47-.27.05-.29.19-.2.4.04.08.09.15.13.22.82,1.69.85,3.42.28,5.18-.04.12-.06.3-.3.29-.18-1.31-.4-2.62-.82-3.93-.32.14-.6.26-.94.4.51.58.48,1.25.47,1.92-.01,1.07,0,2.12,0,3.19h-.01c-.08.07-.18.02-.26.11-.36.41-.72.8-1.08,1.2-.35.23-.75.4-1.07.89h4.66c-.03.26-.12.4-.23.53-.33.41-.43.87-.43,1.4v29.02c0,.49.1.94.32,1.38.22.45.54.85.61,1.36-.07.01-.13.02-.19.04-1.94-.46-3.88-.91-5.82-1.36-.15-.03-.29-.04-.43-.07-.64-.19-1.28-.39-1.92-.56-.81-.21-1.53-.57-2.21-1.04-.63-.45-1.23-.94-1.71-1.56-.56-1.18-.67-2.42-.67-3.71.03-6.71,0-13.42,0-20.12v-3.57c0-.28,0-.56-.19-.77-.03-.03-.06-.06-.1-.09-.12-.25-.25-.47-.46-.65.07-.27.31-.23.5-.23.54-.01,1.08,0,1.62,0,.15,0,.32.02.46-.18-.28-.24-.55-.46-.82-.68-.25-.31-.51-.59-.89-.76-1.23-.54-2.18-1.4-2.85-2.55l.44-.28c.59,1.01,1.42,1.77,2.5,2.25.35.16.64.4.92.65.39.35.78.69,1.17,1.04.4.39.88.52,1.43.5.27-.01.59-.12.76.25.06.15.26.08.41.06,1.24-.15,1.85-1.66,1.1-2.71-.43-.59-1.03-.93-1.74-1.02-.31-.05-.5-.16-.58-.46-.03-.12-.09-.25-.17-.33-.42-.45-.28-.83.04-1.26.64-.86,1.3-1.7,1.6-2.75.05-.19.22-.25.38-.29.49-.12.98-.23,1.46-.36.25-.07.39.09.54.23.21.2.4.43.7.5.09-.18.08-.35.05-.51l.25-.05c.04.16.06.32.06.5.35-1,.21-2.29-.33-3.02-.58-.79-1.32-1.4-2.2-1.82-.5-.24-1.03-.36-1.57-.1,0-.14.3-.34-.07-.41-.12-.02-.25-.03-.38-.01l-.02-.26c.49-.07.97-.23,1.42-.43.27-.12.52-.26.82-.28,1.98-.13,3.76.44,5.37,1.55.43.31.78.69,1.07,1.14.07.13.17.25.06.4-.07.15-.1.32.12.32.31,0,.6-.01.83-.3.24-.31.55-.58.85-.84.12-.1.24-.19.36-.28ZM154.99,71.51c.04-.09.02-.17-.01-.25-.54-1.48-3.05-3.16-4.62-3.09-.11,0-.26.02-.24.23.55.14,1.12.27,1.63.55-.11.32.14.27.31.3.96.52,1.84,1.14,2.57,1.95.1.12.17.28.36.31ZM154.38,76.32c.05-.97.01-1.92-.31-2.84-.17-.48-.39-.92-.73-1.3-.19-.21-.4-.41-.75-.31.14.37.52.57.5.95-.01.28.1.48.22.7.27.54.48,1.11.59,1.71.09.42.18.83.26,1.25.2-.04.22-.11.22-.16ZM153.4,71.26c.25.29.55.31.93.18-.19-.24-.45-.12-.61-.27-.17-.15-.35-.29-.53-.43-.12-.09-.23-.18-.36-.25-.07-.05-.16-.06-.2.04-.04.09-.01.16.08.2.27.12.49.3.69.53ZM152.92,73.82c.11-.08.11-.22.04-.34-.27-.51-.62-.95-1.14-1.22-.17-.09-.33-.08-.34.18-.01.51-.07,1-.22,1.48-.08.25.04.35.27.38.1.01.2.01.32.02.47.1.74-.28,1.07-.5ZM152.26,79.31c.2-.09.12-.24.07-.37-.26-.7-.32-1.42-.26-2.16.03-.27.08-.54.12-.81.06-.45-.1-.75-.5-.98-.34-.19-.65-.3-.9.14-.06.11-.21.14-.34.08-.15-.07-.22-.22-.18-.37.07-.36-.17-.51-.42-.68-.24-.17-.45-.39-.78-.36-.14.01-.29.03-.43.05-.27.04-.57.03-.68.35-.33.9-.95,1.62-1.48,2.39-.38.54-.36.6-.02,1.17.17.29.43.3.69.37.99.27,1.65.89,1.93,1.87.1.35.22.41.56.34.93-.21,1.76-.66,2.62-1.03ZM152.7,71.42c-.39-.32-.79-.31-1.2-.23-.22.04-.21.21-.15.39.06.16.18.3.31.2.3-.24.69-.16,1.04-.36ZM151.74,70.55c.39-.49.27-.96-.32-1.18-.38-.15-.79-.24-1.21-.28-.17.02-.4-.09-.48.15-.06.19.12.28.24.39.4.34.75.73,1.02,1.17.13.21.27.24.44.05.1-.1.22-.19.31-.3ZM149.9,110.53v-27.74c0-.18,0-.38-.03-.55-.04-.14-.16-.09-.25-.02-.81.22-1.61.44-2.42.65-.32-.08-.47.05-.45.38v24.48c0,.5,0,1.01,0,1.51q0,.55.56.7c.65.17,1.29.35,1.94.52.19.05.39.14.65.07ZM149.33,81.67c.58-.18,1.04-.55,1.48-.99-.54.15-1.06.35-1.62.39-.02,0-.04.01-.05.02-.26.16-.16.35-.06.54.05.09.05.1.25.04ZM149.33,69.07c.13-.4.33-.75.61-1.11-.55-.21-1.06-.17-1.57-.07-.14.03-.27.12-.38.21-.23.17-.22.36.04.47.41.17.82.4,1.3.5Z"/>
  <path class="cls-2" d="M157.22,68.63c-.39.38-.73.79-1.06,1.22.09-.64.55-.95,1.06-1.22Z"/>
  <path class="cls-1" d="M155.58,56.92c.53,1.06.83,2.18.59,3.38-.14.74-.48,1.38-.89,1.99-.53.79-1.19,1.45-1.94,2.03-.06.06-.14.09-.21.13-.02,0-.04-.01-.08-.03-.12-.12-.06-.3-.07-.45-.04-.4-.04-.8-.11-1.19-.16-1.01-.54-1.84-1.74-1.98-.51-.06-.84-.44-1.12-.84-.26-.38-.5-.78-.75-1.16-.48-.74-1.16-1.1-2.05-1.13-1.53-.05-2.99.25-4.53.66.42.27.83.41,1.19.64,2.04,1.36,3.96,2.87,5.88,4.39.2.16.41.43.7.27.26-.15.15-.46.13-.69-.03-.55-.19-1.07-.32-1.6-.04-.2-.18-.39-.08-.61.31.05.48.26.54.53.19.75.4,1.5.43,2.28,0,.31.06.67-.27.85-.34.18-.69.1-1.01-.11-.56-.37-1.12-.73-1.65-1.13-1.74-1.3-3.47-2.62-5.21-3.94-.38-.29-.77-.56-1.26-.67-.12-.03-.26-.06-.28-.21-.01-.13.09-.23.2-.29.21-.11.41-.22.62-.3,1.23-.49,2.48-.88,3.76-1.21.57-.15,1.12-.35,1.66-.58.66-.29,1.14-.76,1.32-1.49.01-.02.01-.04.02-.06.34-1.04,1.43-1.3,2.2-.5.33.35.67.63,1.13.74.08.02.16.05.29-.08-.66-.24-1.13-.7-1.59-1.21.24-.27.49-.14.7.01.39.28.77.58,1.12.9.11.1.23.18.35.23,1.1.5,1.82,1.37,2.33,2.43ZM149.37,55.15c.71-.01.79-.11.65-.81-.38.16-.6.41-.66.81v.02s.01-.02.01-.02Z"/>
  <path class="cls-1" d="M156.17,77.26v.02h-.01s.01-.02.01-.02Z"/>
  <path class="cls-1" d="M155.71,114.84c.27.58.2.69-.44.83-.07-.51-.39-.91-.61-1.36-.22-.44-.32-.89-.32-1.38v-29.02c0-.53.1-.99.43-1.4.11-.13.2-.27.23-.53h-4.66c.32-.49.72-.66,1.07-.89.75.03,1.5.03,2.25-.01.64.19,1.17.63,1.8.84-.01.02-.01.05-.02.06-.59.57-.55,1.3-.55,2.04.01,9.33.02,18.66-.01,27.99,0,.9.2,1.69.63,2.45.07.13.14.25.2.38Z"/>
  <path class="cls-3" d="M154.07,52.36c.64.5.76,1.4.29,2.07-.14.21-.3.14-.38.03-.09-.13-.21-.19-.33-.26-.58-.3-.59-.32-.42-.93.02-.11.06-.2.19-.21.12,0,.17.07.2.18s-.05.25.1.32c.28-.11.01-.46.27-.59.05-.02-.09-.16-.18-.19-.33-.1-.67-.06-.99.01-.41.1-.8.36-1.25.11-.05-.03-.16.03-.24.04l-1.05.15c-1.26.18-2.37-.11-3.24-1.09-.22-.25-.47-.47-.71-.71-.3-.3-.66-.51-1.05-.66q-.06-.03-.32.14c-.17.1-.32.05-.48-.02-.31-.14-.62-.24-.95-.3-.38-.07-.75-.06-1.16.19.3.13.58,0,.83.14-.04.23-.24.42-.26.67-.02.24-.09.49.07.77.1-.31.17-.57.26-.83.04-.11.13-.21.2-.31.09-.1.2-.16.34-.12.16.05.13.17.11.3-.01.11.05.2.12.28.06.05.11.11.17.17-.01.11.06.19.1.28.14.29-.08.16-.19.16-.19-.08-.35-.31-.59-.14-.11.02-.27-.02-.29.16-.15,1.1.24,1.91,1.15,2.25.92.34,1.88-.03,2.32-.93.18-.36.23-.43.6-.23.46.25.99.31,1.56.42-.27.93-.66,1.69-1.67,2-2.12.63-4.24,1.27-6.29,2.13-.68.29-1.43.28-2.16.27-.08.26.25.23.28.4-.04.03-.07.07-.1.07-.27.01-.55.02-.82.01-1.27-.07-2.48.23-3.65.69-.93.37-1.85.8-2.84.98-1.04.19-2.08.21-3.07-.25-.44-.21-.76-.51-.93-.95.05-.07.1-.09.16-.06.94.38,1.89.3,2.82,0,.48-.16.95-.33,1.41-.54,1.42-.64,2.87-1.12,4.46-1.03.06-.22-.1-.23-.2-.27-.67-.33-1.4-.42-2.13-.47-1-.08-2.01-.04-3.01-.02-1.12.01-2.21-.09-3.23-.6-.1-.05-.18-.1-.28-.2,1.23-.02,2.47.11,3.62-.44-.06-.26-.25-.22-.4-.26-1.53-.38-2.91-1.03-4.03-2.17-.51-.52-.8-.96-1.03-1.61.6.29,1.12.63,1.7.83.57.21,1.15.36,1.78.33,0-.22-.17-.23-.29-.28-1.59-.62-2.48-1.84-2.97-3.42-.19-.64-.35-1.29-.63-1.9-.25-.52-.51-1.05-1.04-1.3-.49-.24-.95-.59-1.53-.63-.06,0-.13,0-.18-.03,0,0-.01,0-.01,0-.03-.05-.06-.12-.08-.2,1.08-.25,2.16-.37,3.23-.12.15-.25,0-.36-.1-.49-.42-.53-1.02-.84-1.55-1.22-.1-.11-.22-.18-.28-.37.5-.14,1-.17,1.49-.2,2.28-.17,4.5.24,6.72.67,1.42.28,2.86.42,4.25.81,4.65,1.34,9.19,2.94,13.45,5.28,1.1.61,2.12,1.33,2.9,2.35.15.19.34.31.55.4.32.12.61.28.88.49ZM140.2,48.79c.15-.08.3.11.55-.04-.11-.06-.18-.11-.26-.14-.45-.21-.73-.58-1.01-.98-.75-1.06-1.69-1.91-2.82-2.55-.95-.53-1.97-.81-3.06-.74-.42.02-.51.15-.41.56.1.4.38.69.67.97.14.15.34.27.33.51-.02.77.42,1.29.93,1.77.18.18.28.37.33.64.16.99.93,1.75,1.87,1.91-.56-.51-1.2-.93-1.42-1.67.13-.2.3.05.44-.18-.34-.35-.7-.71-1.06-1.08-.32-.32-.4-.51-.44-.99q.41.47.89.44c-.55-.74-1.35-1.31-1.53-2.3,2.61.58,4.77,1.72,5.82,4.33.18-.13.01-.36.18-.46ZM138.11,49.07c.36.24.42.65.68.99-.01-1.34-1.19-2.8-2.43-3.04.06.09.08.13.11.15.8.52,1.36,1.14,1.24,2.21-.06.46.32.84.79,1.04-.15-.43-.53-.79-.39-1.35Z"/>
  <path class="cls-1" d="M152.96,73.48c.07.12.07.26-.04.34-.33.22-.6.6-1.07.5-.12-.01-.22-.01-.32-.02-.23-.03-.35-.13-.27-.38.15-.48.21-.97.22-1.48.01-.26.17-.27.34-.18.52.27.87.71,1.14,1.22Z"/>
  <path class="cls-1" d="M152.61,53.28c.12.01.23.03.22.16,0,.1-.07.2-.2.18-.11-.02-.2-.09-.21-.19-.02-.13.1-.15.19-.15Z"/>
  <polygon class="cls-1" points="152.76 79.78 152.76 79.79 152.75 79.78 152.76 79.78"/>
  <path class="cls-1" d="M151.5,71.19c.41-.08.81-.09,1.2.23-.35.2-.74.12-1.04.36-.13.1-.25-.04-.31-.2-.06-.18-.07-.35.15-.39Z"/>
  <path class="cls-1" d="M151.75,68.95c.16.04.34.06.31.3-.17-.03-.42.02-.31-.3Z"/>
  <path class="cls-1" d="M151.42,69.37c.59.22.71.69.32,1.18-.09.11-.21.2-.31.3-.17.19-.31.16-.44-.05-.27-.44-.62-.83-1.02-1.17-.12-.11-.3-.2-.24-.39.08-.24.31-.13.48-.15.42.04.83.13,1.21.28Z"/>
  <path class="cls-2" d="M150.86,73.27l-.25.05c-.02-.07-.04-.14-.05-.2-.17-.75-.27-.78-.93-.42-.59.33-1.28.35-1.92.53-.12.04-.25.05-.37.07-.16.02-.28.1-.3.27-.17,1.14-.83,2.05-1.5,2.92-.37.48-.41.88-.07,1.36.17.24.36.47.4.78.03.28.2.31.44.3.4-.02.79.04,1.11.34.19.18.36.39.28.65-.08.27-.36.31-.61.35-.24.03-.46-.02-.67-.12-.59-.28-1.18-.56-1.77-.82-.21-.1-.33-.24-.32-.48.01-.32-.07-.62-.18-.92-.2-.53-.17-1.06.04-1.59.29-.72.61-1.42.72-2.2.07-.42.11-.83-.09-1.25.3-.21.65-.16.96-.29.37-.14.4-.21.22-.67.18,0,.32.1.46.16.95.37,2.07-.2,2.34-1.17.06-.22-.03-.36-.18-.48-.36-.28-.77-.43-1.22-.46-.37-.03-.74-.06-1.01-.4-.15-.18-.38-.15-.59-.09-.51.15-1,.32-1.43.6l-.1-.16c.77-.64,1.62-.84,2.46-1.05.11.17.29.16.45.17,1.69.12,2.71,1.15,3.46,2.55.07.15.17.45.11.46-.38.03-.14.24-.11.35.07.28.17.55.22.86ZM148.94,71.57c.25.06.48.13.75.01-.08-.25-.19-.52-.45-.52-.22,0-.27.28-.3.51ZM148.05,69.69c.42.31.93.47,1.33.81-.36-.41-.87-.57-1.33-.82-.39.02-.75-.2-1.28-.15.27.07.41.12.55.13.24.02.49.02.73.03Z"/>
  <path class="cls-2" d="M150.02,54.34c.14.7.06.8-.65.81h-.01c.06-.4.28-.65.66-.81Z"/>
  <path class="cls-1" d="M149.9,109.16v1.37c-.26.07-.46-.02-.65-.07-.65-.17-1.29-.35-1.94-.52q-.56-.15-.56-.7c0-.5,0-1.01,0-1.51v-24.48c-.02-.33.13-.46.45-.38.09.21.03.42.03.62.01,8.2.01,16.39.01,24.59q0,.97.93,1.21c.33.08.65.17.98.23.43.08.47.04.48-.39,0-.59-.01-1.17-.01-1.76,0-8.17.01-16.34.01-24.52,0-.21-.01-.42-.01-.63.09-.07.21-.12.25.02.04.17.03.37.03.55v26.37Z"/>
  <path class="cls-1" d="M149.69,71.58c-.27.12-.5.05-.75-.01.03-.23.08-.51.3-.51.26,0,.37.27.45.52Z"/>
  <path class="cls-1" d="M149.94,67.96c-.28.36-.48.71-.61,1.11-.48-.1-.89-.33-1.3-.5-.26-.11-.27-.3-.04-.47.11-.09.24-.18.38-.21.51-.1,1.02-.14,1.57.07Z"/>
  <polygon class="cls-2" points="149.37 55.15 149.35 55.17 149.36 55.15 149.37 55.15"/>
  <path class="cls-2" d="M148.38,123.26c.53.22.8.65.78,1.24-.02.48,0,.96,0,1.51-.23-.04-.36-.04-.47-.07-.43-.12-.96-.07-1.24-.37-.27-.29-.1-.8-.07-1.21.02-.36-.19-.4-.44-.47-.79-.21-.81-.2-.83.59-.04,1.8-.09,3.6-.13,5.39-.01.59,0,.59.58.73.08.02.16.05.25.06.37.08.41.05.42-.3.02-.56.02-1.13.02-1.69,0-.12.03-.29-.13-.31-.43-.05-.38-.36-.36-.65,0-.18-.04-.38.11-.6.63.14,1.27.29,1.92.43.21.04.27.16.27.35-.03,1.13-.03,2.26-.07,3.39-.02.42-.26.64-.68.69-.33.04-.66.01-1-.05-.68-.12-1.36-.24-2.01-.47-.79-.29-1.01-.61-1-1.45.04-2.18.09-4.35.15-6.52.02-.64.25-.89.89-.87,1.05.04,2.07.24,3.04.65Z"/>
  <path class="cls-1" d="M147.22,58.14c.5.3.85,1.21.69,1.94-.9-.6-1.77-1.18-2.68-1.79.55-.25.56-.26,1.06.02.17.09.35.24.26-.15-.02-.08.07-.09.13-.1.18-.03.37-.03.54.08Z"/>
  <path class="cls-1" d="M146.75,68.42c.37.07.08.27.07.41-.02.03-.05.05-.09.05-.84.21-1.69.41-2.46,1.05.35-.86,1.28-1.47,2.1-1.52.13-.02.26-.01.38.01Z"/>
  <path class="cls-1" d="M145.83,51.67c.59.45.72.75.56,1.31-.16.57-.63.97-1.21,1.04-.52.07-1.11-.23-1.37-.69-.17-.29-.23-.59-.19-.91.03-.15-.01-.29-.09-.41.24-.17.4.06.59.14-.06.06-.15.11-.16.18-.08.5.31,1,.82,1.06.54.07,1.03-.33,1.08-.88.05-.52-.36-.98-.88-1.01-.28-.02-.52.11-.77.21-.06-.06-.11-.12-.17-.17.56-.48,1.1-.42,1.64.02.05.04.1.07.15.11Z"/>
  <path class="cls-2" d="M144.98,51.5c.52.03.93.49.88,1.01-.05.55-.54.95-1.08.88-.51-.06-.9-.56-.82-1.06.01-.07.1-.12.16-.18.11,0,.33.13.19-.16-.04-.09-.11-.17-.1-.28.25-.1.49-.23.77-.21Z"/>
  <path class="cls-1" d="M144.78,68.85c-.18.17-.34.3-.49.44-.26.27-.53.53-.78.81-.13.15-.12.43-.35.5-.25.08-.48-.09-.71-.17-.65-.23-1.29-.47-1.94-.72-.14-.05-.31-.08-.15-.33.11-.17-.16-.2-.27-.25-1.06-.43-2.13-.86-3.2-1.28-.27-.11-.54-.21-.81-.33-.18-.07-.26-.2-.21-.39.16-.65.34-1.29.7-1.88,1.19,1.05,2.63,1.55,4.05,2.08,1.19.45,2.4.84,3.61,1.24.17.06.36.09.55.28Z"/>
  <path class="cls-1" d="M144.16,81.8c-.14.2-.31.18-.46.18-.54,0-1.08-.01-1.62,0-.19,0-.43-.04-.5.23-.12-.12-.25-.22-.34-.36-.05-.09-.07-.17-.07-.25,0-.23.17-.41.45-.42.57-.02,1.15.03,1.72-.06.27.22.54.44.82.68Z"/>
  <path class="cls-1" d="M142.33,87.29c0,6.7.02,13.41,0,20.12,0,1.29.11,2.53.67,3.71-.45-.41-.62-.97-.78-1.53-.18-.64-.24-1.31-.24-1.98.01-7.9.01-15.79.01-23.69,0-.35-.08-.7.06-1.05.04.03.07.05.1.08.19.21.19.49.19.77v3.57Z"/>
  <path class="cls-1" d="M142.14,82.95s-.06-.05-.1-.08h0s.07.05.1.08Z"/>
  <path class="cls-2" d="M140.75,48.75c-.25.15-.4-.04-.55.04-.17.1,0,.33-.18.46-1.05-2.61-3.21-3.75-5.82-4.33.18.99.98,1.56,1.53,2.3q-.48.03-.89-.44c.04.48.12.67.44.99.36.37.72.73,1.06,1.08-.14.23-.31-.02-.44.18.22.74.86,1.16,1.42,1.67-.94-.16-1.71-.92-1.87-1.91-.05-.27-.15-.46-.33-.64-.51-.48-.95-1-.93-1.77.01-.24-.19-.36-.33-.51-.29-.28-.57-.57-.67-.97-.1-.41-.01-.54.41-.56,1.09-.07,2.11.21,3.06.74,1.13.64,2.07,1.49,2.82,2.55.28.4.56.77,1.01.98.08.03.15.08.26.14Z"/>
  <path class="cls-1" d="M140.07,81.56c.05.24-.03.45-.23.61-.7.58-.77,1.33-.76,2.19.02,8.28.02,16.56.01,24.84,0,.71.1,1.36.46,1.98.14.23.24.49.34.74.18.48.04.69-.47.66-.77-.04-1.54-.09-2.31-.18-1.2-.14-2.4-.32-3.6-.48-.08-.01-.16-.03-.24-.04-.51-.12-.71-.54-.34-.89.77-.73.81-1.61.81-2.58-.02-8.28-.01-16.56-.01-24.84,0-.48-.06-.9-.44-1.24-.15-.14-.26-.33-.35-.52-.15-.28-.05-.5.25-.57.22-.06.45-.06.68-.06.88-.01,1.76-.01,2.64-.01.96,0,1.92-.01,2.88.01.24,0,.53-.07.65.25.01.05.03.09.03.13ZM139.06,82.22c.17-.18.42-.35.39-.66-1.08-.15-5.66-.08-6.04.07.01.14.08.25.17.33.51.44.55,1.02.55,1.65-.01,8.3-.01,16.6.01,24.9,0,.91-.07,1.72-.72,2.42-.3.33-.24.43.2.49,1.72.24,3.45.44,5.17.6.2,0,.41.08.63-.06-.07-.3-.23-.58-.38-.84-.3-.5-.4-1.03-.4-1.61.01-8.7.01-17.4,0-26.1,0-.46.1-.84.42-1.19Z"/>
  <path class="cls-2" d="M139.99,77.45s.03.06.05.08l-.44.28c-.31-.53-.75-.87-1.31-1.11-.45-.19-.81-.17-1.21.14-.74.58-1.55,1.05-2.4,1.47-1.8.89-3.67,1.49-5.71,1.48-.28,0-.62.08-.77-.26-.16-.35.16-.51.39-.75-.93-.14-1.82-.21-2.69-.4-1.98-.45-3.83-1.18-5.43-2.45-.17-.13-.34-.25-.43-.45-.11-.25.26-.3.21-.53l-.63-.42c-.21-.14-.43-.26-.62-.42-.59-.49-1.23-.77-2.01-.52-.09.03-.2.01-.31.02-1.86.09-3.66-.26-5.43-.81-1-.31-.72-.46-1.36.48-1.46,2.16-2.84,4.38-4.42,6.46-.26.33-.5.68-.84.93-.99.74-2.02,1.4-3.08,2.03-.15-.44-.03-.77.4-.97,2.11-1,3.48-2.77,4.73-4.64.91-1.35,1.8-2.72,2.69-4.08.27-.4.26-.41-.23-.57-.58-.18-.58-.19-.88.32-1.17,1.99-2.5,3.86-3.72,5.81-.28.46-.68.84-1.1,1.19-.55.45-1.16.82-1.76,1.19-.2.12-.41.21-.65.23-.21.01-.31-.07-.23-.3.12-.35.24-.71.36-1.07.51-1.52.7-3.09.88-4.67.12-1.06.21-2.12.14-3.19-.08-1.23-.43-2.34-1.43-3.15-.23-.19-.46-.35-.71-.53.3-.03.53.18.8.17.06.05.12.11.19.03s-.01-.13-.04-.19c-.16-.34-.33-.68-.55-1.13.57.45.83,1.02,1.32,1.38.53.38,1.07.73,1.68.96.58.22,1.18.39,1.93.19-1.54-1.13-3.07-2.16-3.52-4.11.2-.07.3.05.4.13.95.76,1.99,1.31,3.17,1.6.26.06.45.2.63.39.2.21.39.44.64.59.18.11.39.2.58.03.21-.18.12-.37-.03-.55-.04-.04-.05-.1-.1-.19.41-.12.73-.07,1.01.26.14.18.34.31.53.44.17.13.39.2.57.02.19-.19.08-.38-.07-.55-.06-.08-.12-.15-.19-.24.67-.28.78-.26,1.2.2.21.23.43.45.72.6.18.09.37.14.5-.06.12-.17.08-.36-.07-.51-.2-.21-.47-.35-.65-.64.32-.16.61-.31.9-.45.53-.26,1-.61,1.48-.95.3-.22.47-.46.31-.84-.04-.09-.06-.2,0-.3.16,0,.26.11.39.18.35.19.72-.03.73-.44,0-.04,0-.08-.02-.12-.24-.89-.48-1.78-.73-2.66-.09-.33-.38-.28-.62-.32-1.31-.23-2.43-.85-3.46-1.66-.08-.06-.13-.15-.18-.26.98.55,2.04.76,3.21.85-.22-.49-.68-.71-.86-1.2.42.17.79.39,1.21.46.53.08.56.08.66-.44.11-.56.22-1.11.58-1.76.15,4.2,1.63,7.69,4.59,10.66-.9-.04-1.6-.42-2.46-.49.88,1.19,1.85,2.15,2.91,3.04,1.04.87,2.19,1.59,3.46,2.28-.48.21-.87.17-1.26.14-.37-.03-.73-.1-1.16-.06.13.29.39.35.59.46,1.75.89,3.59,1.49,5.5,1.9.8.17,1.6.32,2.41.42.17.02.34.03.49.14-.09.3-.47.32-.62.58.4.15,1.28.19,1.95.07,1.03-.18,2.05-.45,2.97-.97.69-.39,1.39-.42,2.12-.33,1.39.17,2.59.79,3.65,1.68.24.21.4.48.56.75ZM136.28,76.6c-.87.24-1.65.71-2.53.96s-1.72.66-2.76.73c.22-.38.56-.55.64-.99-3.33.42-6.51.1-9.6-1,2.48,1.36,5.15,2.01,8.01,1.97-.07.44-.58.48-.65.95,2.59-.24,4.9-1.01,6.89-2.62ZM122.32,75.3c-1.53-1.11-3.1-2.15-4.47-3.66.46-.04.78-.07,1.26-.12-1.91-1.74-3.52-3.55-4.87-5.63-.12.21-.02.31.03.41.32.66.71,1.28,1.14,1.88.64.91,1.46,1.66,2.17,2.51.1.12.27.21.2.41-.17.08-.34.04-.5.05-.18.02-.38-.07-.59.18,1.63,1.68,3.49,3.01,5.63,3.97ZM117.63,72.94c0-.1.02-.15,0-.18-.22-.41-.57-.55-1.04-.53-2.3.08-4.58-.12-6.82-.73-.11-.03-.23-.09-.4.04,2.65,1.23,5.39,1.68,8.26,1.4Z"/>
  <path class="cls-2" d="M139.45,81.56c.03.31-.22.48-.39.66-.32.35-.42.73-.42,1.19.01,8.7.01,17.4,0,26.1,0,.58.1,1.11.4,1.61.15.26.31.54.38.84-.22.14-.43.07-.63.06-1.72-.16-3.45-.36-5.17-.6-.44-.06-.5-.16-.2-.49.65-.7.72-1.51.72-2.42-.02-8.3-.02-16.6-.01-24.9,0-.63-.04-1.21-.55-1.65-.09-.08-.16-.19-.17-.33.38-.15,4.96-.22,6.04-.07Z"/>
  <path class="cls-2" d="M138.79,50.06c-.26-.34-.32-.75-.68-.99-.14.56.24.92.39,1.35-.47-.2-.85-.58-.79-1.04.12-1.07-.44-1.69-1.24-2.21-.03-.02-.05-.06-.11-.15,1.24.24,2.42,1.7,2.43,3.04Z"/>
  <path class="cls-1" d="M137.13,36.13c.13.04.29.05.38.18-1.35.62-6.57-.59-8.35-1.96.27-.1.47-.03.67,0,1.22.16,2.42.07,3.57-.38.34-.14.55-.09.8.2.78.94,1.78,1.56,2.93,1.96Z"/>
  <path class="cls-2" d="M134.16,120.09c.31.04.45.18.4.49-.03.18.04.38-.09.57-.3-.03-.6-.06-.91-.11-.23-.03-.35.03-.35.29-.01.75-.03,1.5-.04,2.25-.01.18.06.27.24.29.23.02.46.05.69.09.44.06.44.07.44.5q.01.58-.58.53c-.25-.03-.5-.06-.82-.09-.02.89-.04,1.76-.07,2.63,0,.2.14.25.29.27.24.05.49.1.74.12.25.03.38.13.34.4-.01.08,0,.17-.01.25-.01.41-.02.43-.43.37-.79-.11-1.57-.23-2.36-.34q-.5-.07-.49-.57c.04-2.15.09-4.3.15-6.46.01-.52.04-1.04.04-1.56.01-.24.1-.33.35-.29.82.13,1.65.26,2.47.37Z"/>
  <path class="cls-1" d="M133.75,77.56c.88-.25,1.66-.72,2.53-.96-1.99,1.61-4.3,2.38-6.89,2.62.07-.47.58-.51.65-.95-2.86.04-5.53-.61-8.01-1.97,3.09,1.1,6.27,1.42,9.6,1-.08.44-.42.61-.64.99,1.04-.07,1.88-.48,2.76-.73Z"/>
  <path class="cls-1" d="M132.75,37.7c.2.05.39.1.64.16-1.94.93-6.45,0-7.84-1.52.45-.07.81.07,1.18.12.91.11,1.83.1,2.75.09.32,0,.6.05.88.23.74.44,1.54.73,2.39.92Z"/>
  <path class="cls-2" d="M131.57,101.15c0,2.47,0,4.94,0,7.41,0,1.15-.52,1.89-1.58,2.3-.46.18-.93.28-1.41.3-1.85.06-3.68-.03-5.51-.26-.91-.11-1.73-.48-2.51-.94l-.03-.03c-.09-.14-.19-.28-.38-.31,0-.12-.04-.21-.17-.23-.01-.17-.09-.3-.25-.38-.22-.66-.23-1.33-.22-2.03.02-1.75.02-3.51.03-5.27.01-.12,0-.25.01-.37.01-.19.08-.32.3-.32h.06c1.65-.02,3.31-.03,4.96-.05.08,0,.17-.01.26.12-.14.37-.43.67-.69.97-.3.33-.43.68-.42,1.14.03,1.5.01,3.01.01,4.52,0,.48.01.48.48.5.73.04,1.46.12,2.19.1.46-.02.47-.02.47-.45,0-2.21,0-4.43-.03-6.65-.01-.98-.43-1.82-1.08-2.54-1.7-1.9-3.39-3.81-5.13-5.68-.99-1.07-1.5-2.26-1.45-3.74.06-1.44.01-2.88.01-4.33s.57-2.25,1.93-2.74c.74-.26,1.51-.39,2.28-.41,1.23-.02,2.47-.03,3.7,0,.73.02,1.46.14,2.15.4,1.22.46,1.99,1.44,1.95,2.77-.05,1.51-.02,3.01-.02,4.52-.01.56-.01.57-.55.58h-4.58c-.08,0-.17.01-.25-.01-.2-.03-.25-.15-.12-.3.25-.31.5-.62.78-.9.24-.24.33-.5.32-.84,0-1.02,0-2.05,0-3.07.01-.3-.05-.46-.41-.46-.75.02-1.5-.02-2.26-.01-.44,0-.48.04-.48.51-.01,1.45-.01,2.89,0,4.33.01.86.38,1.57.94,2.21,1.75,1.99,3.48,4,5.24,5.99.55.63.94,1.33,1.19,2.12.17.5.27,1,.27,1.53Z"/>
  <path class="cls-1" d="M128.18,35.39s.06.06.15.17c-.63-.09-1.18-.17-1.74-.25-1.35-.2-2.7-.37-3.89-1.12-.45-.29-.93-.56-1.28-1.04,1.04-.1,2.05-.19,3.07-.11.09,0,.19.07.28.12,1.14.74,2.28,1.49,3.41,2.23Z"/>
  <path class="cls-1" d="M126.55,37.81c-.23.04-.45.11-.68.13-2.58.2-4.77-.64-6.59-2.45-.44-.44-.44-.47-.16-1.03.1-.2.16-.43.35-.57.2.01.28.17.4.28,1.01.99,2.2,1.58,3.63,1.61.19.01.37.01.51.18.69.81,1.51,1.43,2.54,1.85Z"/>
  <path class="cls-1" d="M124.01,32.23c0,.19-.13.19-.25.19-.69,0-1.38,0-2.07,0h-1.54c.23-.67.54-1.23.86-1.79.1-.16.21-.17.36-.08.51.29,1.09.4,1.66.51.44.09.96.72.98,1.16Z"/>
  <path class="cls-2" d="M122.53,44.76c.02.08.05.15.08.2-.06-.02-.1-.07-.08-.2Z"/>
  <path class="cls-2" d="M120.52,126.42c.68.09.68.1.63.78-.01.08-.04.16-.06.27-.97-.07-1.92-.12-2.82-.27,0-1.34-.01-2.65,0-3.97.02-1.44.06-2.88.09-4.32q.02-.51.54-.47c.43.04.87.1,1.3.14.15.43.05.87.04,1.3-.03,2-.08,4-.14,6.01,0,.32.06.49.42.53Z"/>
  <path class="cls-1" d="M120.53,109.93c-.24.03-.33-.12-.4-.3h.02c.19.02.29.16.38.3Z"/>
  <path class="cls-1" d="M120.15,109.62h0s-.02,0-.02,0h-.01s.02-.01.03,0Z"/>
  <path class="cls-1" d="M120.15,109.62s-.02-.01-.03-.01h.01c-.12-.02-.19-.07-.15-.21h0c.13.01.17.1.17.22Z"/>
  <path class="cls-1" d="M120.15,109.63h-.02s.02,0,.02,0Z"/>
  <path class="cls-1" d="M119.98,109.39h0c-.22-.03-.29-.17-.25-.37h0c.16.07.24.2.25.37Z"/>
  <path class="cls-1" d="M117.85,71.64c1.37,1.51,2.94,2.55,4.47,3.66-2.14-.96-4-2.29-5.63-3.97.21-.25.41-.16.59-.18.16-.01.33.03.5-.05.07-.2-.1-.29-.2-.41-.71-.85-1.53-1.6-2.17-2.51-.43-.6-.82-1.22-1.14-1.88-.05-.1-.15-.2-.03-.41,1.35,2.08,2.96,3.89,4.87,5.63-.48.05-.8.08-1.26.12Z"/>
  <path class="cls-2" d="M117.95,110.32c.28.53.26.57-.35.57-1.59.02-3.18-.04-4.77.1-.12.01-.25.02-.37.01-.33-.02-.42-.13-.25-.38.6-.87.57-1.85.57-2.84l-.03-22.53c0-.73-.06-1.47-.05-2.2.01-.4-.21-.66-.4-.96-.07-.12-.2-.21-.19-.49,1.97.03,3.92-.03,5.88.08.03.27-.14.4-.26.51-.31.31-.38.66-.38,1.08.01,6.91.01,13.81.01,20.72,0,1.48.02,2.97,0,4.45-.01.59.1,1.12.42,1.61.06.08.12.17.17.27Z"/>
  <path class="cls-1" d="M117.63,72.76s0,.08,0,.18c-2.87.28-5.61-.17-8.26-1.4.17-.13.29-.07.4-.04,2.24.61,4.52.81,6.82.73.47-.02.82.12,1.04.53Z"/>
  <path class="cls-2" d="M109.97,110.54c.2.49.19.52-.35.56-1.38.09-2.76.18-4.13.27-.09,0-.17.01-.25.01-.18-.01-.29-.08-.23-.28.01-.04.02-.08.04-.12.41-.82.32-1.7.39-2.58.14-1.75-.36-3.39-.82-5.04-1.08-3.91-2.15-7.82-3.23-11.73l1.92-.55c.61,2.12,1.22,4.24,1.84,6.37.05.19.12.38.27.56v-.78c0-4.96,0-9.92.01-14.88,0-.76-.12-.75.73-.75h3.27c.2,0,.41-.04.64.06,0,.28-.22.44-.36.62-.2.24-.27.5-.27.81.01,8.6.02,17.2.02,25.8,0,.36.04.7.22,1.03.11.2.2.41.29.62Z"/>
  <path class="cls-2" d="M108.1,126.92c.16.13.02.95-.17.98-.85.1-1.71.18-2.56.25-.21.02-.19-.17-.19-.31,0-.52.03-1.05.03-1.57.01-.83.01-1.67.01-2.51h.05c.04-1.33.07-2.67.1-4.01,0-.29.06-.46.41-.45.37,0,.75-.06,1.12-.1.27-.03.37.07.36.35-.03.75-.04,1.5-.06,2.25-.05,1.55-.02,3.1-.12,4.64-.03.48.01.51.47.48.13-.01.25-.04.38-.05.06,0,.13.01.17.05Z"/>
  <path class="cls-2" d="M101.68,85.46c.54,1.87,1.08,3.75,1.63,5.62l-1.92.55c-.05-.16-.1-.32-.17-.53-.14.23-.12.4-.12.57.01,5.17.01,10.33.02,15.5,0,.78.03,1.55.01,2.32-.01.46.09.87.32,1.26.16.26.33.52.43.91-1.84.22-3.66.43-5.49.64-.01-.37.2-.6.32-.86.23-.48.36-.96.36-1.5,0-3.98,0-7.95,0-11.93.01-4.77,0-9.54.02-14.31,0-.59-.08-1.11-.47-1.57-.11-.12-.16-.28-.23-.4.14-.17.3-.13.43-.13,1.24-.01,2.47-.01,3.71-.01.57.01.6.02.55.56-.12,1.16.28,2.23.59,3.31Z"/>
  <path class="cls-1" d="M100.99,68.28c.03.06.11.11.04.19s-.13.02-.19-.03c.05-.06.1-.11.15-.16Z"/>
  <path class="cls-2" d="M96.65,85.71c-.77.06-1.51-.18-2.27-.27-.01-.1-.04-.2-.04-.3-.02-.24.08-.33.34-.28.5.1,1.01.16,1.52.25q.45.08.45.6Z"/>
  <path class="cls-2" d="M95.38,121.91c.01,1.13,0,2.26,0,3.39h-.15c0,1.08-.01,2.17,0,3.26,0,.65-.28,1.08-.89,1.29-.93.32-1.89.53-2.88.58-.75.04-1.02-.23-1.01-1,.04-1.95.1-3.89.15-5.84.01-.31-.01-.62.05-.93.07-.4.27-.7.64-.87,1.06-.5,2.19-.68,3.35-.68.55,0,.72.22.73.8ZM93.47,123.28c.01-.31.06-.62-.03-.93-.89.04-.9.04-.92.85-.05,1.9-.1,3.8-.14,5.7,0,.08.01.16.02.24q.93.01.95-.85c.04-1.67.09-3.34.12-5.01Z"/>
  <path class="cls-2" d="M94.34,111.68c.19.23.39.48.5.81-.39.19-.8.15-1.18.22-1.42.25-2.84.49-4.27.72-.42.07-.51,0-.32-.35.56-.98.5-2.05.5-3.11-.01-3.58-.01-7.16-.02-10.74,0-.08,0-.16,0-.25.03-.31-.14-.39-.42-.39-.56.01-1.13,0-1.69,0-.19,0-.38.04-.61-.1.16-.88.32-1.78.47-2.68.04-.22.18-.26.37-.26.43,0,.87.01,1.31,0,.55-.01.56-.01.56-.57v-7.21c0-.55-.02-1.09,0-1.64,0-.32-.11-.44-.44-.44-.77.02-1.55,0-2.32,0-.47.01-.48.02-.48.51v6.09c0,6.46,0,12.92,0,19.39-.01.55.08,1.03.46,1.43.07.08.13.17.18.26.29.43.28.47-.25.59-1.71.39-3.42.76-5.12,1.22-.08.02-.16.05-.27-.05-.06-.2.05-.42.16-.6.38-.67.44-1.38.44-2.12,0-6.84,0-13.68,0-20.53.01-2.78,0-5.56.02-8.34,0-.47-.07-.86-.43-1.18-.2-.18-.36-.41-.52-.59.03-.18.15-.18.25-.18,2.91.03,5.82-.05,8.72.06.8.03,1.57.2,2.3.55,1.14.55,1.68,1.47,1.71,2.71v1c0,8.16,0,16.32-.01,24.48,0,.49.09.9.4,1.28Z"/>
  <path class="cls-2" d="M81.46,91.57c.1.18.04.35-.03.53-1.24.58-2.52.43-3.79.15-1.06-.23-1.86-.88-2.43-1.81.37-.1.66.04.97.26,1.08.79,2.27,1.3,3.65,1.22.38-.02.75-.07,1.1-.21.17-.06.32-.22.53-.14Z"/>
  <path class="cls-2" d="M80.69,126.26c.01.25-.1.38-.34.43-.48.11-.97.24-1.52.37-.1-.53.03-1.01-.07-1.47-.15-.06-.27-.03-.4,0-.47.1-.49.12-.51.62-.07,1.94-.03,3.89-.16,5.83,0,.27.07.38.36.34.52-.08.6-.15.61-.66,0-.54.03-1.09.02-1.63,0-.26.09-.38.33-.44.5-.12,1.01-.25,1.55-.38.09.5.03.96.03,1.41,0,.27-.04.54-.02.81.06.76-.31,1.24-.97,1.52-.91.39-1.87.62-2.85.71-.75.06-.98-.18-.96-.94.04-2.13.1-4.26.13-6.4.02-.69.34-1.15.95-1.41.91-.38,1.87-.61,2.85-.74.12-.02.25-.01.37,0,.42.05.58.21.6.65.01.46,0,.92,0,1.38Z"/>
  <path class="cls-2" d="M79.17,79.92c.01,3.16.01,6.32.01,9.48,0,.55-.02.59-.56.59-1.88,0-3.76-.01-5.65-.02-.08,0-.16-.01-.25-.02-.23,0-.3-.12-.19-.32.17-.34.33-.68.54-.99.5-.76.72-1.55.69-2.48-.06-1.71,0-3.43,0-5.14,0-.62-.01-.62-.64-.62-.98,0-1.97-.01-2.95,0-.51,0-.51.01-.51.53,0,1.8,0,3.6,0,5.4v3.51c-.02,8.96-.04,17.91-.07,26.87,0,1.08-.03,2.17-.03,3.26,0,.22-.04.46.06.65.21.06.32-.06.44-.13,1.03-.6,2.04-1.22,3.09-1.79.44-.24.56-.53.55-1-.04-1.01-.02-2.01-.02-3.02-.01-3.62-.01-7.24,0-10.85,0-.59,0-.6.58-.59,1.48,0,2.97.02,4.45.04.45,0,.46.01.47.44,0,.67,0,1.34,0,2.01.01,4.46,0,8.92.02,13.37,0,.39-.14.6-.47.78-3.44,1.91-6.83,3.9-10.19,5.95-.59.36-1.18.72-1.85.92-.1.03-.19.07-.3.1-1.22.29-1.9-.16-2.08-1.4-.06-.37-.07-.75-.07-1.13-.01-14.37-.01-28.75-.01-43.12,0-.53.01-1.05.15-1.56.44-1.69,1.53-2.74,3.22-3.17.55-.14,1.11-.19,1.68-.19,1.8.01,3.6,0,5.39,0,.74,0,1.47.11,2.16.36,1.51.53,2.34,1.68,2.35,3.28Z"/>
  <path class="cls-2" d="M79.09,77.56c.06,0,.11.03.11.1-.01.06-.06.09-.12.09s-.12-.02-.11-.09c0-.07.05-.1.12-.1Z"/>
  <path class="cls-2" d="M76.71,75.2c.19.16.1.38.04.58-.03.1-.07.19-.11.29-.52-.04-1.05-.07-1.54-.29.3-.27.65-.44,1.02-.58.2-.07.41-.16.59,0Z"/>
  <path class="cls-2" d="M76.22,22.85c.07-.01.17,0,.17.12-.12.13-.26.08-.39.03-.08-.02-.15-.04-.23-.06.15-.02.3-.05.45-.09Z"/>
  <path class="cls-1" d="M69.71,61.07c-.65-.06-1.26.07-1.87.16-.75.1-1.5.11-2.25.08-.71-.03-1.34-.29-1.91-.72-.1-.08-.21-.14-.2-.28.76.48,1.58.59,2.45.52.48-.04.96-.05,1.44-.09.57-.04,1.13-.02,1.69.06.23.03.45.09.65.27Z"/>
</svg>