<?xml version="1.0" encoding="UTF-8"?>
<svg xmlns="http://www.w3.org/2000/svg" xmlns:xlink="http://www.w3.org/1999/xlink" viewBox="0 0 232.6 144.9">
  <defs>
    <style>
      .cls-1 {
        fill: #202020;
      }

      .cls-1, .cls-2, .cls-3, .cls-4, .cls-5, .cls-6, .cls-7, .cls-8, .cls-9, .cls-10, .cls-11, .cls-12, .cls-13, .cls-14, .cls-15, .cls-16, .cls-17, .cls-18, .cls-19, .cls-20, .cls-21, .cls-22, .cls-23, .cls-24 {
        fill-rule: evenodd;
        stroke-width: 0px;
      }

      .cls-1, .cls-2, .cls-14 {
        opacity: 1;
      }

      .cls-1, .cls-2, .cls-14, .cls-20 {
        isolation: isolate;
      }

      .cls-2 {
        fill: #272727;
      }

      .cls-3 {
        fill: #020202;
      }

      .cls-4 {
        fill: #aaa8a8;
      }

      .cls-5 {
        fill: #040404;
      }

      .cls-6 {
        fill: #8b8989;
      }

      .cls-7 {
        fill: silver;
      }

      .cls-9 {
        fill: #4d4c4c;
      }

      .cls-10 {
        fill: #8c8a8a;
      }

      .cls-11 {
        fill: #bfbfbf;
      }

      .cls-12 {
        fill: #993f51;
      }

      .cls-13 {
        fill: #010101;
      }

      .cls-14 {
        fill: #2b2b2b;
      }

      .cls-15 {
        fill: #c1c1c1;
      }

      .cls-16 {
        fill: #696566;
      }

      .cls-17 {
        fill: #545252;
      }

      .cls-18 {
        fill: #a19f9f;
      }

      .cls-19 {
        fill: #070707;
      }

      .cls-20 {
        fill: #090909;
        opacity: .97;
      }

      .cls-21 {
        fill: #750629;
      }

      .cls-22 {
        fill: #030303;
      }

      .cls-23 {
        fill: #797677;
      }

      .cls-24 {
        fill: #6e6b6b;
      }
    </style>
  </defs>
  <g id="Clarkson">
    <image width="1200" height="674" transform="translate(-275.78 -4.69) scale(.23)" xlink:href="../RAW/Clarkson Golden Knights.png"/>
  </g>
  <g id="Colgate">
    <g>
      <path class="cls-20" d="M149.53,3.73c-19.69-.06-39.37-.06-59.04,0,9.82-.09,19.66-.14,29.52-.14s19.7.05,29.52.14Z"/>
      <path class="cls-8" d="M149.53,3.73c8.42,8.35,16.79,16.74,25.11,25.18.02,29.05,0,58.1-.07,87.14-8.37,8.37-16.72,16.76-25.04,25.18-19.68.09-39.36.09-59.04,0-8.34-8.45-16.73-16.87-25.15-25.25-.05-29.02-.05-58.05,0-87.07,4.79-4.87,9.62-9.71,14.48-14.51,1.15-1.04,2.29-2.14,3.41-3.31-.02-.03-.04-.04-.07-.04,2.42-2.47,4.86-4.91,7.33-7.33,19.67-.06,39.35-.06,59.04,0Z"/>
      <path class="cls-6" d="M167.95,31.62v31.37c-1.17-.02-2.34,0-3.49.07.02,1.34,0,2.67-.07,3.98,0-2.26.03-4.28.07-6.08-.04-.05-.08-.11-.11-.18-.53.79-1.07,1.57-1.6,2.35-.37-.07-.74-.09-1.14-.07.76-1.07,1.23-2.23,1.42-3.49.47-.05.93-.1,1.39-.14.06-8.77.05-17.55-.04-26.32-6.35-6.41-12.79-12.84-19.31-19.28-16.71.03-33.42.03-50.15,0-6.47,6.39-12.92,12.82-19.35,19.28-.05,26.2-.05,52.4,0,78.61,6.33,6.39,12.69,12.79,19.1,19.21.13.05.26.1.39.14h50.08c6.51-6.47,12.92-12.92,19.24-19.35.07-8.67.09-17.35.07-26.04h-30.09c-.05,0-.1,0-.14-.04,1.35-1.01,2.49-2.2,3.41-3.59,1.05.07,2.12.09,3.2.07.31.08.64.08,1,0h26.18c.01,10.36,0,20.72-.04,31.09-7.04,7.12-14.12,14.22-21.23,21.31-17.83.05-35.66.05-53.49,0-7.1-7.08-14.18-14.18-21.23-21.31-.05-27.2-.05-54.4,0-81.59,7.11-7.11,14.21-14.21,21.31-21.31,17.81-.05,35.62-.05,53.42,0,7.06,7.12,14.12,14.22,21.2,21.31Z"/>
      <path class="cls-1" d="M83.16,11.06s.05,0,.07.04c-1.13,1.17-2.27,2.27-3.41,3.31,1.09-1.14,2.21-2.25,3.34-3.34Z"/>
      <path class="cls-15" d="M161.62,63.06c-1.78,2.34-3.85,4.38-6.22,6.12.02.41.25.62.68.64,1.02-.17,1.9-.62,2.63-1.35.52-.51,1.01-1.06,1.46-1.64.88-1.22,1.75-2.46,2.6-3.7.53-.78,1.07-1.56,1.6-2.35.03.07.06.12.11.18-.04,1.8-.07,3.83-.07,6.08-1.22,1.8-2.53,3.53-3.95,5.19-1.75,2.01-3.9,3.42-6.44,4.23-1.73.46-3.22.06-4.48-1.17-1.18,1.65-2.49,3.2-3.91,4.66-1.07,1.03-2.33,1.73-3.77,2.1h-.85c-.96-.15-1.72-.63-2.28-1.42-.36.48-.71.95-1.07,1.42-.93,1.39-2.06,2.59-3.41,3.59.04.03.09.04.14.04,9.99.07,20,.09,30.02.07v25.96c-6.32,6.43-12.74,12.88-19.24,19.35h-50.08c-.13-.04-.26-.09-.39-.14-6.41-6.42-12.77-12.82-19.1-19.21-.05-26.2-.05-52.4,0-78.61,6.43-6.46,12.88-12.88,19.35-19.28,16.73.03,33.44.03,50.15,0,6.52,6.44,12.96,12.87,19.31,19.28.08,8.77.09,17.55.04,26.32-.46.05-.92.09-1.39.14-.19,1.26-.67,2.42-1.42,3.49Z"/>
      <path class="cls-21" d="M103.86,107.88c10.56.07,21.14.09,31.73.07v-18.64h25.25v20.99c-5.66,5.7-11.35,11.4-17.07,17.11-15.84.05-31.68.05-47.52,0-5.69-5.67-11.35-11.35-17-17.04-.08-25.28-.09-50.55-.04-75.83,5.68-5.68,11.36-11.36,17.04-17.04,15.84-.05,31.68-.05,47.52,0,5.67,5.66,11.34,11.34,17,17.04.09,7.14.09,14.27,0,21.41-8.36-.01-16.72-.01-25.08,0-.11-6.32-.14-12.65-.11-18.99h-31.3c.01,15.77,0,31.54-.04,47.31-1.42,2.21-2.43,4.57-3.02,7.08l.07.07c-.48,1.91-.32,3.75.46,5.51.61.93,1.45,1.51,2.53,1.74-.81,1.02-1.51,2.13-2.1,3.31-.55,1.26-.69,2.51-.43,3.77.18.82.65,1.48,1.39,1.96.23.1.47.16.71.18Z"/>
      <path class="cls-12" d="M97.46,19.95c15.02.08,30.04.08,45.06,0,.08.05.16.08.25.11.79.83,1.59,1.64,2.42,2.42-15.62.08-31.24.14-46.88.18-4.66,4.69-9.33,9.36-14.01,14.01-.06,25.02-.09,50.03-.11,75.05-.84-.87-1.68-1.73-2.53-2.6.03-24.44.03-48.89,0-73.34,5.25-5.33,10.51-10.61,15.79-15.83Z"/>
      <path class="cls-20" d="M174.64,28.91c.05,14.49.07,28.99.07,43.5-.01,14.5-.02,29-.04,43.5-.02.07-.06.11-.11.14.07-29.05.09-58.09.07-87.14Z"/>
      <path class="cls-16" d="M167.95,31.62c.07,10.47.09,20.95.07,31.44h-3.56c1.15-.07,2.31-.09,3.49-.07v-31.37Z"/>
      <path class="cls-12" d="M138.15,36.88c.81.04,1.6.04,2.38,0,.06.06.12.12.18.18-.02,5.43-.05,10.86-.07,16.29-.82.03-1.62.04-2.42.04-.06-.09-.11-.18-.14-.28.05-5.43.07-10.84.07-16.22Z"/>
      <path class="cls-4" d="M132.03,41.01c-.07-.13-.09-.27-.07-.43-8.05-.05-16.09,0-24.12.14v-.21h24.19v.5Z"/>
      <path class="cls-10" d="M132.03,41.01v.07c-.07,6.13-.09,12.27-.07,18.42h.21c3.3-.02,6.62,0,9.96.07-.31,1.14-.62,2.3-.92,3.49h-12.73v-18.99h-17.07v33.79c-.62.27-1.23.57-1.85.89-.57.38-1.12.8-1.64,1.24-.02-.05-.05-.09-.07-.14.05-13.04.05-26.08,0-39.12,8.02-.14,16.06-.19,24.12-.14-.02.16,0,.3.07.43Z"/>
      <path class="cls-4" d="M132.03,41.08c-.05,6.16,0,12.3.14,18.42h-.21c-.02-6.15,0-12.29.07-18.42Z"/>
      <path class="cls-2" d="M128.47,63.06c-.07-6.3-.09-12.6-.07-18.92h-16.93v33.79s-.07-.02-.07-.07v-33.79h17.07v18.99Z"/>
      <path class="cls-8" d="M128.47,63.06h12.73c-.11.38-.21.76-.32,1.14-.4.21-.81.43-1.21.64-.62,2.3-1.22,4.6-1.81,6.9.36-.1.72-.26,1.07-.5.02.04.05.07.07.11-.34,1.31-.63,2.62-.89,3.95-.8,1.16-1.62,2.3-2.49,3.41.17-1.04.36-2.08.57-3.13.82-3.1,1.65-6.21,2.49-9.32.02-.35.1-.68.25-1-.04-.02-.07-.05-.11-.07-1.09.51-2.2,1.02-3.31,1.53l-2.99,2.99c-.23,0-.44-.08-.64-.21-1.35-.33-2.6-.12-3.77.64-4.02,2.89-6.9,6.64-8.64,11.28-.27.96-.51,1.94-.71,2.92-.52.87-1.09,1.7-1.71,2.49.68-4.16,1.45-8.31,2.31-12.45-.02-.05-.05-.09-.07-.14-.83.39-1.66.78-2.49,1.17-.95.85-1.9,1.71-2.85,2.56-.49-.06-.99-.12-1.49-.18-.34,0-.67.05-1,.14v-33.79h16.93c-.02,6.32,0,12.63.07,18.92Z"/>
      <path class="cls-13" d="M144.05,72.38c-.09.17-.14.36-.14.57-.11.71-.15,1.42-.11,2.13.04.32.17.59.39.82.3.11.61.13.92.07.67-.34,1.28-.78,1.81-1.32.99-1.19,1.89-2.45,2.7-3.77.74-5.22,3.2-9.43,7.36-12.63.91-.62,1.92-.99,3.02-1.1.97-.03,1.56.42,1.78,1.35.06.57.04,1.14-.07,1.71-.59,1.56-1.47,2.93-2.63,4.13-1.58,1.63-3.29,3.1-5.12,4.41.3,1.95,1.4,2.63,3.31,2.03,1.23-.54,2.29-1.34,3.17-2.38.96-1.18,1.85-2.42,2.67-3.7.07.65.09,1.31.07,1.99-1.15,1.6-2.34,3.17-3.59,4.69-1.28,1.45-2.79,2.6-4.52,3.45-.64.28-1.3.47-1.99.57-1.82.16-2.94-.66-3.34-2.45-1.13,1.57-2.3,3.11-3.52,4.62-1.09,1.38-2.43,2.44-4.02,3.17-1.04.37-1.86.1-2.45-.82-.35-.62-.54-1.28-.57-1.99-1.23,1.75-2.51,3.46-3.84,5.12-.67.79-1.44,1.44-2.31,1.96-.27.08-.53.18-.78.28-.6.13-1.09-.05-1.46-.53-.44-.8-.65-1.65-.6-2.56.01-.29,0-.57-.04-.85-.05.04-.09.09-.11.14-.97,1.94-2.12,3.77-3.45,5.48-.71.83-1.53,1.53-2.45,2.1-1.9,1.03-3.24.54-4.02-1.46-.06-.26-.12-.52-.18-.78-.73,1.03-1.5,2.02-2.31,2.99-.93.98-1.9,1.9-2.92,2.77-.58,1.88-1.24,3.73-1.99,5.55-.83,1.78-1.83,3.47-2.99,5.05-.83,1.09-1.81,2-2.95,2.74-.57.32-1.16.58-1.78.78-1.28.17-2-.39-2.17-1.67-.06-1,.13-1.94.57-2.85.66-1.28,1.49-2.44,2.49-3.49,1.41-1.42,2.89-2.75,4.45-3.98.26-1.22.52-2.44.78-3.66-.01-.06-.02-.12-.04-.18-1,1.62-2.12,3.16-3.34,4.62-.8.87-1.76,1.47-2.88,1.81-.88.11-1.55-.21-2.03-.96-.65-1.51-.79-3.08-.43-4.69,1.01-4.24,3.11-7.83,6.3-10.78.93-.8,1.98-1.41,3.13-1.85.8-.14,1.55-.01,2.24.39,1.11-.92,2.19-1.88,3.24-2.88.16-.14.34-.24.53-.32-.13.73-.26,1.46-.39,2.21-.09.17-.14.36-.14.57-.78,3.88-1.48,7.77-2.1,11.67,1.9-1.75,3.48-3.74,4.77-5.98.28-1.76.8-3.45,1.56-5.05,1.17-2.27,2.64-4.34,4.41-6.19,1.09-1.13,2.33-2.05,3.73-2.74.53-.17,1.08-.22,1.64-.14.49.1.84.37,1.07.82.04.07.08.08.14.04,1.21-1.19,2.4-2.4,3.56-3.63.34-.21.69-.35,1.07-.43-.81,2.94-1.58,5.89-2.31,8.86-.16.8-.3,1.61-.43,2.42-.05.47-.05.95,0,1.42.26.44.63.55,1.1.32.67-.48,1.25-1.06,1.74-1.74.69-1,1.38-1.99,2.06-2.99.1-.92.27-1.82.5-2.7.33-1.3.68-2.61,1.03-3.91-.44.1-.87.29-1.28.57-.02-.04-.05-.07-.07-.11.33-1.25.68-2.49,1.03-3.73.42-.24.86-.46,1.32-.64.05-.04.08-.08.11-.14.52-2.07,1.07-4.13,1.64-6.19,1.51-.93,3.04-1.83,4.59-2.7.02.04.05.07.07.11-.61,2.26-1.17,4.52-1.67,6.79.78-.39,1.56-.77,2.35-1.14-.13.97-.31,1.95-.53,2.92-.04.11-.11.2-.21.25-.87.45-1.74.92-2.6,1.39-.59,1.97-1.1,3.96-1.53,5.98Z"/>
      <path class="cls-6" d="M151.09,63.13c-.37-.07-.74-.09-1.14-.07.22-1.11.42-2.25.6-3.41-.72.39-1.44.77-2.17,1.14.02-.42.11-.83.28-1.24,1.68-.05,3.37-.05,5.05,0-1.01,1.11-1.89,2.31-2.63,3.59Z"/>
      <path class="cls-7" d="M157.28,59.43c.62-.1.99.16,1.1.78.07,1.36-.26,2.62-1,3.77-.97,1.42-2.15,2.63-3.56,3.63-.09-2.74.69-5.18,2.35-7.33.34-.33.71-.61,1.1-.85Z"/>
      <path class="cls-22" d="M149.95,63.06c.39-.02.77,0,1.14.07-1.04,1.7-1.81,3.52-2.31,5.48-.1.67-.22,1.33-.36,1.99-.84,1.36-1.82,2.6-2.95,3.73-.15.11-.31.21-.46.32-.05-.28-.05-.57,0-.85.46-2.19.98-4.37,1.56-6.54.94-.54,1.89-1.06,2.85-1.56.17-.88.35-1.76.53-2.63Z"/>
      <path class="cls-22" d="M161.62,63.06c.39-.02.77,0,1.14.07-.85,1.24-1.71,2.48-2.6,3.7-.45.58-.93,1.12-1.46,1.64-.73.74-1.61,1.19-2.63,1.35-.43-.02-.65-.23-.68-.64,2.37-1.74,4.45-3.78,6.22-6.12Z"/>
      <path class="cls-14" d="M163.19,66.69c.02-.68,0-1.34-.07-1.99.02-.06.06-.1.11-.14.06.72.05,1.44-.04,2.13Z"/>
      <path class="cls-11" d="M129.75,72.09c.62-.09,1.06.15,1.32.71.14,1.1.07,2.2-.21,3.27-.5,2.17-1.29,4.24-2.35,6.19-.48.83-1.08,1.55-1.81,2.17-.47.35-.99.49-1.56.43-.26-.19-.43-.44-.53-.75-.14-1.03-.1-2.05.14-3.06.56-2.45,1.49-4.75,2.77-6.9.6-.85,1.35-1.54,2.24-2.06Z"/>
      <path class="cls-9" d="M144.05,72.38c.01.21-.03.4-.14.57,0-.21.05-.4.14-.57Z"/>
      <path class="cls-11" d="M97.88,73.37c1.23-.1,2.39.22,3.49.96.67.62,1.09,1.38,1.28,2.28.07.68.07,1.36,0,2.06-.5,2.03-1.39,3.87-2.67,5.51-1.87,2.31-4.01,4.3-6.44,5.98-.27-1.14-.55-2.28-.82-3.41,1.19-1.17,2.31-2.4,3.34-3.7.46-.56.73-1.2.82-1.92,0-.15-.07-.27-.18-.36-.09.09-.19.09-.28,0l-.14.14c-.16-.03-.32-.03-.5,0-.74-.16-1.18-.61-1.32-1.35.19-.51.41-1.01.68-1.49.9-1.58,1.81-3.14,2.74-4.69Z"/>
      <path class="cls-5" d="M129.82,73.45c.09.1.14.23.14.39-.38,3.15-1.42,6.05-3.09,8.71-.31.43-.69.79-1.14,1.07-.08-.18-.11-.37-.11-.57.07-.87.22-1.72.46-2.56.63-2.29,1.63-4.4,2.99-6.33.24-.25.49-.49.75-.71Z"/>
      <path class="cls-3" d="M98.52,74.66c1.92,0,2.91.97,2.99,2.88-.04.74-.17,1.46-.39,2.17-.59,1.51-1.39,2.88-2.42,4.13-1.33,1.57-2.8,2.99-4.41,4.27-.12-.33-.19-.66-.21-1,1.01-1.06,1.98-2.15,2.92-3.27.42-.59.76-1.23,1-1.92.4-1.86-.35-2.63-2.24-2.31-.03-.03-.06-.06-.07-.11.95-1.62,1.9-3.23,2.85-4.84Z"/>
      <path class="cls-23" d="M117.44,78.43c.01.21-.03.4-.14.57,0-.21.05-.4.14-.57Z"/>
      <path class="cls-7" d="M111.61,80.49c.57-.11.96.1,1.17.64.04.24.08.47.11.71-.26,2.63-.89,5.17-1.89,7.61-.43,1.03-1.06,1.92-1.89,2.67-.3.18-.61.35-.92.5-.73.12-1.22-.18-1.46-.89-.18-3.47.72-6.62,2.7-9.46.57-.8,1.29-1.39,2.17-1.78Z"/>
      <path class="cls-19" d="M140.99,82.05c-.02.06-.07.08-.14.07-1.08.02-2.15,0-3.2-.07.35-.47.71-.94,1.07-1.42.56.8,1.32,1.27,2.28,1.42Z"/>
      <path class="cls-24" d="M130.18,82.2c-.05-.24-.09-.47-.14-.71.02-.06.06-.1.11-.14.04.28.05.57.04.85Z"/>
      <path class="cls-6" d="M111.47,81.91h.21c-.25,2.46-.85,4.84-1.81,7.11-.36.76-.83,1.46-1.39,2.1-.17.12-.35.22-.53.32-.03-.07-.06-.12-.11-.18.04-2.77.79-5.37,2.24-7.79.41-.57.88-1.09,1.39-1.56Z"/>
      <path class="cls-17" d="M140.99,82.05h.85v.07c-.36.08-.69.08-1,0,.07.01.12-.01.14-.07Z"/>
      <path class="cls-6" d="M131.96,86.53v17.78c-7.22.02-14.43,0-21.63-.07.89-1.06,1.67-2.2,2.35-3.41,5.28.02,10.54,0,15.79-.07v-14.3c.33-.53.67-1.05,1.03-1.56.47,1.07,1.29,1.62,2.45,1.64Z"/>
      <path class="cls-4" d="M134.38,85.68h30.09c.02,8.69,0,17.37-.07,26.04v-25.96c-10.02.02-20.02,0-30.02-.07Z"/>
      <path class="cls-2" d="M128.47,86.46v14.3h-.07c.02-4.73,0-9.45-.07-14.16.02-.07.07-.12.14-.14Z"/>
      <path class="cls-4" d="M131.96,86.53c.07,5.94.09,11.89.07,17.86-7.13-.02-14.26,0-21.38.07-.13-.04-.26-.09-.39-.14,0-.04.03-.07.07-.07,7.2.07,14.41.09,21.63.07v-17.78Z"/>
      <path class="cls-8" d="M128.33,86.61c.07,4.71.09,9.43.07,14.16-5.23.02-10.45,0-15.65-.07.66-1.3,1.27-2.63,1.81-3.98.42-1.13.8-2.26,1.14-3.41,1.42-1.21,2.73-2.54,3.91-3.98.96,1.29,2.23,1.75,3.81,1.39,1.52-.57,2.82-1.49,3.88-2.74.36-.44.7-.89,1.03-1.35Z"/>
      <path class="cls-12" d="M138.15,91.8c6.7.08,13.4.08,20.1,0,.07.05.1.13.11.21-.08.74-.08,1.49,0,2.24,0,.08-.04.13-.11.18-5.83-.09-11.67-.09-17.54,0-.07,6.18-.07,12.34,0,18.5-.02.06-.06.1-.11.14h-36.21l-.11-.11c.02-.84.03-1.68.04-2.53,11.22,0,22.45.03,33.68.07.06-.05.1-.11.14-.18-.03-6.17-.03-12.35,0-18.53Z"/>
      <path class="cls-7" d="M109.9,96.49s.07.05.07.11c-.37,1.57-.81,3.13-1.32,4.66-.39.99-.89,1.91-1.49,2.77-.61.78-1.4,1.15-2.38,1.1-.44-.32-.63-.76-.57-1.32.05-.71.25-1.38.6-1.99.94-1.36,2.02-2.6,3.24-3.73.63-.52,1.25-1.06,1.85-1.6Z"/>
      <path class="cls-16" d="M112.75,100.69c5.2.07,10.42.09,15.65.07h.07c-5.25.07-10.52.09-15.79.07-.01-.07.01-.12.07-.14Z"/>
      <path class="cls-18" d="M160.84,110.29v-20.99h-25.25v18.64c-10.59.02-21.16,0-31.73-.07h31.66v-18.64h25.4c.02,7.03,0,14.05-.07,21.06Z"/>
    </g>
  </g>
</svg>