<?xml version="1.0" encoding="UTF-8"?>
<svg id="Dartmouth" xmlns="http://www.w3.org/2000/svg" viewBox="0 0 232.6 144.9">
  <defs>
    <style>
      .cls-1 {
        fill: #353535;
        opacity: .95;
      }

      .cls-1, .cls-2, .cls-3, .cls-4, .cls-5, .cls-6, .cls-7, .cls-8 {
        fill-rule: evenodd;
        stroke-width: 0px;
      }

      .cls-1, .cls-4, .cls-6 {
        isolation: isolate;
      }

      .cls-2 {
        fill: #083420;
      }

      .cls-4 {
        opacity: .99;
      }

      .cls-5 {
        fill: #010101;
      }

      .cls-6 {
        opacity: .99;
      }

      .cls-7 {
        fill: #fefefe;
      }

      .cls-8 {
        fill: #00683d;
      }
    </style>
  </defs>
  <path class="cls-6" d="M62.76,4.22c28.81-.03,57.62,0,86.42.1,6.9,6.18,13.8,12.37,20.7,18.55.01,16.53.02,33.06.03,49.58-.01,16.53-.02,33.06-.03,49.58-6.92,6.21-13.84,12.41-20.77,18.62-28.81.03-57.61.04-86.42.03v-42.41h5.37v-51.66h-5.37c-.02-14.14,0-28.28.07-42.41ZM112.01,46.62h14.02v51.66h-14.02v-51.66Z"/>
  <path class="cls-7" d="M65.58,137.94c-.13-12.28-.18-24.58-.13-36.9h5.37v-57.1h-5.37V6.97c27.55-.01,55.11,0,82.66.03,6.38,5.69,12.75,11.4,19.09,17.14.04,32.23.04,64.46,0,96.69-6.32,5.62-12.61,11.27-18.89,16.94-.14.11-.3.19-.47.23-27.42-.03-54.84-.05-82.26-.07ZM112.01,46.62v51.66h14.02v-51.66h-14.02Z"/>
  <path class="cls-5" d="M72.89,14.41c24.11-.01,48.22,0,72.33.03,4.82,4.33,9.65,8.66,14.49,12.98.02,15.01.04,30.01.07,45.02-.01,15.01-.02,30.01-.03,45.02-4.8,4.31-9.59,8.61-14.39,12.92-24.15.1-48.3.13-72.47.1v-22.01h5.37V36.48h-5.37V14.41ZM112.01,46.61v51.66h14.02v-51.66h-14.02Z"/>
  <path class="cls-8" d="M80.94,111.17c.07-25.8.09-51.61.07-77.43h-5.37c-.07-5.54-.09-11.08-.07-16.64,22.88-.01,45.76,0,68.64.03,4.3,3.83,8.59,7.69,12.85,11.57.01,14.59.02,29.19.03,43.78-.01,14.59-.02,29.19-.03,43.78-4.28,3.84-8.57,7.67-12.85,11.51-22.88.03-45.76.04-68.64.03v-16.64h5.37ZM112.01,46.62v51.66h14.02v-51.66h-14.02Z"/>
  <path class="cls-2" d="M75.64,33.74h5.37c.02,25.82,0,51.63-.07,77.43V33.81c-1.78.02-3.55,0-5.3-.07Z"/>
  <path class="cls-3" d="M99.13,33.81c11.76-.01,23.53,0,35.29.03,1.47,1.36,2.95,2.69,4.46,3.99.01,11.56.02,23.13.03,34.69,0,11.58-.02,23.15-.07,34.72-1.48,1.3-2.95,2.59-4.43,3.89-11.76.03-23.53.04-35.29.03V33.81ZM112.01,46.62v51.66h14.02v-51.66h-14.02Z"/>
  <path class="cls-7" d="M101.81,36.49c10.53-.01,21.07,0,31.6.03.93.84,1.86,1.68,2.78,2.52.04,22.3.04,44.6,0,66.9-.93.86-1.88,1.7-2.85,2.52-10.51.03-21.02.04-31.54.03V36.49ZM112.01,46.62v51.66h14.02v-51.66h-14.02Z"/>
  <path class="cls-4" d="M109.26,43.94h19.53v57.1h-19.53v-57.1ZM112.01,46.62v51.66h14.02v-51.66h-14.02Z"/>
  <path class="cls-1" d="M65.44,101.04c-.04,12.32,0,24.62.13,36.9-.05.06-.11.08-.2.07-.02-12.33,0-24.66.07-36.97Z"/>
</svg>