<?xml version="1.0" encoding="UTF-8"?>
<svg id="Ferris_State" data-name="Ferris State" xmlns="http://www.w3.org/2000/svg" viewBox="0 0 232.6 144.9">
  <defs>
    <style>
      .cls-1 {
        fill: #674f1f;
      }

      .cls-1, .cls-2, .cls-3, .cls-4, .cls-5, .cls-6, .cls-7, .cls-8, .cls-9, .cls-10, .cls-11, .cls-12, .cls-13, .cls-14, .cls-15, .cls-16, .cls-17, .cls-18, .cls-19, .cls-20, .cls-21, .cls-22, .cls-23, .cls-24, .cls-25, .cls-26, .cls-27, .cls-28, .cls-29, .cls-30, .cls-31 {
        fill-rule: evenodd;
        stroke-width: 0px;
      }

      .cls-2 {
        fill: #221b1b;
      }

      .cls-3 {
        fill: #fec900;
      }

      .cls-4 {
        fill: #fac600;
      }

      .cls-5 {
        fill: #785a16;
      }

      .cls-6 {
        fill: #241d1d;
      }

      .cls-7 {
        fill: #9a7513;
      }

      .cls-8 {
        fill: #231c1c;
      }

      .cls-9 {
        fill: #f7f7f7;
      }

      .cls-10 {
        fill: #d9042b;
      }

      .cls-11 {
        fill: #fafafa;
      }

      .cls-12 {
        fill: #fdc800;
      }

      .cls-13 {
        fill: #231c1b;
      }

      .cls-14 {
        fill: #f7c300;
      }

      .cls-15 {
        fill: #221c1b;
      }

      .cls-16 {
        fill: #6e5627;
      }

      .cls-17 {
        fill: #fac500;
      }

      .cls-18 {
        fill: #d4052b;
      }

      .cls-19 {
        fill: #261e1c;
      }

      .cls-20 {
        fill: #fbc600;
      }

      .cls-21 {
        fill: #231d1c;
      }

      .cls-22 {
        fill: #fcfbfb;
      }

      .cls-23 {
        fill: #d8042b;
      }

      .cls-24 {
        fill: #fdfdfd;
      }

      .cls-25 {
        fill: #fbfbfb;
      }

      .cls-26 {
        fill: #211b1b;
      }

      .cls-27 {
        fill: #fefefe;
      }

      .cls-28 {
        fill: #f9c400;
      }

      .cls-29 {
        fill: #d6042b;
      }

      .cls-30 {
        fill: #fcfcfc;
      }

      .cls-31 {
        fill: #201a1a;
        isolation: isolate;
        opacity: .99;
      }
    </style>
  </defs>
  <path class="cls-31" d="M113.24,1.08c1.08-.08,1.98.28,2.7,1.07.59.82,1.14,1.67,1.67,2.53,1.11,1.95,2.21,3.9,3.3,5.86,2.41-.81,4.83-.86,7.26-.17.51.2.99.45,1.43.77,1.38-.43,2.79-.66,4.23-.7.67.07,1.32.19,1.97.37,1.09-.63,2.05-1.43,2.87-2.4.61-.83,1.16-1.7,1.67-2.6.91-1.4,2.01-2.63,3.3-3.7.5-.36,1.05-.53,1.67-.5,1.23,0,2.35.32,3.37,1,1.61-.36,3.22-.35,4.83.03.89.26,1.67.7,2.33,1.33.48.48.96.96,1.43,1.43.88,1.18,1.72,2.38,2.53,3.6,1.1,1.31,2.26,2.57,3.5,3.77,1.35.85,2.65,1.77,3.9,2.77.23.7.21,1.38-.07,2.07-.16.34-.43.52-.8.53-2.24-.5-4.48-1.04-6.7-1.63-.56-.13-1.09-.33-1.6-.6-1.8-1.25-3.62-2.48-5.46-3.67-1.19-.6-2.43-1.04-3.73-1.3-.89.1-1.61.5-2.17,1.2-.57.75-1.01,1.57-1.33,2.47-.38,1.25-.78,2.5-1.2,3.73-.24.6-.54,1.17-.9,1.7,1.17,1.35,2.57,2.39,4.2,3.13.31.13.63.21.97.23,1.25-.16,2.51-.17,3.77-.03,1.9.55,3.53,1.54,4.9,2.97.63,1.05.74,2.16.33,3.33-.37.9-.86,1.72-1.47,2.47-1.22,2.14-1.62,4.43-1.2,6.86.12,1.19.47,2.3,1.07,3.33.91.56,1.79,1.17,2.63,1.83,2.63,2.91,4.03,6.33,4.2,10.26.07,1.12-.18,2.15-.77,3.1-.49.55-1.08.96-1.77,1.23.2.45.29.93.27,1.43,0,.44-.04.87-.13,1.3.72,4.96,1.64,9.88,2.77,14.76.43,2.77.52,5.55.27,8.33.73,1.13,1.41,2.28,2.03,3.47,0,.26-.14.4-.4.43-1.4.2-2.8.41-4.2.63-1.21,1.75-2.42,3.51-3.63,5.26-1.14,1.47-2.4,2.84-3.77,4.1-.48.33-1.02.52-1.6.57-.94,1.22-1.92,2.41-2.93,3.57.59,2.3,1.18,4.6,1.77,6.9.05.41-.14.58-.57.53-1.76-.46-3.47-1.07-5.13-1.83-.15-.08-.31-.1-.47-.07-2.91,2.22-5.95,4.22-9.13,6,.31,1.4.33,2.8.07,4.2,6.32,1.5,9.59,5.5,9.8,12-.01,3.97-1.37,7.4-4.07,10.26-2.26,2.15-4.96,3.22-8.1,3.23-2.89.01-5.63-.6-8.23-1.83-3.61-1.97-5.71-5-6.3-9.1-.48-2.81-.22-5.54.8-8.2,1.26-2.66,3.25-4.59,5.96-5.76.75-.33,1.53-.6,2.33-.8.03-.03.05-.06.07-.1-.16-.4-.34-.78-.57-1.13-2.62.95-5.32,1.54-8.1,1.77-1.61.14-3.22.22-4.83.23-1.9-.03-3.8-.11-5.7-.23-.72,1.08-1.45,2.14-2.2,3.2-.19.06-.36.03-.5-.1-.66-1.43-1.34-2.85-2.03-4.27-6.77-1.73-12.76-4.83-17.99-9.3-.37-.29-.74-.59-1.1-.9-1.9.55-3.8,1.09-5.7,1.63-.22.04-.44.04-.67,0-.17-.1-.23-.25-.17-.43.62-2.03,1.26-4.05,1.93-6.06.04-.09.04-.18,0-.27-3.55-4.89-6.42-10.17-8.6-15.86-.35-1.03-.68-2.08-.97-3.13-1.64-.28-3.29-.56-4.93-.83-.26-.21-.26-.42,0-.63,1.33-1.21,2.65-2.44,3.97-3.67-1.33-7.69-1.27-15.38.17-23.06-.67-.62-1.36-1.22-2.07-1.8-.13-.16-.16-.34-.1-.53.96-.29,1.91-.6,2.87-.93,2.07-5.32,4.58-10.4,7.53-15.26,1.1-1.73,2.34-3.35,3.73-4.87.04-.09.04-.18,0-.27-.42-1.22-.84-2.44-1.27-3.67-.11-.53.1-.72.63-.57,1.21.33,2.43.67,3.63,1.03,1.26-1.03,2.54-2.05,3.83-3.03.53-.37,1.07-.71,1.63-1.03,1.43-5.07,2.81-10.16,4.13-15.26,1.1-2.34,2.82-4.06,5.16-5.16,1.31-.41,2.65-.48,4-.2.54.1.98.36,1.33.77,2.24-1.09,4.55-2.01,6.93-2.77.56-.15,1.11-.28,1.67-.37Z"/>
  <path class="cls-12" d="M145.83,2.35c.77-.05,1.48.13,2.13.53-.92.64-1.6,1.46-2.03,2.47,1.12-.75,2.33-1.32,3.63-1.7,2.27-.37,4.31.15,6.13,1.53,1.58,1.6,3.03,3.3,4.37,5.1.52.63,1.06,1.24,1.63,1.83,1.34,1.14,2.74,2.21,4.2,3.2.25.19.49.4.7.63.34.53.31,1.03-.1,1.5-.16.04-.31.04-.47,0-2.27-.8-4.31-1.98-6.13-3.53-1.58-1.67-3.25-3.25-5-4.73-.23-.17-.48-.33-.73-.47.12-.08.25-.12.4-.13.58-.09,1.15-.16,1.73-.2-2.47-.72-4.96-.81-7.46-.27-.78.19-1.49.53-2.13,1,.52-.17,1.05-.26,1.6-.27.56.27.6.6.13,1-1.39.77-2.58,1.78-3.57,3.03-.32.48-.59.99-.8,1.53-.24.97-.53,1.93-.87,2.87-.19.42-.41.82-.67,1.2-.08.08-.17.15-.27.2-.34-.57-.66-1.15-.97-1.73.15-.58.42-1.11.8-1.57-.49.07-.92.28-1.3.63-.67-.83-1.31-1.67-1.93-2.53-.62-.66-1.27-1.27-1.97-1.83,1.35-.88,2.45-2,3.3-3.37.82-1.57,1.75-3.06,2.8-4.47.75-.87,1.69-1.36,2.83-1.47Z"/>
  <path class="cls-3" d="M120.43,57.46c-.24.16-.4.36-.5.6.2-.19.39-.39.57-.6,2.14-2.11,4.27-4.23,6.4-6.36.74-.71,1.49-1.4,2.27-2.07,2.21-1.52,4.45-2.98,6.73-4.4,2.69-1.17,5.46-2.06,8.33-2.67,2.25-.3,4.48-.15,6.66.47-2.05,0-4.09.12-6.13.33-.9.14-1.78.32-2.67.53-.39.14-.76.29-1.13.47-2.24,1.81-4.41,3.7-6.53,5.66-1.29,1.25-2.54,2.54-3.73,3.87-1.16.91-2.33,1.72-3.5,2.43,2-.8,3.79-1.92,5.36-3.37,2.31-2.54,4.87-4.78,7.66-6.73,1.18-.84,2.5-1.4,3.93-1.67.84-.19,1.68-.32,2.53-.4,2.27-.07,4.53-.03,6.8.13,1.19.14,2.33.47,3.4,1,.45.33.79.74,1.03,1.23.99,1.61,1.83,3.3,2.53,5.06.43,1.28.61,2.59.53,3.93-.14,1.69-1.04,2.73-2.7,3.1-.91.13-1.77,0-2.6-.4-1.11-.51-2.07-1.21-2.9-2.1-.21-.33-.32-.68-.33-1.07-.22-1.35.07-2.57.87-3.67.8-.76,1.6-1.51,2.4-2.27.35-.35.64-.75.87-1.2.08-.73-.17-1.32-.77-1.77-1.07-.79-2.27-1.23-3.6-1.33-1.34-.09-2.68-.01-4,.23-1.25-.12-2.5-.13-3.73-.03-1.67.12-2.68,1-3.03,2.63-.29,1.38.24,2.25,1.57,2.63.86.21,1.72.37,2.6.47,1.37.36,2.68.87,3.93,1.53,2.4,1.41,2.99,3.38,1.77,5.9-.69.93-1.59,1.59-2.7,1.97-1.66.54-3.34.68-5.06.4-2.32-.46-4.65-.83-7-1.13-4.52-.11-8.24,1.55-11.16,4.97-.51.65-.93,1.33-1.27,2.07,1.42-1.41,2.98-2.62,4.7-3.63.32-.16.65-.25,1-.27-1.98,3.33-3.97,6.65-5.96,9.96-2.06,3.12-4.1,6.25-6.13,9.4-.85,1.65-1.45,3.38-1.8,5.2.44-.81.89-1.61,1.37-2.4.3.75.51,1.53.63,2.33.24,1.58.46,3.15.67,4.73.33,1.14,1.03,1.98,2.1,2.5.64.37,1.33.59,2.07.67,2.06.15,4.05-.11,6-.8,2.85-.96,5.67-1.98,8.46-3.07.77-.35,1.5-.75,2.2-1.2,1.51-1.07,3.02-2.13,4.53-3.2,1.15-.75,2.39-1.29,3.73-1.6,1.42-.22,2.8-.07,4.13.47.73.19.96-.07.7-.77-.06-.14-.14-.28-.23-.4.89-.45,1.85-.72,2.87-.8.84.08,1.59.35,2.27.83.68.85.71,1.73.1,2.63-.67,1.06-1.48,2.01-2.43,2.83-.7.35-1.43.6-2.2.73-1.51-.07-3.02-.09-4.53-.07-1.41.16-2.77.51-4.07,1.07-.46.35-.91.73-1.33,1.13.61-.26,1.23-.53,1.87-.8,1.92-.67,3.86-.82,5.83-.43.06.26.02.51-.13.73-1.37,2.1-2.66,4.26-3.87,6.46-1.65,2.03-3.77,2.78-6.36,2.23-.38-.02-.76-.08-1.13-.17.34-.94.77-1.83,1.3-2.67.9-.83,1.87-1.58,2.9-2.23-.89.08-1.72.37-2.47.87-.86.57-1.71,1.17-2.53,1.8-1.26,1.28-2.45,2.63-3.57,4.03-.33.26-.67.49-1.03.7-1.83.86-3.72,1.6-5.66,2.2-2.17.53-4.32.48-6.46-.13-.77-.27-1.48-.65-2.13-1.13-.79-.72-1.55-1.46-2.3-2.23-1.35-1.58-2.71-3.15-4.07-4.73-1.93-2-3.97-3.88-6.1-5.63-1.39-1.07-2.91-1.9-4.57-2.5-.03.01-.07.02-.1.03,2.38,1.67,4.46,3.66,6.23,5.96.4.58.77,1.18,1.1,1.8-.5.44-1.03.83-1.6,1.17-2.5,1.53-5.21,2.48-8.13,2.87-1.59.13-3.15-.04-4.67-.53-2.02-.74-4.01-1.52-6-2.33-.79-.35-1.49-.83-2.1-1.43-1.42-1.72-2.37-3.68-2.87-5.86-.22-1.71-.66-3.35-1.33-4.93-.43-.91-.9-1.8-1.4-2.67-.24-.74-.4-1.49-.47-2.27-.43-4.78-.03-9.49,1.2-14.13.98-3.95,2.4-7.72,4.27-11.33,1.48-2.52,3.19-4.88,5.13-7.06,1.94-2.16,3.97-4.24,6.1-6.23-3.15,2.35-6.12,4.96-8.9,7.83-.63.72-1.21,1.47-1.73,2.27.32-3.25,1.1-6.38,2.33-9.4,1.01-2.14,2.51-3.84,4.5-5.1.21-.12.43-.2.67-.23.65.2,1.29.41,1.93.63,1.09.23,2.14.1,3.13-.4.82-.98,1.56-2.01,2.23-3.1.14-.14.29-.29.43-.43,1.52-.99,2.98-2.07,4.37-3.23,2.31-3.32,4.16-6.89,5.53-10.73.5-1.17,1.1-2.28,1.8-3.33.69-1.03,1.63-1.35,2.83-.97.45.05.79.26,1.03.63.39.74.73,1.49,1.03,2.27.34-1.64-.13-3.01-1.4-4.1-.49-.22-.98-.44-1.47-.67-.46-.37-.71-.84-.77-1.43-.08-.69-.15-1.38-.2-2.07-.64,1.13-1.43,2.14-2.37,3.03-1.3.74-2.63,1.41-4,2,.71-.09,1.42-.17,2.13-.23.13,0,.24.04.33.13.17.36.29.74.37,1.13.05.76.03,1.51-.07,2.27-.16.79-.39,1.57-.67,2.33-.83,2.08-1.78,4.1-2.87,6.06-.61,1.12-1.38,2.14-2.3,3.03-1.55,1.39-3.26,2.55-5.13,3.47-.56.23-1.13.39-1.73.47.68.2,1.36.32,2.07.37-.56.93-1.29,1.69-2.2,2.3-1.38.46-2.71.35-4-.33-.5-.47-.88-1.01-1.17-1.63-1.11-2.05-2.02-4.18-2.73-6.4-.02-.94.02-1.87.13-2.8.96-4.24,2.07-8.44,3.33-12.6.41-1.28.85-2.55,1.33-3.8.61-1.28,1.46-2.35,2.57-3.23,1.04-.69,2.17-.89,3.4-.6.54.11,1.05.3,1.53.57.02.04.04.09.07.13-.61,1.14-1.19,2.3-1.77,3.47-.31.65-.49,1.34-.53,2.07.93-1.47,1.96-2.85,3.1-4.17,1.11-.6,2.18-1.27,3.2-2,1.03-.55,2.08-1.08,3.13-1.6,1.16-.5,2.36-.7,3.6-.6.45.32.87.69,1.23,1.1,1.53,2.75,3.24,5.37,5.13,7.86,1.3,1.27,2.68,2.43,4.17,3.47-.66-.86-1.36-1.73-2.1-2.6-.25-.32-.47-.65-.67-1-.07-.21-.01-.38.17-.5.21-.11.43-.17.67-.2,1.66,0,3.3.16,4.93.47.42.09.8.27,1.13.53.78.8,1.53,1.62,2.27,2.47.62.46,1.29.85,2,1.17.02-.01.04-.02.07-.03-.55-.66-1.07-1.34-1.57-2.03-.18-.54-.44-1.04-.77-1.5.7-.19,1.43-.27,2.17-.23,1.36-.07,2.57.32,3.63,1.17.92.72,1.77,1.51,2.57,2.37,1.25,2.08,2.65,4.06,4.2,5.93,1.26,1.29,2.69,2.33,4.3,3.13-.81,1.06-1.57,2.15-2.3,3.27-.11.2-.2.4-.27.6,1.19-1.21,2.49-2.29,3.9-3.23.61-.4,1.28-.54,2-.4,1.77.15,3.29.83,4.57,2.03,1.02,1.11,1.17,2.33.47,3.67-1.11,1.93-1.87,4-2.27,6.2-.11,1.63,0,3.25.33,4.87.09.41.21.81.37,1.2-.46-.02-.91-.12-1.33-.3-1.12-.56-2.27-1.02-3.47-1.4,1.13-.38,1.92-1.12,2.37-2.23.32-.71.49-1.46.5-2.23-.07-.79-.17-1.58-.3-2.37,1.06-.9,1.73-2.03,2-3.4.07-.31.09-.62.07-.93-.5,1.35-1.31,2.47-2.43,3.37-.8.48-1.67.79-2.6.93-1.34.41-2.48,1.14-3.4,2.2-.63.43-1.27.83-1.93,1.2-.63.14-1.23.06-1.8-.27-2.38-1.16-4.8-2.22-7.26-3.2-.71-.38-1.42-.76-2.13-1.13-1.59-.61-3.23-.88-4.93-.8-.85.22-1.72.36-2.6.43-.54-.03-1.07-.09-1.6-.17-.34-.09-.65-.24-.93-.43-.07.03-.08.08-.03.13.6.88,1.43,1.36,2.5,1.43,1.2.05,2.4.04,3.6-.03,1.03.04,2.01.3,2.93.77.08.05.15.12.2.2-.5,1.35-.73,2.73-.7,4.17.09.48.23.94.4,1.4.25.54.49,1.08.73,1.6-1.03.27-2.07.55-3.1.83-.67.19-1.31.44-1.93.73,2.48-.23,4.97-.4,7.46-.5.56.01,1.12.07,1.67.17-3.76,2.21-7.58,4.32-11.46,6.33-4.16,1.56-8.43,2.78-12.8,3.67,2.7-.13,5.36-.51,8-1.13,1.11-.29,2.2-.64,3.27-1.07,1.63-.65,3.23-1.34,4.8-2.07-2.56,2.97-5.09,5.96-7.6,8.96Z"/>
  <path class="cls-29" d="M89.58,25.54c.06,0,.1.01.13.07-.24.86-.3,1.72-.17,2.6.09.38.19.76.3,1.13-.02.04-.04.09-.07.13-1.3-.31-2.58-.65-3.87-1,.46-.47.95-.9,1.47-1.3.74-.55,1.47-1.09,2.2-1.63Z"/>
  <path class="cls-26" d="M129.9,25.74c3.01-.13,5.58.87,7.7,3,.46.59.91,1.19,1.33,1.8,1.22,1.86,2.39,3.72,3.53,5.6-2.13-2.26-4.2-4.56-6.23-6.9-1.87-1.42-3.98-2.21-6.33-2.37-.69.02-1.35.14-2,.37-1,.31-1.98.69-2.93,1.13-.88.26-1.77.29-2.67.07-.47-.18-.84-.47-1.13-.87.02-.01.04-.02.07-.03,1.07.62,2.18.7,3.33.23,1.18-.59,2.38-1.12,3.6-1.6.58-.17,1.16-.31,1.73-.43Z"/>
  <path class="cls-2" d="M137.89,27.14s.03-.06.07-.07c1.19.56,2.26,1.31,3.2,2.23.17.15.37.23.6.23.06.73.07,1.47.03,2.2-.4-.42-.78-.87-1.13-1.33-.72-1.26-1.64-2.35-2.77-3.27Z"/>
  <path class="cls-24" d="M80.71,27.74c.23,0,.45.03.67.1,2.99.84,5.97,1.72,8.93,2.63.24.37.36.77.37,1.2-.86,2.88-2.72,4.68-5.6,5.4-.38-.02-.67-.22-.87-.6-1.19-2.87-2.38-5.74-3.57-8.6.02-.05.05-.09.07-.13Z"/>
  <path class="cls-2" d="M147.56,28.2c-.13,1.06-.35,2.13-.63,3.2-.97,1.57-1.93,3.14-2.87,4.73.06-.83.17-1.65.33-2.47.59-1,1.21-1.98,1.87-2.93.45-.84.89-1.68,1.3-2.53Z"/>
  <path class="cls-8" d="M82.65,30.47c.99,1.26,2.02,2.5,3.07,3.73.34.17.69.28,1.07.33-.48.59-1.11.83-1.87.7-.38-.34-.66-.75-.83-1.23-.51-1.16-.99-2.34-1.43-3.53Z"/>
  <path class="cls-17" d="M91.11,32.14c.29.44.5.9.63,1.4-1.63,3.42-4.33,5.16-8.1,5.23-.22-.1-.36-.27-.43-.5-.09-.68.02-1.33.33-1.93.12.34.25.67.4,1,.14.11.28.21.43.3.98.07,1.89-.16,2.73-.67,1.98-1.08,3.31-2.69,4-4.83Z"/>
  <path class="cls-23" d="M81.98,32.67c.49,1.05.93,2.13,1.33,3.23-.26.57-.44,1.15-.57,1.77-.06.46-.02.9.13,1.33.48.81,1.14,1.41,2,1.8,2.98-.22,5.42-1.49,7.33-3.8.28-.42.56-.85.83-1.27.16.18.32.37.47.57-1.47,1.27-2.88,2.61-4.23,4.03-1.1,1.7-2.01,3.5-2.73,5.4-.76,2.2-1.16,4.47-1.2,6.8-.1.74-.26,1.48-.47,2.2-.81,1.9-1.59,3.81-2.33,5.73-1.48,4.47-2.46,9.04-2.93,13.73-.38-.47-.76-.93-1.13-1.4-.28-.33-.61-.61-.97-.83-1.28-.11-2.5.11-3.67.67-.95.96-1.56,2.1-1.83,3.43-.51.42-1.02.84-1.53,1.27-.36-1.35-.6-2.73-.73-4.13-.51-5.11-.44-10.27.2-15.46.1-.7.23-1.38.4-2.07,1.29.89,2.58,1.78,3.87,2.67-.04.86.12,1.68.47,2.47.48.58,1.09.97,1.83,1.17,1.25.52,2.33.28,3.23-.7,2.94-3.44,3.74-7.33,2.4-11.66-.13-.44-.36-.81-.7-1.1-.98-.31-1.98-.47-3-.47-.16.05-.32.11-.47.2-.5.5-.91,1.07-1.23,1.7-.15.13-.32.23-.5.3-1.6.54-3.22.96-4.87,1.27,1.64-3.64,3.33-7.25,5.1-10.83,1.75-2.73,3.58-5.39,5.5-8Z"/>
  <path class="cls-25" d="M92.18,34.13c.22.28.42.58.6.9-1.42,2.22-3.38,3.78-5.86,4.67-.68.24-1.36.43-2.07.57-.34-.27-.68-.54-1-.83,3.36-.13,6.02-1.63,7.96-4.5.18-.24.3-.51.37-.8Z"/>
  <path class="cls-24" d="M151.42,34.4c.07,0,.12.05.13.13.29,1.46.13,2.83-.5,4.13-.86,1.37-2.08,2.04-3.67,2-.48-.04-.99-.04-1.53,0-.7-.25-1.09-.75-1.17-1.5.06-.51.27-.94.63-1.3.05.69.37,1.28.97,1.77.46.16.91.11,1.33-.13.88-.78,1.34-1.75,1.4-2.93v-.8c-.06-.25-.11-.48-.13-.7.47-.17.95-.33,1.43-.47.02.02.04.04.07.07.36-.12.71-.21,1.03-.27Z"/>
  <path class="cls-24" d="M132.16,34.67c.75.47,1.5.92,2.27,1.37-.31,1.35-.12,2.67.57,3.97.29.35.65.52,1.07.53.48.2.96.1,1.43-.3.63-.7.92-1.51.87-2.43,1.07.04,2.13.21,3.2.5,1.12.68,1.36,1.59.73,2.73-.3.08-.6.16-.9.23-.02-.02-.04-.04-.07-.07-.6.08-1.22.15-1.87.2-1.59,0-3.17,0-4.73,0-.41-.05-.82-.09-1.23-.1-1.04-.96-1.61-2.12-1.73-3.47-.06-1.05.07-2.1.4-3.17Z"/>
  <path class="cls-9" d="M146.82,36.4c.05.43.05.85,0,1.23-.06.09-.12.19-.17.3-.07.13-.16.17-.27.13-.27-.31-.34-.65-.2-1,.22-.21.44-.44.63-.67Z"/>
  <path class="cls-25" d="M135.16,36.47c.24.09.48.2.7.33.04.31.04.62,0,.93-.04.15-.13.26-.27.33-.18-.13-.29-.31-.33-.53-.1-.36-.13-.72-.1-1.07Z"/>
  <path class="cls-24" d="M145.43,45.53c1.5.04,2.9.51,4.2,1.4.09.23.03.39-.2.5-.67.02-1.31.09-1.93.2-.75.28-1.47.61-2.17.97-.56.11-1.1,0-1.63-.3-.69-.62-.76-1.29-.2-2.03.19-.25.44-.44.73-.57.41-.06.81-.12,1.2-.17Z"/>
  <path class="cls-20" d="M78.65,48.66c.4-.02.75.12,1.03.4,1.11,2.62,1.11,5.24,0,7.86-.69,1.52-1.68,2.82-2.97,3.9-.82.39-1.4.18-1.77-.63-.21-.5-.31-1.01-.3-1.53.38.23.76.47,1.13.7.16.04.31.04.47,0,1.41-.87,2.29-2.13,2.63-3.77.28-1.31.3-2.62.07-3.93-.07-.67-.35-1.24-.83-1.7-.17-.1-.35-.17-.53-.23.25-.47.6-.83,1.07-1.07Z"/>
  <path class="cls-30" d="M80.31,48.8c.34.04.67.15,1,.33,1,2.07,1.2,4.19.6,6.36-.22,1.05-.61,2.09-1.17,3.1-.6,1.08-1.34,2.05-2.23,2.9-.52.12-1.03.08-1.53-.13,1.57-.95,2.65-2.29,3.23-4.03.88-2.33,1.12-4.65.7-6.96-.15-.54-.35-1.06-.6-1.57Z"/>
  <path class="cls-24" d="M77.11,50.4c.45-.07.75.11.9.53.79,2.21.59,4.38-.6,6.53-.34.59-.79,1.06-1.37,1.4-2.77-1.84-5.48-3.76-8.13-5.76.03-.08.09-.13.17-.17,3.04-.83,6.05-1.68,9.03-2.53Z"/>
  <path class="cls-15" d="M158.09,50.66c.71.05.84.35.4.9-.52.1-.73-.11-.63-.63.05-.12.12-.21.23-.27Z"/>
  <path class="cls-26" d="M139.96,52.06c.58-.03.81.24.7.8-.16.25-.4.35-.7.3-.3-.17-.4-.42-.3-.77.07-.15.17-.26.3-.33Z"/>
  <path class="cls-13" d="M143.96,52.73c.42-.09.66.06.73.47-.02.32-.18.49-.5.53-.56-.23-.64-.56-.23-1Z"/>
  <path class="cls-8" d="M159.49,52.86c.5,0,.69.25.57.73-.3.33-.59.31-.87-.07-.1-.31,0-.54.3-.67Z"/>
  <path class="cls-8" d="M157.42,53.26c.84-.04,1.06.31.67,1.03-.51.2-.82.03-.93-.5.02-.22.11-.39.27-.53Z"/>
  <path class="cls-8" d="M142.03,54.46c.7.1.83.42.4.97-.53.11-.77-.1-.7-.63.08-.13.18-.24.3-.33Z"/>
  <path class="cls-8" d="M71.12,54.59s.03-.06.07-.07c1.34.44,2.71.89,4.1,1.33.45.06.88.06,1.3,0-.18.47-.44.88-.8,1.23-.1.09-.2.12-.3.1-1.48-.83-2.94-1.69-4.37-2.6Z"/>
  <path class="cls-15" d="M139.23,54.93c.6-.05.88.21.83.8-.16.36-.44.51-.83.43-.35-.18-.47-.45-.37-.83.09-.17.21-.3.37-.4Z"/>
  <path class="cls-21" d="M144.69,55.79c.55,0,.76.27.63.8-.34.37-.66.35-.93-.07-.08-.32.02-.57.3-.73Z"/>
  <path class="cls-19" d="M141.23,57.33c.53-.06.74.16.63.67-.32.36-.61.34-.87-.07-.06-.26.01-.46.23-.6Z"/>
  <path class="cls-5" d="M120.43,57.46h.07c-.18.21-.36.41-.57.6.1-.24.26-.44.5-.6Z"/>
  <path class="cls-30" d="M154.16,58.66c.56-.02,1.14.09,1.73.33-.01.87-.4,1.51-1.17,1.93-.5-.17-.78-.51-.83-1.03.03-.33.05-.72.07-1.17.09.02.15,0,.2-.07Z"/>
  <path class="cls-24" d="M158.02,59.06c.36-.01.71,0,1.07.03l.2.1c.13.22.22.45.27.7-.02,1.3-.53,2.44-1.53,3.4-.67.46-1.13.3-1.4-.47.02-.02.04-.04.07-.07-.04-.11-.09-.22-.13-.33v-2.07c0-.37.14-.7.4-.97.34-.11.7-.22,1.07-.33Z"/>
  <path class="cls-8" d="M125.17,59.99s.09,0,.13.03c-.74.67-1.35,1.44-1.83,2.3-.19.72-.35,1.46-.47,2.2-.34,1.25-1.1,2.08-2.3,2.5.42-.42.78-.87,1.1-1.37.19-.75.37-1.51.53-2.27.21-.95.69-1.74,1.43-2.37.47-.35.94-.69,1.4-1.03Z"/>
  <path class="cls-24" d="M135.23,60.39c.78-.01,1.56.11,2.33.37.04.04.09.09.13.13v.33c-.2.42-.33.84-.4,1.27.01.51.06,1.04.13,1.6,0,.42,0,.85-.03,1.3l-.2.6c-.71.21-1.34.03-1.9-.53-.9-1.16-1.43-2.41-1.6-3.77.05-.41.25-.72.6-.93.3-.17.61-.29.93-.37Z"/>
  <path class="cls-30" d="M139.69,61.13c.62,0,1.23.04,1.83.13.07-.02.13-.04.2-.07.19.04.38.09.57.13-.21.19-.37.42-.5.67-.1.51-.24,1.01-.43,1.5-.13.13-.27.13-.4,0-.82-.58-1.24-1.36-1.27-2.37Z"/>
  <path class="cls-25" d="M144.69,61.26c.32-.03.64.01.97.13.11-.04.22-.02.33.07-.09.46-.22.91-.37,1.37-.09.76-.42.84-.97.23-.34-.47-.62-.97-.83-1.5.09-.04.09-.09,0-.13.08-.02.16-.05.23-.1.02.02.04.04.07.07.2-.04.38-.09.57-.13Z"/>
  <path class="cls-12" d="M155.89,61.19c.12.7.25,1.41.37,2.13.34.64.86.85,1.57.63.78-.29,1.34-.81,1.7-1.57.37,2.31.72,4.62,1.07,6.93.47,2.45.96,4.89,1.47,7.33.27,2.29.29,4.58.07,6.86-.39,1.36-.94,2.65-1.67,3.87-2,3.22-4.17,6.31-6.53,9.26-.47.56-1.01,1.01-1.63,1.37-.3.06-.6.1-.9.1-1.29-.08-2.55.05-3.8.4-.08-.02-.11-.07-.07-.13,1.28-2.38,2.72-4.64,4.33-6.8.19-.23.41-.4.67-.53,1.82.54,3.15-.04,4-1.73,1.12-.94,2.1-2.01,2.93-3.2.61-1.62.22-2.94-1.17-3.97-.44-.18-.86-.38-1.27-.6.24-3-.51-5.72-2.23-8.16-.85-1.06-1.88-1.9-3.1-2.5-.31-.09-.62-.12-.93-.07-.15.05-.24.15-.27.3.24,1.72.53,3.43.87,5.13-.03.38-.2.69-.5.93-.55,1.08-.95,2.21-1.2,3.4-.14-.2-.33-.32-.57-.37-.49-.18-.96-.13-1.4.13-.5.48-.98.98-1.43,1.5-.15-1.29-.11-2.58.13-3.87.58-2.38,1.31-4.71,2.2-7,.56-1.16,1.25-2.22,2.07-3.2,1.06-1.31,2.15-2.6,3.27-3.87.34.45.6.94.8,1.47.51,1.64,1.02,3.29,1.53,4.93.58,2.47,1.05,4.95,1.4,7.46,0-1.85-.08-3.69-.27-5.53-.73-3.14-1.61-6.24-2.63-9.3.37-.6.74-1.19,1.13-1.77Z"/>
  <path class="cls-1" d="M114.7,65.26c.02-.13.08-.24.17-.33.02.14-.04.26-.17.33Z"/>
  <path class="cls-2" d="M114.7,65.26c-.56,1.14-1.17,2.25-1.83,3.33-1.51,2.07-3,4.16-4.47,6.26-.95,1.72-1.83,3.47-2.63,5.26-.04,0-.07-.02-.07-.07.36-1.06.65-2.13.87-3.23-.02-.1-.04-.2-.07-.3-1.76,1.79-3.48,3.61-5.16,5.46.14-.36.32-.72.53-1.07.79-1.15,1.64-2.26,2.53-3.33,1.98-2.07,3.91-4.18,5.8-6.33,1.58-1.94,3.08-3.94,4.5-6Z"/>
  <path class="cls-24" d="M151.09,71.32c1.06.47,1.94,1.18,2.63,2.13,1.06,1.44,1.78,3.02,2.17,4.77,0,.6,0,1.17,0,1.73-.05.43-.14.88-.27,1.33.02.02.04.04.07.07-.05.1-.1.2-.13.3-1.5.22-2.87.79-4.1,1.73-.25-.16-.53-.26-.83-.3-.06-.03-.11-.07-.13-.13.02-.2.05-.4.07-.6-.31-1.58.02-3.06,1-4.43.1.35.16.7.17,1.07.09-.28.16-.55.23-.83v-1.67c-.23-.73-.38-1.49-.47-2.27-.16-.91-.31-1.82-.47-2.73.05-.04.07-.1.07-.17Z"/>
  <path class="cls-25" d="M76.45,72.32c.48-.06.89.07,1.23.4.64.93,1.25,1.87,1.83,2.83-.07,1.41-.07,2.84,0,4.27.16,1.36.51,2.7,1.07,4-.22.58-.49,1.12-.83,1.63-.09.11-.2.2-.33.27-.42.03-.83.03-1.23,0,.54-.95.82-1.96.87-3.03.04-.27.09-.53.13-.8,0-.57,0-1.13,0-1.67-.06-.49-.13-.95-.2-1.4-.09-1.74-.72-3.3-1.9-4.7-.61-.63-1.33-1.09-2.17-1.37.53-.17,1.04-.32,1.53-.43Z"/>
  <path class="cls-27" d="M135.56,72.59c.82-.08,1.25.31,1.27,1.17-.19,1.46-.45,2.88-.8,4.27.02.02.04.04.07.07-.07.34-.14.69-.2,1.07v2.73c.08.42.14.83.17,1.23.1-.6.21-1.2.33-1.8.47.84.93,1.69,1.4,2.53.3.88.49,1.75.57,2.63,0,.55,0,1.11,0,1.67-1.63,1.11-3.4,1.97-5.3,2.57-.6-.22-1.11-.58-1.53-1.07-.78-1.21-1.28-2.51-1.5-3.9-.05-.86-.05-1.75,0-2.67.35-2.13,1.05-4.14,2.1-6.03.76-1.49,1.71-2.86,2.83-4.1.2-.12.4-.25.6-.37Z"/>
  <path class="cls-20" d="M74.25,73.39c1.35,0,2.34.59,2.97,1.8,1.56,3.1,1.76,6.27.6,9.53-.52,1.33-1.42,1.65-2.7.97-.58-.46-.96-1.05-1.13-1.77.77.12,1.55.15,2.33.1.59-.32,1-.79,1.23-1.43.26-1.01.3-2.03.13-3.07-.12-1.13-.48-2.17-1.07-3.13-.64-.91-1.5-1.44-2.6-1.6-.61.11-1.12.4-1.53.87.32-.96.91-1.72,1.77-2.27Z"/>
  <path class="cls-24" d="M73.78,75.39c.93.04,1.68.44,2.23,1.2,1.15,1.91,1.39,3.9.73,6-.13.35-.35.62-.67.8-1.29-.02-2.58-.15-3.87-.4-1.87-.23-3.77-.53-5.7-.9-.11-.04-.2-.11-.27-.2.08-.18.19-.33.33-.47,2.25-1.96,4.51-3.89,6.8-5.8.13-.1.26-.18.4-.23Z"/>
  <path class="cls-23" d="M122.37,79.25c1.1,0,2,.42,2.7,1.27.88,1.12,1.62,2.34,2.2,3.67.03-.46-.03-.9-.2-1.33-.5-.95-.92-1.93-1.27-2.93.8-.3,1.61-.35,2.43-.17.58.33.92.83,1.03,1.5.42,2.05.11,3.98-.93,5.8-.45-.33-.93-.58-1.47-.73-.37.13-.64.37-.8.73-.46.8-.82,1.64-1.07,2.53-.63-.54-1.34-.91-2.13-1.13-.24-.01-.48,0-.73.07-.06-.83-.3-1.61-.73-2.33-.22-.28-.5-.5-.83-.63-.47-.16-.95-.28-1.43-.37-.14-1.17-.29-2.33-.43-3.5.59-1.04,1.44-1.79,2.53-2.27.39-.06.76-.12,1.13-.17Z"/>
  <path class="cls-2" d="M111.24,89.12c-.04.11-.09.22-.13.33-.28-.89-.43-1.8-.47-2.73.18-1.39.44-2.77.77-4.13l.07-.07c0,.57.06,1.12.2,1.67.12.08.25.07.37-.03.19-.23.38-.47.57-.7.52-.83,1.05-1.66,1.6-2.47.47-.57.96-1.12,1.47-1.67-.81,1.29-1.61,2.6-2.4,3.93-.89,1.44-.91,2.91-.07,4.4.3.38.57.78.8,1.2.71,1.33,1.31,2.71,1.8,4.13.15.44.27.88.33,1.33-.56-1.35-1.23-2.64-2-3.87-.58-.49-1.11-1.02-1.6-1.6-.26-.33-.48-.69-.67-1.07-.04-.09-.09-.09-.13,0-.26.41-.43.86-.5,1.33Z"/>
  <path class="cls-8" d="M75.65,79.79s.07.03.1.07c.14.82-.03,1.56-.5,2.23-.51.03-1.03,0-1.57-.1-1.58-.1-3.17-.25-4.77-.43.53-.04,1.08-.09,1.63-.17l.07.07c.44-.04.88-.1,1.33-.2l.07.07c.49-.07,1.01-.16,1.53-.27.91-.06,1.61-.48,2.1-1.27Z"/>
  <path class="cls-16" d="M105.71,80.05s.02.07.07.07c-.05.11-.11.22-.17.33-.03-.15,0-.28.1-.4Z"/>
  <path class="cls-30" d="M148.42,80.92c.54-.09.93.11,1.17.6.17.5.21,1.01.1,1.53-1.05.14-2.13.43-3.23.87.15-.99.58-1.87,1.3-2.63.2-.17.43-.29.67-.37Z"/>
  <path class="cls-23" d="M71.65,83.58s.1-.06.17-.07c.46.07.91.14,1.37.23.31.73.69,1.42,1.13,2.07.6.45,1.26.77,2,.93,1.22.01,2.42-.14,3.6-.47.21-.12.38-.29.5-.5.18-.47.37-.94.57-1.4.56.97.99,1.99,1.3,3.07.31,1.55.6,3.1.87,4.67.17.67.36,1.34.57,2-.48.03-.92.17-1.33.43-.75.44-1.38,1-1.9,1.7-.31.74-.48,1.5-.5,2.3.03.61.11,1.25.23,1.9-1.85-2.47-3.53-5.05-5.06-7.73-.87-1.92-1.72-3.85-2.53-5.8-.39-1.1-.71-2.21-.97-3.33Z"/>
  <path class="cls-30" d="M140.43,84.32c.31.05.63.05.97,0,.73.15,1.48.34,2.23.57-1.35.87-2.7,1.72-4.07,2.57-.05-.02-.1-.05-.13-.1.04-.36.07-.7.07-1-.03-.62-.09-1.26-.2-1.9.39-.01.77-.06,1.13-.13Z"/>
  <path class="cls-25" d="M162.62,85.58c.1,0,.18.05.23.13.53.62,1.07,1.24,1.6,1.87.05.09.03.16-.03.23-.13.02-.25.05-.37.1-.79-.01-1.63-.01-2.53,0,.36-.77.73-1.55,1.1-2.33Z"/>
  <path class="cls-24" d="M119.17,85.85c.55.02,1.08.17,1.6.43.61.7.73,1.46.37,2.3-.37.43-.79.79-1.27,1.07-.1-.05-.19-.12-.27-.2-.12-.26-.17-.51-.17-.77-.07-.35-.14-.71-.2-1.07l.07-.07c-.04-.53-.1-1.06-.2-1.6.04-.03.06-.06.07-.1Z"/>
  <path class="cls-24" d="M127.03,87.12c.97.36,1.79.94,2.47,1.73.57.97.86,1.99.87,3.07-.64.31-1.3.51-1.97.6-.55.14-1.11.27-1.67.4-.05,0-.1-.03-.13-.07-.52-1.12-.72-2.28-.6-3.47.16-.85.5-1.6,1.03-2.27Z"/>
  <path class="cls-24" d="M122.63,89.12c.74-.01,1.4.3,1.97.93.07.3.12.6.17.9-.06.61-.06,1.21,0,1.8-.04.11-.09.22-.13.33-1.25.22-2.45.02-3.6-.6-.33-.21-.58-.49-.77-.83-.04-.11-.04-.22,0-.33.4-.75.92-1.4,1.57-1.97.27-.1.54-.18.8-.23Z"/>
  <path class="cls-7" d="M111.24,89.12c.01.18,0,.36-.03.53-.03-.07-.07-.14-.1-.2.04-.11.09-.22.13-.33Z"/>
  <path class="cls-11" d="M83.58,94.91c.33-.05.61.03.87.23.38.51.76,1.02,1.13,1.53-.71-.3-1.45-.51-2.23-.63l-.07.07c-.47-.06-.95-.12-1.43-.2.46-.54,1.04-.87,1.73-1Z"/>
  <path class="cls-20" d="M81.58,96.65c1.52-.07,2.96.21,4.33.83.74.78,1.61,1.38,2.6,1.8,1.01.92,1.76,2.02,2.23,3.3.27,1.22.21,2.42-.2,3.6-.3.42-.71.59-1.23.53-.61,0-1.18-.12-1.73-.37,1.33-.74,1.83-1.86,1.5-3.37-.48-2.28-1.8-3.84-3.97-4.7-.94-.31-1.89-.37-2.87-.2-.38.18-.7.43-.97.77-.21.51-.41,1.02-.6,1.53-.18-.84-.2-1.68-.07-2.53.15-.55.47-.95.97-1.2Z"/>
  <path class="cls-4" d="M110.64,97.71c.9-.08,1.7.16,2.4.7.51.49,1.01.99,1.5,1.5.04.04.04.09,0,.13-1.29.02-2.59-.02-3.9-.1-1-.14-1.98-.36-2.93-.67.97-.54,1.95-1.06,2.93-1.57Z"/>
  <path class="cls-24" d="M82.98,98.65c2.4.08,4.17,1.26,5.3,3.53.26.71.38,1.38.37,2.03-.15.57-.48,1.02-1,1.33-2.78.91-5.55,1.82-8.33,2.73-.37.13-.52,0-.43-.37,1.07-2.94,2.11-5.9,3.13-8.86.29-.22.62-.35.97-.4Z"/>
  <path class="cls-18" d="M148.62,98.98c.22-.01.45,0,.67.03.15.02.29.07.4.17-.2.69-.58,1.25-1.17,1.67-.16-.24-.32-.47-.5-.7-.32-.2-.66-.37-1-.53.5-.31,1.03-.52,1.6-.63Z"/>
  <path class="cls-25" d="M89.78,99.78s.05-.06.1-.07c.54.2,1.09.39,1.63.57,1.19,1.37,1.43,2.87.7,4.5-.22.33-.46.64-.73.93,0-.26.02-.52.1-.77v-1.87c-.07-.49-.23-.97-.5-1.43-.39-.66-.82-1.28-1.3-1.87Z"/>
  <path class="cls-10" d="M105.71,100.05c.72.28,1.43.58,2.13.9,1.03.41,2.09.6,3.17.57,1.26.07,2.54.21,3.83.43.46.07.9.18,1.33.33.27.14.51.33.7.57,3.08,3.97,7.05,5.22,11.9,3.77.65-.21,1.29-.43,1.93-.67,2.21-.98,4.42-1.94,6.63-2.9-.15.56-.25,1.14-.3,1.73-.02.54.15,1,.5,1.4.56.56,1.15,1.08,1.77,1.57.58.34,1.2.48,1.87.4.52-.14,1.02-.33,1.5-.57.03.02.07.04.1.07-1.89,1.75-3.98,3.23-6.26,4.43-.54.24-1.1.45-1.67.63-.64-1.25-1.56-2.22-2.77-2.93-.56-2.02-1.77-2.55-3.63-1.57-1.12.79-1.58,1.87-1.37,3.23.48.96,1.24,1.27,2.27.93.45.25.88.53,1.3.83.3.25.54.54.73.87-.06.12-.14.21-.27.27-4.06,1.96-8.31,3.01-12.76,3.17-.38.04-.76.09-1.13.13-1.71,0-3.39,0-5.06,0-.87-.08-1.75-.16-2.63-.23-.07-.02-.13-.04-.2-.07.57-.7,1.13-1.41,1.67-2.13,1-.25,1.9-.68,2.7-1.3.6-.93.91-1.95.93-3.07.09-.87-.16-1.62-.73-2.27-3.32-3.31-7.13-4.07-11.43-2.3-1.04.55-1.81,1.36-2.3,2.43-.05.91.07,1.8.33,2.67.12.29.28.55.47.8.33.3.64.61.93.93.5.92.91,1.85,1.23,2.8-3.82-1.2-7.53-2.67-11.13-4.43-2.25-1.28-4.36-2.76-6.33-4.43.38-.19.78-.35,1.2-.47,1.16.74,2.4.93,3.73.57.98-.53,1.79-1.25,2.43-2.17.33-1.1.38-2.21.13-3.33-.1-.27-.22-.52-.37-.77,2.3,1.24,4.75,1.59,7.33,1.07,1.94-.43,3.81-1.06,5.6-1.9Z"/>
  <path class="cls-24" d="M146.42,100.31c.48-.03.84.15,1.1.53.79,2.71,1.51,5.42,2.17,8.13-.02.11-.09.18-.2.2-2.53-.87-5.04-1.84-7.53-2.9-.38-.35-.58-.76-.6-1.23-.04-.86.18-1.68.67-2.47.1-.09.2-.11.3-.07,1.28-.15,2.4-.65,3.37-1.5.24-.25.48-.48.73-.7Z"/>
  <path class="cls-8" d="M86.18,101.98c.38.58.65,1.21.8,1.9-.04.1-.08.2-.13.3-.62.36-1.26.68-1.93.97-1.04.38-2.09.76-3.13,1.13-.15.08-.31.1-.47.07,1.31-.79,2.6-1.61,3.87-2.47.5-.54.83-1.18,1-1.9Z"/>
  <path class="cls-30" d="M139.49,102.25c.06,0,.1.01.13.07-.86,1.26-1.08,2.6-.67,4-.02.04-.04.09-.07.13-.36-.3-.68-.63-.97-1-.11-.2-.19-.41-.23-.63.05-.66.22-1.34.5-2.03.44-.17.87-.35,1.3-.53Z"/>
  <path class="cls-28" d="M140.36,102.45c.3,0,.59.06.87.17-.64,1.06-.78,2.19-.43,3.37.3.65.8,1.06,1.5,1.23-1.23.43-2.08.05-2.57-1.17-.34-1.3-.13-2.5.63-3.6Z"/>
  <path class="cls-21" d="M143.03,102.98c.18.36.32.74.43,1.13.1.23.22.44.37.63,1.28.92,2.59,1.78,3.93,2.6-.2,0-.4-.05-.6-.13-1.44-.56-2.86-1.16-4.27-1.8-.37-.28-.55-.61-.53-1,.2-.49.42-.97.67-1.43Z"/>
  <path class="cls-22" d="M105.77,105.98c3.12-.15,5.71.99,7.76,3.4.27.36.48.75.63,1.17-.03.22-.03.42,0,.6-.11.48-.23.98-.37,1.5.1-.9-.12-1.72-.67-2.47-1.5-1.83-3.43-2.85-5.8-3.07-.43,0-.87,0-1.33,0-2.06.18-3.65,1.16-4.77,2.93-.39-.89-.16-1.65.67-2.3,1.15-.94,2.44-1.53,3.87-1.77Z"/>
  <path class="cls-4" d="M105.71,108.04c2.19-.17,4.16.37,5.93,1.63.6.49,1.08,1.08,1.43,1.77.24.72.22,1.43-.07,2.13-.39.43-.87.61-1.43.53.31-.51.53-1.06.67-1.63-.1-.81-.48-1.45-1.13-1.93-1.75-1.04-3.63-1.49-5.66-1.33-1.77.33-2.87,1.36-3.3,3.1-.26-.29-.45-.63-.57-1,.36-1.34,1.18-2.29,2.47-2.83.55-.2,1.11-.34,1.67-.43Z"/>
  <path class="cls-14" d="M129.76,108.51c.85-.08,1.36.28,1.53,1.07-.48-.26-.99-.36-1.53-.3-1.1.48-1.44,1.29-1,2.43-.85-.02-1.15-.44-.9-1.27.29-.99.92-1.63,1.9-1.93Z"/>
  <path class="cls-24" d="M105.91,110.04c2.03-.2,3.78.44,5.23,1.93.06.14.12.29.17.43-.1.71-.36,1.39-.77,2.03-1.15,1.82-2.31,3.64-3.47,5.46-.29.44-.6.86-.93,1.27-.11-.07-.2-.16-.27-.27-.99-2.63-1.99-5.25-3-7.86-.2-1.22.28-2.07,1.43-2.57.53-.19,1.06-.33,1.6-.43Z"/>
  <path class="cls-30" d="M130.16,110.04c1.28.07,2.31.62,3.1,1.67.74,1.22,1.17,2.54,1.3,3.97v1.4c-.07,1.15-.31,2.27-.7,3.37-.18.66-.62,1.04-1.3,1.13-.34-.07-.52-.26-.53-.57.68-1.77.97-3.57.87-5.4-.23-1.37-.87-2.5-1.93-3.4-.41-.32-.82-.64-1.23-.97-.17-.5-.03-.9.43-1.2Z"/>
  <path class="cls-6" d="M107.97,111.98c.65.13,1.19.44,1.63.93.04.2.04.4,0,.6-.81,1.72-1.69,3.39-2.67,5,.29-.9.62-1.78,1-2.67.23-.62.42-1.26.57-1.9-.06-.67-.23-1.33-.53-1.97Z"/>
  <path class="cls-30" d="M131.76,115.17c.09.24.15.5.2.77.02.51,0,1.03-.07,1.57-.02.09-.08.16-.17.2-.37-.01-.73-.01-1.07,0-.27-.58-.45-1.18-.53-1.8.55-.24,1.1-.48,1.63-.73Z"/>
  <path class="cls-25" d="M128.76,116.44c.09-.01.17.01.23.07.17.48.38.93.63,1.37-.41.08-.8.16-1.17.23-.22-.4-.41-.83-.57-1.27.29-.13.58-.27.87-.4Z"/>
  <path class="cls-20" d="M130.43,118.51c.47-.02.94,0,1.4.07-.1.16-.19.33-.27.5-3.12.54-5.78,1.95-7.96,4.23-1.44,1.73-2.28,3.73-2.53,6-.64,4.98,1.13,8.83,5.3,11.56.1.05.12.11.07.17-5.68-2.63-7.98-7.06-6.9-13.26.73-3.88,2.9-6.63,6.5-8.23,1.43-.56,2.89-.9,4.4-1.03Z"/>
  <path class="cls-12" d="M135.1,119.44c2.92.6,5.28,2.06,7.1,4.4,2.07,3.18,2.52,6.58,1.33,10.2-.86,2.66-2.38,4.85-4.57,6.56-.53.37-1.1.64-1.73.8-4.89,1.65-9.15.66-12.76-2.97-1.78-2.13-2.66-4.6-2.63-7.4.07-2.87.99-5.42,2.77-7.66,1.76-1.98,3.96-3.16,6.6-3.53.1.01.2.02.3.03-.33.65-.34,1.31-.03,1.97.97.77,1.85.68,2.67-.27.38-.69.7-1.4.97-2.13Z"/>
  <path class="cls-2" d="M135.83,122.64c1.44,0,2.91,0,4.4,0,.07,1.64.12,3.29.17,4.93-.76.07-1.53.09-2.3.07-.06-.74-.16-1.47-.3-2.2-.06-.31-.23-.55-.5-.7-.59-.12-1.19-.18-1.8-.17-1.31.05-2.62.08-3.93.07.03,1.73.08,3.47.13,5.2.6.01,1.2,0,1.8-.03.46,0,.9-.07,1.33-.2.12-.12.2-.26.23-.43.03-.58.04-1.15.03-1.73.71,0,1.42-.03,2.13-.07.07,2.16.16,4.31.27,6.46-.69.02-1.38.02-2.07,0-.15-.57-.25-1.15-.3-1.73-.02-.16-.1-.28-.23-.37-.42-.07-.84-.11-1.27-.1-.62.02-1.24.04-1.87.07.07,1.87.15,3.73.23,5.6.06.17.18.27.37.3.67.04,1.33.03,2-.03.04.62.06,1.24.07,1.87-2.69.05-5.36.2-8.03.47-.04-.64-.07-1.29-.1-1.93.7.03,1.39-.03,2.07-.17.23-.14.34-.35.33-.63-.15-4.02-.3-8.04-.43-12.06-.02-.28-.16-.42-.43-.43-.64-.03-1.29-.04-1.93-.03.01-.62,0-1.25-.07-1.87,3.33-.02,6.66-.07,10-.13Z"/>
  <path class="cls-29" d="M133.43,123.17c1.97,0,4.05.02,6.26.07.08,1.27.15,2.56.2,3.87h-1.33c-.06-.72-.18-1.43-.37-2.13-.14-.32-.38-.56-.7-.7-.59-.12-1.17-.2-1.77-.23-1.54.04-3.1.08-4.7.13-.01.04-.04.07-.07.1.1,2.07.2,4.12.3,6.16.58-.04,1.15-.09,1.73-.13.09.04.18.06.27.07.55-.04,1.09-.12,1.63-.23.25-.1.44-.26.57-.5.12-.55.2-1.1.23-1.67.32-.05.65-.06,1-.03.1,1.78.19,3.57.27,5.36-.36.03-.74.06-1.13.07-.07-.58-.17-1.16-.3-1.73-.12-.15-.27-.27-.43-.37-.33-.06-.67-.12-1-.17-.89.02-1.83.06-2.83.13.04,2.09.13,4.2.27,6.33.09.32.3.48.63.5.2.02.4.05.6.1.33-.06.71-.09,1.13-.07v.8c-2.28.08-4.53.22-6.76.4-.1-.01-.2-.02-.3-.03,0-.24,0-.5,0-.77.49-.03.98-.08,1.47-.17.38-.05.66-.24.83-.57.02-2.09-.03-4.19-.17-6.3.04-.09.06-.18.07-.27-.04-.62-.09-1.24-.13-1.87,0-.77,0-1.53,0-2.27-.04-.58-.09-1.15-.13-1.73.11-.57-.11-.95-.67-1.13-.55-.09-1.11-.12-1.67-.1,0-.25-.03-.52-.07-.8,2.25-.03,4.6-.08,7.06-.13Z"/>
</svg>