<?xml version="1.0" encoding="UTF-8"?>
<svg id="Harvard" xmlns="http://www.w3.org/2000/svg" viewBox="0 0 232.6 144.9">
  <defs>
    <style>
      .cls-1 {
        fill: #a31f37;
      }

      .cls-1, .cls-2, .cls-3, .cls-4, .cls-5, .cls-6, .cls-7 {
        fill-rule: evenodd;
        stroke-width: 0px;
      }

      .cls-2 {
        fill: #cc8491;
      }

      .cls-3 {
        fill: #c06878;
      }

      .cls-4 {
        fill: #d597a2;
      }

      .cls-5 {
        fill: #be6273;
      }

      .cls-6 {
        fill: #fdfefe;
      }

      .cls-7 {
        fill: #deadb5;
      }
    </style>
  </defs>
  <path class="cls-6" d="M59.5,2.41h113.59c.02,18.97,0,37.94-.06,56.91-.51,9.8-2.34,19.34-5.48,28.62-.63,1.51-1.22,3.04-1.79,4.58-1.88,4.32-4.02,8.5-6.43,12.52-6.65,10.24-14.96,18.91-24.93,25.99-.17.27-.39.5-.67.67-2.85,1.93-5.72,3.83-8.61,5.7-2.32,1.39-4.67,2.73-7.04,4.02-.54.48-1.15.83-1.84,1.06-6.19-3.4-12.17-7.11-17.94-11.12-1.02-.9-2.1-1.72-3.24-2.46-.97-.95-2.01-1.81-3.13-2.57-2.8-2.43-5.5-4.98-8.11-7.66-12.57-13.53-20.29-29.52-23.14-47.96-.56-3.78-.94-7.58-1.12-11.4-.06-18.97-.07-37.94-.06-56.91Z"/>
  <path class="cls-1" d="M167.28,65.69c-.2.12-.27.3-.22.56v.34c-.13.5-.2,1.02-.22,1.57-.39,3.47-1.01,6.9-1.84,10.29-.9,3.11-1.87,6.21-2.91,9.28-.72,1.49-1.35,3.01-1.9,4.58-.91,1.63-1.73,3.3-2.46,5.03-1.11,1.81-2.19,3.63-3.24,5.48-.93,1.34-1.86,2.68-2.8,4.02-1.29,1.74-2.67,3.42-4.14,5.03-.34.38-.64.79-.89,1.23-1.88,1.99-3.8,3.95-5.76,5.87-.93.71-1.79,1.49-2.57,2.35-.96.66-1.85,1.41-2.68,2.24-1.15.82-2.27,1.67-3.35,2.57-3.61,2.64-7.33,5.1-11.18,7.38-.3.18-.56.4-.78.67-1.34.71-2.68,1.44-4.02,2.18-8.25-4.55-15.93-9.89-23.03-16.04-5.13-4.68-9.7-9.8-13.7-15.37-1.12-1.79-2.24-3.58-3.35-5.37-.33-.67-.67-1.34-1.01-2.01-.19-.11-.34-.26-.45-.45-.64-1.42-1.27-2.84-1.9-4.25-.31-.42-.57-.87-.78-1.34-1.02-2.61-1.97-5.18-2.85-7.71.01-.3-.06-.56-.22-.78-1.61-5.17-2.73-10.47-3.35-15.88-.02-.54-.1-1.07-.22-1.57-.33-3.2-.54-6.4-.61-9.61-.06-16.1-.07-32.2-.06-48.3h103.08c.02,17.18,0,34.36-.06,51.54-.11,2.17-.28,4.33-.5,6.48Z"/>
  <path class="cls-6" d="M140.34,32.15c-.11,17.35-.15,34.71-.11,52.1h4.47v10.96h-20.68c-.02-1.79,0-3.58.06-5.37,1.94-1.38,3.43-3.13,4.47-5.25.27-.69.46-1.39.56-2.12.06-6.45.07-12.89.06-19.34h-25.83c-.02,6.45,0,12.89.06,19.34.49,2.13,1.48,3.99,2.96,5.59.63.65,1.32,1.25,2.07,1.79.06,1.79.07,3.58.06,5.37h-20.68v-10.96h4.47c.04-17.39,0-34.75-.11-52.1h-4.36v-11.07h20.68c.02,1.79,0,3.58-.06,5.37-.31.26-.62.5-.95.73-.76.72-1.49,1.49-2.18,2.29-.44.76-.85,1.55-1.23,2.35l-.11-.11c-.27.69-.46,1.39-.56,2.12-.06,6.07-.07,12.15-.06,18.22h25.83c.02-6.07,0-12.15-.06-18.22-.2-1.28-.62-2.47-1.29-3.58-1.08-1.44-2.33-2.71-3.75-3.8-.06-1.79-.07-3.58-.06-5.37h20.68v11.07h-4.36Z"/>
  <path class="cls-5" d="M140.34,32.15v51.99c1.47-.04,2.93,0,4.36.11h-4.47c-.04-17.39,0-34.75.11-52.1Z"/>
  <path class="cls-2" d="M167.28,65.69c.04.25-.03.43-.22.56-.05-.26.03-.44.22-.56Z"/>
  <path class="cls-7" d="M65.43,65.57c.13.5.2,1.02.22,1.57-.18-.49-.25-1.01-.22-1.57Z"/>
  <path class="cls-7" d="M167.06,66.58c.03.55-.04,1.07-.22,1.57.02-.54.1-1.07.22-1.57Z"/>
  <path class="cls-3" d="M92.15,32.15c.11,17.35.15,34.71.11,52.1h-4.47c1.43-.11,2.89-.15,4.36-.11v-51.99Z"/>
  <path class="cls-4" d="M69.01,83.02c.16.23.23.49.22.78-.16-.23-.23-.49-.22-.78Z"/>
</svg>