<?xml version="1.0" encoding="UTF-8"?>
<svg id="Lindenwood" xmlns="http://www.w3.org/2000/svg" viewBox="0 0 232.6 144.9">
  <defs>
    <style>
      .cls-1 {
        fill: #f2f2f3;
      }

      .cls-1, .cls-2, .cls-3, .cls-4, .cls-5, .cls-6, .cls-7, .cls-8, .cls-9, .cls-10, .cls-11, .cls-12, .cls-13, .cls-14, .cls-15, .cls-16, .cls-17, .cls-18, .cls-19, .cls-20, .cls-21, .cls-22, .cls-23 {
        stroke-width: 0px;
      }

      .cls-2 {
        fill: #fefefe;
      }

      .cls-3 {
        fill: #7c7661;
      }

      .cls-4 {
        fill: #7a7562;
      }

      .cls-5 {
        fill: #888064;
      }

      .cls-6 {
        fill: #020201;
      }

      .cls-7 {
        fill: #777260;
      }

      .cls-8 {
        fill: #010101;
      }

      .cls-10 {
        fill: #605e55;
      }

      .cls-11 {
        fill: #5e5d56;
      }

      .cls-12 {
        fill: #161616;
      }

      .cls-13 {
        fill: #626055;
      }

      .cls-14 {
        fill: #b4a26a;
      }

      .cls-15 {
        fill: #8b8263;
      }

      .cls-16 {
        fill: #8f8564;
      }

      .cls-17 {
        fill: #666357;
      }

      .cls-18 {
        fill: #5d5b52;
      }

      .cls-19 {
        fill: #625f52;
      }

      .cls-20 {
        fill: #b3a169;
      }

      .cls-21 {
        fill: #eeeadd;
      }

      .cls-22 {
        fill: #958b68;
      }

      .cls-23 {
        fill: #fcfcfc;
      }
    </style>
  </defs>
  <path class="cls-14" d="M176.41,83.79c.87.19,1.21.92,1.55,1.6.23.45.06.73-.9,2.09.94.1,1.79.51,2.75.2,1.41-.46,2.85-.83,4.27-1.23.84-.24,1.22-.09,1.76.67.71.99.73,1.31.23,2.08-.25.38-.79.76-.65,1.15.11.31.73.45,1.13.63.75.33,1.46.65,1.68,1.59.14.59.08,1.08-.24,1.56-.41.61-.73,1.19-.2,1.92.2.28.11.67-.04,1-2.44,5.44-5.1,10.76-8.74,15.54-2.01,2.65-4.69,4-7.86,4.56-1.46.26-2.94.4-4.43.42-1.27.01-2.38-.4-3.25-1.3-.7-.73-1.44-.85-2.37-.63-1.27.3-2.51.69-3.71,1.19-.81.34-1.17.28-1.8-.37-3.47-3.55-6.94-7.1-10.41-10.65-.12-.13-.2-.31-.49-.33.3,1.02.61,2,.89,2.99.33,1.14-.3,1.93-1.48,1.89-.59-.02-.91-.35-1.11-.88-.79-2.13-1.6-4.26-2.4-6.39-.03-.09-.08-.18-.16-.35-.52,1.29-.99,2.51-1.5,3.71-2.97,7.05-6.44,13.86-10.1,20.58-2.32,4.25-4.7,8.46-7.42,12.47-.6.87-1.22,1.73-1.97,2.48-.41.41-.91.45-1.41.27-.51-.18-.77-.57-.8-1.12-.01-.22-.07-.44-.09-.66-1.35-12.65-4.2-24.94-9.04-36.73-4.26-10.41-9.94-19.97-17.18-28.59-8.22-9.8-17.92-17.82-28.95-24.25-10.27-5.99-21.19-10.37-32.74-13.17-1.93-.47-3.88-.89-5.85-1.18-.89-.13-1.2-.4-1.35-1.16-.12-.6.12-1.04.84-1.46,7.51-4.41,15.27-8.35,23.17-12,7.33-3.38,14.8-6.42,22.42-9.1,7.83-2.75,15.77-5.09,23.88-6.86,4.66-1.02,9.36-1.84,14.11-2.41,4.45-.53,8.9-.78,13.38-.88,5.31-.12,10.62-.13,15.93-.03,4.49.08,8.98.29,13.46.66,4.34.36,8.65.83,12.93,1.63,4.61.85,9.14,1.97,13.36,4.08,2.05,1.03,3.96,2.28,5.45,4.05,2.67,3.19,2.98,6.74,1.47,10.52-1.16,2.88-3.02,5.28-5.13,7.51-1.13,1.19-2.34,2.29-3.62,3.4,1.77.67,3.49,1.27,5.18,1.95,3.08,1.24,6.12,2.56,8.84,4.5.65.46,1.26.96,1.72,1.63.71,1.02.64,1.92-.28,2.77-.34.32-.42.6-.34,1.06.19,1.19.2,2.39.13,3.59-.03.47.13.67.56.84,4.59,1.83,9.1,3.86,13.29,6.5,2.26,1.42,4.42,2.99,6.11,5.09.76.94,1.39,1.95,1.58,3.18.23,1.51-.33,2.75-1.34,3.82-.62.66-1.39,1.12-2.18,1.55-.22.12-.41.23-.51.48-1.02,2.59-2.67,4.78-4.49,6.86-1.93,2.21-4.1,4.18-6.38,6.03-.41.34-.84.58-1.39.47-.25-.05-.43.08-.62.2-.66.41-1.32.8-1.97,1.22-.51.33-1,.35-1.55.06-1.05-.54-2.12-1.04-3.17-1.57-.31-.16-.58-.19-.92-.07-1.26.46-2.53.88-3.8,1.32-1.14.4-2.29-.21-2.6-1.39-.1-.37-.01-.72.18-1.05.6-1.09,1.19-2.18,1.76-3.28.08-.14.3-.3.11-.48-.23-.22-.37.06-.51.17-1.59,1.2-3.16,2.42-4.74,3.64-.22.23-.53.16-.8.24-.73-.1-1.26-.54-1.7-1.07-.34-.41-.3-.9-.15-1.39.47-1.58.96-3.15,1.41-4.73.05-.17.15-.33.08-.58-.87.37-1.62.89-2.39,1.37-1.65,1.01-3.23,2.12-4.66,3.43-.53.48-.52.5,0,.97,1.06.97,1.94,2.08,2.57,3.37.23.47.48.48.92.3,1.32-.57,2.64-1.16,4-1.65.24-.04.49-.14.73-.01Z"/>
  <path class="cls-21" d="M176.41,83.79l-.74.12c-.09-.04-.16-.1-.12-.21.29-.05.57-.09.86-.14,0,.08,0,.15,0,.23Z"/>
  <path class="cls-9" d="M171.2,34.99c1.53.47,3.07.98,4.58,1.53,3.42,1.25,6.75,2.68,9.9,4.51.91.53,1.81,1.09,2.55,1.87.67.71.66,1.22-.16,1.74-.59.38-.62.87-.52,1.41.22,1.27.23,2.54.21,3.82,0,.06,0,.12,0,.18q-.04,1.33,1.21,1.84c5.08,2.08,10.05,4.38,14.64,7.43,1.75,1.16,3.42,2.43,4.69,4.14.97,1.31,1.5,2.71.61,4.28-.53.93-1.36,1.58-2.32,2.01-.73.33-1.09.82-1.38,1.54-1.03,2.52-2.7,4.62-4.51,6.62-1.77,1.94-3.69,3.73-5.73,5.38-.29.24-.59.39-.94.24-.27-.12-.43.05-.61.16-.75.45-1.49.9-2.22,1.38-.25.16-.45.18-.72.04-.97-.5-1.96-.97-2.94-1.46-.07-.04-.18-.05-.21-.11-.42-.67-.93-.33-1.44-.15-1.38.48-2.76.93-4.13,1.43-.32.12-.49.04-.66-.2-.17-.23-.33-.4-.14-.74.75-1.32,1.45-2.68,2.19-4.01.19-.34.17-.51-.18-.71-.5-.3-.95-.91-1.45-.94-.5-.04-.95.61-1.41.96-1.31.99-2.62,1.99-3.92,3.01-.28.22-.47.3-.78.05-.27-.21-.38-.37-.26-.75.59-1.87,1.13-3.76,1.71-5.64.13-.42.06-.65-.31-.94-.7-.54-1.26-.56-2.05-.11-3.11,1.77-6.09,3.68-8.54,6.33-.32.34-.33.48.09.74,1.95,1.22,3.25,2.97,4.02,5.13.15.43.29.52.72.33,1.67-.74,3.36-1.43,5.03-2.16.29-.12.5-.2.71.14.19.29.34.49.03.82-.6.66-1.13,1.38-1.77,2.16.96.18,1.87.27,2.72.52,1.3.38,2.51.11,3.74-.29,1-.32,2.03-.57,3.03-.89.37-.12.51.04.69.29.17.23.25.4.04.68-.44.58-.81,1.22-1.25,1.8-.24.32-.26.46.16.64.86.36,1.69.8,2.53,1.2.68.33.81.74.45,1.39-.29.51-.57,1.03-.87,1.54-.17.28-.25.44.17.6.38.15.59.52.38.99-2.18,4.86-4.6,9.58-7.64,13.98-2.19,3.17-5.1,4.96-8.92,5.34-1.03.1-2.06.22-3.09.25-.99.03-1.9-.23-2.54-.95-1.1-1.24-2.41-1.26-3.84-.89-1.12.29-2.23.62-3.28,1.08-.41.18-.64.1-.94-.2-3.94-4.05-7.9-8.1-11.86-12.14-.2-.2-.29-.41-.3-.69-.02-1.01-.09-2.03-.11-3.04,0-.35-.12-.47-.46-.43-.5.06-1.01.11-1.51.15-.46.03-.25.33-.2.52.54,1.95,1.08,3.9,1.64,5.85.28.99.61,1.97.88,2.97.04.15.3.4.01.51-.3.11-.28-.23-.34-.39-.91-2.39-1.8-4.78-2.7-7.17-.22-.59-.43-1.18-.66-1.77-.06-.14-.09-.31-.32-.3-.24,0-.24.18-.28.33-2.51,8.29-6.59,15.87-10.61,23.47-2.88,5.44-5.91,10.79-9.3,15.93-.32.49-.67.97-1.03,1.44-.14.19-.29.5-.53.44-.25-.06-.2-.41-.22-.63-.12-1.39-.33-2.78-.5-4.16-.38-3.1-.91-6.17-1.52-9.23-1.06-5.28-2.41-10.49-4.1-15.61-3.05-9.26-7.12-18.02-12.39-26.23-4.74-7.38-10.31-14.06-16.69-20.07-7.79-7.33-16.48-13.39-25.98-18.29-8.21-4.23-16.78-7.53-25.72-9.84-2.61-.67-5.23-1.29-7.89-1.67-.1-.01-.18-.07-.32-.12.2-.29.49-.39.74-.53,15.25-8.79,31.17-16.08,47.85-21.72,7.35-2.49,14.82-4.58,22.42-6.17,4.04-.85,8.12-1.53,12.22-2.01,2.92-.34,5.85-.61,8.79-.74,6.79-.31,13.59-.25,20.38-.19,3.07.03,6.13.18,9.19.36,3.93.24,7.85.55,11.75,1.09,5.27.72,10.49,1.65,15.48,3.54,2.54.96,4.96,2.15,6.99,4.01,2,1.83,3.19,4.05,3.04,6.82-.12,2.26-1.02,4.28-2.23,6.17-2.25,3.5-5.21,6.33-8.46,8.88-.09.07-.22.1-.24.3Z"/>
  <path class="cls-2" d="M175.55,83.7c.04.07.08.14.12.21-1.44.61-2.88,1.22-4.31,1.85-.31.14-.44.08-.59-.23-.71-1.53-1.72-2.85-3.04-3.91-.22-.18-.28-.3-.05-.52,2.29-2.17,4.91-3.87,7.69-5.32.03-.01.08,0,.19.02-.27.92-.53,1.82-.8,2.73-.26.87-.53,1.75-.79,2.62-.34,1.13-.24,1.44.73,2.1.27.18.52.4.85.46Z"/>
  <path class="cls-14" d="M184.47,47.49c-.24.16-.11.41-.14.62-.04.3.03.48.4.34.29-.12.48-.02.6.3.19.55.44,1.08.72,1.74-.5-.19-.88-.36-1.28-.47-.16-.05-.4-.34-.5-.06-.1.26-.17.63.27.81.86.35,1.71.74,2.56,1.13,4.89,2.29,9.87,4.4,14.48,7.23,1.88,1.15,3.69,2.38,5.23,3.97.35.36.67.73.94,1.21-3.72-1.08-7.45-1.6-11.37-1.79.82,2.08,1.61,4.07,2.4,6.06.05-.01.1-.03.15-.04-.15-1.52-.31-3.05-.48-4.73.67.81,1.24,1.5,1.82,2.19.61.74,1.21,1.48,1.83,2.21.15.17.23.32.16.54-1.39,4.43-3.95,7.84-8.41,9.56-1.14.44-2.34.66-3.57.26-.55-.18-.96-.49-1.25-.99-.4-.7-.65-1.45-.75-2.24-.23-1.89-1.31-3.2-2.83-4.2-4.35-2.85-8.98-3.06-13.75-1.32-4.25,1.55-7.82,4.09-10.77,7.52-2.45,2.83-4.39,5.94-5.36,9.59-.41,1.54-.62,3.1-.22,4.68.45,1.78,1.48,2.63,3.32,2.71,2.18.09,4.34-.2,6.49-.44,2.73-.3,5.47-.6,8.21-.38,1.39.11,2.75.64,4.13.99,2.49.63,4.98,1.28,7.47,1.91.45.11.61.22.36.74-1.7,3.57-3.27,7.21-5.38,10.57-1.15,1.83-2.43,3.57-4.04,5.02-1.33,1.19-2.84,2.06-4.69,2.23-1.45.14-2.89.4-4.36.45-.66.02-1.24-.17-1.75-.59-.13-.1-.28-.18-.39-.29-1.15-1.21-2.54-1.25-4.05-.89-1.18.28-2.38.5-3.52.93-.25.09-.37-.01-.52-.16-3.44-3.53-6.88-7.05-10.31-10.57-.01-.01-.02-.04-.04-.05-1.19-.8-1.43-1.95-1.31-3.29.05-.58-.04-1.17-.09-1.76-.04-.46-.34-.69-.78-.66-.67.05-1.33.13-1.99.22-.45.06-.72.02-.85-.53-1.27-5.11-2.43-10.24-3.24-15.45-.7-4.51-1.07-9.03-.96-13.59.18-7.14,2.44-13.5,7.11-18.97,2.03-2.38,4.09-4.74,5.84-7.36,1.97-2.95,3.33-6.17,4.12-9.62.13-.56.28-.63.83-.55,3.98.52,7.92,1.26,11.81,2.24,5.91,1.47,11.63,3.43,16.93,6.49,1.26.73,2.54,1.45,3.68,2.38.34.28.29.42-.02.68-.9.72-1.77,1.49-2.67,2.22-.44.35-.5.73-.24,1.2v.04Z"/>
  <path class="cls-14" d="M124.85,35.45c-1.52-1.62-2.79-3.44-3.96-5.32-.13-.21-.14-.32.15-.42,2.22-.83,4.49-.95,6.83-.77,5.89.46,11.24,2.64,16.53,5.04,1.01.46,1.2,1.29,1.33,2.2.17,1.19-.19,2.28-.79,3.31-1.07,1.83-2.45,3.44-3.72,5.13-3.49,4.63-5.68,9.8-6.58,15.52-.49,3.16-.64,6.35-.49,9.54.36,7.54,1.91,14.88,4.02,22.11.61,2.08,1.28,4.14,1.96,6.2.16.47.02.54-.4.59-2.92.31-5.84.63-8.77.95-.71.08-1.41.14-2.12.23-.33.04-.33-.14-.3-.36.13-1.29.27-2.58.4-3.87.19-1.77.37-3.55.56-5.32.15-1.43.3-2.86.45-4.29.05-.43.05-.81-.17-1.23-2.97-5.57-5.91-11.15-8.88-16.71-.26-.49-.16-.69.23-.97,3.03-2.22,6.05-4.47,9.09-6.68.4-.29.52-.55.38-1.04-.81-3.05-1.57-6.12-2.37-9.17-.11-.42-.04-.61.34-.81,2.76-1.42,5.51-2.86,8.26-4.31.24-.13.61-.14.64-.55.03-.46-.14-.67-.59-.81-3.59-1.12-6.7-3.07-9.45-5.59-.03-.13.05-.17.15-.2.24,0,.42.14.6.27,3.23,2.25,6.84,3.66,10.6,4.7.24.07.49.14.63-.16.14-.3-.06-.44-.25-.6-1.07-.9-1.98-1.93-2.43-3.29-.36-1.09-.02-1.83,1.08-2.2,1.18-.4,2.43-.47,3.66-.64.6-.08,1.21-.11,1.8-.23-.25-.02-.41-.21-.6-.33-3.2-2.12-6.63-3.74-10.4-4.51-2.61-.54-5.26-.44-7.89-.05-.65.1-.74.24-.68.9.1,1.08.56,2.03,1.07,2.96.12.21.28.4.28.66-.02.1-.07.18-.2.15Z"/>
  <path class="cls-14" d="M166.08,33.17c.81-.96,1.58-1.84,2.25-2.81,1.39-1.99,2.58-4.09,3.07-6.5.72-3.52-.42-6.29-3.42-8.31-2.21-1.49-4.7-2.27-7.27-2.83-2.8-.61-5.64-.9-8.5-1.03-2.73-.13-5.45-.14-8.17-.05-3.67.12-7.33.34-10.99.67-2.99.27-5.98.56-8.96.91-4.02.48-8.03,1.04-12.04,1.65-4.28.65-8.56,1.36-12.83,2.13-5.72,1.02-11.42,2.15-17.11,3.34-6.52,1.37-13.02,2.81-19.5,4.33-7.55,1.77-15.07,3.63-22.58,5.56-2.47.64-4.94,1.28-7.4,1.93-.13.03-.26.14-.42,0,.03-.22.23-.21.39-.26,7.39-2.23,14.79-4.38,22.23-6.44,7.14-1.98,14.3-3.88,21.5-5.66,7.45-1.84,14.92-3.59,22.43-5.13,5.38-1.11,10.76-2.14,16.18-3.05,3.7-.62,7.4-1.18,11.12-1.66,2.77-.36,5.56-.67,8.34-.9,3.48-.3,6.96-.51,10.45-.63,2.65-.09,5.28-.06,7.92.06,4.66.22,9.29.74,13.77,2.18,2.65.85,5.16,1.97,7.21,3.93,2.04,1.95,3.02,4.29,2.71,7.17-.43,4.04-2.29,7.44-4.58,10.66-1.23,1.74-1.26,1.72-3.31,1.27-.79-.17-1.58-.33-2.48-.52Z"/>
  <path class="cls-14" d="M121.32,121.41c-1.66-3.12-3.15-6.32-4.55-9.55-2.54-5.87-4.68-11.87-6.12-18.12-.66-2.88-1.15-5.79-1.44-8.74-.24-2.44-.32-4.87-.19-7.31.35-7.02,2.23-13.54,6.69-19.13,2.88-3.61,6.42-6.37,10.7-8.15.74-.31.74-.3.94.48.57,2.22,1.12,4.43,1.71,6.64.08.32.06.47-.26.6-5.46,2.24-9.42,6.13-12.23,11.24-1.87,3.39-2.92,7.06-3.47,10.88-.31,2.2-.48,4.4-.44,6.61.1,5.31.91,10.53,2.22,15.67,1.6,6.26,3.8,12.3,6.38,18.22.07.17.12.34.18.51.06.14-.01.16-.13.14Z"/>
  <path class="cls-14" d="M55.12,38.4c2.54-.95,5.08-1.9,7.63-2.84,9.92-3.65,19.94-7.03,30.08-10.04,7.76-2.31,15.59-4.37,23.52-6.02,4.22-.87,8.47-1.62,12.76-2.14,2.82-.34,5.65-.6,8.49-.74,1.95-.09,3.9-.13,5.85-.05,3.86.16,7.68.6,11.35,1.92,2.98,1.08,5.64,2.64,7.45,5.34,1.79,2.67,2.19,5.62,1.57,8.74-.05.23-.04.4-.41.34-2.73-.49-5.47-.96-8.2-1.41-.5-.08-.35-.34-.26-.63.77-2.47.52-4.78-1.14-6.82-1.34-1.65-3.17-2.58-5.14-3.24-2.1-.71-4.28-1.07-6.48-1.26-2.11-.18-4.22-.29-6.33-.21-3,.11-5.99.32-8.98.68-3.32.4-6.62.9-9.91,1.48-4.96.88-9.89,1.95-14.79,3.14-15.75,3.8-31.19,8.62-46.53,13.8-.1.03-.2.05-.3.07-.12.07-.24.12-.24-.1Z"/>
  <path class="cls-14" d="M94.19,70.85c.53-6.72,2.11-13.13,5.78-18.87,4.13-6.46,10.06-10.41,17.46-12.24,2.73-.68,5.51-.97,8.33-.88.16,0,.3,0,.44.14,2.15,2.13,4.66,3.7,7.43,4.89.03.01.05.05.09.1-.34.2-.67,0-.99,0-1.79-.05-3.58.01-5.36.14-2.45.18-4.87.52-7.27,1.07-6.08,1.4-11.61,3.88-16.23,8.16-3.99,3.69-6.66,8.2-8.33,13.33-.51,1.56-.9,3.15-1.23,4.76-.33-.15-.11-.39-.11-.6Z"/>
  <path class="cls-14" d="M71.97,49.25c4.5-3.59,9.26-6.81,14.3-9.6,5.4-2.99,11.03-5.4,17.01-6.94,2.69-.69,5.41-1.18,8.19-1.43,2.66-.24,5.3-.25,7.95.14.35.05.66.13.9.43,1.87,2.22,3.76,4.43,5.64,6.65.05.05.07.13.19.33-.63-.37-1.11-.68-1.62-.94-2.56-1.33-5.3-2.07-8.15-2.47-1.35-.19-2.71-.31-4.06-.32-5.09-.07-10.05.79-14.92,2.23-7.08,2.09-13.7,5.23-20.07,8.92-1.75,1.02-3.48,2.09-5.21,3.14-.13.04-.17-.02-.15-.14Z"/>
  <path class="cls-2" d="M174.74,86.78c-.34.42-.66.81-.97,1.21-.4.51-.2,1.08.43,1.19,1.56.28,3.12.56,4.68.84.27.05.52.02.78-.06,1.28-.38,2.57-.73,4.01-1.14-.39.58-.71,1.05-1.03,1.52-.4.59-.3.99.33,1.3,1.02.5,2.04.99,3.09,1.5-.33.57-.52,1.28-.98,1.62-.5.36-1.18-.11-1.77-.24-2.56-.57-5.1-1.21-7.66-1.78-1.78-.39-3.59-.29-5.4-.22-3.27.13-6.51.66-9.78.85-.69.04-1.38.04-2.07-.05-1.24-.15-1.73-.46-2.1-1.91-.4-1.56-.09-3.11.33-4.68.85,1.34,2.25,1.37,3.53,1.58,3.23.53,6.49.42,9.74.33.21,0,.39-.09.58-.17,1.22-.51,2.43-1.03,3.65-1.54.18-.07.34-.22.62-.17Z"/>
  <path class="cls-2" d="M192.41,83.17c-.57.35-1.03.61-1.45.9-.21.14-.35.02-.5-.05-.6-.29-1.2-.6-1.8-.88-.49-.23-.95-.45-1.06-1.06-.07-.36-.32-.19-.52-.12-1.4.48-2.8.97-4.2,1.45-.19.06-.38.11-.67.2.75-1.39,1.44-2.7,2.16-3.98.21-.36.16-.54-.18-.77-.79-.53-1.57-1.09-2.32-1.68-.3-.23-.49-.21-.78.02-1.38,1.08-2.77,2.13-4.16,3.19-.14.1-.24.29-.52.23.31-1.02.61-2.04.92-3.06.21-.7.4-1.41.64-2.09.15-.4.04-.62-.28-.86-2.09-1.61-4.41-2.57-7.14-2.57.27-.25.59-.26.88-.3,6.45-.97,11.42,1.5,15.25,6.59.8,1.06,1.39,2.24,1.85,3.49.14.4.33.62.79.69.98.16,1.94.41,3.1.66Z"/>
  <path class="cls-2" d="M164.76,87.76c-2.44,0-4.63-.65-6.52-2.27-.45-.39-.58-.75-.39-1.31.61-1.75.26-1.45,1.86-1.1,1.5.33,2.92.86,3.91,2.16.24.32.48-.09.71-.18.3-.12.07-.29-.02-.42-.66-.96-1.63-1.51-2.67-1.95-.69-.29-1.42-.48-2.15-.66-.19-.05-.63.09-.55-.25.08-.33.18-.8.76-.78,1.49.06,2.95.3,4.33.88,2.26.94,3.88,2.54,4.85,4.8.15.34.15.46-.26.56-1.27.3-2.55.52-3.86.52Z"/>
  <path class="cls-20" d="M199.24,77.82c1.81-2.81,3.63-5.63,5.44-8.44.09-.14.18-.25.33-.34,1.1-.66,2.17-1.35,3.17-2.2-.07.52-.33.9-.9,1.36-.64.52-1.34.91-2.1,1.21-.22.09-.38.21-.45.45-.84,2.73-2.56,4.9-4.39,7.01-.32.37-.66.72-.99,1.07-.11.03-.17.01-.12-.12Z"/>
  <path class="cls-1" d="M184.47,47.49s0-.04,0-.04c.46-.38.92-.76,1.44-1.18v1.3c-.46-.41-.97.08-1.44-.07Z"/>
  <path class="cls-16" d="M124.85,35.45c.05-.05.1-.1.14-.15.22-.02.32.13.44.27.57.68,1.2,1.3,1.87,1.87.14.12.3.22.25.44-.05.05-.09.09-.14.14-.97-.74-1.81-1.62-2.57-2.57Z"/>
  <path class="cls-15" d="M55.12,38.4c.08.03.16.07.24.1-.46.23-.94.4-1.45.5-.13.07-.15,0-.14-.12.45-.16.9-.32,1.35-.48Z"/>
  <path class="cls-3" d="M53.77,38.88s.09.08.14.12c-.55.27-1.13.44-1.72.6-.06.06-.12.05-.17-.02.55-.31,1.16-.5,1.76-.7Z"/>
  <path class="cls-7" d="M94.19,70.85c.06.2-.07.42.11.6-.04.29-.09.58-.13.87-.08-.5-.19-.99.03-1.47Z"/>
  <path class="cls-5" d="M71.97,49.25s.1.09.15.14c-.24.27-.58.41-.87.6-.07.05-.13.04-.19-.02.28-.27.57-.53.91-.72Z"/>
  <path class="cls-22" d="M121.32,121.41s.09-.1.13-.14c.23.35.38.72.51,1.12-.05.06-.1.06-.15,0-.16-.33-.33-.65-.49-.98Z"/>
  <path class="cls-4" d="M121.81,122.39c.05,0,.1,0,.15,0,.18.37.37.73.55,1.1-.04.02-.08.04-.12.06-.2-.39-.39-.77-.59-1.16Z"/>
  <path class="cls-2" d="M186.49,48.95c-.22-.14-.24-.32-.34-.49.47-.06.44.18.34.49Z"/>
  <path class="cls-18" d="M52.01,39.59c.06,0,.11.01.17.02-.18.16-.4.2-.68.24.16-.21.32-.27.51-.25Z"/>
  <path class="cls-17" d="M199.24,77.82s.08.08.12.12c-.06.14-.16.26-.32.32-.05-.21.08-.32.21-.44Z"/>
  <path class="cls-13" d="M71.06,49.96c.06,0,.12.01.19.02-.1.12-.23.19-.38.22-.05-.18.07-.22.2-.24Z"/>
  <path class="cls-9" d="M172.38,43.01c-.23-.31-.48-.61-.69-.93-.08-.12-.34-.23-.11-.44.21-.19.36-.07.53.06.7.55,1.42,1.09,2.12,1.65,1.78,1.41,3.57,2.83,5.35,4.25.21.17.49.29.32.68-.15.35-.24.51-.67.28-.9-.5-1.85-.92-2.77-1.4-.32-.17-.56-.19-.89-.02-1.69.84-3.39,1.66-5.09,2.48-.63.31-1.08.09-1.2-.62-.33-1.96-.65-3.91-.94-5.88-.06-.4-.2-.65-.56-.86-1.19-.66-2.33-1.41-3.54-2.03-.73-.38-.96-.91-.89-1.71,2.98,1.55,5.93,3.09,8.89,4.63.15.05.19,0,.14-.14Z"/>
  <path class="cls-9" d="M155.67,49.27c1.44-.14,2.87-.3,4.32-.26,5.19.12,10.15,1.25,14.93,3.26,6.49,2.74,12.1,6.77,17.16,11.61.34.32.61.39,1,.2.31-.15.54-.21.7.26.17.48-.03.58-.41.69-.51.14-1,.33-1.5.49-.16.05-.37.23-.48-.01-.11-.24-.39-.57-.13-.77.4-.32.02-.39-.1-.51-1.85-1.74-3.8-3.37-5.86-4.88-5.25-3.85-10.94-6.8-17.25-8.53-3.98-1.09-8.03-1.61-12.16-1.42-.12.04-.25.1-.23-.12Z"/>
  <path class="cls-9" d="M184.86,64.54c-11.64-8.97-23.97-10.61-37.25-4.55,3.02-1.75,6.23-2.95,9.62-3.67,2.74-.58,5.52-.77,8.3-.59,4.11.27,8.02,1.34,11.74,3.1,2.78,1.32,5.38,2.94,7.79,4.85.48.38.9.55,1.47.25.33-.18.54-.16.69.29.17.49-.09.55-.41.65-.59.19-1.18.42-1.78.58-.22.06-.55.42-.72-.14-.12-.4-.23-.72.55-.78Z"/>
  <path class="cls-9" d="M149.3,72.22c4.24-4.37,9.23-7.37,15.32-8.35,4.73-.76,9.28-.04,13.71,1.66.41.16.78.24,1.16.04.37-.2.48-.02.6.31.13.35.12.54-.31.65-.53.13-1.03.36-1.55.51-.16.05-.38.28-.52.02-.13-.24-.37-.62-.19-.78.46-.39-.06-.29-.14-.32-1.47-.53-2.98-.91-4.52-1.17-1.62-.28-3.26-.43-4.91-.39-5.19.12-9.9,1.72-14.22,4.55-1.53,1.01-2.94,2.17-4.31,3.38-.12.05-.14-.01-.13-.11Z"/>
  <path class="cls-6" d="M192.64,69.11c-.45.3-.92.58-1.35.91-.36.28-.44-.03-.59-.23-.17-.22-.32-.43.05-.62.2-.1.37-.24.56-.36q.81-.54,1.34.3Z"/>
  <path class="cls-8" d="M187.2,69.16c0,.28-.26.28-.42.34-.45.17-.88.66-1.33.47-.47-.2-.35-.77.14-.99.26-.12.51-.24.77-.36.46-.22.83.02.84.54Z"/>
  <path class="cls-12" d="M149.3,72.22s.09.08.13.11c-.45.45-.89.9-1.34,1.35-.04-.03-.07-.07-.11-.1.44-.45.88-.91,1.32-1.36Z"/>
  <path class="cls-11" d="M155.67,49.27c.08.04.15.08.23.12-.24.15-.49.1-.79.08.16-.23.35-.23.56-.21Z"/>
  <path class="cls-10" d="M147.45,74.31c0,.21-.13.31-.31.43-.03-.27.17-.33.31-.43Z"/>
  <path class="cls-19" d="M172.38,43.01c.11.05.25.19.19.26-.11.12-.24,0-.32-.11.05-.05.09-.09.14-.14Z"/>
  <path class="cls-9" d="M127.56,37.88c-.91-.81-1.8-1.64-2.56-2.59-.67-1.02-1.26-2.08-1.43-3.32-.02-.14-.03-.28-.06-.42-.09-.57.07-.88.72-.96,2.02-.26,4.04-.38,6.07-.2,4.79.44,8.94,2.47,12.86,5.08.1.07.18.16.32.29-.67.25-1.34.18-1.97.29-1.1.19-2.21.29-3.3.51-1.37.27-1.78,1.08-1.25,2.37.5,1.24,1.32,2.25,2.41,3,.44.31.28.55.17.9-.15.47-.47.23-.68.16-4.01-1.16-7.89-2.62-11.29-5.12Z"/>
  <path class="cls-23" d="M170.17,42.83c-.28.19-.42.39-.38.72.17,1.19.29,2.38.45,3.56.08.57.61.81,1.1.52,1.1-.65,2.27-1.21,3.27-2,.68-.54.9-.11,1.33.25-1.92.93-3.79,1.84-5.74,2.8-.35-2.18-.69-4.31-1.05-6.56.4.27.69.47,1.03.7Z"/>
</svg>