<?xml version="1.0" encoding="UTF-8"?>
<svg id="Maine" xmlns="http://www.w3.org/2000/svg" viewBox="0 0 232.6 144.9">
  <defs>
    <style>
      .cls-1 {
        fill: #fcfdfd;
      }

      .cls-1, .cls-2, .cls-3, .cls-4, .cls-5, .cls-6, .cls-7, .cls-8, .cls-9, .cls-10, .cls-11, .cls-12, .cls-13, .cls-14, .cls-15, .cls-16, .cls-17, .cls-18, .cls-19, .cls-20, .cls-21, .cls-22, .cls-23, .cls-24, .cls-25, .cls-26, .cls-27, .cls-28, .cls-29, .cls-30, .cls-31, .cls-32, .cls-33, .cls-34, .cls-35, .cls-36, .cls-37, .cls-38, .cls-39 {
        fill-rule: evenodd;
        stroke-width: 0px;
      }

      .cls-2 {
        fill: #fbfcfc;
      }

      .cls-3 {
        fill: #fafbfb;
      }

      .cls-4 {
        fill: #908c89;
      }

      .cls-5 {
        fill: #020101;
      }

      .cls-5, .cls-6, .cls-7, .cls-12, .cls-16, .cls-17, .cls-23, .cls-31, .cls-33, .cls-35, .cls-37 {
        isolation: isolate;
      }

      .cls-5, .cls-16 {
        opacity: .99;
      }

      .cls-6 {
        fill: #c4ddf2;
      }

      .cls-6, .cls-17, .cls-33, .cls-35, .cls-37 {
        opacity: 1;
      }

      .cls-7 {
        fill: #797471;
        opacity: .98;
      }

      .cls-8 {
        fill: #4b4440;
      }

      .cls-9 {
        fill: #78b5e6;
      }

      .cls-10 {
        fill: #ac0030;
      }

      .cls-12, .cls-16, .cls-37 {
        fill: #020202;
      }

      .cls-12, .cls-23 {
        opacity: .99;
      }

      .cls-13 {
        fill: #4a413c;
      }

      .cls-14 {
        fill: #4c443f;
      }

      .cls-15 {
        fill: #a7002f;
      }

      .cls-17 {
        fill: #020201;
      }

      .cls-18 {
        fill: #4a423d;
      }

      .cls-19 {
        fill: #fdfdfe;
      }

      .cls-20 {
        fill: #fafafa;
      }

      .cls-21 {
        fill: #4b433e;
      }

      .cls-22 {
        fill: #010000;
      }

      .cls-23 {
        fill: #030302;
      }

      .cls-24 {
        fill: #010101;
      }

      .cls-25 {
        fill: #fbfbfc;
      }

      .cls-26 {
        fill: #78b6e7;
      }

      .cls-27 {
        fill: #fdfdfd;
      }

      .cls-28 {
        fill: #514945;
      }

      .cls-29 {
        fill: #fbfbfb;
      }

      .cls-30 {
        fill: #fcfcfd;
      }

      .cls-31 {
        fill: #1e1a18;
        opacity: .18;
      }

      .cls-32 {
        fill: #4b423e;
      }

      .cls-33 {
        fill: #dbe9f4;
      }

      .cls-34 {
        fill: #4b423d;
      }

      .cls-35 {
        fill: #d6e7f4;
      }

      .cls-36 {
        fill: #59524f;
      }

      .cls-38 {
        fill: #e7eff5;
      }

      .cls-39 {
        fill: #fcfcfc;
      }
    </style>
  </defs>
  <path class="cls-35" d="M34.57,8.14H14.87v2.75c-.07-.93-.1-1.87-.07-2.82,6.6-.02,13.19,0,19.77.07Z"/>
  <path class="cls-33" d="M13.46,50.73c5.68.15,11.38.2,17.1.15-5.69.07-11.38.1-17.1.07v-.22Z"/>
  <g>
    <path class="cls-12" d="M177.16,50.17c-.02-.42-.02-.87,0-1.35h26.98c.2-5.48.39-10.96.57-16.44h-5.62c-.13,2.67-.76,5.21-1.89,7.62-.81,1.49-2.05,2.38-3.74,2.67-1.66.28-3.33.38-5.02.32-1.03,0-2.07-.03-3.1-.11-.86-.29-1.56-.8-2.1-1.53.2-4.34.36-8.68.46-13.03.91-.03,1.81,0,2.7.11.68.3,1.16.78,1.46,1.46.37.96.58,1.96.64,2.99.04.78.05,1.57.04,2.35h5.41c.28-6.6.56-13.19.85-19.79h-4.98c.09,1.71-.14,3.37-.68,4.98-.38.97-1.05,1.62-2.03,1.96-1.04.1-2.08.14-3.13.11.06-2.37.14-4.75.25-7.12-.21-2.21.73-3.64,2.81-4.31,2.4-.05,4.79-.05,7.19,0,1.41.06,2.66.51,3.77,1.35.6.63,1,1.38,1.17,2.24.32,1.72.41,3.45.25,5.2h5.27c.11-4.89.23-9.78.36-14.66h-34.88v5.27c.89.07,1.76.2,2.63.39,1.03.42,1.62,1.19,1.74,2.31-.21,8.4-.5,16.8-.89,25.2-.44-.3-.89-.59-1.35-.85.41-8.13.68-16.27.82-24.41-.08-.41-.31-.71-.68-.89-.72-.18-1.46-.28-2.21-.28-.75-.02-1.5-.06-2.24-.11-1.08.02-1.77.54-2.06,1.57-.37,7.02-.67,14.04-.89,21.07.11-.02.21,0,.28.07h-1.78v-.85c.14-6.77.39-13.53.75-20.29.39-1.51,1.35-2.4,2.88-2.67.4-.04.81-.05,1.21-.04.13-1.44.17-2.89.11-4.34.03-.43-.1-.8-.39-1.1-4.82-.04-9.63-.05-14.45-.04.06,1.45.07,2.89.04,4.34.75.12,1.49.25,2.24.39.74.26,1.2.77,1.39,1.53.01,4.65-.1,9.3-.36,13.95-3.19-6.71-6.38-13.43-9.57-20.14-5.41-.07-10.82-.09-16.23-.07v4.48c2.01-.09,3.26.84,3.74,2.78-.12,6.34-.33,12.67-.61,19-.41-.06-.82-.14-1.21-.21.29-6.31.47-12.62.53-18.93-.2-.59-.59-.97-1.17-1.14-1.28.02-2.59.03-3.91.04-.62.05-1.19.24-1.71.57-.09.06-.14.15-.18.25-.33,6.28-.58,12.57-.75,18.86-.21.01-.43,0-.64-.04-.2-.12-.41-.21-.64-.25.17-6.31.42-12.63.75-18.93.21-.71.65-1.22,1.32-1.53.84-.35,1.72-.48,2.63-.39v-4.63h-15.52v4.41c.82-.04,1.63.04,2.42.25.62.25,1.03.69,1.25,1.32-.14,6.36-.34,12.72-.61,19.08-.5.05-1,.1-1.49.14.27-6.31.47-12.62.61-18.93-.19-.24-.44-.37-.75-.39-.97-.04-1.95-.05-2.92-.04-.02-2.42,0-4.84.07-7.26.04-.01.08-.04.11-.07,11.89.06,23.79.09,35.7.11,2.61,5.34,5.21,10.69,7.79,16.05.05-2.31.11-4.63.18-6.94,0-.47-.03-.93-.11-1.39-.19-.24-.44-.37-.75-.39-.95-.14-1.9-.27-2.85-.39.09-2.33.04-4.66-.14-6.98,17.85.04,35.91.06,54.17.07-.14,5.81-.28,11.63-.43,17.44h-8.04c.03-1.57.04-3.13.04-4.7-.03-.98-.27-1.91-.71-2.78-.99-.91-2.16-1.35-3.52-1.32-2.14-.05-4.27-.05-6.41,0-1.3.37-1.88,1.24-1.74,2.6-.11,2.04-.18,4.08-.21,6.12.42.02.88-.02,1.39-.11.54-.28.91-.72,1.1-1.32.21-.65.36-1.31.43-1.99.09-1.23.12-2.47.11-3.7,2.62-.04,5.23,0,7.83.11-.36,7.48-.7,14.97-1.03,22.46-2.69.07-5.38.09-8.08.07.02-1.35-.02-2.71-.11-4.06-.06-.85-.27-1.66-.64-2.42-.12-.26-.32-.42-.61-.46-.26-.04-.52-.05-.78-.04-.09,3.35-.2,6.69-.32,10.04-.03.38-.09.74-.18,1.1.31.35.69.58,1.14.71,2.21.07,4.42.04,6.62-.07,1.07-.1,2.04-.46,2.92-1.07.79-.98,1.35-2.08,1.67-3.31.28-.98.49-1.98.64-2.99.09-1.05.2-2.1.36-3.13,2.73-.02,5.48,0,8.26.07-.22,6.38-.45,12.76-.68,19.15h-28.33Z"/>
    <path class="cls-16" d="M114.88,30.38c-.43.13-.89.22-1.35.28-2.5-7.57-4.91-15.16-7.22-22.78-.3-.91-.64-1.81-1-2.7-3.28-.09-6.57-.09-9.86,0-2.47,6.37-5.06,12.68-7.79,18.93-1.23,3.28-2.59,6.5-4.06,9.68-.26.42-.54.83-.85,1.21-.04.59-.05,1.19-.04,1.78-.07.27-.09.56-.07.85-.43-.17-.81-.4-1.14-.71.17-5.81.37-11.63.61-17.44.06-2.04.18-4.08.36-6.12.27-.88.8-1.56,1.6-2.03,1.11-.61,2.29-.95,3.56-1.03v-5.12c-7-.02-14,0-21,.07-3,9.13-5.98,18.26-8.93,27.4-2.26-9.13-4.51-18.26-6.73-27.4-7.09-.07-14.19-.09-21.28-.07v5.34c1.51-.15,2.81.3,3.88,1.35.2.31.37.64.5,1,.1,5.41.02,10.82-.21,16.23-.23,3.49-.44,6.97-.64,10.46,0,1.48-.62,2.61-1.89,3.38-.95.53-1.97.8-3.06.82.15,1.37.18,2.75.11,4.13-.05.31-.14.6-.25.89,6.31.05,12.62.05,18.93,0,.13-.13.21-.28.25-.46.1-1.26.13-2.51.07-3.77-.04-.29-.15-.55-.32-.78-.79-.12-1.57-.25-2.35-.39-1.26-.48-1.96-1.39-2.1-2.74-.06-.54-.1-1.09-.11-1.64.3-7.64.61-15.28.93-22.92h.5c2.62,10.87,5.27,21.74,7.94,32.6,2.61.14,5.23.19,7.87.14-.14.45-.28.9-.43,1.35-2.9.02-5.79,0-8.68-.07-2.11-8.56-4.21-17.12-6.3-25.7-.22,4.9-.42,9.8-.61,14.7-.03.77.07,1.52.32,2.24.13.23.31.4.53.53.62.21,1.26.35,1.92.43.36.02.71.02,1.07,0,.26.39.51.78.75,1.17.16.46.25.94.28,1.42.09,1.34.02,2.67-.21,3.99-.17.41-.36.82-.57,1.21-.39.06-.78.09-1.17.11-6.83.04-13.67.05-20.5.04.17-.74.37-1.48.61-2.21.05-1.23.05-2.47,0-3.7-.12-.55-.22-1.09-.28-1.64.81-.14,1.63-.27,2.46-.39.92-.15,1.69-.56,2.31-1.25.13-.17.23-.36.28-.57.47-5.66.8-11.33,1-17.01.05-3.44.05-6.88,0-10.32-.09-.27-.25-.49-.46-.68-.33-.22-.68-.39-1.07-.5-.97-.1-1.94-.13-2.92-.11.02-2.7.05-5.41.07-8.11,7.9-.01,15.8,0,23.7.04,1.95,7.94,3.91,15.87,5.87,23.81,2.57-7.95,5.17-15.88,7.79-23.81,7.78-.04,15.56-.05,23.35-.04v7.76c-1.21.1-2.4.32-3.56.68-.79.27-1.35.78-1.67,1.53-.32,6.12-.56,12.24-.71,18.36,3.96-9.39,7.84-18.81,11.64-28.26,3.91-.09,7.81-.09,11.71,0,.52,1.16.97,2.34,1.35,3.56,2.33,7.69,4.76,15.36,7.3,22.99ZM99.72,17c.4,1.4.75,2.83,1.07,4.27-.95.01-1.9,0-2.85-.04.6-1.41,1.2-2.82,1.78-4.24Z"/>
    <path class="cls-27" d="M81.49,36.93c-.46-.24-.91-.5-1.35-.78.26-7.57.56-15.14.89-22.71.2-1.14.76-2.08,1.67-2.81,1.03-.78,2.19-1.27,3.49-1.46.14-.87.19-1.78.14-2.7-6.25-.02-12.49,0-18.72.07-3.17,9.61-6.3,19.24-9.4,28.9-.43.02-.86,0-1.28-.07-2.36-9.61-4.71-19.22-7.05-28.83-6.3-.07-12.61-.09-18.93-.07-.02.91,0,1.82.07,2.7,1.61.22,2.9.98,3.88,2.28.1.27.22.53.36.78.03.19.08.38.14.57.05,3.7.05,7.4,0,11.1-.22,5.1-.5,10.21-.85,15.3.03,2.51-1.1,4.28-3.38,5.3-.49.18-.99.33-1.49.46v2.56c5.47.02,10.93,0,16.37-.07.01-.83,0-1.66-.04-2.49-2.92-.21-4.53-1.78-4.84-4.7.24-8.52.56-17.04.96-25.55.96.04,1.91.07,2.85.07,2.63,10.84,5.28,21.69,7.94,32.53,2.49.14,4.99.19,7.51.14-.22.46-.46.91-.71,1.35-2.64.05-5.26,0-7.87-.14-2.67-10.86-5.31-21.73-7.94-32.6h-.5c-.32,7.64-.62,15.28-.93,22.92,0,.55.04,1.09.11,1.64.14,1.35.84,2.26,2.1,2.74.78.14,1.56.27,2.35.39.17.23.28.49.32.78.06,1.26.03,2.52-.07,3.77-.04.18-.12.33-.25.46-6.31.05-12.62.05-18.93,0,.11-.29.19-.58.25-.89.07-1.38.04-2.76-.11-4.13,1.09-.02,2.11-.29,3.06-.82,1.27-.77,1.9-1.9,1.89-3.38.2-3.49.42-6.98.64-10.46.24-5.41.31-10.82.21-16.23-.13-.35-.29-.68-.5-1-1.07-1.05-2.37-1.51-3.88-1.35v-5.34c7.09-.02,14.19,0,21.28.07,2.22,9.14,4.46,18.27,6.73,27.4,2.96-9.14,5.93-18.28,8.93-27.4,7-.07,14-.09,21-.07v5.12c-1.26.08-2.45.42-3.56,1.03-.8.47-1.33,1.14-1.6,2.03-.17,2.04-.29,4.08-.36,6.12-.23,5.81-.43,11.62-.61,17.44Z"/>
    <path class="cls-39" d="M113.52,30.67c-.41.14-.84.26-1.28.36-2.34-6.93-4.56-13.91-6.66-20.93-.38-1.2-.79-2.38-1.21-3.56-2.66-.09-5.33-.09-8.01,0-3.54,8.7-7.11,17.38-10.71,26.05-.43,1.03-.95,2-1.57,2.92-.39.52-.85.94-1.39,1.28-.01-.59,0-1.19.04-1.78.31-.38.6-.79.85-1.21,1.47-3.18,2.82-6.4,4.06-9.68,2.73-6.26,5.33-12.57,7.79-18.93,3.29-.09,6.58-.09,9.86,0,.36.89.69,1.79,1,2.7,2.31,7.61,4.72,15.21,7.22,22.78ZM99.72,17c-.58,1.42-1.18,2.83-1.78,4.24.95.04,1.9.05,2.85.04-.31-1.44-.67-2.87-1.07-4.27Z"/>
    <path class="cls-30" d="M124.63,30.6c-.45-.07-.9-.12-1.35-.14.18-6.29.43-12.58.75-18.86.33-1.33,1.12-2.26,2.38-2.81.49-.14.99-.27,1.49-.39.07-.64.09-1.28.07-1.92h-12.81c-.01.57,0,1.14.04,1.71,1.44.09,2.56.73,3.35,1.92.08.27.18.53.28.78-.13,6.46-.33,12.91-.61,19.36-.45-.03-.9-.05-1.35-.07.26-6.36.47-12.72.61-19.08-.21-.63-.63-1.07-1.25-1.32-.79-.21-1.6-.29-2.42-.25v-4.41h15.52v4.63c-.91-.09-1.79.04-2.63.39-.67.31-1.11.82-1.32,1.53-.33,6.31-.58,12.62-.75,18.93Z"/>
    <path class="cls-27" d="M163.56,33.66c-.07.27-.09.56-.07.85h-1.28c.15-7.08.4-14.18.75-21.28.46-2.01,1.68-3.28,3.67-3.81.19-.04.38-.05.57-.04v-2.85h-12.1c-.02.62-.04,1.23-.07,1.85,1.56.07,2.71.79,3.45,2.14.12.27.19.56.21.85,0,4.7-.12,9.4-.36,14.09-.06.66-.36,1.19-.89,1.6-.28.19-.56.37-.85.53-3.38-7.02-6.74-14.06-10.11-21.1-4.67-.06-9.33-.05-13.99.04-.05.62-.05,1.23,0,1.85,1.95.45,3.19,1.63,3.7,3.56-.04,6.58-.22,13.15-.53,19.72-.45-.09-.9-.17-1.35-.21.28-6.33.48-12.67.61-19-.48-1.94-1.73-2.86-3.74-2.78v-4.48c5.41-.02,10.82,0,16.23.07,3.19,6.71,6.38,13.43,9.57,20.14.25-4.65.37-9.3.36-13.95-.19-.76-.65-1.27-1.39-1.53-.75-.14-1.5-.27-2.24-.39.04-1.45.02-2.9-.04-4.34,4.82-.01,9.63,0,14.45.04.29.3.42.67.39,1.1.06,1.45.02,2.9-.11,4.34-.4-.01-.81,0-1.21.04-1.53.27-2.49,1.16-2.88,2.67-.36,6.76-.61,13.52-.75,20.29Z"/>
    <path class="cls-1" d="M177.16,48.82v-1.35h25.7c.14-4.44.31-8.87.5-13.31,0-.14-.03-.27-.07-.39-.99-.06-1.97-.05-2.95.04-.22,2.49-.91,4.84-2.06,7.05-1.07,1.78-2.65,2.84-4.73,3.17-.71.13-1.42.22-2.14.28-1.92.05-3.84.05-5.77,0-1.61-.28-2.83-1.12-3.67-2.53-.15-.79-.13-1.57.07-2.35.14-4.15.27-8.3.39-12.46,1.26-.01,2.52,0,3.77.04,1.24.24,2.15.92,2.74,2.03.69,1.53,1.01,3.15.96,4.84h2.78c.23-5.69.46-11.39.71-17.08h-2.21c-.03,1.73-.42,3.37-1.17,4.91-.67,1.14-1.65,1.84-2.95,2.1-1.47.04-2.94.05-4.41.04.07-3.23.18-6.45.32-9.68.28-2.39,1.6-3.88,3.95-4.45,2.44-.05,4.89-.05,7.33,0,2.22.06,4.03.92,5.45,2.6.95,1.92,1.32,3.96,1.14,6.12.84.08,1.68.09,2.53.04.14-3.97.26-7.94.36-11.92h-32.17c0,.92-.03,1.82-.07,2.7,1.14.06,2.19.4,3.13,1.03.77.78,1.21,1.72,1.32,2.81-.23,9.07-.55,18.13-.96,27.19-.2-.79-.62-1.44-1.28-1.92.39-8.4.68-16.8.89-25.2-.13-1.12-.71-1.89-1.74-2.31-.87-.19-1.75-.33-2.63-.39v-5.27h34.88c-.13,4.89-.25,9.77-.36,14.66h-5.27c.16-1.74.07-3.48-.25-5.2-.18-.86-.57-1.61-1.17-2.24-1.11-.84-2.37-1.3-3.77-1.35-2.4-.05-4.79-.05-7.19,0-2.08.67-3.02,2.1-2.81,4.31-.11,2.37-.19,4.74-.25,7.12,1.05.03,2.09,0,3.13-.11.98-.34,1.65-.99,2.03-1.96.54-1.62.76-3.28.68-4.98h4.98c-.29,6.6-.58,13.19-.85,19.79h-5.41c.01-.78,0-1.57-.04-2.35-.06-1.03-.27-2.03-.64-2.99-.3-.68-.78-1.16-1.46-1.46-.9-.1-1.8-.14-2.7-.11-.11,4.35-.26,8.69-.46,13.03.54.73,1.24,1.24,2.1,1.53,1.03.08,2.06.11,3.1.11,1.68.06,3.36-.04,5.02-.32,1.69-.29,2.93-1.18,3.74-2.67,1.13-2.41,1.76-4.95,1.89-7.62h5.62c-.18,5.48-.37,10.96-.57,16.44h-26.98Z"/>
    <path class="cls-35" d="M67.61,6.54c6.23-.07,12.47-.09,18.72-.07.05.93,0,1.83-.14,2.7.07-.87.09-1.75.07-2.63h-18.65Z"/>
    <path class="cls-26" d="M123.28,30.46c-1.7-.13-3.39-.2-5.05-.21.27-6.45.47-12.91.61-19.36-.11-.25-.2-.52-.28-.78-.79-1.19-1.9-1.83-3.35-1.92-.04-.57-.05-1.14-.04-1.71h12.81c.02.64,0,1.28-.07,1.92-.5.12-1,.25-1.49.39-1.26.55-2.06,1.49-2.38,2.81-.32,6.28-.57,12.57-.75,18.86Z"/>
    <path class="cls-26" d="M49.89,6.54c2.34,9.61,4.69,19.22,7.05,28.83.42.07.85.09,1.28.07,3.09-9.66,6.22-19.29,9.4-28.9h18.65c.02.88,0,1.76-.07,2.63-1.29.19-2.46.68-3.49,1.46-.92.73-1.47,1.67-1.67,2.81-.33,7.57-.63,15.14-.89,22.71-1.67-.96-3.42-1.16-5.27-.61-.62.22-1.24.44-1.85.68.28-7.05.54-14.09.78-21.14-.47.07-.95.14-1.42.21-.45-.06-.9-.09-1.35-.07-3.22,9.84-6.42,19.69-9.61,29.54-.16.34-.28.7-.36,1.07-.18.41-.33.83-.43,1.28-.02.15-.09.27-.21.36-2.52.05-5.02,0-7.51-.14-2.66-10.84-5.3-21.68-7.94-32.53-.94,0-1.89-.03-2.85-.07-.4,8.52-.72,17.03-.96,25.55.31,2.92,1.92,4.48,4.84,4.7.04.83.05,1.66.04,2.49-5.47.05-10.93,0-16.37-.14v-2.35c.5-.13,1-.29,1.49-.46,2.28-1.02,3.41-2.79,3.38-5.3.35-5.1.64-10.2.85-15.3.05-3.7.05-7.4,0-11.1-.07-.19-.11-.37-.14-.57-.14-.25-.26-.51-.36-.78-.97-1.3-2.27-2.06-3.88-2.28v-2.63h18.86Z"/>
    <path class="cls-26" d="M112.24,31.02c-1.96.53-3.95.72-5.98.57-.37-1.65-.8-3.29-1.28-4.91-3.87-.02-7.73,0-11.6.07-.62,1.33-1.13,2.7-1.53,4.13-.53,1-.85,2.07-.96,3.2-.03,1.63.73,2.67,2.28,3.13-.66.4-1.3.84-1.92,1.32-.21.11-.42.21-.64.28-.95.03-1.89.04-2.81.04-.94-.08-1.87-.18-2.81-.32-.85-.15-1.63-.45-2.35-.89-.02-.3,0-.58.07-.85.54-.34,1-.76,1.39-1.28.61-.92,1.14-1.89,1.57-2.92,3.61-8.67,7.18-17.35,10.71-26.05,2.67-.09,5.34-.09,8.01,0,.42,1.18.83,2.36,1.21,3.56,2.1,7.02,4.32,13.99,6.66,20.93ZM99.72,17c-.58,1.42-1.18,2.83-1.78,4.24.95.04,1.9.05,2.85.04-.31-1.44-.67-2.87-1.07-4.27Z"/>
    <path class="cls-26" d="M162.21,34.51c-2.24.1-4.49.25-6.76.46-.53.08-1.05.19-1.57.32-3.58-7.54-7.2-15.06-10.85-22.56-.79-.07-1.58-.09-2.38-.07-.29,6.97-.55,13.95-.78,20.93-.41-.43-.62-.95-.61-1.57-.52.14-1.06.17-1.6.11-.67-.15-1.33-.31-1.99-.46.31-6.57.49-13.14.53-19.72-.51-1.93-1.75-3.11-3.7-3.56-.05-.62-.05-1.23,0-1.85,4.66-.08,9.32-.09,13.99-.04,3.36,7.04,6.73,14.08,10.11,21.1.29-.16.58-.34.85-.53.53-.41.83-.94.89-1.6.23-4.69.35-9.39.36-14.09-.03-.3-.1-.58-.21-.85-.74-1.35-1.89-2.06-3.45-2.14.03-.62.05-1.23.07-1.85h12.1v2.85c-.19-.01-.38,0-.57.04-1.98.53-3.2,1.8-3.67,3.81-.35,7.11-.6,14.2-.75,21.28Z"/>
    <path class="cls-26" d="M177.16,47.47c.04-.91-.11-1.79-.46-2.63-.49-.93-.94-1.88-1.35-2.85-.19-.56-.32-1.13-.39-1.71.41-9.06.73-18.12.96-27.19-.11-1.1-.55-2.03-1.32-2.81-.95-.63-1.99-.97-3.13-1.03.05-.89.07-1.79.07-2.7h32.17c-.1,3.98-.21,7.95-.36,11.92-.85.06-1.69.05-2.53-.04.19-2.16-.19-4.2-1.14-6.12-1.41-1.67-3.23-2.54-5.45-2.6-2.44-.05-4.89-.05-7.33,0-2.35.57-3.67,2.06-3.95,4.45-.14,3.23-.25,6.45-.32,9.68,1.47.01,2.94,0,4.41-.04,1.3-.26,2.28-.96,2.95-2.1.76-1.54,1.15-3.18,1.17-4.91h2.21c-.25,5.69-.48,11.39-.71,17.08h-2.78c.05-1.69-.27-3.31-.96-4.84-.59-1.11-1.5-1.79-2.74-2.03-1.26-.04-2.51-.05-3.77-.04-.13,4.15-.26,8.3-.39,12.46-.2.78-.22,1.56-.07,2.35.83,1.4,2.06,2.25,3.67,2.53,1.92.05,3.84.05,5.77,0,.72-.06,1.43-.16,2.14-.28,2.08-.33,3.66-1.39,4.73-3.17,1.15-2.21,1.84-4.56,2.06-7.05.98-.08,1.96-.09,2.95-.04.04.12.07.25.07.39-.19,4.44-.35,8.87-.5,13.31h-25.7Z"/>
    <path class="cls-19" d="M104.06,23.62c-3.3.14-6.62.19-9.96.14,1.7-4.05,3.38-8.11,5.05-12.17h1.92c1.01,4.01,2,8.02,2.99,12.03ZM99.72,17c-.58,1.42-1.18,2.83-1.78,4.24.95.04,1.9.05,2.85.04-.31-1.44-.67-2.87-1.07-4.27Z"/>
    <path class="cls-37" d="M100,12.59c.93,3.32,1.78,6.66,2.56,10.04-2.23.01-4.46,0-6.69-.04,1.41-3.32,2.79-6.65,4.13-10ZM99.72,17c-.58,1.42-1.18,2.83-1.78,4.24.95.04,1.9.05,2.85.04-.31-1.44-.67-2.87-1.07-4.27Z"/>
    <path class="cls-1" d="M153.88,35.3c-.39.21-.79.4-1.21.57-3.48-7.27-6.98-14.53-10.5-21.78-.07-.06-.16-.08-.25-.07-.22,5.88-.44,11.77-.68,17.65-.05.9-.05,1.8,0,2.7.06.09.09.18.11.28-.58-.2-1.08-.55-1.49-1.07.23-6.98.49-13.95.78-20.93.8-.02,1.6,0,2.38.07,3.66,7.5,7.28,15.02,10.85,22.56Z"/>
    <path class="cls-23" d="M152.67,35.86c-.36.23-.74.42-1.14.57-2.74-5.65-5.51-11.3-8.29-16.94-.23,4.79-.39,9.58-.5,14.38.24.34.56.56.96.68.99.14,1.99.22,2.99.25v2.56h.43c-.39.08-.79.09-1.21.04-.29,0-.55-.09-.78-.25v-.93c-.5-.03-1-.08-1.49-.14-.76-.48-1.52-.95-2.28-1.42-.01-.1-.05-.2-.11-.28-.05-.9-.05-1.8,0-2.7.23-5.88.46-11.77.68-17.65.09-.01.18.01.25.07,3.52,7.25,7.02,14.51,10.5,21.78Z"/>
    <path class="cls-30" d="M73.02,36.22c-.44.17-.89.31-1.35.43.27-6.67.49-13.33.68-20-.1-.06-.2-.09-.32-.07-2.86,8.81-5.73,17.61-8.61,26.41-.75.49-1.42,1.08-1.99,1.78,3.19-9.85,6.39-19.7,9.61-29.54.45-.01.9,0,1.35.07.48-.07.95-.14,1.42-.21-.25,7.05-.51,14.09-.78,21.14Z"/>
    <path class="cls-5" d="M71.67,36.65c-.54.21-1.08.4-1.64.57.21-4.01.37-8.02.46-12.03-1.65,5-3.27,10.01-4.88,15.02-.05,0-.07.02-.07.07-.48.65-.94,1.31-1.39,1.99-.24.25-.49.49-.75.71,2.89-8.8,5.76-17.6,8.61-26.41.12-.02.22,0,.32.07-.18,6.67-.41,13.33-.68,20Z"/>
    <path class="cls-6" d="M104.06,23.62c.06.05.09.12.07.21-3.36.02-6.7,0-10.04-.07,3.35.05,6.67,0,9.96-.14Z"/>
    <path class="cls-39" d="M106.26,31.59c-.44.06-.89.1-1.35.14-.29-1.24-.6-2.47-.93-3.7-3.25-.02-6.5,0-9.75.07-.57,1.65-1.17,3.29-1.82,4.91-.6,2.15.22,3.17,2.46,3.06,0,.04.03.08.07.11-.57.38-1.17.73-1.78,1.03-1.55-.46-2.31-1.5-2.28-3.13.11-1.13.43-2.2.96-3.2.4-1.43.91-2.8,1.53-4.13,3.87-.07,7.73-.09,11.6-.07.48,1.62.91,3.26,1.28,4.91Z"/>
    <path class="cls-17" d="M104.91,31.74c-.45.08-.9.15-1.35.21-.21-.85-.43-1.71-.64-2.56-2.56-.01-5.12,0-7.69.04-.45,1.41-.96,2.8-1.53,4.16-.08.28-.11.57-.07.85.08.1.19.16.32.18,1,.08,2,.18,2.99.32-.55.38-1.12.75-1.71,1.1-.12.04-.23.05-.36.04-2.23.1-3.05-.92-2.46-3.06.64-1.62,1.25-3.26,1.82-4.91,3.25-.07,6.5-.09,9.75-.07.33,1.23.64,2.46.93,3.7Z"/>
    <path class="cls-13" d="M116.87,30.17c.45.02.9.04,1.35.07,1.67.01,3.35.08,5.05.21.45.03.9.07,1.35.14.23.04.44.13.64.25.21.04.43.05.64.04,2.41-.07,4.8.05,7.19.36.39.08.8.15,1.21.21.46.05.91.12,1.35.21.66.15,1.33.31,1.99.46.54.07,1.08.03,1.6-.11-.01.62.19,1.14.61,1.57.41.52.91.87,1.49,1.07.76.47,1.52.95,2.28,1.42.27.26.56.51.85.75.2.15.41.25.64.32.23.16.49.24.78.25.42.06.82.05,1.21-.04,1.56.07,3.03-.24,4.41-.93.4-.15.78-.34,1.14-.57.42-.17.82-.36,1.21-.57.52-.13,1.04-.24,1.57-.32,2.27-.21,4.52-.36,6.76-.46h1.28c-.02-.3,0-.58.07-.85v.85h1.78c.55-.05,1.09.01,1.64.18.7.42,1.37.89,1.99,1.42,1.09.53,2.21.99,3.35,1.39.46.27.91.55,1.35.85.66.49,1.09,1.13,1.28,1.92.07.58.2,1.15.39,1.71.41.97.86,1.92,1.35,2.85.35.84.5,1.72.46,2.63v1.35c-.02.48-.02.93,0,1.35.02,1.79-.21,3.54-.68,5.27-.76,2.2-1.61,4.36-2.56,6.48-.91,1.42-1.98,2.73-3.2,3.91-.98,1.48-2.25,2.63-3.81,3.45-1.63.85-3.24,1.73-4.84,2.63-1.02.67-1.98,1.41-2.88,2.24.42,3.56.88,7.12,1.39,10.68-.02.07-.05.14-.07.21-.82-.28-1.65-.54-2.49-.78.24,2.35.53,4.7.85,7.05-.26.05-.53.01-.78-.11-.51-.24-1.02-.46-1.53-.68-.11,1.71-.21,3.42-.28,5.12-.05.86-.14,1.71-.28,2.56-.06.21-.15.4-.28.57l-1.64-1.64-.07.07c-.7,3.19-1.42,6.37-2.17,9.54-.53-.65-1.04-1.31-1.53-1.99-.55,2.49-1.09,4.98-1.64,7.47-.42-.27-.79-.6-1.1-1-.27.19-.5.43-.68.71-.95,1.94-2,3.82-3.17,5.62-.36-.44-.68-.92-.96-1.42-.05-.09-.09-.09-.14,0-.4.78-.66,1.62-.78,2.49-.11.86-.24,1.71-.39,2.56.1.36.09.72-.04,1.07-.28.25-.57.26-.89.04-.29-.25-.61-.45-.96-.61-.35.14-.66.36-.93.64-1.21,1.66-2.28,3.42-3.2,5.27-.59,1.15-1.16,2.32-1.71,3.49-1.4,3.36-2.84,6.71-4.31,10.04-.4-.27-.81-.55-1.21-.82-.46-.23-.93-.28-1.42-.14-.42.21-.82.45-1.21.71-.48.24-.95.26-1.42.07-.29-.31-.6-.58-.93-.82-.97.35-1.93.73-2.88,1.14-.85-.41-1.72-.79-2.6-1.14-.53.3-1.05.62-1.57.96-.83.34-1.47.13-1.92-.64-.18-.14-.38-.22-.61-.25-.35.04-.7.12-1.03.25-.6.34-1.23.61-1.89.82-.28-1.11-.64-2.2-1.07-3.27-.87-1.87-1.73-3.74-2.56-5.62-1.8-3.76-4-7.25-6.62-10.46-.38.57-.72,1.16-1.03,1.78-.89-2.41-1.75-4.83-2.6-7.26-.24.8-.53,1.58-.85,2.35-.87-1.16-1.8-2.27-2.78-3.35-1.08-1.27-1.83-2.72-2.28-4.34-.31-1.46-.57-2.93-.78-4.41-.06-.35-.17-.68-.32-1-.2.22-.37.46-.53.71-.33.66-.7,1.3-1.1,1.92-.51-.96-.95-1.95-1.32-2.99-.92-2.86-1.94-5.68-3.06-8.47-.56-1.52-.94-3.09-1.14-4.7-.12-.15-.25-.14-.39.04-.59.52-1.16,1.07-1.71,1.64-.06.05-.11.04-.14-.04-.14-.44-.18-.89-.11-1.35.23-2.16.43-4.32.61-6.48-.31.07-.59.2-.85.39-.42.38-.84.75-1.28,1.1-.17-.16-.26-.36-.28-.61.4-2.69.78-5.38,1.14-8.08-.17-1.23-.32-2.47-.46-3.7-.26-1.14-.91-1.96-1.96-2.46-1-.29-2-.59-2.99-.93-2.93-1.2-5.83-2.48-8.68-3.84-.32-.2-.59-.45-.82-.75-.4-.92-.83-1.82-1.28-2.7-.45-.55-1.03-.85-1.74-.89-.46-.16-.74-.48-.82-.96-.04-.5-.03-1,.04-1.49-.18-1.85-.33-3.7-.46-5.55-.06-.36-.16-.72-.28-1.07-.38-.68-.69-1.39-.93-2.14-.13-.61-.14-1.23-.04-1.85.07-.08.09-.17.07-.28.14-.45.28-.9.43-1.35.26-.44.49-.89.71-1.35.12-.08.2-.2.21-.36.12-.09.2-.21.25-.36.09-.3.15-.61.18-.93.08-.37.19-.73.36-1.07.58-.69,1.24-1.29,1.99-1.78.26-.22.51-.46.75-.71.45-.68.91-1.35,1.39-1.99.05,0,.07-.02.07-.07,1.22-1.35,2.7-2.35,4.41-2.99.55-.17,1.1-.36,1.64-.57.46-.11.91-.26,1.35-.43.61-.23,1.23-.46,1.85-.68,1.84-.55,3.6-.35,5.27.61.44.28.89.54,1.35.78.33.31.71.55,1.14.71.72.44,1.5.74,2.35.89.94.14,1.87.24,2.81.32.92,0,1.86,0,2.81-.04.22-.08.44-.17.64-.28.62-.48,1.26-.91,1.92-1.32.61-.31,1.21-.65,1.78-1.03-.04-.03-.06-.06-.07-.11.12.01.24,0,.36-.04.59-.35,1.16-.72,1.71-1.1,1.53-.93,3.12-1.75,4.77-2.46.6-.23,1.22-.41,1.85-.53.45-.06.9-.13,1.35-.21.46-.04.91-.09,1.35-.14,2.03.15,4.02-.04,5.98-.57.44-.1.87-.22,1.28-.36.47-.06.92-.15,1.35-.28.16-.04.33-.06.5-.07.5-.04,1-.09,1.49-.14Z"/>
    <path class="cls-11" d="M120.21,31.67c-1.07-.12-2.13-.18-3.2-.18.2.14.42.26.64.36,1.49.61,2.98,1.21,4.48,1.78,3.45,1.25,6.89,2.5,10.32,3.77-4.98,1.11-9.96,2.23-14.95,3.35,3.41.86,6.78,1.86,10.11,2.99-3.22,1.21-6.42,2.46-9.61,3.74.41.02.83.05,1.25.07,3.33-.1,6.67-.14,10-.11-.92.34-1.84.65-2.78.93-2.66.66-5.29,1.39-7.9,2.21-.68.22-1.32.52-1.92.89-.06.06-.09.13-.07.21.14-.01.29,0,.43.04,3.93,1.38,7.82,2.86,11.67,4.45-.58.85-1.17,1.68-1.78,2.49-1.84-.93-3.78-1.49-5.84-1.67-3.72-.25-7.3.34-10.75,1.78-.91.4-1.81.81-2.7,1.25-1.75-1.5-3.56-2.94-5.41-4.31-.39-.42-.76-.86-1.1-1.32-.23-.22-.48-.41-.75-.57-.29-.16-.61-.26-.96-.28h-3.06c-2.4.21-4.81.26-7.22.14-.12-.04-.24-.1-.36-.18-.51-.58-1.03-1.15-1.57-1.71-.58-.35-1.17-.68-1.78-1-.57-.44-.72-.99-.46-1.67.26-.39.49-.79.71-1.21.15-.5.29-.99.43-1.49.26-.45.66-.75,1.17-.89.68-.11,1.37-.18,2.06-.21.25-.02.48-.08.71-.18-.26-.49-.5-.99-.75-1.49-.1-.11-.21-.21-.32-.28-.16-.1-.34-.17-.53-.21-.14.09-.28.09-.43,0-1.02,0-1.96.26-2.81.82-.19.15-.33.33-.43.53-.31.5-.61,1.03-.89,1.57-.35.98-.66,1.98-.93,2.99-.12.3-.25.6-.39.89.05.08.08.16.11.25,1.74,1.7,3.43,3.43,5.09,5.2-.46.06-.94.09-1.42.11.5.15.99.3,1.49.43,2.99.61,6,1.06,9.04,1.35.81.24,1.57.6,2.28,1.07,1.53,1.08,2.95,2.29,4.27,3.63.64.57,1.31,1.12,1.99,1.64-.74.48-1.5.93-2.28,1.35-.35.05-.68,0-1-.11.25-.23.51-.44.78-.64.19-.07.35-.18.5-.32-.04-.07-.09-.13-.14-.18-.11-.03-.2-.08-.28-.14-.35-.32-.75-.57-1.21-.75-3.44-1.21-6.88-2.42-10.32-3.63-1.15-.47-2.25-1.03-3.31-1.67-.34.32-.62.67-.85,1.07-.44.92-.87,1.84-1.28,2.78-.41.46-.77.96-1.07,1.49-.2,2.52.44,4.8,1.92,6.83,1.02,1.21,2.28,2.09,3.77,2.63.13-.43.22-.87.25-1.32.03-.62-.23-1.07-.78-1.35-.85-.35-1.66-.78-2.42-1.28-.87-.8-1.3-1.8-1.28-2.99-.02-.69.01-1.39.11-2.1.1-.27.22-.53.36-.78.57-.66.95-1.42,1.14-2.28l.25-.25c.34-.06.67-.03,1,.07.43.24.85.47,1.28.71.31.08.61.15.93.21.34.23.54.55.61.96.02.66.05,1.33.07,1.99.35,1.38.54,2.78.57,4.2.1.27.28.47.53.61.38.15.77.23,1.17.25.31-.02.61-.04.93-.07,1.1.19,2.18.46,3.24.82.68.18,1.37.2,2.06.07.63-.26,1.27-.49,1.92-.71.75-.18,1.39,0,1.92.53.35.4.61.85.78,1.35-1.5,1.09-2.92,2.3-4.24,3.63-1.14,1.47-2.28,2.94-3.42,4.41-.47.66-.75,1.4-.85,2.21-.04,3.94-.05,7.88-.04,11.82-1.45.08-2.9.22-4.34.43.03.66.31,1.2.85,1.6.96.59,1.93,1.16,2.92,1.71.45.38.82.82,1.1,1.32.23,1.05.49,2.09.78,3.13.86,2.59,1.67,5.2,2.42,7.83.7,2.93,1.44,5.85,2.21,8.75.6,2.05,1.36,4.05,2.28,5.98.06.26.05.53-.04.78-.63-.36-1.17-.84-1.6-1.42-.45-.76-.9-1.52-1.35-2.28-.52-.82-1.27-1.23-2.24-1.21-.18-1.12-.4-2.24-.68-3.35-.18-.78-.57-1.43-1.17-1.96-.7-.44-1.36-.42-1.99.07-.33.23-.67.23-1,0-.24-.37-.44-.76-.61-1.17-.89-1.18-1.53-2.48-1.92-3.91-.35-1.41-.66-2.84-.93-4.27-.55-1.84-1.62-2.22-3.2-1.14-.22-.87-.48-1.72-.78-2.56-.75-1.74-1.46-3.5-2.14-5.27-.27-1.23-.51-2.46-.71-3.7-.11-.8-.46-1.47-1.03-2.03-.43-.24-.88-.38-1.35-.43.14-1.43.31-2.85.5-4.27-.05-1.29-.73-1.97-2.06-2.03,0-.48.04-.95.11-1.42.16-.9.3-1.8.43-2.7.2-2.02-.04-3.99-.71-5.91-.18-.45-.39-.87-.64-1.28-.39-.35-.82-.63-1.32-.82-1.9-.88-3.8-1.76-5.69-2.63-.91-.56-1.84-1.11-2.78-1.64-.88-.44-1.79-.64-2.74-.61-.84-.09-1.46-.52-1.85-1.28-.39-.87-.82-1.73-1.28-2.56-.39-.53-.92-.81-1.57-.85-.24-1.69-.28-3.37-.11-5.05-.01-1.21-.24-2.37-.68-3.49-.35-.29-.68-.6-1-.93-.16-.68-.09-1.35.21-1.99.46-1.18.92-2.37,1.35-3.56.85-1.92,2.06-3.58,3.63-4.98.67-.86,1.39-1.68,2.17-2.46.83-.7,1.78-1.17,2.85-1.42,1-.16,2-.35,2.99-.57.81-.28,1.61-.57,2.42-.85.52-.1,1.04-.12,1.57-.07.31.21.57.47.78.78,1.08.72,2.19,1.38,3.35,1.99,1.4.53,2.84.79,4.34.78,1.36.07,2.73.1,4.13.07.84-.25,1.6-.66,2.28-1.21,1.7-.91,3.38-1.83,5.05-2.78.15-.15.31-.31.46-.46.25-.87.74-1.57,1.46-2.1.23-.12.46-.22.71-.28,1.63-.14,3.24-.38,4.84-.71,3.06-.23,6.1-.66,9.11-1.28,1.76-.22,3.56-.29,5.41-.21.17.19.36.36.57.5-.09.03-.19.05-.28.04Z"/>
    <path class="cls-4" d="M120.21,31.67c5.68.47,11.37.92,17.08,1.35.06.49.3.88.71,1.17.52.29,1.05.57,1.57.85,1.12.78,2.23,1.57,3.35,2.35.47.19.95.38,1.42.57.23.14.41.32.57.53v.07c0,.29.1.54.28.75.47.17.94.31,1.42.43,1.87,1.01,3.77,1.98,5.69,2.92.36.24.64.56.82.96.17.67.36,1.34.57,1.99.38.8.76,1.61,1.14,2.42.37,1.06.32,2.11-.14,3.13-.38.72-.73,1.45-1.03,2.21.01.04.04.08.07.11.31.05.62.05.93,0,.99-.11,1.96-.28,2.92-.5-.84,1.71-1.65,3.43-2.42,5.16.14.02.25,0,.36-.07,1.16-.37,2.32-.73,3.49-1.07.06,0,.11.01.14.07-1.01,1.96-2.01,3.93-2.99,5.91,1.79.05,3.57.09,5.34.14-1.44,1.01-2.89,2.02-4.34,3.03,1.14-.03,2.28-.12,3.42-.25.73-.04,1.45-.11,2.17-.21.1.01.16.06.18.14-1.32,1.33-2.62,2.67-3.91,4.02-.63.46-1.18.99-1.64,1.6-.21.2-.36.45-.43.75.48,3.37.91,6.75,1.28,10.14-.98-.03-1.68.4-2.1,1.28-.05.45-.05.9,0,1.35.19,1.18.32,2.37.39,3.56-.69.06-1.2.39-1.53,1-.34.92-.53,1.87-.57,2.85-.04.9-.05,1.8-.04,2.7-.44-.06-.84.02-1.21.25-.78.8-1.32,1.73-1.6,2.81-.4,1.44-.64,2.92-.75,4.41-1.12-.02-1.91.48-2.38,1.49-.31,1.68-.61,3.37-.89,5.05-.17-.03-.31-.12-.43-.25-.24-.03-.46.04-.64.21-.15.18-.3.36-.46.53-1.03,1.71-1.89,3.5-2.6,5.37-.05.05-.09.05-.14,0-.81-.79-1.48-.68-2.03.32-.8,1.59-1.15,3.27-1.03,5.05-.42-.07-.82-.21-1.21-.39-.24-.05-.47-.05-.71,0-.32.25-.61.52-.89.82-.65.94-1.24,1.91-1.78,2.92-.62,1.28-1.27,2.54-1.96,3.77-.04,0-.08.03-.11.07,0-1,.09-2,.25-2.99,1.72-6.46,3.49-12.91,5.3-19.36.6-2.14,1.29-4.26,2.06-6.33.16-.37.36-.72.61-1.03,1.56-.92,2.92-2.07,4.09-3.45.17-.25.32-.51.46-.78-.52-.23-1.07-.38-1.64-.46-.88-.09-1.75-.12-2.63-.11.01-3.87,0-7.73-.04-11.6-.32-1.07-.8-2.07-1.42-2.99-1.94-2.89-4.35-5.3-7.22-7.22.25-.54.55-1.05.89-1.53.49-.56,1.09-.76,1.82-.61.66.18,1.3.41,1.92.71.62.14,1.23.14,1.85,0,.92-.27,1.85-.53,2.78-.78.74-.02,1.47-.05,2.21-.07.68-.09,1.11-.46,1.32-1.1.16-1.64.37-3.28.64-4.91-.24-1.06.08-1.88.96-2.46.81-.5,1.69-.67,2.63-.5.69.76,1.13,1.65,1.32,2.67.34,2.54-.32,4.77-1.99,6.69-.67.67-1.36,1.32-2.06,1.92-.06.82.31,1.16,1.1,1.03.19-.09.38-.19.57-.28.45-.43.93-.83,1.42-1.21,1.9-1.65,2.93-3.72,3.1-6.23.26-1.53,0-2.95-.78-4.27-.59-.87-1.19-1.72-1.82-2.56.71-.45,1.37-.95,1.99-1.49.2-.11.39-.24.57-.39-.21-.08-.44-.12-.68-.11-1.28.07-2.54.19-3.81.36-2.68.09-5.36.18-8.04.25-1.38.19-2.64.69-3.77,1.49-.52.4-1.02.83-1.49,1.28-1.03,1.11-2.04,2.23-3.03,3.38-.45.48-.93.93-1.42,1.35-2.33-.8-4.67-1.58-7.01-2.35-.78-.26-1.56-.54-2.35-.82-1.92-.05-3.84-.05-5.77,0-2.84,1.01-5.69,1.99-8.54,2.95-.07,0-.13.02-.18.07-3.03-2.67-6.08-5.32-9.15-7.94-3.39-.04-6.79-.04-10.18,0-.26-.06-.47-.19-.64-.39-1.66-1.76-3.35-3.5-5.09-5.2-.02-.09-.06-.17-.11-.25.14-.29.27-.59.39-.89.27-1.01.57-2.01.93-2.99.28-.54.58-1.06.89-1.57.21-.25.47-.43.78-.53.43-.03.86-.08,1.28-.14.42-.18.85-.35,1.28-.5.29-.04.57-.03.85.04.11.08.22.17.32.28.24.5.49,1,.75,1.49-.23.1-.46.16-.71.18-.69.03-1.38.1-2.06.21-.52.14-.91.44-1.17.89-.13.5-.28,1-.43,1.49-.22.42-.46.82-.71,1.21-.26.68-.1,1.24.46,1.67.6.31,1.2.65,1.78,1,.54.56,1.06,1.13,1.57,1.71.11.08.23.14.36.18.12.1.26.16.43.18.68.01,1.35.02,2.03.04,1.98-.09,3.96-.17,5.94-.21.95-.01,1.9.03,2.85.14.27.16.52.35.75.57.34.46.71.9,1.1,1.32,1.85,1.37,3.66,2.8,5.41,4.31.89-.43,1.79-.85,2.7-1.25,3.44-1.44,7.03-2.03,10.75-1.78,2.06.18,4,.74,5.84,1.67.61-.82,1.2-1.65,1.78-2.49-3.85-1.59-7.74-3.07-11.67-4.45-.14-.04-.28-.05-.43-.04-.02-.08,0-.15.07-.21.6-.37,1.24-.67,1.92-.89,2.61-.81,5.24-1.55,7.9-2.21.93-.28,1.86-.59,2.78-.93-3.33-.03-6.67,0-10,.11-.41-.02-.83-.05-1.25-.07,3.19-1.28,6.39-2.53,9.61-3.74-3.33-1.13-6.7-2.13-10.11-2.99,4.98-1.12,9.97-2.23,14.95-3.35-3.44-1.27-6.88-2.53-10.32-3.77-1.5-.57-3-1.17-4.48-1.78-.22-.1-.44-.22-.64-.36,1.07,0,2.14.06,3.2.18Z"/>
    <path class="cls-11" d="M157.37,71.45c.46-.61,1-1.15,1.64-1.6,1.29-1.35,2.6-2.69,3.91-4.02.19-.12.17-.22-.07-.28-.77.12-1.53.24-2.28.36-1.14.13-2.28.22-3.42.25,1.45-1.01,2.9-2.02,4.34-3.03.04,0,.06-.03.07-.07-1.73-.05-3.46-.09-5.2-.14.98-1.98,1.97-3.95,2.99-5.91-.13-.09-.25-.09-.36,0-1.17.34-2.33.7-3.49,1.07-.05,0-.1,0-.14-.04.81-1.68,1.61-3.37,2.42-5.05-.41-.12-.84-.14-1.28-.07-.85.15-1.69.33-2.53.53-.04-.02-.07-.05-.11-.07.35-.85.74-1.68,1.17-2.49.35-.84.4-1.69.14-2.56-.4-.79-.75-1.6-1.07-2.42-.1-.5-.2-.99-.28-1.49-.1-.75-.44-1.35-1.03-1.82-.55-.41-1.11-.79-1.71-1.14-1.38-.66-2.78-1.28-4.2-1.85-.68-.33-1.34-.67-1.99-1.03v-.07c.9-.02,1.8-.07,2.7-.14.69.06,1.38.16,2.06.28,1.08-.21,2.15-.48,3.2-.82.7-.34,1.34-.77,1.92-1.28.53-.31,1.1-.49,1.71-.53.72.1,1.44.18,2.17.21,2.33-.1,4.66-.22,6.98-.36,2.21.64,4.2,1.69,5.94,3.17.73.76,1.39,1.58,1.96,2.46.6,1.3,1.24,2.58,1.92,3.84.16.41.26.84.28,1.28.08,2.18-.04,4.39-.36,6.62-.16.63-.35,1.24-.57,1.85-.69,1.7-1.36,3.41-1.99,5.12-.93,2.42-2.44,4.4-4.52,5.94-2.54,1.65-5.1,3.26-7.69,4.84-1.13.81-2.2,1.67-3.24,2.6-.04-.48-.1-.95-.18-1.42.02-.24.07-.48.14-.71Z"/>
    <path class="cls-3" d="M143.63,36.08c.5.06.99.11,1.49.14v.93c-.23-.07-.44-.17-.64-.32-.3-.24-.58-.49-.85-.75Z"/>
    <path class="cls-32" d="M144.91,38.57c.65.36,1.31.7,1.99,1.03,1.42.58,2.82,1.19,4.2,1.85.59.34,1.16.72,1.71,1.14.59.46.94,1.07,1.03,1.82.09.5.18,1,.28,1.49.32.82.67,1.63,1.07,2.42.25.87.21,1.72-.14,2.56-.43.81-.82,1.64-1.17,2.49.04.02.07.05.11.07.84-.21,1.68-.38,2.53-.53.44-.07.87-.04,1.28.07-.81,1.68-1.61,3.37-2.42,5.05.04.03.09.04.14.04-.1.07-.22.09-.36.07.77-1.73,1.58-3.45,2.42-5.16-.96.22-1.93.38-2.92.5-.31.05-.62.05-.93,0-.03-.03-.06-.07-.07-.11.3-.75.65-1.49,1.03-2.21.46-1.02.51-2.07.14-3.13-.38-.81-.76-1.62-1.14-2.42-.21-.66-.4-1.32-.57-1.99-.18-.4-.45-.72-.82-.96-1.92-.94-3.82-1.91-5.69-2.92-.48-.12-.96-.26-1.42-.43-.18-.21-.28-.46-.28-.75Z"/>
    <path class="cls-4" d="M169.4,40.06c1.01-.17,1.75.19,2.24,1.07.34.72.64,1.46.93,2.21.44.8.86,1.62,1.25,2.46.21.78.27,1.58.18,2.38-.32,1.5-.65,2.99-1,4.48-.12,1.4-.27,2.8-.43,4.2-.26,1.02-.71,1.95-1.35,2.78-.99.88-1.97,1.78-2.92,2.7l-1.92,2.56c-.68.75-1.46,1.37-2.35,1.85,1.07-2.75,2.15-5.5,3.24-8.26-1.5.47-2.89,1.16-4.16,2.06-.01-.02-.02-.05-.04-.07,1.68-2.8,3.37-5.6,5.05-8.4-1,.56-2,1.19-2.99,1.89-.06.05-.11.04-.14-.04.84-1.56,1.66-3.13,2.46-4.7-1.44,1-2.86,2.02-4.27,3.06.22-.73.46-1.47.71-2.21.18-.58.27-1.18.28-1.78-1.02,1.16-2.04,2.33-3.06,3.49-.16-.22-.27-.45-.36-.71-.04-.51-.03-1.02.04-1.53,0-.26-.04-.51-.14-.75-1.48.87-2.95,1.76-4.41,2.67-.06.05-.11.04-.14-.04.45-1.76,1.37-3.22,2.78-4.38.55-.43,1.12-.83,1.71-1.21,2.38-1.42,4.73-2.89,7.05-4.41.52-.56,1.12-1.02,1.78-1.39Z"/>
    <path class="cls-4" d="M74.95,40.14c1.57-.01,3.13,0,4.7.04.5.5,1.05.96,1.64,1.35l.85.85c-1.64-.18-3.28-.4-4.91-.68-1.7.26-3.41.44-5.12.53-.25.15-.45.36-.61.61-.26.59-.52,1.19-.78,1.78-.93,1.51-1.81,3.05-2.63,4.63-.58.87-1.26,1.66-2.03,2.38.32.46.72.81,1.21,1.07.96.42,1.93.8,2.92,1.14,1.78.91,3.53,1.86,5.27,2.85,1.26.66,2.54,1.27,3.84,1.82-.23.08-.47.09-.71.04-1.71-.25-3.42-.49-5.12-.71,2.08,2.22,4.15,4.44,6.23,6.66.04.07.02.12-.07.14-1.84-.88-3.68-1.77-5.52-2.67-.09-.05-.19-.05-.28,0,2.05,2.19,4.1,4.39,6.16,6.58.04.07.02.12-.07.14-3.19-1.76-6.43-3.43-9.72-5.02-.7-.39-1.39-.79-2.06-1.21-.8-.33-1.61-.64-2.42-.93-.63-.41-.99-.99-1.1-1.74.01-.93.01-1.85,0-2.78-.29-1.39-.53-2.79-.71-4.2-.05-.47-.05-.95,0-1.42.27-.62.67-1.14,1.21-1.57l3.42-4.7c.29-.41.55-.84.78-1.28.38-1.11.96-2.1,1.74-2.95.36-.26.77-.43,1.21-.5.91-.1,1.81-.18,2.7-.25Z"/>
    <path class="cls-18" d="M88.97,43.34c-.28-.07-.57-.08-.85-.04-.43.15-.86.32-1.28.5-.43.06-.85.11-1.28.14-.31.11-.57.29-.78.53.1-.21.24-.38.43-.53.86-.55,1.79-.83,2.81-.82.14.09.28.09.43,0,.2.04.37.11.53.21Z"/>
    <path class="cls-38" d="M61.07,45.83c-.03.31-.09.62-.18.93-.05.15-.13.27-.25.36.1-.45.24-.87.43-1.28Z"/>
    <path class="cls-31" d="M50.6,50.1c2.89.07,5.78.09,8.68.07.02.11,0,.21-.07.28v-.21c-2.9.05-5.77,0-8.61-.14Z"/>
    <path class="cls-8" d="M100.36,53.8c-.94-.11-1.89-.16-2.85-.14-1.98.05-3.96.12-5.94.21-.68-.01-1.35-.02-2.03-.04-.17-.02-.31-.08-.43-.18,2.41.11,4.82.07,7.22-.14h3.06c.35.03.67.12.96.28Z"/>
    <path class="cls-22" d="M153.24,56.22c-3.15,1.45-6.33,2.83-9.54,4.16-.15.05-.27.13-.36.25-.2,0-.39.05-.57.14-2.16.9-4.32,1.8-6.48,2.7-.51.27-1.01.55-1.49.85.39.33.8.63,1.21.93-.17.01-.33,0-.5-.04-.73-.4-1.49-.75-2.28-1.03.29-.54.67-1,1.14-1.39.92-.56,1.79-1.18,2.63-1.85.79-.84,1.62-1.62,2.49-2.35,1.03-.71,2.17-1.13,3.42-1.28,2.21-.09,4.34-.51,6.41-1.25,1.26-.17,2.53-.29,3.81-.36.24,0,.46.03.68.11-.18.15-.37.28-.57.39Z"/>
    <path class="cls-34" d="M149.33,56.08c-2.06.74-4.2,1.15-6.41,1.25-1.25.15-2.38.57-3.42,1.28-.87.73-1.7,1.51-2.49,2.35-.84.67-1.72,1.29-2.63,1.85-.47.39-.85.85-1.14,1.39.79.29,1.55.63,2.28,1.03.16.04.33.05.5.04.53.35,1.1.65,1.71.89,2.46.62,4.35-.15,5.66-2.31.6-1.12.99-2.3,1.17-3.56-.41.11-.81.23-1.21.36.09-.12.21-.2.36-.25,3.21-1.33,6.39-2.72,9.54-4.16-.62.55-1.29,1.05-1.99,1.49.62.84,1.23,1.7,1.82,2.56.78,1.32,1.04,2.74.78,4.27-.17,2.51-1.2,4.58-3.1,6.23-.5.38-.97.78-1.42,1.21-.19.09-.38.19-.57.28-.8.13-1.17-.22-1.1-1.03.71-.61,1.4-1.25,2.06-1.92,1.67-1.92,2.33-4.15,1.99-6.69-.19-1.02-.62-1.91-1.32-2.67-.95-.17-1.82,0-2.63.5-.88.58-1.2,1.4-.96,2.46-.27,1.63-.48,3.27-.64,4.91-.2.64-.64,1.01-1.32,1.1-.74.02-1.47.05-2.21.07-.93.25-1.85.51-2.78.78-.62.14-1.23.14-1.85,0-.62-.3-1.26-.53-1.92-.71-.72-.15-1.33.05-1.82.61-.34.48-.64.99-.89,1.53,2.88,1.93,5.29,4.34,7.22,7.22.63.92,1.1,1.92,1.42,2.99.04,3.87.05,7.73.04,11.6.88-.02,1.76.02,2.63.11.57.08,1.12.23,1.64.46-.14.27-.29.53-.46.78-1.17,1.38-2.53,2.53-4.09,3.45-.25.32-.45.66-.61,1.03-.77,2.08-1.46,4.19-2.06,6.33-1.81,6.45-3.58,12.9-5.3,19.36,0-.03,0-.05-.04-.07-.6.79-1.14,1.62-1.64,2.49-.21.26-.43.52-.64.78-.05-.26-.05-.52,0-.78.13-.55.27-1.09.43-1.64.06-.34.03-.67-.07-1-.62.9-1.23,1.8-1.85,2.7-.12-.5-.12-1,0-1.49.26-.47.54-.92.85-1.35.59-.64,1.19-1.28,1.78-1.92.34-.41.62-.87.85-1.35.26-1.13.5-2.27.71-3.42,1.33-4.07,2.54-8.18,3.63-12.31.43-1.33.85-2.66,1.28-3.99.25-1.1.53-2.19.85-3.27.23-.57.58-1.05,1.03-1.46.87-.52,1.75-1.02,2.63-1.49.31-.29.53-.63.64-1.03-1.31.07-2.64.07-3.99,0,.03-4.37,0-8.73-.11-13.1-.33-.77-.78-1.46-1.35-2.06-.63-.66-1.33-1.21-2.1-1.64.03,0,.05,0,.07-.04-1.78-2.07-3.82-3.82-6.12-5.27-.59-.34-1.21-.62-1.85-.85-.65-.13-1.24,0-1.78.36-.33.33-.6.7-.82,1.1-.3.6-.56,1.22-.78,1.85-.24.25-.49.49-.75.71-.21-.3-.3-.65-.28-1.03.09-.61.2-1.21.32-1.82.35-1.16,1.13-1.88,2.31-2.17.42-.09.85-.15,1.28-.18.65.07,1.29.2,1.92.39,1.37.16,2.4-.35,3.1-1.53.2-.37.38-.75.53-1.14-2.61-.06-5.22-.09-7.83-.11-.44-.73-1.06-1.25-1.85-1.57-1.27-.37-2.53-.77-3.77-1.21-.02-.02-.05-.05-.07-.07.4-.23.83-.3,1.28-.21.41.06.81.16,1.21.28.67.3,1.36.54,2.06.71.45.05.9.05,1.35,0,.02-.02.05-.05.07-.07-.43-.41-.88-.79-1.35-1.14-.85-.47-1.71-.95-2.56-1.42.35-.08.71-.1,1.07-.07.77.34,1.57.62,2.38.82.13-.18.13-.37,0-.57-.48-.44-.92-.92-1.32-1.42,2.34.77,4.68,1.55,7.01,2.35.5-.42.97-.88,1.42-1.35.98-1.15,1.99-2.28,3.03-3.38.48-.45.98-.88,1.49-1.28,1.13-.8,2.39-1.3,3.77-1.49,2.68-.07,5.36-.15,8.04-.25Z"/>
    <path class="cls-21" d="M159.01,57c.11-.09.23-.09.36,0-1.01,1.96-2.01,3.93-2.99,5.91,1.73.05,3.46.09,5.2.14,0,.04-.03.07-.07.07-1.77-.05-3.55-.09-5.34-.14.98-1.98,1.98-3.95,2.99-5.91-.03-.06-.08-.08-.14-.07Z"/>
    <path class="cls-1" d="M95.59,60.99c-.19.86-.06,1.69.39,2.49.44.51,1,.81,1.67.89.62.05,1.15.09,1.6.11.32-.09.64-.2.96-.32-.28-.25-.57-.48-.89-.68.01-.16.1-.29.25-.39.49.22.99.45,1.49.68.26-.12.45-.31.57-.57.09-.05.16-.12.21-.21.38.19.76.38,1.14.57.08.06.18.11.28.14-.14.15-.25.32-.36.5-.27.2-.53.41-.78.64-1.9,1.23-3.89,1.39-5.98.46-.97-.6-1.65-1.44-2.03-2.53-.18-.85-.38-1.69-.61-2.53.02-.04.05-.07.07-.11.59.21,1.18.41,1.78.61.14.03.21.11.21.25Z"/>
    <path class="cls-39" d="M136.02,65.26c-.41-.29-.82-.6-1.21-.93.49-.3.99-.59,1.49-.85.05.09.12.17.21.21.44.6,1.04.99,1.78,1.17.92.14,1.8,0,2.63-.39-.31-.24-.62-.48-.93-.71.07-.17.17-.31.32-.43.47.45,1.03.68,1.67.68.23-.2.39-.44.46-.75.17-.75.26-1.48.25-2.21.02-.09.05-.19.07-.28.18-.09.37-.14.57-.14.4-.13.8-.25,1.21-.36-.19,1.25-.58,2.44-1.17,3.56-1.31,2.16-3.2,2.93-5.66,2.31-.6-.24-1.17-.54-1.71-.89Z"/>
    <path class="cls-24" d="M124.56,61.49c.4.51.84.98,1.32,1.42.13.19.13.38,0,.57-.82-.2-1.61-.47-2.38-.82-.36-.03-.71,0-1.07.07.85.47,1.71.95,2.56,1.42.47.35.92.73,1.35,1.14-.02.02-.05.05-.07.07-.45.05-.9.05-1.35,0-.71-.18-1.4-.41-2.06-.71-.4-.13-.8-.22-1.21-.28-.45-.09-.88-.01-1.28.21.02.02.05.05.07.07,1.25.44,2.5.84,3.77,1.21.79.32,1.41.84,1.85,1.57,2.61.01,5.22.05,7.83.11-.16.39-.34.77-.53,1.14-.7,1.18-1.73,1.69-3.1,1.53-.63-.19-1.27-.32-1.92-.39-.43.03-.86.09-1.28.18-1.19.29-1.96,1.01-2.31,2.17-.12.6-.23,1.21-.32,1.82-.02.38.07.73.28,1.03-1.1.99-2.22,1.98-3.35,2.95l-1.17,1.17c-.04,1.26-.05,2.51-.04,3.77,3.76-.33,7.18.59,10.25,2.74,2.07,1.64,4,3.43,5.8,5.37-.06-.95-.13-1.9-.21-2.85-.15-.96-.59-1.75-1.32-2.38-.69-.43-1.32-.94-1.89-1.53-.13-.21-.26-.43-.39-.64.01-.02.02-.05.04-.07,1.18.74,2.38,1.4,3.59,1.99-.49-.91-1.11-1.73-1.85-2.46-.56-.46-1.1-.93-1.64-1.42.71-.08,1.4.01,2.06.28.65.33,1.25.72,1.82,1.17-.38-.86-.94-1.61-1.67-2.24-1.01-.8-2.08-1.51-3.2-2.14.62-.05,1.24-.02,1.85.07.9.25,1.78.54,2.63.85-.48-.48-1-.91-1.57-1.28-.99-.53-1.98-1.04-2.99-1.53,1.03-.58,2.12-.71,3.27-.39.66.25,1.32.47,1.99.68.77.43,1.47.98,2.1,1.64.58.61,1.03,1.29,1.35,2.06.11,4.36.14,8.73.11,13.1,1.35.07,2.68.07,3.99,0-.11.4-.33.75-.64,1.03-.89.48-1.77.98-2.63,1.49-.45.41-.8.89-1.03,1.46-.32,1.08-.61,2.17-.85,3.27-.43,1.33-.85,2.66-1.28,3.99-1.09,4.14-2.3,8.24-3.63,12.31-.21,1.15-.45,2.28-.71,3.42-.23.49-.52.94-.85,1.35-.59.64-1.19,1.28-1.78,1.92-.31.43-.6.88-.85,1.35-.12.5-.12.99,0,1.49.62-.9,1.23-1.8,1.85-2.7.11.33.13.66.07,1-.15.54-.3,1.09-.43,1.64-.05.26-.05.52,0,.78.21-.26.43-.52.64-.78.49-.87,1.04-1.7,1.64-2.49.03.02.04.04.04.07-.16.99-.24,1.99-.25,2.99.03-.04.06-.06.11-.07-.17.53-.37,1.06-.61,1.57-.83,1.58-1.63,3.17-2.42,4.77-.49,1.3-.96,2.6-1.42,3.91-.17.41-.36.82-.57,1.21-.29-.17-.57-.38-.82-.61-.43-.17-.83-.12-1.21.14-.24.21-.47.43-.71.64-.5.33-1,.33-1.49,0-.34-.43-.78-.68-1.32-.75-.24,0-.47.06-.68.18-.43.36-.88.69-1.35,1-.5.17-.97.12-1.42-.14-.41-.34-.83-.64-1.28-.93-.58-.2-1.1-.11-1.57.28-.33.42-.76.67-1.28.75-.22,0-.41-.06-.57-.21-.24-.4-.53-.77-.85-1.1-.4-.15-.78-.11-1.14.14-.35.4-.74.74-1.17,1.03-1.73-4.7-3.46-9.4-5.2-14.09-.06-.22-.05-.43.04-.64.33.22.62.48.89.78.34.56.69,1.1,1.07,1.64.3-1.05.11-2-.57-2.85l-1.78-1.78c-.3-.4-.56-.83-.78-1.28-.31-1.13-.57-2.27-.78-3.42-1.67-5.52-3.31-11.05-4.91-16.58-.18-1-.39-2-.64-2.99-.35-.78-.88-1.38-1.6-1.82-.72-.3-1.41-.66-2.06-1.07-.38-.3-.66-.66-.85-1.1,1.19-.02,2.4-.03,3.63-.04.16-.01.3-.06.43-.14-.02-4.15-.05-8.3-.07-12.46.05-.38.18-.72.39-1.03.76-.95,1.52-1.9,2.28-2.85.77-.81,1.61-1.52,2.53-2.14.04,0,.07.03.07.07-.27.31-.56.6-.85.89.32-.11.66-.23,1-.36.64-.18,1.25-.13,1.85.14.36.29.74.55,1.14.78-1.75.66-3.32,1.61-4.7,2.85.72-.38,1.48-.68,2.28-.93.76-.19,1.52-.21,2.28-.07-1.09.62-2.14,1.31-3.13,2.06-.78.68-1.39,1.48-1.82,2.38.66-.62,1.41-1.11,2.24-1.46.46-.13.92-.21,1.39-.25.11.05.22.11.32.18-1.42,1.2-2.66,2.56-3.7,4.09,1.26-.66,2.5-1.4,3.74-2.21-.08.3-.19.58-.36.85-.57.59-1.2,1.1-1.89,1.53-.71.62-1.15,1.39-1.32,2.31-.09.9-.14,1.8-.14,2.7,1.61-1.61,3.25-3.16,4.95-4.66,3.21-2.61,6.88-3.72,11.03-3.31.01-1.26,0-2.52-.04-3.77-.16-.35-.37-.65-.64-.93-1.17-1.11-2.32-2.22-3.45-3.35.12-1,.08-2-.11-2.99-.65-1.43-1.77-2.19-3.35-2.28-.69.07-1.36.2-2.03.39-1.07.17-1.96-.15-2.67-.96-.4-.53-.74-1.1-1.03-1.71,2.32-.06,4.65-.09,6.98-.11-1.24-1.18-2.5-2.34-3.77-3.49-.11-.08-.16-.19-.14-.32,2.85-.96,5.7-1.95,8.54-2.95,1.92-.05,3.84-.05,5.77,0,.79.28,1.57.55,2.35.82Z"/>
    <path class="cls-14" d="M142.78,60.78c-.02.09-.05.19-.07.28-2.06.89-4.12,1.77-6.19,2.63-.09-.05-.17-.12-.21-.21,2.16-.9,4.32-1.8,6.48-2.7Z"/>
    <path class="cls-9" d="M95.59,60.99c2.01.75,4.03,1.48,6.05,2.21-.12.26-.31.45-.57.57-.51-.23-1-.46-1.49-.68-.15.1-.23.23-.25.39.32.2.61.42.89.68-.32.12-.64.23-.96.32-.45-.02-.99-.05-1.6-.11-.67-.08-1.23-.38-1.67-.89-.45-.8-.59-1.63-.39-2.49Z"/>
    <path class="cls-9" d="M142.71,61.06c0,.73-.08,1.46-.25,2.21-.07.3-.23.55-.46.75-.65,0-1.2-.22-1.67-.68-.15.11-.25.25-.32.43.31.24.61.47.93.71-.83.4-1.71.53-2.63.39-.74-.18-1.33-.57-1.78-1.17,2.07-.86,4.13-1.74,6.19-2.63Z"/>
    <path class="cls-28" d="M103.27,63.7c.05.05.1.11.14.18-.15.14-.31.25-.5.32.1-.18.22-.34.36-.5Z"/>
    <path class="cls-1" d="M119.15,65.47c1.63-.06,3.17.28,4.63,1.03.56.29,1.1.6,1.64.93-.25.35-.48.72-.68,1.1-.15.15-.32.23-.53.25-3.27.05-6.55.05-9.82,0-.22-.1-.42-.23-.61-.39-.28-.39-.58-.77-.89-1.14,1.43-.47,2.86-.95,4.27-1.46.66-.18,1.33-.29,1.99-.32Z"/>
    <path class="cls-36" d="M162.92,65.83c-.02-.08-.08-.13-.18-.14-.72.11-1.44.18-2.17.21.75-.12,1.51-.24,2.28-.36.24.07.26.16.07.28Z"/>
    <path class="cls-4" d="M136.73,77.15c-.67-.2-1.33-.43-1.99-.68-1.15-.32-2.24-.19-3.27.39,1.01.49,2,1,2.99,1.53.56.37,1.09.8,1.57,1.28-.86-.32-1.74-.6-2.63-.85-.61-.09-1.23-.12-1.85-.07,1.13.63,2.19,1.34,3.2,2.14.73.64,1.29,1.38,1.67,2.24-.56-.45-1.17-.84-1.82-1.17-.66-.27-1.35-.37-2.06-.28.53.49,1.08.97,1.64,1.42.74.73,1.36,1.55,1.85,2.46-1.21-.59-2.41-1.25-3.59-1.99-.01.02-.02.05-.04.07.13.21.26.43.39.64.57.59,1.2,1.1,1.89,1.53.73.63,1.17,1.43,1.32,2.38.09.95.16,1.9.21,2.85-1.8-1.94-3.74-3.74-5.8-5.37-3.07-2.16-6.49-3.07-10.25-2.74-.01-1.26,0-2.52.04-3.77l1.17-1.17c1.13-.98,2.24-1.96,3.35-2.95.26-.22.51-.46.75-.71.22-.63.49-1.25.78-1.85.22-.41.49-.78.82-1.1.54-.36,1.13-.48,1.78-.36.64.23,1.26.51,1.85.85,2.3,1.44,4.34,3.2,6.12,5.27-.02.03-.04.04-.07.04Z"/>
    <path class="cls-4" d="M114.02,75.08c1.14,1.12,2.29,2.24,3.45,3.35.27.27.48.58.64.93.04,1.26.05,2.51.04,3.77-4.15-.41-7.83.7-11.03,3.31-1.69,1.5-3.34,3.06-4.95,4.66,0-.9.05-1.8.14-2.7.17-.92.61-1.69,1.32-2.31.69-.43,1.32-.94,1.89-1.53.16-.27.28-.56.36-.85-1.24.81-2.48,1.54-3.74,2.21,1.04-1.53,2.28-2.9,3.7-4.09-.1-.07-.21-.13-.32-.18-.47.04-.93.12-1.39.25-.84.35-1.58.84-2.24,1.46.43-.91,1.03-1.7,1.82-2.38,1-.76,2.04-1.45,3.13-2.06-.76-.14-1.52-.12-2.28.07-.8.24-1.56.55-2.28.93,1.38-1.24,2.95-2.19,4.7-2.85-.4-.23-.78-.49-1.14-.78-.6-.27-1.21-.32-1.85-.14-.34.12-.67.24-1,.36.3-.29.58-.58.85-.89,1.08-1.19,2.24-2.29,3.49-3.31.67-.51,1.4-.89,2.21-1.14.89-.14,1.65.1,2.28.75.64.9,1.25,1.83,1.82,2.78.15.14.28.28.39.43Z"/>
    <path class="cls-15" d="M119.08,86.9c.67-.02,1.33.02,1.99.11,1.32.39,2.65.76,3.99,1.1-.28.2-.59.34-.93.43-.48-.1-.93-.28-1.35-.53-1.01-.18-1.95.05-2.81.68-.46-.57-1.05-.88-1.78-.93-.48.02-.99.11-1.53.25-.35.15-.65.37-.89.68-.31-.22-.65-.31-1.03-.28,0-.12.04-.2.14-.25.63-.17,1.25-.39,1.85-.64.77-.28,1.56-.48,2.35-.61Z"/>
    <path class="cls-25" d="M121.5,88.75c1.65.08,2.31.93,1.96,2.56-.11.26-.2.52-.28.78-.49.79-.94,1.59-1.35,2.42-.41-.83-.86-1.63-1.35-2.42-.31-.66-.43-1.34-.36-2.06.25-.67.71-1.09,1.39-1.28Z"/>
    <path class="cls-39" d="M117.44,89.18c1.01-.12,1.71.29,2.1,1.21.1.77-.01,1.51-.36,2.21-.46.74-.89,1.5-1.28,2.28-.18-.55-.42-1.07-.71-1.57-.24-.32-.51-.6-.82-.85-.08-.83-.09-1.66-.04-2.49.27-.41.63-.67,1.1-.78Z"/>
    <path class="cls-39" d="M113.38,89.32c.55.02,1.09.04,1.64.07.01,1.02,0,2.04-.04,3.06-.06.46-.2.88-.43,1.28-.53.7-1,1.43-1.42,2.21-.33-1.04-.66-2.09-1-3.13-.18-.97-.22-1.94-.11-2.92.45-.21.9-.4,1.35-.57Z"/>
    <path class="cls-29" d="M125.41,89.32c.29-.01.57,0,.85.04.47.2.94.38,1.42.53.01,1.04,0,2.09-.04,3.13-.53.96-.91,1.98-1.14,3.06-.32-.86-.77-1.64-1.35-2.35-.24-.4-.4-.83-.5-1.28-.05-.9-.05-1.8,0-2.7.24-.17.49-.31.75-.43Z"/>
    <path class="cls-27" d="M109.11,90.24c.74-.13,1.39.03,1.96.5.06,1,.04,2-.07,2.99-.22.79-.46,1.57-.71,2.35-.06.33-.12.66-.18,1,.29,2.14.57,4.27.82,6.41-1.32-1.3-2.51-2.7-3.56-4.2-1.12-1.83-1.59-3.83-1.42-5.98.46-1.64,1.52-2.66,3.17-3.06Z"/>
    <path class="cls-27" d="M128.68,103.48s-.07-.02-.07-.07c.25-1.47.5-2.94.75-4.41.05-.85.05-1.71,0-2.56-.27-.93-.56-1.85-.85-2.78-.11-.85-.13-1.71-.07-2.56.25-.55.68-.79,1.28-.71,1.98.09,3.26,1.09,3.84,2.99.18,2.39-.44,4.55-1.85,6.48-.97,1.24-1.98,2.45-3.03,3.63Z"/>
    <path class="cls-10" d="M119.93,92.24c.07,0,.13.02.18.07l.21.43c.22.73.48,1.44.78,2.14.32.52.79.7,1.39.53.54-.22.9-.62,1.1-1.17.17-.5.33-1,.5-1.49.63,1.25,1.25,2.5,1.85,3.77.6.38,1.1.26,1.49-.36.27-.74.43-1.49.5-2.28.27.49.46,1.01.57,1.57.08.69.14,1.34.18,1.96-.05,1.17-.13,2.35-.25,3.52-.21,1.38-.4,2.75-.57,4.13.97-.69,1.8-1.52,2.49-2.49.97-1.44,1.99-2.84,3.06-4.2.38-.63.69-1.3.93-1.99.35.7.61,1.44.78,2.21.38-.26.69-.6.93-1,.27-.64.52-1.28.75-1.92-.65,5.91-2.04,11.65-4.16,17.22-1.03,2.69-2.07,5.37-3.13,8.04-.05.09-.09.09-.14,0-.26-.59-.52-1.19-.78-1.78-.29-.34-.66-.44-1.1-.32-.17.12-.3.27-.39.46-.31,2.27-.73,4.53-1.28,6.76-.17.92-.28,1.84-.32,2.78-.08.02-.16,0-.21-.07-.38-.67-.83-1.28-1.35-1.85-.35.17-.64.41-.89.71-.34.56-.66,1.13-.96,1.71-.17-.19-.3-.4-.39-.64-.16-.57-.37-1.12-.64-1.64-.53-.47-1.06-.45-1.57.07-.33.84-.61,1.69-.85,2.56-.28-.65-.59-1.29-.93-1.92-.27-.39-.63-.67-1.07-.85-.59.66-1.11,1.37-1.57,2.14.01-3.57-.63-7.01-1.92-10.32-.03-.07-.06-.12-.11-.18-.19-.05-.36-.04-.53.04-.69,1.05-1.19,2.19-1.49,3.42-.05.09-.09.09-.14,0-.1-.53-.24-1.06-.43-1.57-.35-.8-.71-1.61-1.07-2.42-.82-2.61-1.87-5.12-3.13-7.54-.17-.44-.29-.89-.36-1.35-.08-1.22-.22-2.43-.43-3.63-.5-1.95-1-3.89-1.49-5.84-.19-.85-.34-1.7-.46-2.56,0-.11.03-.21.11-.28.47.87.92,1.75,1.35,2.63.47-.36.74-.84.82-1.42-.02-.19-.07-.37-.14-.53.08-.05.15-.04.21.04.72,1.73,1.66,3.32,2.81,4.77.96,1.15,2.1,2.07,3.42,2.78.12-.83.12-1.69,0-2.56-.27-1.67-.59-3.33-.96-4.98.31-1.2.59-2.41.82-3.63.28.82.52,1.65.71,2.49.42.64.92.72,1.49.21.35-.7.73-1.39,1.14-2.06.3-.52.53-1.07.71-1.64.27.78.58,1.54.93,2.28.35.4.79.53,1.32.39.7-.34,1.14-.9,1.32-1.67.16-.54.29-1.08.39-1.64Z"/>
    <path class="cls-11" d="M112.53,101.63c2.5.73,5.01,1.47,7.51,2.21,2.49-.74,4.98-1.47,7.47-2.21.05.08.04.15-.04.21-.34.18-.68.39-1,.61-.66.57-1.33,1.14-1.99,1.71-.41.2-.82.41-1.21.64-.29.39-.47.83-.53,1.32-.15,3.03-.67,6.02-1.57,8.97-.27.81-.61,1.59-1,2.35-.73-.51-1.2-1.2-1.42-2.06-.42-2.47-.87-4.94-1.35-7.4-.07-.83-.14-1.66-.21-2.49-.14-.36-.37-.65-.68-.89-1.05-.52-1.97-1.21-2.78-2.06-.34-.28-.72-.5-1.14-.68-.06-.06-.09-.13-.07-.21Z"/>
    <path class="cls-7" d="M128.61,103.41s.02.07.07.07c-.02.06-.06.1-.11.14-.05-.09-.04-.16.04-.21Z"/>
    <path class="cls-39" d="M112.6,119.43c.09.32.17.65.25,1,.63,3.93,1.28,7.86,1.96,11.78-.12.3-.33.52-.64.64-1.84.48-2.94-.19-3.31-2.03-.17-2.57.04-5.11.64-7.62.35-1.26.71-2.52,1.1-3.77Z"/>
    <path class="cls-39" d="M127.83,119.43c1.06,2.12,1.66,4.38,1.82,6.76.05,1.4.05,2.8,0,4.2-.23.92-.67,1.73-1.32,2.42-.69.08-1.38.09-2.06.04-.27-.07-.46-.23-.57-.46.68-4.32,1.39-8.64,2.14-12.95Z"/>
    <path class="cls-2" d="M120.29,127.68c.37.62.76,1.24,1.17,1.85.09.24.19.47.28.71.06.83.04,1.66-.07,2.49-.1.34-.32.51-.68.53-.71.04-1.42.05-2.14.04-.01-.95,0-1.9.04-2.85l1.39-2.78Z"/>
    <path class="cls-20" d="M116.66,127.83c.69.7,1.23,1.5,1.6,2.42.04,1.02.05,2.04.04,3.06-.74.02-1.47,0-2.21-.07-.74-1.26-.89-2.59-.46-3.99.39-.45.73-.92,1.03-1.42Z"/>
    <path class="cls-39" d="M123.77,127.83c.51.5.92,1.07,1.25,1.71.16,1.08.02,2.13-.43,3.13-.11.2-.26.36-.46.46-.59.1-1.18.14-1.78.11-.01-1.07,0-2.14.04-3.2.08-.22.17-.44.28-.64.39-.51.75-1.03,1.1-1.57Z"/>
  </g>
</svg>