<?xml version="1.0" encoding="UTF-8"?>
<svg id="Miami" xmlns="http://www.w3.org/2000/svg" viewBox="0 0 232.6 144.9">
  <defs>
    <style>
      .cls-1 {
        isolation: isolate;
        opacity: 1;
      }

      .cls-1, .cls-2, .cls-3 {
        fill-rule: evenodd;
        stroke-width: 0px;
      }

      .cls-2 {
        fill: #680913;
      }

      .cls-3 {
        fill: #b61729;
      }
    </style>
  </defs>
  <path class="cls-1" d="M41.66,32.88c-2.18-3.65-4.42-7.35-6.72-11.08-2.18-3.65-4.42-7.35-6.72-11.08-1.61-2.73-3.28-5.46-4.99-8.2-.1-.16-.17-.33-.18-.52,20.82.03,41.62.03,62.41,0,10.28,17.51,20.57,35.03,30.85,52.54,10.27-17.49,20.54-34.98,30.81-52.47,20.81-.05,41.61-.08,62.41-.07.05.07.05.15,0,.22-7.08,11.66-14.17,23.31-21.28,34.95-.13.11-.28.18-.44.22-1.09-.06-2.19-.09-3.29-.07-.05,23.38-.1,46.75-.15,70.13,1.28-.02,2.56,0,3.84.07,6.92,11.44,13.85,22.87,20.8,34.29.23.35.41.72.55,1.11h-92c7.04-11.81,14.16-23.57,21.36-35.29,1.28-.04,2.56-.05,3.84-.04.02-2.47-.03-4.9-.15-7.28.04-4.78.05-9.7.04-14.74-8.77,14.93-17.54,29.85-26.31,44.78-8.87-15.03-17.74-30.05-26.6-45.08-.04,7.41-.05,14.83-.04,22.24,1.27-.02,2.54,0,3.81.07,7.07,11.74,14.15,23.48,21.25,35.21-.04.05-.09.09-.15.11-30.51-.08-61.02-.08-91.52,0-.05-.07-.05-.15,0-.22,7.06-11.7,14.11-23.4,21.17-35.1,1.28-.07,2.56-.1,3.84-.07.02-23.4,0-46.8-.07-70.2-1.02.02-2.05.04-3.07.07-.21-.05-.42-.1-.63-.15-.92-1.47-1.8-2.93-2.66-4.36Z"/>
  <path class="cls-3" d="M80.24,49.21s-.03-.06-.07-.07c-.07,5.15-.1,10.3-.07,15.44.02,16.5.02,34.02,0,52.54,2.64-.01,5.27,0,7.91.04,3.15,5.13,6.29,10.27,9.42,15.41.05.07.05.15,0,.22h-56.75l-.11-.11c3.16-5.12,6.28-10.25,9.38-15.41,2.68-.07,5.37-.1,8.05-.07,0-29.71-.04-59.64-.11-89.78-2.61-.1-5.22-.1-7.83,0-3.17-5.23-6.33-10.47-9.5-15.7,13.13-.06,26.26-.05,39.39.04,12.14,20.69,24.29,41.38,36.43,62.07,12.23-20.7,24.44-41.4,36.65-62.11,13.03-.05,26.06-.05,39.09,0-3.11,5.25-6.25,10.49-9.42,15.7-2.59-.02-5.17-.05-7.76-.07-.09,1.34-.12,2.7-.11,4.06.03,26.46.08,54.26.15,83.39-.03.76-.05,1.5-.07,2.22.01.06.04.11.07.15,2.66.02,5.32.05,7.98.07,3.05,5.15,6.11,10.3,9.16,15.44-.07.03-.13.06-.18.11-18.85-.03-37.7-.03-56.53,0-.05-.04-.09-.09-.11-.15,3.09-5.15,6.19-10.28,9.31-15.41,2.71-.02,5.42-.05,8.13-.07-.04-18.17-.09-37.17-.15-56.97,0-3.42.03-6.77.07-10.05-.06-.28-.1-.56-.11-.85-12.05,20.53-24.12,41.05-36.21,61.56-12.05-20.53-24.09-41.08-36.1-61.63Z"/>
  <path class="cls-2" d="M80.24,49.21c-.05,5.12-.1,10.25-.15,15.37-.02-5.15,0-10.3.07-15.44.04,0,.07.03.07.07Z"/>
</svg>