<?xml version="1.0" encoding="UTF-8"?>
<svg id="Michigan_State" data-name="Michigan State" xmlns="http://www.w3.org/2000/svg" viewBox="0 0 232.6 144.9">
  <defs>
    <style>
      .cls-1 {
        fill: #18453b;
        stroke-width: 0px;
      }
    </style>
  </defs>
  <path class="cls-1" d="M131.65,1.88c-33.8.05-62.28,22.06-70.57,41.4-12.34,28.87.44,51.92,2.02,61.24,4.05,23.44-6.27,28.52-7.75,30.4,6.71-.39,10.71-5.23,14.06-10.81,2.62-4.84,3.9-10.41,4.24-15.99,1.48-10.41-3.06-21.81-2.66-32.27,1.14-15.64,11.94-30.2,25.32-38.39,20.08-11.89,44.02-10.71,62.28-2.32,3.7-7.8,11.05-23.54,11.05-23.54-12.88-6.91-25.81-9.72-38-9.72h0ZM127.3,33.56c-1.53,0-2.96.1-4.24.2l-.49,16.98c.69,0,1.78.2,1.78.1.2-.79.84-6.66,5.82-10.91,5.53-4.74,12.78-4.24,12.68-4.29-5.43-1.63-10.96-2.12-15.54-2.07h0ZM119.01,34.25c-.15.15-3.9.69-7.11,1.58l3.41,15.89c.15.05,3.26-.69,3.31-.69l.39-16.78ZM108.26,37.17c-2.42.69-5.63,2.07-6.42,2.62l7.11,14.11c3.6-1.23,3.6-1.28,3.6-1.18l-4.29-15.54h0ZM98.73,41.36c-2.91,1.38-4.74,2.91-5.58,3.5l10.17,12.04c0,.15,2.91-1.63,3.01-1.78l-7.6-13.77h0ZM90.44,46.94c-2.32,1.97-3.01,2.91-4.39,4.59l11.99,9.38s2.62-2.37,2.62-2.37l-10.22-11.6ZM83.98,54.29c-1.23,1.53-2.22,3.26-3.01,5.03l12.68,6.42s2.07-2.62,2.12-2.62l-11.79-8.83h0ZM124.98,56.02c-3.85,0-7.6.54-11.15,1.83-9.33,3.36-15.35,10.02-19.34,19.1-6.66,15.1,2.76,26.6,2.76,38.89.39,4.49-2.22,13.42-1.83,13.37,12.09-1.68,20.23-5.53,30.65-7.4,7.11,6.22,31.39,20.48,36.67,21.22.35.05-6.17-21.17-4.84-44.51-6.17.99-14.06-1.63-18.7-6.71,6.12-8.78,28.38-7.85,25.12,15.69-.05.35,13.13,2.62,12.93,2.32-8.29-10.17-11.75-19.74-16.58-31.58-4.64-11.35-14.11-19-26.75-21.22-2.96-.64-5.97-.99-8.93-.99h0ZM79.04,62.83c-.79,1.58-1.38,4-1.68,5.28l13.18,2.52c.35-.94.79-1.78,1.33-2.81l-12.83-4.98h0ZM76.52,71.96c-1.09,7.01-1.18,13.47-.59,16.93,0,.05,1.04-5.92,4.44-9.28,2.96-2.91,6.71-3.5,8.09-3.45,0,0,.69-2.27.59-2.27l-12.53-1.92Z"/>
</svg>