<?xml version="1.0" encoding="UTF-8"?>
<svg id="Northeastern" xmlns="http://www.w3.org/2000/svg" viewBox="0 0 232.6 144.9">
  <defs>
    <style>
      .cls-1 {
        fill: none;
        stroke: #fff;
        stroke-miterlimit: 10;
      }

      .cls-2, .cls-3 {
        stroke-width: 0px;
      }

      .cls-3 {
        fill: #fff;
      }
    </style>
  </defs>
  <g>
    <path class="cls-3" d="M161.89,65.09c1.44-.59,2.92-.93,4.48-.73,1.04.14,1.37.6,1.17,1.61-.3,1.52-1.04,2.79-2.17,4.07.12-.9.25-1.6.3-2.31.06-.74-.21-1.06-.95-.98-.66.06-1.31.24-1.93.47-.38.14-.59.1-.87-.17-.43-.41-.92-.75-1.49-1.19.51-.28.97-.57,1.46-.77Z"/>
    <path class="cls-3" d="M139.88,19.3c.51,2.9,1.12,5.7,1.46,8.53.18,1.53-.09,3.12-.32,4.67-.38-1.55-.73-3.1-1.14-4.64s-.87-3.06-1.3-4.56c-2.67,1.47-3.52,3.08-2.87,5.51.6-.26,1.22-.53,1.83-.79.06.04.13.09.19.13-.45,1.55-.27,3.06.26,4.73-.41-.23-.66-.37-.92-.51-1.61-.89-3.23-1.78-4.85-2.64-.4-.21-.56-.38-.4-.87,1.01-3.1,2.52-5.89,4.98-8.09.83-.75,1.76-1.38,3.08-1.47Z"/>
    <path class="cls-3" d="M128.98,51.21c.55.49,1.09.99,1.63,1.49-1.8,1.74-4.51,1.04-5.52-1.35,1.25-1.19,2.65-1.25,3.89-.14Z"/>
    <path class="cls-3" d="M89.64,38.51c.99.41,1.88.78,2.82,1.18.05-.17.11-.26.1-.34-.45-7.01,1.04-13.7,3.41-20.22,1.27-3.48,2.7-6.9,4.07-10.38,1.34.14,2.4.81,3.36,1.65,2.13,1.86,3.55,4.24,4.74,6.76,2.21,4.73,3.4,9.73,4.03,14.89.06.52-.12.71-.58.73-.29.01-.57.02-.85-.01-.26-.02-.51-.1-.82-.17-.71,3.49-2.63,6.15-5.55,8.22-.82-1.23-1.99-1.79-3.45-1.93.68-1.37,1.78-2.03,3.1-2.27-.49-.86-.99-1.69-1.45-2.53-.25-.45-.18-.87.05-1.35.45-.95.85-1.92,1.18-2.92.51-1.5.44-3.01-.15-4.49-.09-.23-.19-.47-.31-.78,1.62-.38,2.99.07,4.37.97-.14-1.19-.51-2.2-1.12-3.09-.52-.75-1.12-1.44-1.73-2.1-.6-.65-1.3-1.22-1.89-1.87-.58-.66-1.08-1.38-1.75-2.23-.72,1.32-1.51,2.55-2.08,3.87-2.46,5.65-3.11,11.56-2.22,17.62.34,2.33,1.05,4.6,1.59,6.9.04.16.07.31.11.51-1.33.59-2.62.54-3.78,0-.48,1.04-.89,2.09-1.44,3.06-.21.36-.69.66-1.11.78-3.02.91-5.64,2.54-7.9,4.67-2.33,2.2-4.49,4.57-6.72,6.87-.31.31-.59.66-1.03.9.68-1.43,1.33-2.89,2.06-4.31,1.9-3.73,4.18-7.19,7.4-9.94.6-.52,1.28-.93,1.86-1.47.36-.33.79-.76.88-1.21.34-1.71.55-3.44.8-5.16.03-.24,0-.5,0-.8Z"/>
    <path class="cls-3" d="M72.39,97.96c4.94,6.83,11.68,11.41,18.82,15.87,0-.83-.04-1.5.01-2.18.04-.68.17-1.36.28-2.17,6,4.38,12.42,7.64,19.55,9.46-7.76-6.09-15.24-12.45-20.67-21-.27,1.41-.54,2.82-.84,4.37-2.76-2.72-4.99-5.68-6.37-9.42-.44.92-.87,1.83-1.3,2.74-2.92-4.35-3.11-10.55.47-15.08.46,2.72,1.26,5.26,2.9,7.44.79,1.05,1.66,2.02,2.55,3.1.3-1.3.57-2.46.83-3.59,1.75,1.32,3.33,2.64,5.04,3.76,3.29,2.16,6.86,3.47,10.89,3.18,1.43-.1,2.83-.37,4.21-1.07-8.64-3.06-14.05-9.29-17.55-17.6,2.63,1.34,5.34,1.96,8.39,2.2-3.4-3.01-6.82-5.74-8.56-9.87,1.46-.53,2.88-1.04,4.37-1.58-.58-.87-1.04-1.55-1.55-2.31.76-.33,1.44-.61,2.11-.9,2.53-1.11,4.73-2.7,6.66-4.67.15-.15.32-.29.45-.45,1.22-1.52,2.82-2.07,4.71-1.9.81.08,1.62.16,2.42.29,1.29.21,2.31.85,3.08,1.92.72,1.01,1.53,1.97,2.2,3.01,1.33,2.06,3.22,2.63,5.53,2.29,2.14-.31,4.06-1.06,5.51-2.75.17-.19.3-.41.43-.6h-3.11c-1.4-.01-2.59-.55-3.64-1.47-1.4-1.22-2.79-2.48-4.28-3.59-.94-.71-2.06-1.17-3.25-1.82.75-.67,1.49-1.32,2.19-1.94-1.03-.65-2.14-1.35-3.13-1.98,1.88-1.87,3.63-3.63,5.4-5.36,1.16-1.14,2.59-1.57,4.2-1.49.21.01.42.02.73.03-.3-1.47-1.01-2.61-2.03-3.46.78-1.28,1.58-2.49,2.27-3.77,1.84-3.4,5.17-3.18,7.47-1.69,2.61,1.68,4.38,4.12,5.94,6.71.85,1.41,1.56,2.9,2.33,4.36.08.14.16.27.3.39-.13-3.27-.55-6.48-1.94-9.51,3.54,2.39,5.19,5.93,6.12,9.93.42-1.98.11-4.08,1.13-6.21.58.59,1.1,1,1.47,1.51.3.42.47.95.62,1.45.63,2.18,1.31,4.33,2.53,6.28.62.99.58,2.03-.18,3.02-.32-.39-.62-.75-1.01-1.22-.72,1.49-1.49,2.75-3.29,1.19.09,1.43.56,2.53,1.66,3.16,2.04,1.18,4.11,2.34,6.27,3.3,2.53,1.13,5.16,2.03,7.75,3.03.27.11.55.22.79.45-.49.06-.98.13-1.47.19-2.8.31-4.28,2.08-5.08,4.59-.48,1.49-.36,1.97.88,2.91,1.48,1.12,2.65,2.42,3.57,4.06.45.81,1.42,1.36,2.2,1.96.18.14.56.09.82.02.78-.23,1.54-.51,2.36-.78,0,.27.05.55-.01.81-.47,1.95-1.4,3.65-2.89,5.02-.7.64-.82.61-1.37-.12-.07-.1-.14-.19-.22-.28-.74-.85-.83-.85-1.91-.52-2.51.76-5,1.64-7.56,2.21-5.76,1.28-11.25.47-16.48-2.34-1.39-.75-2.96-1.25-4.5-1.59-2.4-.54-4.56.2-6.63,1.75,1.06.14,1.97.24,2.88.38,2.92.48,5.58,1.69,8.22,2.93,5.02,2.34,10.25,3.09,15.74,2.41,1.27-.16,2.57-.06,3.86-.02.29.01.57.27.86.42-.16.28-.27.62-.49.82-2.17,1.96-4.74,3.22-7.48,4.14-2.22.74-4.5,1.16-6.84.87-.69-.08-1.41-.31-1.99-.68-3.23-2.06-6.67-3.56-10.51-3.95-3.07-.3-5.97.2-8.55,1.99-.1.07-.18.14-.47.37,3.8-.02,6.89,1.18,9.37,4.07-1.69.27-2.89,1.15-3.68,2.64.27.23.55.45.82.68,3.56,3.07,4.94,7,4.58,11.6-.27,3.49-1.42,6.72-2.99,9.82-.15.3-.3.59-.46.89.05.05.09.11.14.16,4.59-1.57,8.13-4.63,11.36-8.46v4.19c1.59-1.57,2.89-3.23,3.71-5.46.42,1.72.28,3.2-.06,4.66-.9,3.92-2.9,7.28-5.41,10.45v-3.83s-.1-.05-.15-.07c-.18.2-.36.41-.53.62-3.87,4.71-8.39,8.63-13.88,11.37-3.02,1.51-3.04,1.51-6.07,0-7.09-3.57-13.53-8.12-19.63-13.16-.25-.21-.51-.42-.76-.63-.09.02-.17.05-.26.07v5.54c-.07.02-.14.05-.22.07-1.16-.94-2.33-1.87-3.48-2.83-3.29-2.75-6.49-5.58-9.38-8.76-3.39-3.74-5.7-8.06-7.28-12.82-.21-.63-.42-1.27-.62-1.9-.02-.04,0-.09.06-.26ZM137.81,60.5c.87-1.44,1.59-2.97,1.26-4.79-.11-.59-.39-1.05-1.04-1.24-.28-.09-.52-.35-.68-.46.36-.78.67-1.45.95-2.06-.18-.15-.2-.18-.22-.18-.09.01-.18.03-.28.05-1.86.28-3.46-.13-4.69-1.66-.54-.67-1.14-1.29-1.73-1.91-1.03-1.08-2.17-2.03-3.59-2.57-.22-.09-.46-.13-.7-.2.09.62.16,1.13.24,1.74-3.11-.99-6.64,1-8.9,3.3,1.17.91,2.37,1.81,3.54,2.74.76.61,1.44,1.35,2.26,1.87.74.48,1.59.91,2.44,1.07,1.4.27,2.88.17,4.15-.49,1.12-.58,1.95-.25,2.81.36.58.41,1.2.82,1.67,1.34.87.97,1.65,2.02,2.51,3.09Z"/>
    <path class="cls-2" d="M138.58,23.3c.43,1.5.89,3.02,1.3,4.56s.76,3.09,1.14,4.64c.23-1.55.5-3.14.32-4.67-.34-2.83-.95-5.63-1.46-8.53-1.32.09-2.25.72-3.08,1.47-2.46,2.2-3.97,4.99-4.98,8.09-.16.49,0,.66.4.87,1.62.86,3.24,1.75,4.85,2.64.26.14.51.28.92.51-.53-1.67-.71-3.18-.26-4.73-.06-.04-.13-.09-.19-.13-.61.26-1.23.53-1.83.79-.65-2.43.2-4.04,2.87-5.51ZM95.97,19.13c-2.37,6.52-3.86,13.21-3.41,20.22.01.08-.05.17-.1.34-.94-.4-1.83-.77-2.82-1.18,0,.3.03.56,0,.8-.25,1.72-.46,3.45-.8,5.16-.09.45-.52.88-.88,1.21-.58.54-1.26.95-1.86,1.47-3.22,2.75-5.5,6.21-7.4,9.94-.73,1.42-1.38,2.88-2.06,4.31.44-.24.72-.59,1.03-.9,2.23-2.3,4.39-4.67,6.72-6.87,2.26-2.13,4.88-3.76,7.9-4.67.42-.12.9-.42,1.11-.78.55-.97.96-2.02,1.44-3.06,1.16.55,2.45.6,3.78,0-.04-.2-.07-.35-.11-.51-.54-2.3-1.25-4.57-1.59-6.9-.89-6.06-.24-11.97,2.22-17.62.57-1.32,1.36-2.55,2.08-3.87.67.85,1.17,1.57,1.75,2.23.59.65,1.29,1.22,1.89,1.87.61.66,1.21,1.35,1.73,2.1.61.89.98,1.9,1.12,3.09-1.38-.9-2.75-1.35-4.37-.97.12.31.22.55.31.78.59,1.48.66,2.99.15,4.49-.33,1-.73,1.97-1.18,2.92-.23.48-.3.9-.05,1.35.46.84.96,1.67,1.45,2.53-1.32.24-2.42.9-3.1,2.27,1.46.14,2.63.7,3.45,1.93,2.92-2.07,4.84-4.73,5.55-8.22.31.07.56.15.82.17.28.03.56.02.85.01.46-.02.64-.21.58-.73-.63-5.16-1.82-10.16-4.03-14.89-1.19-2.52-2.61-4.9-4.74-6.76-.96-.84-2.02-1.51-3.36-1.65-1.37,3.48-2.8,6.9-4.07,10.38ZM94.33,119.48c6.1,5.04,12.54,9.59,19.63,13.16,3.03,1.52,3.05,1.52,6.07,0,5.49-2.74,10.01-6.66,13.88-11.37.17-.21.35-.42.53-.62.05.02.1.04.15.07v3.83c2.51-3.17,4.51-6.53,5.41-10.45.34-1.46.48-2.94.06-4.66-.82,2.23-2.12,3.89-3.71,5.46v-4.19c-3.23,3.83-6.77,6.89-11.36,8.46-.05-.05-.09-.11-.14-.16.16-.3.31-.59.46-.89,1.57-3.1,2.72-6.33,2.99-9.82.36-4.6-1.02-8.53-4.58-11.6-.27-.23-.55-.45-.82-.68.79-1.49,1.99-2.37,3.68-2.64-2.48-2.89-5.57-4.09-9.37-4.07.29-.23.37-.3.47-.37,2.58-1.79,5.48-2.29,8.55-1.99,3.84.39,7.28,1.89,10.51,3.95.58.37,1.3.6,1.99.68,2.34.29,4.62-.13,6.84-.87,2.74-.92,5.31-2.18,7.48-4.14.22-.2.33-.54.49-.82-.29-.15-.57-.41-.86-.42-1.29-.04-2.59-.14-3.86.02-5.49.68-10.72-.07-15.74-2.41-2.64-1.24-5.3-2.45-8.22-2.93-.91-.14-1.82-.24-2.88-.38,2.07-1.55,4.23-2.29,6.63-1.75,1.54.34,3.11.84,4.5,1.59,5.23,2.81,10.72,3.62,16.48,2.34,2.56-.57,5.05-1.45,7.56-2.21,1.08-.33,1.17-.33,1.91.52.08.09.15.18.22.28.55.73.67.76,1.37.12,1.49-1.37,2.42-3.07,2.89-5.02.06-.26.01-.54.01-.81-.82.27-1.58.55-2.36.78-.26.07-.64.12-.82-.02-.78-.6-1.75-1.15-2.2-1.96-.92-1.64-2.09-2.94-3.57-4.06-1.24-.94-1.36-1.42-.88-2.91.8-2.51,2.28-4.28,5.08-4.59.49-.06.98-.13,1.47-.19-.24-.23-.52-.34-.79-.45-2.59-1-5.22-1.9-7.75-3.03-2.16-.96-4.23-2.12-6.27-3.3-1.1-.63-1.57-1.73-1.66-3.16,1.8,1.56,2.57.3,3.29-1.19.39.47.69.83,1.01,1.22.76-.99.8-2.03.18-3.02-1.22-1.95-1.9-4.1-2.53-6.28-.15-.5-.32-1.03-.62-1.45-.37-.51-.89-.92-1.47-1.51-1.02,2.13-.71,4.23-1.13,6.21-.93-4-2.58-7.54-6.12-9.93,1.39,3.03,1.81,6.24,1.94,9.51-.14-.12-.22-.25-.3-.39-.77-1.46-1.48-2.95-2.33-4.36-1.56-2.59-3.33-5.03-5.94-6.71-2.3-1.49-5.63-1.71-7.47,1.69-.69,1.28-1.49,2.49-2.27,3.77,1.02.85,1.73,1.99,2.03,3.46-.31-.01-.52-.02-.73-.03-1.61-.08-3.04.35-4.2,1.49-1.77,1.73-3.52,3.49-5.4,5.36.99.63,2.1,1.33,3.13,1.98-.7.62-1.44,1.27-2.19,1.94,1.19.65,2.31,1.11,3.25,1.82,1.49,1.11,2.88,2.37,4.28,3.59,1.05.92,2.24,1.46,3.64,1.47h3.11c-.13.19-.26.41-.43.6-1.45,1.69-3.37,2.44-5.51,2.75-2.31.34-4.2-.23-5.53-2.29-.67-1.04-1.48-2-2.2-3.01-.77-1.07-1.79-1.71-3.08-1.92-.8-.13-1.61-.21-2.42-.29-1.89-.17-3.49.38-4.71,1.9-.13.16-.3.3-.45.45-1.93,1.97-4.13,3.56-6.66,4.67-.67.29-1.35.57-2.11.9.51.76.97,1.44,1.55,2.31-1.49.54-2.91,1.05-4.37,1.58,1.74,4.13,5.16,6.86,8.56,9.87-3.05-.24-5.76-.86-8.39-2.2,3.5,8.31,8.91,14.54,17.55,17.6-1.38.7-2.78.97-4.21,1.07-4.03.29-7.6-1.02-10.89-3.18-1.71-1.12-3.29-2.44-5.04-3.76-.26,1.13-.53,2.29-.83,3.59-.89-1.08-1.76-2.05-2.55-3.1-1.64-2.18-2.44-4.72-2.9-7.44-3.58,4.53-3.39,10.73-.47,15.08.43-.91.86-1.82,1.3-2.74,1.38,3.74,3.61,6.7,6.37,9.42.3-1.55.57-2.96.84-4.37,5.43,8.55,12.91,14.91,20.67,21-7.13-1.82-13.55-5.08-19.55-9.46-.11.81-.24,1.49-.28,2.17-.05.68-.01,1.35-.01,2.18-7.14-4.46-13.88-9.04-18.82-15.87-.05.17-.08.22-.06.26.2.63.41,1.27.62,1.9,1.58,4.76,3.89,9.08,7.28,12.82,2.89,3.18,6.09,6.01,9.38,8.76,1.15.96,2.32,1.89,3.48,2.83.08-.02.15-.05.22-.07v-5.54c.09-.02.17-.05.26-.07.25.21.51.42.76.63ZM170.47,62.44c.81.42,1.08,1.08.97,2.07-.32,2.78-1.33,5.21-3.2,7.3-.28.32-.48.83-.49,1.26-.13,4.02-1.87,7.36-4.33,10.4-.62.76-1.34,1.43-1.99,2.16-.55.63-1.25.88-2.05.81-.86-.07-1.42.26-1.93.94-2.82,3.79-6.65,6.12-11.11,7.48-.57.18-1.14.39-1.7.58-.06.02-.11.06-.11.06.18,1.12.45,2.19.5,3.26.08,1.58-.66,2.96-1.29,4.36-.14.33-.26.77-.17,1.08,1.66,5.63.8,11.01-1.48,16.29-2.61,6.05-5.97,11.6-10.59,16.34-.58.6-1.22,1.13-1.84,1.7-.14.12-.29.24-.5.41.1-1.87.19-3.66.3-5.63-.27.21-.38.27-.47.36-3.14,3.16-6.78,5.6-10.76,7.53-.27.13-.59.18-.89.21-.26.04-.53-.02-.79.02-2.2.3-4.07-.45-5.94-1.55-3.93-2.31-7.81-4.65-11.21-7.71-.37-.34-.75-.67-1.12-1.01-.01-.01-.04-.01-.26-.06.1,2.84.19,5.63.28,8.5-1.06-.72-2.11-1.42-3.14-2.14-5.46-3.8-10.84-7.71-15.81-12.14-5.47-4.86-10.32-10.24-13.89-16.69-1.78-3.23-3.2-6.62-4.24-10.17-.1-.35-.1-.76-.05-1.13.49-4.01.96-8.02,1.51-12.02.56-4.16.88-8.32.38-12.51-.08-.63.06-1.13.43-1.66,2.53-3.62,4.53-7.54,6.59-11.42,1.6-3.02,3.2-6.05,4.94-8.99,1.79-3.02,4.19-5.51,7.09-7.51.45-.32.65-.67.74-1.21.39-2.29.77-4.57,1.25-6.84.74-3.53,2.21-6.76,4.22-9.74,2.32-3.43,3.99-7.19,5.52-11,1.36-3.39,2.56-6.85,3.82-10.28.32-.86.3-.86,1.21-.57,5.57,1.8,9.47,5.5,12.1,10.65,1.67,3.28,2.72,6.77,3.49,10.35.04.16.09.32.14.5.17-.01.31,0,.44-.02,3.25-.8,6.39-.29,9.4.97,1.15.48,1.93.42,2.69-.56.3-.39.71-.72,1.13-.99,2.51-1.62,4.25-4.05,6.43-6.01,1.76-1.57,3.58-3.05,5.95-3.6.57-.14,1.17-.16,1.67-.22.43,2.38.86,4.65,1.24,6.93.35,2.07.85,4.15.88,6.23.04,2.38-.33,4.76-.6,7.13-.06.57-.04.91.53,1.19,2.49,1.22,4.09,3.14,4.75,5.87.39,1.62.87,3.24,1.79,4.66,1.6,2.47,1.8,4.94-.13,7.51,1.1.51,2.07,1.01,3.08,1.4,4.06,1.58,8.14,3.09,12.18,4.7,1.53.61,2.98,1.41,4.44,2.17ZM167.54,65.97c.2-1.01-.13-1.47-1.17-1.61-1.56-.2-3.04.14-4.48.73-.49.2-.95.49-1.46.77.57.44,1.06.78,1.49,1.19.28.27.49.31.87.17.62-.23,1.27-.41,1.93-.47.74-.08,1.01.24.95.98-.05.71-.18,1.41-.3,2.31,1.13-1.28,1.87-2.55,2.17-4.07Z"/>
    <path class="cls-2" d="M125.09,51.35c1.01,2.39,3.72,3.09,5.52,1.35-.54-.5-1.08-1-1.63-1.49-1.24-1.11-2.64-1.05-3.89.14ZM127.33,47.22c-.08-.61-.15-1.12-.24-1.74.24.07.48.11.7.2,1.42.54,2.56,1.49,3.59,2.57.59.62,1.19,1.24,1.73,1.91,1.23,1.53,2.83,1.94,4.69,1.66.1-.02.19-.04.28-.05.02,0,.04.03.22.18-.28.61-.59,1.28-.95,2.06.16.11.4.37.68.46.65.19.93.65,1.04,1.24.33,1.82-.39,3.35-1.26,4.79-.86-1.07-1.64-2.12-2.51-3.09-.47-.52-1.09-.93-1.67-1.34-.86-.61-1.69-.94-2.81-.36-1.27.66-2.75.76-4.15.49-.85-.16-1.7-.59-2.44-1.07-.82-.52-1.5-1.26-2.26-1.87-1.17-.93-2.37-1.83-3.54-2.74,2.26-2.3,5.79-4.29,8.9-3.3Z"/>
  </g>
  <path class="cls-1" d="M114.6,25.08c.17-.01.31,0,.44-.02,3.25-.8,6.39-.29,9.4.97,1.15.48,1.93.42,2.69-.56.3-.39.71-.72,1.13-.99,2.51-1.62,4.25-4.05,6.43-6.01,1.76-1.57,3.58-3.05,5.95-3.6.57-.14,1.17-.16,1.67-.22.43,2.38.86,4.65,1.24,6.93.35,2.07.85,4.15.88,6.23.04,2.38-.33,4.76-.6,7.13-.06.57-.04.91.53,1.19,2.49,1.22,4.09,3.14,4.75,5.87.39,1.62.87,3.24,1.79,4.66,1.6,2.47,1.8,4.94-.13,7.51,1.1.51,2.07,1.01,3.08,1.4,4.06,1.58,8.14,3.09,12.18,4.7,1.53.61,2.98,1.41,4.44,2.17.81.42,1.08,1.08.97,2.07-.32,2.78-1.33,5.21-3.2,7.3-.28.32-.48.83-.49,1.26-.13,4.02-1.87,7.36-4.33,10.4-.62.76-1.34,1.43-1.99,2.16-.55.63-1.25.88-2.05.81-.86-.07-1.42.26-1.93.94-2.82,3.79-6.65,6.12-11.11,7.48-.57.18-1.14.39-1.7.58-.06.02-.11.06-.11.06.18,1.12.45,2.19.5,3.26.08,1.58-.66,2.96-1.29,4.36-.14.33-.26.77-.17,1.08,1.66,5.63.8,11.01-1.48,16.29-2.61,6.05-5.97,11.6-10.59,16.34-.58.6-1.22,1.13-1.84,1.7-.14.12-.29.24-.5.41.1-1.87.19-3.66.3-5.63-.27.21-.38.27-.47.36-3.14,3.16-6.78,5.6-10.76,7.53-.27.13-.59.18-.89.21-.26.04-.53-.02-.79.02-2.2.3-4.07-.45-5.94-1.55-3.93-2.31-7.81-4.65-11.21-7.71-.37-.34-.75-.67-1.12-1.01-.01-.01-.04-.01-.26-.06.1,2.84.19,5.63.28,8.5-1.06-.72-2.11-1.42-3.14-2.14-5.46-3.8-10.84-7.71-15.81-12.14-5.47-4.86-10.32-10.24-13.89-16.69-1.78-3.23-3.2-6.62-4.24-10.17-.1-.35-.1-.76-.05-1.13.49-4.01.96-8.02,1.51-12.02.56-4.16.88-8.32.38-12.51-.08-.63.06-1.13.43-1.66,2.53-3.62,4.53-7.54,6.59-11.42,1.6-3.02,3.2-6.05,4.94-8.99,1.79-3.02,4.19-5.51,7.09-7.51.45-.32.65-.67.74-1.21.39-2.29.77-4.57,1.25-6.84.74-3.53,2.21-6.76,4.22-9.74,2.32-3.43,3.99-7.19,5.52-11,1.36-3.39,2.56-6.85,3.82-10.28.32-.86.3-.86,1.21-.57,5.57,1.8,9.47,5.5,12.1,10.65,1.67,3.28,2.72,6.77,3.49,10.35.04.16.09.32.14.5Z"/>
</svg>