<?xml version="1.0" encoding="UTF-8"?>
<svg id="North_Dakota" data-name="North Dakota" xmlns="http://www.w3.org/2000/svg" viewBox="0 0 232.6 144.9">
  <defs>
    <style>
      .cls-1 {
        fill: #fcc320;
      }

      .cls-1, .cls-2, .cls-3, .cls-4, .cls-5, .cls-6, .cls-7, .cls-8, .cls-9, .cls-10, .cls-11, .cls-12, .cls-13, .cls-14, .cls-15, .cls-16, .cls-17, .cls-18, .cls-19, .cls-20, .cls-21, .cls-22, .cls-23, .cls-24, .cls-25, .cls-26, .cls-27, .cls-28, .cls-29, .cls-30, .cls-31, .cls-32, .cls-33, .cls-34, .cls-35 {
        fill-rule: evenodd;
        stroke-width: 0px;
      }

      .cls-2 {
        fill: #e01233;
      }

      .cls-3 {
        fill: #dfac40;
      }

      .cls-4 {
        fill: #00a15f;
      }

      .cls-5 {
        fill: #de1233;
      }

      .cls-6 {
        fill: #fdfdfc;
      }

      .cls-7 {
        fill: #fec420;
      }

      .cls-8 {
        fill: #01a15f;
      }

      .cls-9 {
        fill: #ababaa;
      }

      .cls-10 {
        fill: #00a05f;
      }

      .cls-11 {
        fill: #f6f6f6;
      }

      .cls-12 {
        fill: #999492;
      }

      .cls-13 {
        fill: #fdc320;
      }

      .cls-14 {
        fill: #040403;
      }

      .cls-15 {
        fill: #009e5d;
      }

      .cls-16 {
        fill: #3a312b;
      }

      .cls-17 {
        opacity: .89;
      }

      .cls-17, .cls-21, .cls-34 {
        isolation: isolate;
      }

      .cls-18 {
        fill: #c4937e;
      }

      .cls-19 {
        fill: #faf9f9;
      }

      .cls-20 {
        fill: #fcfbfb;
      }

      .cls-21 {
        opacity: .87;
      }

      .cls-22 {
        fill: #fdfdfd;
      }

      .cls-23 {
        fill: #050504;
      }

      .cls-24 {
        fill: #fbfbfb;
      }

      .cls-25 {
        fill: #e21233;
      }

      .cls-26 {
        fill: #a1a09f;
      }

      .cls-27 {
        fill: #fefefe;
      }

      .cls-28 {
        fill: #87827f;
      }

      .cls-29 {
        fill: #f8f8f8;
      }

      .cls-30 {
        fill: #fdfcfc;
      }

      .cls-31 {
        fill: #fdc420;
      }

      .cls-32 {
        fill: #050403;
      }

      .cls-33 {
        fill: #f9f9f9;
      }

      .cls-34 {
        fill: #010100;
        opacity: 1;
      }

      .cls-35 {
        fill: #fcfcfc;
      }
    </style>
  </defs>
  <path class="cls-34" d="M119.74,1.99h.55c5.17,1.83,10.36,3.65,15.55,5.47,5.23,2.5,10.46,5,15.69,7.5.46.41.94.79,1.44,1.14,1.42-.63,2.83-1.28,4.23-1.93-.09-3.42-.16-6.83-.21-10.25,1.05,1.93,2.11,3.85,3.17,5.78.3-1.96.64-3.91,1-5.85.37.29.72.58,1.07.89-.06,1.61-.15,3.21-.28,4.82,1-.93,1.97-1.88,2.92-2.86.07-.04.12-.03.17.03.15.24.25.49.28.76-1.35,3.35-2.69,6.69-4.03,10.05.24,1.23.46,2.47.65,3.72,1.33,2.48,2.66,4.95,3.99,7.43,3.63,15.62,6.18,31.41,7.67,47.38-.78,2.79-1.72,5.52-2.82,8.19,5.57.21,11.15.41,16.72.62-7.73,6.26-15.25,12.77-22.57,19.54-1.48,1.43-2.96,2.87-4.44,4.3-1.88,3.3-3.58,6.69-5.09,10.18-2.02,4.67-3.84,9.42-5.47,14.24-5.57-.79-11.16-1.2-16.76-1.24-2.39-.09-4.67-.13-6.85-.1-6.4.61-12.67,1.91-18.78,3.89-.15-.05-.28-.14-.38-.28-.7-.84-1.39-1.68-2.06-2.55-.1-.13-.23-.23-.38-.28-9.09,3.43-18.18,6.87-27.25,10.32h-.62c1.23-4.39,2.85-8.63,4.85-12.73,2.45-4.96,5.15-9.76,8.12-14.38.13-.15.28-.28.45-.38,2.92-1.66,5.84-3.33,8.74-5.02-.58-.18-1.18-.27-1.79-.28-2.8,1.61-5.6,3.21-8.39,4.82-2.57,3.8-4.9,7.75-6.98,11.87-.53-.48-1.06-.96-1.58-1.44-.32.41-.64.83-.96,1.24-.05.07-.11.08-.17.03-5.73-3.72-11.47-7.43-17.2-11.15-.12-.05-.18-.13-.17-.24.72-.95,1.45-1.89,2.2-2.82.05-.09.05-.18,0-.28-1.76-2.06-3.5-4.15-5.2-6.26,3.96-3.01,7.95-5.98,11.97-8.91-.54-.54-1.08-1.08-1.62-1.62.06-1.29.16-2.57.28-3.85-.77-.61-1.56-1.2-2.37-1.75-.1-.07-.17-.16-.21-.28.36-1.82.69-3.65,1-5.47-2.69,2.43-5.39,4.84-8.12,7.22-2.35-2.51-4.72-5-7.12-7.47.7-.57,1.41-1.12,2.13-1.65-3.21-2.68-6.42-5.37-9.63-8.05,6.73-4.03,13.46-8.06,20.2-12.08.31-.74.56-1.5.76-2.27-4.11,1.82-8.23,3.63-12.35,5.44-.02-.03-.05-.07-.07-.1.7-2.31,1.42-4.61,2.13-6.92-.33-.02-.65.05-.96.21-.02-.02-.05-.05-.07-.07,2.93-8.05,5.84-16.1,8.74-24.15,4.74-3.49,9.49-6.96,14.24-10.42-1.17-1.15-2.32-2.32-3.44-3.51,4.24-3.05,8.49-6.1,12.73-9.15,2.84-1.28,5.76-2.38,8.74-3.3,7.9-2.38,15.9-4.3,24.01-5.75Z"/>
  <path class="cls-29" d="M119.81,2.68c4.58,1.5,9.14,3.06,13.69,4.68-.26.25-.55.46-.86.62-4.77-1.62-9.53-3.27-14.28-4.95.05-.02.09-.05.14-.07.45-.09.88-.18,1.31-.28Z"/>
  <path class="cls-33" d="M113.34,4.4c.12-.01.23,0,.34.03,1.73.81,3.45,1.63,5.16,2.48-.51.21-1.03.4-1.55.58-1.84-.82-3.66-1.68-5.47-2.58.51-.17,1.02-.34,1.51-.52Z"/>
  <path class="cls-24" d="M125.25,9.49c.28-.01.55,0,.83.03,5.63,2.96,11.25,5.95,16.86,8.95-.25.21-.5.41-.76.62-6.68-3.03-13.33-6.13-19.95-9.29,1.02-.09,2.03-.19,3.03-.31Z"/>
  <path class="cls-29" d="M93.66,9.49c.09-.01.19,0,.28.03,2.53,1.49,5.08,2.95,7.64,4.4-3.39-1.14-6.76-2.35-10.11-3.61.74-.29,1.47-.57,2.2-.83Z"/>
  <path class="cls-24" d="M162.54,9.76s.06.05.07.1c-.46,1.27-.91,2.54-1.34,3.82-.8,1.12-1.61,2.25-2.41,3.37-.47-.78-.88-1.59-1.24-2.41,1.64-1.64,3.28-3.27,4.92-4.89Z"/>
  <path class="cls-35" d="M82.51,15.48c5.33-.14,10.66.05,15.96.58,3.78.39,7.48,1.16,11.08,2.34.63.26,1.25.53,1.86.83-.63.19-1.27.34-1.93.45-10.9-2.55-21.79-2.56-32.68-.03,1.93-1.36,3.84-2.74,5.71-4.16Z"/>
  <path class="cls-27" d="M126.97,58.34c.02-.13-.02-.25-.1-.34-.03.27-.05.55-.03.83-.16,3.1-.31,6.19-.45,9.29-.61.61-1.22,1.22-1.82,1.82-1.48,1.16-2.93,2.34-4.37,3.54.18-4.75.41-9.5.69-14.24,2.69-2.95,5.36-5.91,8.02-8.88.89-.97,1.8-1.93,2.72-2.89.04-.08.02-.15-.07-.21-.07.02-.14.05-.21.07-2.41-.16-4.83-.28-7.26-.34,8.4-8.74,16.82-17.46,25.25-26.18-1.1.01-2.16,0-3.17-.03,2.71-1.27,5.44-2.54,8.19-3.78.28.36.51.75.69,1.17-1.82,2.36-3.67,4.68-5.57,6.98,1.86-1.33,3.7-2.69,5.54-4.09.01.02.02.05.03.07-1.62,6.38-3.23,12.75-4.85,19.13-1.73,2.62-3.58,5.14-5.57,7.57-2.47,2.98-4.99,5.91-7.57,8.81-.34-2.3-.68-4.59-1.03-6.88-.14,2.85-.3,5.69-.48,8.53-2.4,2.69-4.87,5.33-7.4,7.91-.4-2.61-.79-5.23-1.17-7.84Z"/>
  <path class="cls-22" d="M132.26,71.69c.98-2.89,2.03-5.76,3.13-8.6.95-1.87,1.88-3.75,2.79-5.64.1-.03.14-.1.14-.21,3.97-4.39,7.72-8.96,11.25-13.69.62-.92,1.24-1.83,1.86-2.75,2.21-6.98,4.38-13.98,6.5-20.99.07-.01.14,0,.21.03.38.29.77.57,1.17.83.04.1.07.2.07.31-1.24,7.91-2.47,15.82-3.68,23.74-.49,1.45-1.03,2.89-1.62,4.3-2.46,1.27-4.92,2.55-7.36,3.85.09.05.18.05.28,0,2.15-.66,4.31-1.28,6.47-1.86-.97,2.62-1.93,5.25-2.89,7.88-3.51,1.85-7.02,3.69-10.53,5.54,3.07-.86,6.15-1.74,9.22-2.65.05.02.09.05.14.07-3.03,7.05-6.08,14.09-9.15,21.12-.05-.04-.08-.08-.1-.14-.43-1.39-.88-2.78-1.34-4.16,1.21-3.49,2.45-6.96,3.72-10.42-.21-.04-.41,0-.62.1-3.22,1.09-6.43,2.21-9.63,3.34Z"/>
  <path class="cls-24" d="M92.42,20.57c5.94.14,11.76,1.04,17.48,2.72,3.37,1.01,6.51,2.47,9.43,4.4.89.63,1.71,1.34,2.48,2.13-7.44-3.97-15.4-6.24-23.88-6.81-1.19-.02-2.39-.05-3.58-.07-.64-.8-1.28-1.59-1.93-2.37Z"/>
  <path class="cls-31" d="M146.16,20.77c1.01.03,2.06.05,3.17.03-8.43,8.72-16.85,17.45-25.25,26.18-1.01.94-1.97,1.93-2.89,2.96-1.13,1.14-2.26,2.3-3.37,3.47-1.12.05-2.25.05-3.37,0,10.54-10.86,21.07-21.73,31.58-32.62.04-.03.09-.04.14-.03Z"/>
  <path class="cls-18" d="M103.36,36.46c-2.25,4.07-4.49,8.15-6.71,12.25-.17.28-.29.58-.38.89.4.14.79.3,1.17.48,1.9.91,3.81,1.81,5.71,2.72-1.41.72-2.81,1.45-4.2,2.2.44.38.88.76,1.31,1.14-3.71,2.18-7.42,4.35-11.15,6.5,1.26.11,2.52.18,3.78.21,3.53-1.38,7.06-2.75,10.6-4.09.42.44.88.83,1.38,1.17-2.65,1.29-5.31,2.56-7.98,3.82.96.2,1.92.31,2.89.34,1.15-.34,2.29-.67,3.44-1-.85.86-1.69,1.73-2.51,2.61-4.33,7.44-8.68,14.87-13.04,22.29.27.08.55.09.83.03,5.55-.51,11.11-1.05,16.65-1.62.64-2.36,1.27-4.72,1.89-7.09.48-.34.95-.68,1.41-1.03.02.03.05.07.07.1-.38,2.35-.71,4.7-1,7.05,5.56-4.51,11.12-9.01,16.69-13.52.09-.05.18-.05.28,0,1.23.6,2.45,1.22,3.65,1.86-1.03,3.15-2,6.31-2.89,9.5.02.03.05.07.07.1,1.65-.53,3.3-1.02,4.95-1.48-1.91,1.41-3.83,2.82-5.75,4.23-.29,1.03-.56,2.06-.79,3.1-1.2-1.95-2.41-3.9-3.61-5.85,0,.19.05.37.14.55,1.06,2.33,2.11,4.67,3.13,7.02-.47,1.95-.85,3.93-1.14,5.92-1.96-4.16-3.89-8.34-5.81-12.52-.92.06-1.83.18-2.75.34-.05.02-.09.05-.14.07,1.14,2.08,2.27,4.16,3.37,6.26-.84,2.24-1.72,4.46-2.61,6.67-6.28,3.51-12.56,7.01-18.85,10.49-3.3,1.28-6.61,2.57-9.91,3.85-3.26-.18-6.52-.43-9.77-.76-.58-.38-1.14-.78-1.69-1.2-.31-1.96-.62-3.92-.93-5.88.56-1.79,1.16-3.57,1.79-5.33-1.35-1.37-2.7-2.74-4.03-4.13-.05-.91.05-1.79.31-2.65,1.95-.73,3.9-1.45,5.85-2.17.41.3.79.65,1.14,1.03.48-.64.92-1.29,1.34-1.96-.52-.56-1.08-1.08-1.69-1.55-.13.28-.22.58-.28.89-2.1.82-4.21,1.62-6.33,2.41-.87-.65-1.73-1.3-2.58-1.96.67-3.56,1.34-7.13,2-10.7-2.25.02-4.5,0-6.74-.07-.58-.74-1.16-1.48-1.72-2.24,2.02-5.67,4.03-11.35,6.02-17.03,1.31-2.16,2.61-4.31,3.92-6.47.01-.44.05-.87.1-1.31.65.32,1.3.65,1.93,1-.67,1.36-1.34,2.72-2,4.09l.07.07c.51-.17,1-.38,1.48-.62.49-1.01.98-2.02,1.48-3.03.09.05.18.09.28.14.09.37.18.73.28,1.1-.28.56-.6,1.1-.96,1.62.46-.06.92-.17,1.38-.31.29.92.65,1.82,1.1,2.68-.33.27-.68.54-1.03.79.53.05,1.06.11,1.58.17.3.46.6.92.89,1.38-1.27.99-2.55,1.97-3.85,2.92.62.21,1.25.38,1.89.52.14-.02.27-.08.38-.17,1.16-.87,2.3-1.75,3.44-2.65-.47-.67-.93-1.34-1.38-2.03,1.52-.96,3.04-1.94,4.54-2.92.85.22,1.69.42,2.55.62.31-.13.6-.28.89-.45.09-.07.09-.14,0-.21-.48-.31-.97-.62-1.44-.93,1-.05,2.01-.09,3.03-.14,0-.04-.03-.06-.07-.07-.31-.43-.63-.86-.96-1.27-2.61-.1-5.23-.18-7.84-.24-.03-.3-.08-.6-.14-.89-1.24-.09-2.48-.2-3.72-.34.72-1.32,1.45-2.63,2.2-3.92,3.45-1.14,6.91-2.29,10.36-3.44.05-.09.05-.18,0-.28-.83-1.96-1.65-3.94-2.44-5.92,1.7-2.36,3.39-4.72,5.09-7.09-.46-.42-.9-.86-1.34-1.31-1.79,2.83-3.57,5.68-5.33,8.53.83,1.81,1.63,3.63,2.41,5.47-.02.03-.05.07-.07.1-2.72.41-5.45.78-8.19,1.14-.75.8-1.54,1.54-2.37,2.24-.21-.09-.43-.17-.65-.24.48-.57.96-1.15,1.44-1.72-.55,0-1.09.08-1.62.24-.33.7-.61,1.41-.86,2.13-.32.05-.65.05-.96,0,.19-.36.4-.72.62-1.07-.93.72-1.85,1.48-2.75,2.27-.05.05-.09.05-.14,0-.23-.51-.44-1.03-.65-1.55-.05-.87-.05-1.74,0-2.61,1-2.41,2-4.82,3.03-7.22.91-3.05,1.82-6.1,2.75-9.15,1.12-1.51,2.25-3.03,3.37-4.54.14-.15.31-.26.52-.31,2.37-.84,4.73-1.67,7.09-2.48,5.31,5.09,10.59,10.22,15.83,15.38Z"/>
  <path class="cls-22" d="M159.79,72.31c-1.14-5.01-1.97-10.08-2.48-15.21.39-3.88.79-7.75,1.2-11.63.13-4.34.26-8.67.41-13,.4-2.64.82-5.28,1.27-7.91.27-.15.53-.31.79-.48.21,2.41.44,4.82.69,7.22.13-2.23.3-4.45.52-6.67.82,1.57,1.66,3.13,2.51,4.68.98,4.2,1.85,8.42,2.61,12.66-1.23-.75-2.48-1.45-3.75-2.1,1.34,1.16,2.68,2.32,4.03,3.47.75,3.63,1.37,7.28,1.86,10.94-1.59-.91-3.18-1.8-4.78-2.65,1.71,1.48,3.42,2.96,5.13,4.44.42,2.74.82,5.48,1.2,8.22-.02.09-.07.11-.14.07-2.1-1.84-4.21-3.66-6.33-5.47-.09,2.98-.18,5.96-.24,8.95-1.49,1.5-3,3-4.51,4.47Z"/>
  <path class="cls-32" d="M86.99,27.66c.43.41.85.86,1.24,1.34-1.78,2.83-3.56,5.67-5.33,8.5-.15-.21-.22-.44-.21-.69,1.47-3.03,2.9-6.08,4.3-9.15Z"/>
  <path class="cls-6" d="M101.3,29.58c7.68.37,15.06,2.01,22.16,4.92,1.71.74,3.36,1.59,4.95,2.55-.56.63-1.14,1.24-1.75,1.82-3.53-1.8-7.23-3.11-11.11-3.96-3.85-.87-7.75-1.45-11.7-1.72-.89-1.18-1.74-2.38-2.55-3.61Z"/>
  <path class="cls-4" d="M73.02,34.05s.06.03.07.07c-.31.96-.59,1.92-.86,2.89-1.05,2.47-2.08,4.95-3.1,7.43-.07,1.02-.09,2.07-.07,3.17.53,1.25,1.02,2.51,1.48,3.78-4.51,1.42-9.02,2.87-13.52,4.33-.03-.02-.07-.05-.1-.07,1.55-4.26,3.1-8.53,4.64-12.8,1.45-1.62,2.9-3.24,4.37-4.85,2.39-1.29,4.75-2.6,7.09-3.96Z"/>
  <path class="cls-2" d="M103.36,36.46c.38.3.69.65.93,1.03-2.32,4.18-4.6,8.38-6.85,12.59-.38-.18-.77-.34-1.17-.48.09-.31.21-.61.38-.89,2.22-4.1,4.46-8.18,6.71-12.25Z"/>
  <path class="cls-35" d="M105.7,39.63c5.47-.07,10.9.31,16.31,1.14.79.13,1.57.29,2.34.48-1.22,1.26-2.43,2.52-3.65,3.78-5.3-1.26-10.58-2.58-15.86-3.96-.03-.02-.07-.05-.1-.07.19-.4.36-.82.52-1.24.16-.04.31-.09.45-.14Z"/>
  <path class="cls-19" d="M102.61,44.86c4.35,1.69,8.68,3.42,13,5.2-.57.14-1.14.21-1.72.21-3.91-1.51-7.81-3.03-11.7-4.58.17-.26.31-.54.41-.83Z"/>
  <path class="cls-33" d="M101.78,46.3c3.66,1.38,7.31,2.79,10.94,4.23-.49.11-.98.22-1.48.31-3.33-1.2-6.64-2.43-9.94-3.68.19-.27.35-.56.48-.86Z"/>
  <path class="cls-8" d="M124.08,46.99c2.43.07,4.85.18,7.26.34.07-.02.14-.05.21-.07.08.05.11.12.07.21-.92.96-1.83,1.92-2.72,2.89-2.58-.12-5.15-.26-7.71-.41.92-1.03,1.88-2.02,2.89-2.96Z"/>
  <path class="cls-15" d="M155.25,49.88c.43.04.87.08,1.31.1.06.03.11.07.14.14-.13.93-.22,1.85-.28,2.79-.74-.02-1.47-.08-2.2-.17.35-.95.7-1.9,1.03-2.86Z"/>
  <path class="cls-10" d="M103.5,58.76c-3.54,1.34-7.07,2.71-10.6,4.09-1.26-.03-2.52-.09-3.78-.21,3.73-2.16,7.44-4.32,11.15-6.5,1.57-.93,3.15-1.85,4.75-2.75,1.68.89,3.33,1.82,4.95,2.79-2.16.85-4.32,1.71-6.47,2.58Z"/>
  <path class="cls-35" d="M69.17,53.6c.13-.02.18.03.17.14l-1.96,3.2c-3.92,1.72-7.83,3.45-11.73,5.2.28-1.06.57-2.11.89-3.17.15-.48.32-.96.52-1.41,4.05-1.29,8.09-2.61,12.11-3.96Z"/>
  <path class="cls-22" d="M118.91,54.35c1.58-.01,3.17,0,4.75.03-5.55,5.46-11.1,10.92-16.65,16.38-1.58-.02-3.17-.09-4.75-.21,4.95-5.39,9.93-10.75,14.93-16.1.59-.01,1.16-.05,1.72-.1Z"/>
  <path class="cls-16" d="M88.71,54.56s.06.03.07.07c-1.02.05-2.03.09-3.03.14-.04,0-.06-.03-.07-.07,1.02-.05,2.03-.09,3.03-.14Z"/>
  <path class="cls-11" d="M77.42,55.11c.4-.01.79.03,1.17.14.05.16.09.32.14.48.15.02.3.05.45.07.97-.12,1.95-.18,2.92-.17-1,.72-2.01,1.42-3.03,2.1-.13-.62-.24-1.24-.34-1.86h-1.17c-.07-.25-.11-.5-.14-.76Z"/>
  <path class="cls-1" d="M157.31,57.11c.51,5.13,1.33,10.2,2.48,15.21-.62.66-1.26,1.31-1.93,1.93-.71-2.95-1.19-5.95-1.44-8.98.27-2.73.57-5.45.89-8.15Z"/>
  <path class="cls-3" d="M138.32,57.24c0,.11-.04.17-.14.21,0-.11.04-.17.14-.21Z"/>
  <path class="cls-13" d="M138.18,57.45c-.91,1.89-1.84,3.77-2.79,5.64-1.11,2.84-2.15,5.71-3.13,8.6-.73.24-1.46.47-2.2.69,1.12-3.38,2.32-6.73,3.61-10.05,1.49-1.64,3-3.27,4.51-4.89Z"/>
  <path class="cls-28" d="M126.97,58.34c-.05.16-.09.32-.14.48-.01-.28,0-.55.03-.83.09.1.12.21.1.34Z"/>
  <path class="cls-20" d="M152.84,58.48c.93,1.04,1.8,2.13,2.61,3.27-.19,1.5-.36,3-.52,4.51-.08.5-.19.98-.34,1.44-.94-1.63-1.88-3.26-2.82-4.89-.05-.16-.05-.32,0-.48.35-1.29.7-2.57,1.07-3.85Z"/>
  <path class="cls-35" d="M103.23,63.09c-1.15.33-2.29.66-3.44,1-.97-.03-1.93-.15-2.89-.34,2.68-1.26,5.34-2.53,7.98-3.82.84-.41,1.69-.79,2.55-1.14-1.39,1.45-2.79,2.88-4.2,4.3Z"/>
  <path class="cls-25" d="M64.62,63.71s.06.05.07.1c-.23.58-.45,1.16-.65,1.75-.06.14-.17.24-.31.31-4.99,2.97-9.98,5.94-14.97,8.91-.34-.3-.69-.6-1.03-.89-.05-.06-.04-.1.03-.14,5.64-3.33,11.26-6.68,16.86-10.05Z"/>
  <path class="cls-35" d="M168.73,85.73c-.07-2.03-.09-4.07-.07-6.12-.03-3.99.02-7.98.14-11.97.95.59,1.88,1.21,2.79,1.86.22,2.13.44,4.27.65,6.4-.99,3.35-2.16,6.63-3.51,9.84Z"/>
  <path class="cls-22" d="M119.12,69.22c.04.07.07.15.07.24-.18,1.71-.33,3.41-.45,5.13-3.09,2.56-6.2,5.09-9.32,7.6-.05.05-.09.05-.14,0,.29-1.87.57-3.74.86-5.61,3.01-2.44,6-4.9,8.98-7.36Z"/>
  <path class="cls-14" d="M70.82,69.49c1.19-.02,2.39.02,3.58.1.58.06,1.16.16,1.72.31.67,1.7,1.33,3.4,2,5.09-.03.13-.09.23-.21.31-.89.73-1.76,1.49-2.61,2.27-.71-.21-1.42-.44-2.13-.69-1.13-.27-2.28-.37-3.44-.28-.54.1-1.07.24-1.58.45-.45-.08-.88-.2-1.31-.34.77-.53,1.55-1.05,2.34-1.55.08-.01.16-.02.24-.03,1.76.35,3.51.7,5.26,1.07.14.05.28.05.41,0,.63-.55,1.27-1.09,1.93-1.62-.45-1.02-.91-2.05-1.38-3.06-.92-.43-1.85-.83-2.79-1.2-.79.3-1.57.62-2.34.96-.33-.42-.67-.85-1-1.27.11-.13.25-.22.41-.28.31-.09.6-.17.89-.24Z"/>
  <path class="cls-27" d="M164.19,70.18c.05.41.09.83.14,1.24.02,3.38.06,6.77.14,10.15-.02.33-.05.67-.07,1-1.08,1.03-2.13,2.09-3.17,3.17-1.05-3.16-2.04-6.34-2.96-9.53,1.96-2.02,3.93-4.02,5.92-6.02Z"/>
  <path class="cls-26" d="M164.19,70.18s.03-.06.07-.07c.07.43.09.87.07,1.31-.05-.41-.09-.83-.14-1.24Z"/>
  <path class="cls-24" d="M61.94,71.28s.06.05.07.1c-.35.98-.71,1.95-1.07,2.92-2.17,1.94-4.33,3.88-6.5,5.81-.05.05-.09.05-.14,0-.32-.39-.66-.75-1.03-1.1,2.9-2.57,5.79-5.15,8.67-7.74Z"/>
  <path class="cls-22" d="M148.78,73.07c.11.06.19.15.24.28.95,2.05,1.91,4.09,2.89,6.12.08.18.13.36.17.55-.76,3.7-1.52,7.39-2.31,11.08-1.29-2.62-2.54-5.26-3.75-7.91.95-3.37,1.86-6.74,2.75-10.11Z"/>
  <path class="cls-33" d="M106.87,74.45s.06.05.07.1c-.96,3.54-1.9,7.08-2.82,10.63-.64.09-1.28.15-1.93.17,1.59-3.62,3.15-7.26,4.68-10.91Z"/>
  <path class="cls-24" d="M61.94,78.3c.3.3.59.62.86.96.09.11.13.22.14.34-1.64,1.46-3.28,2.91-4.92,4.37-.07.05-.14.05-.21,0l-.93-.93c-.05-.07-.05-.14,0-.21,1.7-1.5,3.39-3.02,5.06-4.54Z"/>
  <path class="cls-9" d="M67.45,79.81c.4-.07.81-.09,1.24-.07.02.09,0,.16-.07.21-.36-.13-.75-.18-1.17-.14Z"/>
  <path class="cls-35" d="M67.45,79.81c.42-.04.81,0,1.17.14-.04.37-.1.74-.17,1.1-2.46,2.19-4.92,4.37-7.4,6.54-.35-.39-.72-.77-1.1-1.14,2.49-2.23,4.99-4.44,7.5-6.64Z"/>
  <path class="cls-29" d="M157.93,80.23c.42,1.2.83,2.42,1.24,3.65-1.15.08-2.3.06-3.44-.07.73-1.19,1.47-2.39,2.2-3.58Z"/>
  <path class="cls-24" d="M137.91,82.43c.11.06.19.15.24.28.35.81.71,1.61,1.1,2.41.02.14,0,.28-.07.41-.97,2.28-1.95,4.55-2.96,6.81-3.03,5.73-6.06,11.47-9.08,17.2-.05-.07-.05-.14,0-.21,3.61-8.96,7.2-17.93,10.77-26.9Z"/>
  <path class="cls-20" d="M144.58,83.05c.05,0,.1,0,.14.03-1.42,5.05-2.83,10.11-4.23,15.17-.64.52-1.31,1-2,1.44.83-5.03,1.74-10.06,2.72-15.07,1.14-.51,2.27-1.04,3.37-1.58Z"/>
  <path class="cls-12" d="M168.66,79.61c-.02,2.05,0,4.09.07,6.12-.01.1-.05.19-.1.28-.06-2.14-.05-4.28.03-6.4Z"/>
  <path class="cls-18" d="M148.92,130.18c-4.08-.5-8.11-.8-12.08-.89-1.57-.07-3.17-.14-4.82-.21-3.68,0-7.33,0-10.94,0-1.05.05-2.11.09-3.17.14-.15,0-.29-.02-.41-.07-2.7.1-5.39.22-8.05.34-.02-.02-.05-.05-.07-.07-1.4.09-2.8.18-4.2.28-.02-.02-.05-.05-.07-.07-8.4,3.19-16.8,6.36-25.22,9.5.37-1.12.79-2.22,1.27-3.3,2.95-6.5,6.28-12.78,9.98-18.85,3.49-2.04,6.99-4.07,10.49-6.09.18-.05.37-.05.55,0,1.49.24,2.98.49,4.47.76,2.09,2,4.17,3.99,6.26,5.99l8.05,3.1c.14.05.28.05.41,0,.87-.21,1.74-.41,2.61-.62-3.41-1.34-6.83-2.67-10.25-3.99-2.11-2.02-4.22-4.04-6.33-6.06-3.01-.52-6.01-1.05-9.01-1.58,5.73-3.19,11.47-6.38,17.2-9.56.15-.23.28-.47.38-.72.65-1.73,1.31-3.45,2-5.16,1.28,2.37,2.56,4.75,3.82,7.12-.63,5.59-.93,11.2-.89,16.82,1.77-.89,3.53-1.81,5.26-2.75,2.88-5.45,5.75-10.89,8.64-16.34.07-.04.11-.02.14.07,1.19,4.21,2.38,8.42,3.58,12.63,3.55-3.29,7.1-6.59,10.63-9.91,1.11-5.06,2.17-10.13,3.2-15.21,2.48.04,4.95.11,7.43.21,1.32,3.87,2.9,7.64,4.71,11.28,2.17-3.48,4.02-7.12,5.54-10.94,4.29.11,8.58.26,12.87.45-8.36,6.84-16.43,14.05-24.22,21.61-1.8,1.8-3.56,3.65-5.26,5.54-.17.18-.28.38-.34.62-1.39,5.32-2.78,10.64-4.16,15.96Z"/>
  <path class="cls-30" d="M133.64,87.59c.06,0,.11.01.14.07-1.88,4.68-3.76,9.36-5.64,14.04-1.16.67-2.35,1.31-3.54,1.93.99-4.23,2.02-8.45,3.1-12.66,1.99-1.12,3.98-2.24,5.95-3.37Z"/>
  <path class="cls-23" d="M80.04,89.51c.07-.01.14,0,.21.03.17.18.36.36.55.52.08.08.09.18.03.28-.42.77-.82,1.55-1.2,2.34-.32.07-.64.09-.96.07.44-1.08.9-2.16,1.38-3.23Z"/>
  <path class="cls-7" d="M114.86,91.51s.06.03.07.07c-.62,1.63-1.25,3.26-1.89,4.89-1.92,1.12-3.86,2.18-5.81,3.2,2.53-2.73,5.08-5.45,7.64-8.15Z"/>
  <path class="cls-24" d="M146.99,92.06c.16.13.28.29.38.48.53.95,1.04,1.9,1.55,2.86-.12.61-.25,1.22-.38,1.82-1.42,1.33-2.84,2.66-4.27,3.99.9-3.05,1.81-6.1,2.72-9.15Z"/>
  <path class="cls-22" d="M71.78,98.18c.07-.01.14,0,.21.03.38.35.73.73,1.03,1.14-.22.54-.41,1.09-.58,1.65-3.08,2.58-6.17,5.16-9.25,7.74-.09.07-.18.09-.28.07-.75-.88-1.49-1.77-2.24-2.65-.13-.15-.22-.31-.28-.48,3.79-2.51,7.59-5.01,11.39-7.5Z"/>
  <path class="cls-4" d="M71.37,104.1c.43,2.28.8,4.57,1.14,6.88.85.69,1.73,1.35,2.65,1.96,3.41.31,6.81.59,10.18.86.26,0,.52-.06.76-.17,1.64-.66,3.3-1.28,4.95-1.86-1.5,1.18-3,2.36-4.51,3.54-2.43,3.24-4.89,6.45-7.4,9.63-4.93-4.84-9.84-9.7-14.73-14.59,2.3-2.11,4.61-4.2,6.95-6.26Z"/>
  <path class="cls-21" d="M156.9,128.6h3.23v.55h-1.38v3.99h-.55v-3.99h-1.31v-.55Z"/>
  <path class="cls-17" d="M160.75,128.6c.28-.02.55,0,.83.07.37,1.17.75,2.34,1.14,3.51.35-1.17.72-2.34,1.1-3.51.28-.07.57-.09.86-.07v4.54h-.55c.01-1.19,0-2.39-.03-3.58-.35,1.17-.72,2.34-1.1,3.51-.19.06-.38.09-.58.07-.35-1.17-.7-2.34-1.07-3.51-.03,1.17-.05,2.34-.03,3.51h-.55v-4.54Z"/>
  <path class="cls-5" d="M148.92,130.18c-.08.32-.16.64-.24.96-.11.04-.22.07-.34.07-2.46-.32-4.92-.56-7.4-.72-8.16-.45-16.32-.54-24.5-.28-3.86.09-7.71.25-11.56.48-8.48,3.23-16.97,6.42-25.46,9.56.13-.4.29-.78.48-1.14,8.42-3.14,16.82-6.3,25.22-9.5.02.02.05.05.07.07,1.4-.09,2.8-.19,4.2-.28.02.02.05.05.07.07,2.66-.13,5.35-.24,8.05-.34.13.05.26.07.41.07,1.05-.05,2.11-.09,3.17-.14,3.61,0,7.26,0,10.94,0,1.64.06,3.25.13,4.82.21,3.97.1,7.99.39,12.08.89Z"/>
</svg>