<?xml version="1.0" encoding="UTF-8"?>
<svg id="Notre_Dame" data-name="Notre Dame" xmlns="http://www.w3.org/2000/svg" viewBox="0 0 232.6 144.9">
  <defs>
    <style>
      .cls-1 {
        fill: #376287;
      }

      .cls-1, .cls-2 {
        fill-rule: evenodd;
        stroke-width: 0px;
      }

      .cls-2 {
        fill: #fff;
      }
    </style>
  </defs>
  <path class="cls-2" d="M194.24,98.09l-.57-50.4-14.96-15.82h-9.66v-4.69h11.13V6.09h-42.78v21.1h10.55v4.69h-37.04l-15.12-25.2v-.59h-31.06v21.1h12.31v4.69h-36.92v18.75h9.38v45.12h-9.38v18.17h36.92v8.2h-12.31v19.34h41.02v-19.34h-9.96v-8.2h36.09l16.06,27.54h21.1v-27.54h8.71l16.49-15.82h0Z"/>
  <path class="cls-1" d="M193.36,96.33l-.57-50.39-14.96-15.82h-9.66v-4.69h11.13V4.33h-42.78v21.1h10.55v4.69h-37.04l-15.11-25.2v-.59h-31.06v21.1h12.31v4.69h-36.92v18.75h9.38v45.12h-9.38v18.16h36.92v8.21h-12.31v19.34h41.02v-19.34h-9.96v-8.21h36.09l16.06,27.54h21.1v-27.54h8.71l16.48-15.82h0ZM147.06,48.86v42.99l-25.79-42.99h25.79ZM68.54,93.99v-45.12h7.62v45.12h-7.62ZM94.91,93.99v-43.72l25.5,43.72h-25.5ZM175.78,89.53l-3.64,4.45h-3.98v-45.12h3.56l4.06,4.96v35.71h0Z"/>
  <path class="cls-2" d="M179.29,3.45h-43.65v22.85h10.55v2.93h-35.66l-14.73-24.56v-1.22h-32.82v22.85h12.31v2.93h-36.92v20.51h9.38v43.36h-9.38v19.92h36.92v6.45h-12.31v21.1h42.78v-21.1h-9.96v-6.45h34.71l16.06,27.54h22.48v-27.54h8.19l17.01-16.33-.58-51.12-15.46-16.35h-9.16v-2.93h11.13V3.45h-.88ZM147.06,5.21h31.35v19.34h-11.13v6.45h10.16c.49.52,14.01,14.82,14.47,15.3,0,.67.56,48.93.56,49.67l-15.96,15.31h-9.24v27.54h-19.71l-16.06-27.54h-37.47v9.96h9.96v17.58h-39.26v-17.58h12.31v-9.96h-36.92v-16.41h9.38v-46.88h-9.38v-16.99h36.92v-6.45h-12.31V5.21h29.33l15.47,25.78h38.41v-6.45h-10.55V5.21h9.67Z"/>
  <path class="cls-2" d="M147.06,47.98h-27.34l28.22,47.04v-47.04h-.88ZM146.18,49.74v38.94c-7.79-12.98-15.57-25.96-23.36-38.94h23.36ZM76.16,47.98h-8.5v46.88h9.37v-46.88h-.88ZM75.28,49.74v43.36h-5.86v-43.36h5.86ZM94.03,50.26v44.6h27.91l-27.91-47.85v3.25ZM95.79,53.52l23.09,39.59h-23.09v-39.59ZM171.72,47.98h-4.44v46.88h5.28l4.1-5.02v-36.33l-4.52-5.53h-.42ZM171.3,49.74l3.59,4.4v35.08l-3.18,3.89h-2.68v-43.36h2.26Z"/>
</svg>