<?xml version="1.0" encoding="UTF-8"?>
<svg id="Ohio_State" data-name="Ohio State" xmlns="http://www.w3.org/2000/svg" viewBox="0 0 232.6 144.9">
  <defs>
    <style>
      .cls-1 {
        fill: #666;
      }

      .cls-1, .cls-2, .cls-3 {
        stroke-width: 0px;
      }

      .cls-3 {
        fill: #b00;
      }
    </style>
  </defs>
  <path class="cls-2" d="M80.95,52.94l-.11,44.46c1.78-.6,3.41-1.16,5.39-1.76v-43.93c-1.75.41-3.51.75-5.28,1.22"/>
  <path class="cls-2" d="M157.56,60.08c.4.12,4.3,1.32,4.3,1.32v40c1.93.96,3.59,1.86,5.3,2.97v-41.11s4.75,1.83,5.09,1.98v-5.97c-4.72-2.01-9.86-3.5-14.72-4.98l.03,5.79Z"/>
  <path class="cls-2" d="M140.59,50.49c-4.78-.85-9.06-1.29-13.87-1.72v5.55c1.6.15,4.01.42,4.01.42v37.52c1.97.29,4.03.54,5.82.86l-.18-37.68s2.2.31,4.21.65v-5.6h0Z"/>
  <path class="cls-2" d="M94.41,88.01l.12-31.95,3.44-.5.14,31.76-3.7.69ZM92.25,50.58l-3.15,4.14.05,36.85,2.85,2.57c3.23-.78,5.64-1.17,8.76-1.65l2.62-3.44.12-35.98-3.67-3.6c-2.52.34-5.04.64-7.58,1.11"/>
  <path class="cls-2" d="M150.44,70.97l-3.25-.82v-12.72s3.26.81,3.26.81v12.73ZM155.77,58.43l-3.01-5.41c-2.56-.69-4.8-1.1-7.36-1.65l-3.51,3.21v39.69c1.78.46,3.53.82,5.25,1.37v-19.78l3.43.98v19.98c1.77.65,3.51,1.22,5.2,1.97v-40.36h0Z"/>
  <path class="cls-2" d="M72.57,73.4l-3.57,1.37-.06-18.35c-1.84.66-3.56,1.16-5.38,1.9v47.7c1.92-1.34,3.42-2.05,5.74-3.46l-.05-21.8s2.06-.89,3.63-1.43l.05,21.35c1.78-.86,3.25-1.43,5.11-2.22v-44.74c-1.83.53-3.65.93-5.47,1.6v18.08h0,0Z"/>
  <polygon class="cls-2" points="107.86 82.79 107.86 100.61 111.86 104.54 121.57 104.6 125.51 100.61 125.4 72.18 121.15 68.1 113.81 68.1 113.79 46.28 119.67 46.3 119.67 60.3 125.44 60.29 125.45 44.13 121.54 40.24 111.85 40.24 107.86 44.15 107.86 70.75 112.19 74.86 119.46 74.86 119.51 99.1 113.67 99.1 113.67 82.79 107.86 82.79"/>
  <path class="cls-2" d="M54.69,120.47l-4.03,2.74.03-53.14,4.01-2.12v52.51ZM47.79,65.31l-2.77,5.3v56.58l4.39,2.94c.73-.46,7.63-4.64,8.07-4.88l2.58-5.53.05-55.57-4.03-2.95c-2.84,1.33-5.56,2.57-8.29,4.1"/>
  <path class="cls-2" d="M174.19,120.6c3.95,3,9.74,7.6,13.38,10.67v-7.27c-2.48-2-7.57-6.11-7.57-6.11v-22.11s5.24,2.84,7.57,4.27v-6.9c-2.28-1.42-7.81-4.36-7.81-4.36v-20.12s5.15,2.55,7.81,4.06v-6.38c-4.27-2.52-9-4.32-13.52-6.36l.15,60.61Z"/>
  <path class="cls-1" d="M99.89,95.84v8.15l8.68,8.5,16.25.12,8.65-8.72.02-7.96c-1.47-.25-2.61-.42-4.11-.61v6.86l-6.15,6.15-12.96.02-6.24-6.06v-6.94c-1.5.2-2.67.23-4.14.49"/>
  <path class="cls-1" d="M108.69,32.23l-8.79,8.61v5.1c1.5-.19,2.66-.25,4.14-.39v-3.03l6.3-6.14h12.78l6.15,6.12v2.98c1.48.14,2.69.32,4.18.51v-5.15l-8.58-8.61h-16.18Z"/>
  <path class="cls-1" d="M163.36,28.18l-26-25.94h-41.14l-26.34,25.86.04,20.29c-8.22,2.63-16.85,5.77-24.82,10.06v4.28c8.76-5.06,21.85-9.42,28.95-11.51v-21.22l23.97-23.57h37.55s23.68,23.4,23.68,23.4l-.03,21.3c8.2,2.3,20.46,6.95,28.35,11.36v-4.28c-7.94-4.26-15.8-7.12-24.19-9.8l-.03-20.25Z"/>
  <path class="cls-1" d="M159.25,114.64l-23.65,23.87-37.69-.02-23.84-23.72v-11.17c-4.35,2.11-7.39,3.98-10.51,6.26v4.93c1.88-1.49,4.2-3.45,6.31-4.69v6.26l26.41,26.26,40.9.04,26.16-26.18v-6.14c2.95,1.77,5.58,3.56,8.01,5.63v-4.84c-3.56-2.72-7.56-5.38-12.1-7.53l-.02,11.04Z"/>
  <path class="cls-3" d="M99.56,10.28l-21.7,21.37v18.53c6.18-1.73,12.1-2.79,18.22-3.71v-7.31l11-10.73h19.38l10.79,10.8v7.2c6.11.9,12.01,2.03,18.18,3.73v-18.41l-21.47-21.47h-34.4Z"/>
  <path class="cls-3" d="M77.9,113.14l21.58,21.25,34.57.27,21.4-21.63v-11.08c-5.69-2.41-11.48-4.16-18.17-5.48l-.02,9.01-10.7,10.94-19.57-.14-10.92-10.78v-8.97c-6.45,1.27-12.76,3.11-18.17,5.44v11.15h0,0Z"/>
</svg>