<?xml version="1.0" encoding="UTF-8"?>
<svg id="Penn_State" data-name="Penn State" xmlns="http://www.w3.org/2000/svg" viewBox="0 0 232.6 144.9">
  <defs>
    <style>
      .cls-1 {
        fill: #255398;
        fill-rule: evenodd;
        stroke-width: 0px;
      }
    </style>
  </defs>
  <path class="cls-1" d="M32.03,115.22c-13.03-11.81-20.72-26.4-20.72-42.21C11.32,33.91,58.32,2.16,116.36,2.16s104.93,31.75,104.93,70.84-47.01,69.73-104.93,69.73c0,0-45-.44-64.27-21.5-11.14-12.14-16.71-24.5-16.59-38.2.11-10.02,2.78-21.5,11.47-34.2,9.13-13.03,33.75-27.07,33.75-27.07,0,0-17.27,2.12-33.75,13.03-13.37,8.91-26.62,24.06-26.62,45.22,0,16.04,11.58,35.64,11.58,35.64l.11-.45h0ZM122.37,36.81c18.6-3.01,36.65,0,36.65,0,0,0,6.02,7.58,8.58,9.58,2.45,2,7.02,4.46,16.04,10.02,9.02,5.46,16.6,11.03,18.05,17.6,1.56,6.46-8.47,12.03-8.47,12.03,0,0,2.45-9.58-6.13-17.04-4.35-3.9-10.8-8.35-15.48-10.58-9.8-4.68-17.16-4.57-17.16-4.57,0,0,1-1.45.56-4.46-.56-3.01-3.01-3.56-3.01-3.56l-17.04,8.02s12.48,1,23.5,5.57c11.14,4.57,15.04,8.58,20.61,16.04,4.57,6.02,2,12.59-2,18.16-4.01,5.46-21.61,12.48-30.63,16.04-9.02,3.45-16.59,6.02-39.1,7.01-22.61,1-33.75-14.03-33.75-14.03,0,0-3.01,12.03,14.15,19.6,10.25,4.46,49.68-7.13,49.68-7.13,0,0,26.17,3.56,31.63,4.12,5.57.45,6.57,1.45,10.58-3.56,4.01-5.01,8.58-16.6,8.58-16.6l-32.19,10.58v-1s32.63-15.04,39.65-20.16c7.02-5.01,9.58-10.02,9.58-16.04s-9.02-12.59-16.04-16.6c-7.13-4.01-15.6-9.47-20.61-13.48-5.01-4.01-3.56-6.02-9.58-10.14,0,0-19.6-8.02-40.65-11.03,0,0-9.58-15.04-15.15-14.59-5.46.56-9.47,10.58-12.48,19.6-3.01,9.02-5.01,25.62-5.01,25.62,0,0,18.05-12.03,36.65-15.04h0ZM113.16,20.64c-2.64-4.08-6.39-10.25-9.67-9.85-2.94.36-7.03,9.53-8.47,15.29-1.44,5.76-2.4,7.77-3.12,15.37,7.35-12.33,17.18-19.38,21.25-20.82h0Z"/>
</svg>