<?xml version="1.0" encoding="UTF-8"?>
<svg id="Quinnipiac" xmlns="http://www.w3.org/2000/svg" viewBox="0 0 232.6 144.9">
  <defs>
    <style>
      .cls-1 {
        fill: #f7f6f4;
      }

      .cls-1, .cls-2, .cls-3, .cls-4, .cls-5, .cls-6, .cls-7, .cls-8, .cls-9, .cls-10, .cls-11, .cls-12, .cls-13, .cls-14, .cls-15, .cls-16, .cls-17, .cls-18, .cls-19, .cls-20, .cls-21, .cls-22, .cls-23, .cls-24, .cls-25, .cls-26, .cls-27, .cls-28, .cls-29, .cls-30, .cls-31, .cls-32, .cls-33, .cls-34, .cls-35, .cls-36, .cls-37, .cls-38, .cls-39, .cls-40, .cls-41, .cls-42, .cls-43, .cls-44, .cls-45, .cls-46 {
        fill-rule: evenodd;
        stroke-width: 0px;
      }

      .cls-2 {
        fill: #957538;
      }

      .cls-3 {
        fill: #fdb721;
        isolation: isolate;
        opacity: .99;
      }

      .cls-4 {
        fill: #feb51a;
      }

      .cls-5 {
        fill: #f7b51c;
      }

      .cls-6 {
        fill: #10213e;
      }

      .cls-7 {
        fill: #fdfdfc;
      }

      .cls-8 {
        fill: #f7f7f8;
      }

      .cls-9 {
        fill: #f3f4f5;
      }

      .cls-10 {
        fill: #0f2040;
      }

      .cls-11 {
        fill: #fbfaf9;
      }

      .cls-12 {
        fill: #d6cec4;
      }

      .cls-13 {
        fill: #f8f7f5;
      }

      .cls-14 {
        fill: #fafafa;
      }

      .cls-15 {
        fill: #f1f2f4;
      }

      .cls-16 {
        fill: #fab61b;
      }

      .cls-17 {
        fill: #10203f;
      }

      .cls-18 {
        fill: #fdb51b;
      }

      .cls-19 {
        fill: #f1b61d;
      }

      .cls-20 {
        fill: #fdb51a;
      }

      .cls-21 {
        fill: #f8f6f2;
      }

      .cls-22 {
        fill: #977638;
      }

      .cls-23 {
        fill: #8d7039;
      }

      .cls-24 {
        fill: #fcfcfb;
      }

      .cls-25 {
        fill: #faf9f8;
      }

      .cls-26 {
        fill: #142140;
      }

      .cls-27 {
        fill: #ecb71e;
      }

      .cls-28 {
        fill: #122040;
      }

      .cls-29 {
        fill: #0e1e40;
      }

      .cls-30 {
        fill: #10213f;
      }

      .cls-31 {
        fill: #132140;
      }

      .cls-32 {
        fill: #fafafb;
      }

      .cls-33 {
        fill: #f8b61b;
      }

      .cls-34 {
        fill: #f5f6f7;
      }

      .cls-35 {
        fill: #907139;
      }

      .cls-36 {
        fill: #102040;
      }

      .cls-37 {
        fill: #7f673c;
      }

      .cls-38 {
        fill: #f9f9fa;
      }

      .cls-39 {
        fill: #fcb61a;
      }

      .cls-40 {
        fill: #112040;
      }

      .cls-41 {
        fill: #f9b51c;
      }

      .cls-42 {
        fill: #917239;
      }

      .cls-43 {
        fill: #f9b51b;
      }

      .cls-44 {
        fill: #fafaf9;
      }

      .cls-45 {
        fill: #0c213f;
      }

      .cls-46 {
        fill: #fcfcfc;
      }
    </style>
  </defs>
  <path class="cls-3" d="M112.09,2.08c15.81-.78,30.29,3.19,43.43,11.9.81-1.73,1.04-3.53.7-5.4l.23-.23c2.75,1.65,4.62,4,5.63,7.04.08,1.21.08,2.41,0,3.6,14.88,13.02,23.07,29.45,24.57,49.3.86,22.25-6.73,41-22.77,56.27-16.58,14.56-35.89,20.45-57.91,17.69-22.04-3.74-38.86-15.09-50.48-34.04-10.16-18.07-12.3-37.06-6.42-56.97,4.33-13.25,11.84-24.32,22.54-33.18-.32-1.88,0-3.65.94-5.32,1.06-1.79,2.44-3.27,4.15-4.46.24-.16.5-.24.78-.23-.03,1.04,0,2.09.08,3.13.12.72.35,1.4.7,2.03,10.32-6.59,21.59-10.29,33.81-11.11Z"/>
  <path class="cls-45" d="M111.78,4.75c16.11-.8,30.74,3.37,43.9,12.52,1.25-1.5,2.03-3.23,2.35-5.17,1.97,1.65,2.7,3.73,2.19,6.26-.23.72-.33,1.45-.31,2.19,16.56,14.45,24.59,32.71,24.1,54.78-1.55,23.54-12.12,41.78-31.7,54.7-17.36,10.34-35.83,12.84-55.41,7.51-17.98-5.77-31.52-16.91-40.62-33.42-7.83-15.57-9.71-31.85-5.63-48.83,3.98-14.41,11.73-26.33,23.24-35.76-1.14-3.18-.49-5.92,1.96-8.22.17,1.31.54,2.56,1.1,3.76.26.57.62,1.04,1.1,1.41,10.22-6.86,21.46-10.77,33.73-11.74Z"/>
  <path class="cls-4" d="M111.47,8.03c13.21-.75,25.58,2.09,37.1,8.53,1.67.99,3.29,2.06,4.85,3.21-4.39,3.66-9.35,6.34-14.87,8.06-1.26.59-2.49,1.24-3.68,1.96-10.74-4.38-21.67-4.92-32.79-1.64-1.19.41-2.36.86-3.52,1.33-1.11-.75-2.28-1.4-3.52-1.96-5.51-1.89-10.47-4.71-14.87-8.45,9.48-6.37,19.92-10.05,31.3-11.03Z"/>
  <path class="cls-4" d="M88.93,130.9c-1.69-1.06-3.51-2.07-5.48-3.05-3.11-1.95-6.09-4.09-8.92-6.42-1.65-1.57-3.32-3.11-5.01-4.62-8.96-9.42-14.57-20.58-16.83-33.5-3.34-23.95,3.94-43.96,21.83-60.03.28-.12.51-.31.7-.55.77,1.24,1.61,2.44,2.5,3.6.36,5.13,1.9,9.88,4.62,14.24-12.65,14.52-15.76,30.9-9.31,49.15,6.26,14.55,17.03,23.92,32.32,28.1,15.91,3.34,30-.26,42.26-10.8,12.29-11.88,17.12-26.3,14.48-43.28-1.74-8.49-5.47-15.95-11.19-22.38,2.85-4.39,4.49-9.19,4.93-14.4.96-1.06,1.79-2.21,2.5-3.44,13.3,11.7,20.76,26.41,22.38,44.14,1.05,20.19-5.55,37.38-19.8,51.57-15.56,14.14-33.82,19.83-54.78,17.06-6.02-.95-11.76-2.75-17.22-5.4Z"/>
  <path class="cls-7" d="M91.28,32.29c1.37,1.22,2.52,2.62,3.44,4.23-.05.05-.1.1-.16.16-1.39-.7-2.85-.99-4.38-.86.91.38,1.8.79,2.66,1.25.55.42,1.07.87,1.57,1.33-2.25.43-4.42,1.16-6.5,2.19-2.96-2.43-4.95-5.51-5.95-9.23-.57-1.54-.86-3.11-.86-4.7,3.37,1.92,6.76,3.8,10.17,5.63Z"/>
  <path class="cls-24" d="M138.86,38.87c1.2-1.28,2.67-2.14,4.38-2.58-1.53-.17-2.99.07-4.38.7-.05-.05-.1-.1-.16-.16.93-1.55,2.08-2.9,3.44-4.07,3.43-1.82,6.87-3.65,10.33-5.48-.43,5.27-2.57,9.73-6.42,13.38-.24.13-.47.26-.7.39-2.06-1.02-4.22-1.76-6.5-2.19Z"/>
  <path class="cls-34" d="M95.19,30.57c1.3.6,2.5,1.35,3.6,2.27,1.07,1.07,2.14,2.14,3.21,3.21.1.16.1.31,0,.47-.53.56-1.13,1.03-1.8,1.41-.35-1.42-.95-2.73-1.8-3.91-1.05-1.18-2.12-2.33-3.21-3.44Z"/>
  <path class="cls-34" d="M138.08,30.57c.16.06.19.17.08.31-2.42,1.82-4.06,4.17-4.93,7.04-.62-.44-1.22-.91-1.8-1.41,0-.28.11-.54.31-.78,1.87-2.06,3.98-3.78,6.34-5.17Z"/>
  <path class="cls-20" d="M91.28,32.29c2.93,1.32,5.15,3.41,6.65,6.26,1.04,2.68.34,4.74-2.11,6.18,4.58.39,7.45-1.62,8.61-6.03,2.3-.05,4.6.03,6.89.23.28.28.47.62.55,1.02.11,2.71-.2,5.37-.94,7.98-.49,2.04.05,3.71,1.64,5.01-.29-2.14.39-3.91,2.03-5.32-.19,2.22.46,4.2,1.96,5.95,1.53-1.71,2.2-3.69,2.03-5.95,1.7,1.38,2.3,3.13,1.8,5.24.5-.02.89-.25,1.17-.7.56-.94.85-1.96.86-3.05-.47-2.44-.83-4.89-1.1-7.36-.15-1.06.11-2,.78-2.82,2.24-.1,4.49-.1,6.73,0,.88,3.57,3.12,5.63,6.73,6.18.65.21,1.33.21,2.03,0-.02-.1-.07-.15-.16-.16-1.97-1.01-2.77-2.63-2.43-4.85.67-2.03,1.85-3.73,3.52-5.09,1.1-.92,2.3-1.67,3.6-2.27-1.37,1.16-2.51,2.52-3.44,4.07.05.05.1.1.16.16,1.4-.64,2.86-.87,4.38-.7-1.72.44-3.18,1.3-4.38,2.58-.12-.02-.22,0-.31.08,4.54,2.91,8.68,6.33,12.44,10.25.92,1.07,1.73,2.21,2.43,3.44-1.56.26-3.02.78-4.38,1.57,2.07,1,3.66,2.51,4.77,4.54,1.7,3.3,2.69,6.8,2.97,10.49-4.16-4.83-9.3-6.32-15.42-4.46-4.05,1.51-7.78,3.58-11.19,6.18-.58-.74-1.24-1.45-1.96-2.11-1.51-.82-3.07-.92-4.7-.31-1.62.76-3.08,1.75-4.38,2.97,1.21-.41,2.46-.72,3.76-.94,1.26-.19,2.46-.06,3.6.39-.92.56-1.76,1.23-2.5,2.03-3.86,1.45-7.82,1.79-11.9,1.02-1.21-.25-2.35-.65-3.44-1.17-.64-.85-1.43-1.53-2.35-2.03,2.58-.74,5.06-.43,7.43.94-1.04-1.25-2.32-2.27-3.83-3.05-3.08-1.52-5.48-.82-7.2,2.11-3.32-2.66-6.97-4.77-10.96-6.34-6.21-2.22-11.46-.84-15.73,4.15.34-4.56,1.85-8.69,4.54-12.37,1-1.1,2.17-1.96,3.52-2.58-1.38-.75-2.84-1.3-4.38-1.64,1.45-2.31,3.23-4.38,5.32-6.18,3.11-2.69,6.4-5.15,9.86-7.36-.15-.08-.3-.1-.47-.08-.49-.46-1.01-.91-1.57-1.33-.86-.46-1.75-.87-2.66-1.25,1.53-.12,3,.16,4.38.86.05-.05.1-.1.16-.16-.92-1.6-2.07-3.01-3.44-4.23Z"/>
  <path class="cls-17" d="M104.43,54.36c-.94-.79-1.99-1.41-3.13-1.88,1.22-4.32,3.59-7.87,7.12-10.64-1.4,1.88-2.49,3.97-3.29,6.26-.62,2.04-.85,4.13-.7,6.26Z"/>
  <path class="cls-17" d="M131.82,52.95v.47c-1.07.24-2.06.65-2.97,1.25.47-4.71-.83-8.86-3.91-12.44,1.63,1.16,3.01,2.59,4.15,4.3,1.29,1.98,2.21,4.12,2.74,6.42Z"/>
  <path class="cls-23" d="M137.45,44.97c.08,0,.14.06.16.16-.7.21-1.38.21-2.03,0,.66.05,1.28,0,1.88-.16Z"/>
  <path class="cls-25" d="M101.3,52.48c1.14.47,2.19,1.09,3.13,1.88.62.72,1.17,1.51,1.64,2.35.56,1.92,1.57,3.57,3.05,4.93.4.28.82.51,1.25.7-.2.36-.51.57-.94.63-.47-.08-.88-.26-1.25-.55-1.59-1.77-3.1-3.59-4.54-5.48-2.39-2.15-5.18-3.32-8.37-3.52-1.3.02-2.52.34-3.68.94,1.31-1.88,2.98-3.37,5.01-4.46,1.43-.8,2.91-1.46,4.46-1.96.1.15.07.28-.08.39-1.46.76-2.66,1.83-3.6,3.21,1.34.17,2.65.48,3.91.94Z"/>
  <path class="cls-26" d="M85.33,49.2c.27-.03.53,0,.78.08,1.13.95,2.22,1.95,3.29,2.97-.92-.31-1.86-.62-2.82-.94-1.1-.15-2.2-.33-3.29-.55.6-.64,1.28-1.16,2.03-1.57Z"/>
  <path class="cls-11" d="M141.36,56.4c-2.53-1.68-5.24-2.02-8.14-1.02-1.52.53-2.93,1.26-4.23,2.19l-4.85,4.85c-.66.49-1.39.64-2.19.47-.26-.18-.41-.41-.47-.7,1.17-.2,2.14-.78,2.9-1.72.7-1.4,1.48-2.76,2.35-4.07.64-.67,1.34-1.24,2.11-1.72.91-.6,1.9-1.02,2.97-1.25v-.47c.12.14.28.24.47.31,1.14-.2,2.29-.36,3.44-.47-.79-1.39-1.83-2.57-3.13-3.52,2.98,1.04,5.51,2.79,7.59,5.24.43.61.82,1.23,1.17,1.88Z"/>
  <path class="cls-29" d="M147.16,49.67c1.04.27,1.9.85,2.58,1.72.09.15.04.26-.16.31-.62-.1-1.25-.15-1.88-.16-1.35.06-2.68.19-3.99.39,1.13-.8,2.28-1.56,3.44-2.27Z"/>
  <path class="cls-6" d="M110.37,62.34c.8-1.05,1.19-2.25,1.17-3.6.61,1.82.51,3.6-.31,5.32-.38.62-.93.93-1.64.94-.43-.05-.85,0-1.25.16.02.1.07.15.16.16.05.58,0,1.16-.16,1.72-.11-.06-.21-.11-.31-.16-.11-.35-.32-.63-.63-.86-3.15-2.75-6.81-3.79-10.96-3.13-1.52-2.44-1.94-5.08-1.25-7.9-.35-.18-.71-.28-1.1-.31h-.47c-.68-.1-1.36-.21-2.03-.31,1.16-.6,2.38-.91,3.68-.94,3.19.2,5.99,1.38,8.37,3.52,1.44,1.88,2.95,3.71,4.54,5.48.37.29.78.47,1.25.55.43-.06.74-.26.94-.63Z"/>
  <path class="cls-37" d="M91.59,54.36c.68.1,1.36.21,2.03.31-.78.03-1.57,0-2.35-.08.09-.11.19-.19.31-.23Z"/>
  <path class="cls-21" d="M94.1,54.68c.39.03.75.14,1.1.31-.69,2.83-.27,5.46,1.25,7.9,4.15-.66,7.8.39,10.96,3.13.31.23.52.51.63.86-2.05-1.63-4.39-2.54-7.04-2.74-1.72-.05-3.44-.1-5.17-.16-1.27-1.21-2.03-2.7-2.27-4.46-.19-1.67,0-3.28.55-4.85Z"/>
  <path class="cls-30" d="M141.36,56.4c-.8.03-1.63.03-2.5,0h-1.41c.26,2.49-.18,4.84-1.33,7.04-.25.27-.49.56-.7.86-2.17-.43-4.36-.48-6.57-.16-1.77.44-3.34,1.25-4.7,2.43-.3.04-.51.19-.63.47-.4.42-.56.29-.47-.39,0-.45.1-.87.31-1.25-2.21-.07-3.31-1.22-3.29-3.44.08-.98.24-1.95.47-2.9.1.37.21.73.31,1.1,0,.76.2,1.44.63,2.03.06.29.21.53.47.7.8.17,1.53.02,2.19-.47l4.85-4.85c1.3-.93,2.7-1.67,4.23-2.19,2.9-1,5.61-.67,8.14,1.02Z"/>
  <path class="cls-39" d="M100.36,58.28c-1.03.12-1.43.7-1.17,1.72.23.31.51.52.86.63v.94c-.84-.06-1.67-.16-2.5-.31-.37-.51-.61-1.09-.7-1.72-.1-1.26-.08-2.51.08-3.76,1.41-.09,2.66.3,3.76,1.17-.23.41-.34.85-.31,1.33Z"/>
  <path class="cls-13" d="M138.86,56.4c.5,2.6.11,5.05-1.17,7.36-.53.76-1.18,1.39-1.96,1.88-3.02-.79-6.04-.82-9.08-.08-.89.23-1.72.57-2.5,1.02,1.36-1.17,2.92-1.98,4.7-2.43,2.21-.33,4.4-.27,6.57.16.22-.3.45-.59.7-.86,1.15-2.21,1.59-4.56,1.33-7.04h1.41Z"/>
  <path class="cls-41" d="M133.69,57.02h1.88c.05,1.36-.03,2.72-.23,4.07-.23.53-.51,1.03-.86,1.49-.84.13-1.67.1-2.5-.08.4-1.61.4-3.23,0-4.85.6-.17,1.18-.38,1.72-.63Z"/>
  <path class="cls-36" d="M82.51,57.65c3-.31,5.77.35,8.3,1.96.75.57,1.43,1.22,2.03,1.96-.67-.12-1.35-.35-2.03-.7-3.3-1.06-6.53-.9-9.7.47-.33.12-.61.31-.86.55.17-.82.49-1.6.94-2.35.42-.65.86-1.28,1.33-1.88Z"/>
  <path class="cls-44" d="M100.36,58.28c.95.2,1.29.77,1.02,1.72-.3.52-.74.73-1.33.63-.35-.11-.63-.32-.86-.63-.25-1.02.14-1.6,1.17-1.72Z"/>
  <path class="cls-10" d="M146.84,58.28c1.2-.03,2.4,0,3.6.08,1,1.14,1.78,2.42,2.35,3.83l-.16.16c-2.69-1.47-5.56-1.96-8.61-1.49-1.28.24-2.51.63-3.68,1.17-.1-.1-.1-.21,0-.31,1.77-1.92,3.94-3.06,6.5-3.44Z"/>
  <path class="cls-5" d="M102.7,58.74c1.22,1.29,2.29,2.69,3.21,4.23.11.13.08.23-.08.31-1.12-.51-2.26-.93-3.44-1.25-.05-.1-.1-.21-.16-.31.32-.96.47-1.95.47-2.97Z"/>
  <path class="cls-42" d="M120.86,60.15c-.1-.37-.21-.73-.31-1.1,0-.2.07-.35.23-.47.08.52.1,1.04.08,1.57Z"/>
  <path class="cls-1" d="M129.78,61.88c-.79.05-1.26-.32-1.41-1.1.35-.61.82-1.13,1.41-1.57.48.4.8.9.94,1.49-.05.6-.36.99-.94,1.17Z"/>
  <path class="cls-33" d="M128.37,60.78c.15.78.62,1.14,1.41,1.1.06.28.16.54.31.78-1.41.26-2.8.62-4.15,1.1-.1-.1-.1-.21,0-.31.79-.92,1.6-1.8,2.43-2.66Z"/>
  <path class="cls-2" d="M109.59,65.01c-.37.1-.73.21-1.1.31-.08,0-.14-.06-.16-.16.4-.15.82-.21,1.25-.16Z"/>
  <path class="cls-16" d="M84.7,66.1c3.41-.21,6.65.45,9.7,1.96,2.53,1.29,4.98,2.7,7.36,4.23.2.13.31.31.31.55-.11.57-.19,1.14-.23,1.72-3.71-2.65-7.75-4.66-12.13-6.03-4.85-.92-8.74.62-11.66,4.62-.13-1.21-.07-2.41.16-3.6,1.77-1.92,3.94-3.06,6.5-3.44Z"/>
  <path class="cls-12" d="M124.15,66.57c-.12.28-.33.43-.63.47.12-.28.33-.43.63-.47Z"/>
  <path class="cls-43" d="M131.03,74.71c-.1-.42-.21-.83-.31-1.25-.05-.44.1-.78.47-1.02,2.28-1.43,4.62-2.73,7.04-3.91,3.58-1.81,7.34-2.33,11.27-1.57,2.09.59,3.84,1.71,5.24,3.37.1,1.2.1,2.4,0,3.6-3.85-5.21-8.78-6.54-14.79-3.99-3.11,1.35-6.09,2.94-8.92,4.77Z"/>
  <path class="cls-18" d="M103.02,80.03c-3.12-1.86-6.4-3.35-9.86-4.46-1.23-.19-2.46-.38-3.68-.55-1.07-.09-2.04.17-2.9.78.93.52,1.82,1.12,2.66,1.8-3.19.14-6.21.87-9.08,2.19-.77.48-1.55.93-2.35,1.33-.08-.63-.19-1.25-.31-1.88,1.22-3.59,3.57-6.18,7.04-7.75,2.67-1.23,5.38-1.34,8.14-.31,3.45,1.23,6.58,2.98,9.39,5.24.29,1.21.6,2.41.94,3.6Z"/>
  <path class="cls-14" d="M106.3,70.8c.92.5,1.7,1.18,2.35,2.03.47,1.33,1.18,2.53,2.11,3.6,1.26,1.31,2.56,2.56,3.91,3.76.67.9,1.06,1.89,1.17,2.97-1.68.15-3.24-.19-4.7-1.02-.68-.47-1.36-.94-2.03-1.41-1.44-1.39-2.93-2.72-4.46-3.99-.13-.84-.1-1.67.08-2.5,1.88,1.34,3.75,2.61,5.63,3.83-1.75-1.99-3.63-3.84-5.63-5.56.2-.88.72-1.45,1.57-1.72Z"/>
  <path class="cls-38" d="M126.49,70.95c.95.27,1.39.9,1.33,1.88-1.91,1.75-3.76,3.55-5.56,5.4,1.95-1.19,3.88-2.47,5.79-3.83.13.89.07,1.78-.16,2.66-1.8,1.57-3.63,3.11-5.48,4.62-1.78,1.06-3.71,1.61-5.79,1.64.17-1.03.56-1.97,1.17-2.82,1.49-1.37,2.95-2.78,4.38-4.23.85-.97,1.45-2.06,1.8-3.29.75-.8,1.58-1.48,2.5-2.03Z"/>
  <path class="cls-18" d="M154.82,81.91c-3.49-2.35-7.35-3.6-11.58-3.76.94-.68,1.93-1.28,2.97-1.8-1.4-.82-2.92-1.08-4.54-.78-2.5.42-4.9,1.15-7.2,2.19-1.66.73-3.28,1.54-4.85,2.43.41-1.25.8-2.5,1.17-3.76,3.26-2.48,6.88-4.22,10.88-5.24,5.93-.41,10.29,2.01,13.07,7.28.13.39.26.78.39,1.17-.09.78-.2,1.54-.31,2.27Z"/>
  <path class="cls-35" d="M130.72,73.46c.1.42.21.83.31,1.25,0,.08-.06.14-.16.16-.15-.46-.21-.93-.16-1.41Z"/>
  <path class="cls-46" d="M103.02,80.03c2.08,6.44,4.46,12.81,7.12,19.1,1.41,2.11,3.39,2.94,5.95,2.5,1.69.19,3.28-.1,4.77-.86.5-.45.94-.94,1.33-1.49,2.71-6.28,5.19-12.65,7.43-19.1,1.57-.89,3.19-1.7,4.85-2.43,2.3-1.04,4.7-1.77,7.2-2.19,1.62-.3,3.14-.04,4.54.78-1.04.52-2.03,1.12-2.97,1.8,4.23.16,8.09,1.41,11.58,3.76-.1,1.4-.39,2.75-.86,4.07-.68-.92-1.49-1.7-2.43-2.35-.09,5.4-1.73,10.25-4.93,14.56-2.16-6.17-6.36-8.46-12.6-6.89,2.51-2.87,5.53-3.57,9.08-2.11,1.58.75,3.02,1.72,4.3,2.9.67-1.5,1.11-3.06,1.33-4.7-.05-.26-.1-.52-.16-.78-3.09-1.84-6.43-2.59-10.02-2.27-.94.14-1.8.48-2.58,1.02-.1-.1-.1-.21,0-.31,1-1.07,1.92-2.12,2.74-3.13-4.49,2.9-8.17,6.6-11.03,11.11-2.68,4.38-4.56,9.07-5.63,14.09-3.91.62-7.83.62-11.74,0-1.58-7.58-4.86-14.31-9.86-20.19-1.85-1.99-3.92-3.71-6.18-5.17.67,1.02,1.48,2.01,2.43,2.97.1.1.1.21,0,.31-1.97-1.11-4.09-1.5-6.34-1.17-2.31.33-4.48,1.09-6.5,2.27-.1.42-.1.83,0,1.25.31,1.31.65,2.61,1.02,3.91.04.22.14.3.31.23,2.07-2.04,4.54-3.21,7.43-3.52,2.29.17,4.2,1.11,5.71,2.82-6.21-1.48-10.39.81-12.52,6.89-2.48-3.29-3.97-7-4.46-11.11-.15-1.14-.23-2.29-.23-3.44-.16-.02-.32,0-.47.08-.65.68-1.33,1.33-2.03,1.96-.43-1.32-.69-2.68-.78-4.07.8-.4,1.58-.85,2.35-1.33,2.87-1.33,5.89-2.06,9.08-2.19-.84-.68-1.73-1.28-2.66-1.8.86-.61,1.82-.87,2.9-.78,1.22.17,2.45.36,3.68.55,3.46,1.11,6.74,2.6,9.86,4.46Z"/>
  <path class="cls-38" d="M107.4,81.6c1.27,1.11,2.63,2.1,4.07,2.97-.91,1.54-1.46,3.21-1.64,5.01-.83-.84-1.41-1.83-1.72-2.97-.39-1.65-.62-3.32-.7-5.01Z"/>
  <path class="cls-8" d="M125.09,81.75c.09,2.4-.41,4.69-1.49,6.89-.25.41-.57.78-.94,1.1-.22-1.78-.71-3.48-1.49-5.09,1-.74,2.04-1.41,3.13-2.03.29-.27.55-.55.78-.86Z"/>
  <path class="cls-32" d="M112.41,86.92c.87-.08,1.71.05,2.5.39.55,1.08.99,2.2,1.33,3.37.35-1.19.84-2.31,1.49-3.37.94-.52,1.88-.52,2.82,0,.22.15.32.36.31.63-.19,1.45-.58,2.83-1.17,4.15-.55.52-1.2.86-1.96,1.02-1.04.1-2.09.1-3.13,0-1.32-.28-2.13-1.09-2.43-2.43-.17-.97-.36-1.93-.55-2.9.18-.36.44-.65.78-.86Z"/>
  <path class="cls-9" d="M112.25,93.65c.17,1.31.46,2.61.86,3.91.23.49.51.93.86,1.33-1.45.25-2.58-.24-3.37-1.49-.07-.56.03-1.08.31-1.57.42-.75.86-1.48,1.33-2.19Z"/>
  <path class="cls-15" d="M119.92,93.81c.74.61,1.29,1.4,1.64,2.35.42,1.21.03,2.07-1.17,2.58-.67.21-1.35.27-2.03.16l.55-.55c.74-1.42,1.08-2.94,1.02-4.54Z"/>
  <path class="cls-40" d="M163.12,95.37c.64.19,1.21.5,1.72.94-1.22.28-2.13.96-2.74,2.03-.2,1.42.29,2.55,1.49,3.37,1.43.87,2.9.92,4.38.16.83-1.05.99-2.2.47-3.44.05-.08.1-.16.16-.23.43.28.87.54,1.33.78-.09,2.06-1.01,3.65-2.74,4.77-3.1,1.05-5.16.03-6.18-3.05-.26-1.32,0-2.52.78-3.6.44-.58.89-1.15,1.33-1.72Z"/>
  <path class="cls-40" d="M66.39,95.53c4.1-.05,5.79,1.93,5.09,5.95-1.83,2.95-4.18,3.42-7.04,1.41.07,1.84.83,3.33,2.27,4.46-1.6.2-2.77-.45-3.52-1.96-.16-1.16-.37-2.31-.63-3.44-.23-.43-.52-.82-.86-1.17.29-.23.6-.23.94,0,.83.52,1.67,1.04,2.5,1.57,2.46.51,4.26-.36,5.4-2.58.3-1.76-.45-2.65-2.27-2.66-2.4.36-3.91,1.72-4.54,4.07-.09-.03-.17-.08-.23-.16-.72-1.99-.22-3.59,1.49-4.77.48-.24.95-.48,1.41-.7Z"/>
  <path class="cls-28" d="M76.41,106.01c.87.64,1.68,1.37,2.43,2.19.08.15.1.3.08.47-.46-.13-.93-.16-1.41-.08-1.18,1.13-2.3,2.3-3.37,3.52-.4,1.77.3,2.81,2.11,3.13.43.03.79-.1,1.1-.39,1.07-1.07,2.14-2.14,3.21-3.21.03-.48.11-.95.23-1.41.57.68,1.2,1.3,1.88,1.88-.46.13-.93.21-1.41.23-1.1,1.1-2.19,2.19-3.29,3.29-1.99,1.05-3.63.65-4.93-1.17-.99-1.4-.93-2.76.16-4.07,1-1.05,2.04-2.04,3.13-2.97.08-.47.1-.94.08-1.41Z"/>
  <path class="cls-40" d="M153.42,108.36c2.58.83,5.13,1.75,7.67,2.74.48.03.95.11,1.41.23-.73.83-1.51,1.62-2.35,2.35-.15-.4-.21-.82-.16-1.25-.65-.19-1.3-.4-1.96-.63-.51.36-.98.77-1.41,1.25.05.73.28,1.41.7,2.03.41.11.82.11,1.25,0-.39.81-.96,1.49-1.72,2.03-.13-.46-.21-.93-.23-1.41-1.18-2.42-2.25-4.87-3.21-7.36Z"/>
  <path class="cls-19" d="M155.29,110.71c.59.22,1.17.48,1.72.78-.26.34-.55.65-.86.94-.3-.57-.59-1.14-.86-1.72Z"/>
  <path class="cls-36" d="M146.22,114.78c.18-.03.34.02.47.16-.36.46-.39.93-.08,1.41,1.1,1.62,2.19,3.23,3.29,4.85.46.09.9.22,1.33.39-.94.71-1.93,1.31-2.97,1.8.1-.47.13-.94.08-1.41-1.15-1.65-2.27-3.32-3.37-5.01-.44-.09-.86-.23-1.25-.39.82-.64,1.65-1.24,2.5-1.8Z"/>
  <path class="cls-36" d="M87.21,115.56c1.02.5,2.01,1.07,2.97,1.72-.03.09-.08.17-.16.23-.37.05-.73.1-1.1.16-1.1,1.76-2.22,3.51-3.37,5.24-.02.38.06.74.23,1.1-.05.1-.1.21-.16.31-.99-.57-1.92-1.2-2.82-1.88.76.03,1.31-.29,1.64-.94.9-1.54,1.84-3.05,2.82-4.54.05-.47.02-.94-.08-1.41Z"/>
  <path class="cls-40" d="M95.03,120.1c.79.15,1.55.41,2.27.78.86,2.23,1.79,4.42,2.82,6.57.48-1.36.98-2.72,1.49-4.07-.2-.41-.46-.77-.78-1.1.99,0,1.93.26,2.82.78-.38.22-.77.43-1.17.63-.84,2.27-1.59,4.57-2.27,6.89-.33,0-.61-.1-.86-.31-1.01-2.47-2.06-4.92-3.13-7.36-.61,1.52-1.16,3.05-1.64,4.62.28.42.48.86.63,1.33-.79-.19-1.58-.42-2.35-.7-.23-.11-.33-.29-.31-.55.42-.03.78-.18,1.1-.47.62-1.9,1.29-3.78,2.03-5.63-.25-.45-.46-.92-.63-1.41Z"/>
  <path class="cls-40" d="M136.36,120.26c1.98-.45,3.12.31,3.44,2.27-.2,1.64-1.09,2.55-2.66,2.74,1.35-1.26,1.4-2.53.16-3.83-.62-.32-1.22-.3-1.8.08.73,2.03,1.51,4.07,2.35,6.1.45.17.9.35,1.33.55-1.06.53-2.16.97-3.29,1.33l-.16-.16c.18-.33.33-.67.47-1.02-.74-1.98-1.52-3.93-2.35-5.87-.44-.09-.8-.3-1.1-.63,1.19-.57,2.39-1.09,3.6-1.57Z"/>
  <path class="cls-26" d="M126.49,123.23h.63c-.08.37-.26.68-.55.94.2,2.21.54,4.4,1.02,6.57.36.15.67.36.94.63-1.13.39-2.28.55-3.44.47.15-.23.34-.44.55-.63-.17-2.15-.48-4.29-.94-6.42-.22-.3-.51-.51-.86-.63-.14-.13-.19-.29-.16-.47.97-.08,1.91-.24,2.82-.47Z"/>
  <path class="cls-31" d="M115.69,129.8c0,.08.06.14.16.16.15-.35.2-.72.16-1.1-.02-.97.03-1.93.16-2.9-.05-.23-.1-.47-.16-.7-1.1-.67-1.02-.98.23-.94.62-.01,1.22.09,1.8.31-.24.31-.52.58-.86.78-.16,2.45-.29,4.9-.39,7.36-.36.04-.7-.01-1.02-.16-1.62-2.03-3.23-4.07-4.85-6.1-.25,1.66-.36,3.33-.31,5.01.34.21.62.47.86.78-.93.16-1.87.21-2.82.16.12-.41.38-.72.78-.94.3-2.13.43-4.27.39-6.42-.32-.29-.6-.6-.86-.94.78-.21,1.57-.21,2.35,0,1.46,1.88,2.92,3.76,4.38,5.63Z"/>
  <path class="cls-27" d="M69.52,116.81c1.69,1.5,3.36,3.04,5.01,4.62,2.84,2.33,5.81,4.47,8.92,6.42,1.96.98,3.79,1.99,5.48,3.05-7.42-3.4-13.89-8.09-19.41-14.09Z"/>
  <path class="cls-22" d="M116.01,128.87c.05.38,0,.74-.16,1.1-.1-.02-.15-.07-.16-.16.1-.31.21-.63.31-.94Z"/>
</svg>