<?xml version="1.0" encoding="UTF-8"?>
<svg id="St._Thomas" data-name="St. Thomas" xmlns="http://www.w3.org/2000/svg" viewBox="0 0 232.6 144.9">
  <defs>
    <style>
      .cls-1 {
        fill: #f7f6fa;
      }

      .cls-1, .cls-2, .cls-3 {
        stroke-width: 0px;
      }

      .cls-2 {
        fill: #452c86;
      }

      .cls-3 {
        fill: #fdfcfd;
      }
    </style>
  </defs>
  <path class="cls-2" d="M113.95,142.59c-.83-1.91-2.84-1.72-4.34-2.31-25.54-9.95-40.64-29.36-49.07-54.58-7.51-22.49-8.74-45.66-6.39-69.11.12-1.23.43-2.43.7-3.94,22.54,10.12,42.7,6.98,60.94-10.35,7.8,7.97,17.16,13.45,28.46,15.36,11.2,1.89,21.75-.02,32.14-5.14,1.52,5.67,1.49,11.23,1.68,16.75.88,26.5-2.47,52.19-15.77,75.69-10.37,18.32-25.4,31.09-45.9,36.96-.23.07-.38.44-.57.66h-1.88ZM172.12,20.69c-10.05,3.19-19.75,4.35-29.62,2.43-10.01-1.95-18.9-6.26-26.53-12.9-21.19,14.34-27.95,15.65-56.12,10.96-3.72,24.78,1.41,65.38,19.46,89.58,8.23,11.04,18.46,19.38,31.23,24.67,3.56,1.48,6.63,1.61,10.25.08,10.42-4.4,19.59-10.5,26.8-19.2,23.06-27.81,26.2-60.74,24.53-95.62Z"/>
  <path class="cls-1" d="M172.12,20.69c1.67,34.87-1.47,67.81-24.53,95.62-7.21,8.7-16.39,14.8-26.8,19.2-3.62,1.53-6.69,1.39-10.25-.08-12.77-5.29-23-13.63-31.23-24.67-18.05-24.2-23.18-64.8-19.46-89.58,28.17,4.69,34.94,3.38,56.12-10.96,7.63,6.64,16.53,10.96,26.53,12.9,9.87,1.92,19.56.76,29.62-2.43ZM115.74,132.27c11.8-4.1,21.59-10.67,29.2-20.14,20.05-24.93,23.64-54.27,22.76-85.25-19.28,4.39-36.45.68-52-10.65-15.68,11.47-32.88,14.96-52.02,10.68-.99,24.08,1.56,46.99,11.97,68.48,8.44,17.44,21.24,30.33,40.09,36.89Z"/>
  <path class="cls-2" d="M115.74,132.27c-18.85-6.56-31.65-19.45-40.09-36.89-10.41-21.49-12.96-44.4-11.97-68.48,19.14,4.28,36.34.79,52.02-10.68,15.55,11.33,32.71,15.04,52,10.65.89,30.99-2.7,60.32-22.76,85.25-7.61,9.47-17.4,16.05-29.2,20.14ZM156.8,36.06h-82.23v18.25c3.02-.35,5.78.51,8.4-.49.73-2.41-.33-4.86.91-7.24h26.56v31.1h10.2v-30.99h27.01c.12,2.64.22,4.92.33,7.48,3.17,0,6.04.52,8.81-.38v-17.73ZM95.33,89.31h38.46v9.74c-3.95.97-7.92-.42-11.46.83v8.64h14.82c2.26-1.98,4.25-3.72,5.83-5.11v-17.88c-1.94-2.55-3.36-4.41-4.71-6.18h-40.03c-.02-3.84-.48-7.35.41-11.2h10.09v-10.24h-15.31c-1.8,1.68-3.72,3.48-5.39,5.05v19.75c2.01,1.82,4.2,3.81,7.28,6.6ZM106.61,120.86h17.91v-5.59c-.9-1.63-2.89-.13-4.18-2.36v-22.63c-3.49.02-6.54-.47-9.85.43v22.54c-1.19,1.86-3.18.37-3.88,1.73v5.88ZM122.46,68.19h10.34c1.68,1.16.22,3.17,1.71,3.8h8.7v-8.28c-1.96-2.34-3.56-4.24-4.78-5.69h-15.97v10.18ZM108.76,108.58v-9.16h-9.84c-.42-1.7-.75-3.02-1.05-4.23h-9.43c-.7,2.73-.55,5.17-.24,7.16,2.18,2.39,4.06,4.45,5.68,6.23h14.88Z"/>
  <path class="cls-1" d="M156.8,36.06v17.73c-2.77.9-5.64.37-8.81.38-.11-2.56-.21-4.85-.33-7.48h-27.01v30.99h-10.2v-31.1h-26.56c-1.24,2.39-.18,4.84-.91,7.24-2.62,1-5.38.15-8.4.49v-18.25h82.23Z"/>
  <path class="cls-1" d="M95.33,89.31c-3.08-2.79-5.27-4.78-7.28-6.6v-19.75c1.67-1.57,3.59-3.36,5.39-5.05h15.31v10.24h-10.09c-.89,3.85-.43,7.36-.41,11.2h40.03c1.35,1.77,2.77,3.63,4.71,6.18v17.88c-1.58,1.39-3.56,3.12-5.83,5.11h-14.82v-8.64c3.54-1.25,7.51.14,11.46-.83v-9.74h-38.46Z"/>
  <path class="cls-1" d="M106.61,120.86v-5.88c.69-1.36,2.68.12,3.88-1.73v-22.54c3.3-.9,6.36-.41,9.85-.43v22.63c1.29,2.23,3.28.73,4.18,2.36v5.59h-17.91Z"/>
  <path class="cls-3" d="M122.46,68.19v-10.18h15.97c1.22,1.45,2.82,3.36,4.78,5.69v8.28h-8.7c-1.49-.62-.04-2.64-1.71-3.8h-10.34Z"/>
  <path class="cls-1" d="M108.76,108.58h-14.88c-1.62-1.78-3.5-3.84-5.68-6.23-.31-1.99-.46-4.43.24-7.16h9.43c.3,1.22.63,2.53,1.05,4.23h9.84v9.16Z"/>
</svg>