<?xml version="1.0" encoding="UTF-8"?>
<svg id="UCONN" xmlns="http://www.w3.org/2000/svg" viewBox="0 0 232.6 144.9">
  <defs>
    <style>
      .cls-1 {
        fill: #fefffe;
      }

      .cls-1, .cls-2, .cls-3, .cls-4, .cls-5 {
        stroke-width: 0px;
      }

      .cls-2 {
        fill: #a4a9ad;
      }

      .cls-3 {
        fill: #0c223e;
      }

      .cls-4 {
        fill: #ea1c2c;
      }

      .cls-5 {
        fill: #a4c7e1;
      }
    </style>
  </defs>
  <g id="g14">
    <g id="g24">
      <path id="path26" class="cls-2" d="M115.77,143.35c-11.15-1.59-16.99-12.75-18.06-15.4-9.56-5.84-16.46-15.93-19.65-21.24l-1.59,4.78-2.12-3.72c-8.5-14.87-14.34-37.17-14.87-38.24v-.53l.53-.53c3.19-5.84,6.9-10.62,9.03-13.28l-1.59-.53.53-1.59c1.59-3.72,4.25-7.43,5.31-8.5C78.06,12.17,92.4,2.61,92.93,2.08l1.59-.53,1.06,1.06c6.9,6.9,10.09,15.93,11.15,19.65,3.72-.53,9.03-.53,9.56-.53,0,0,5.31,0,9.03.53,1.06-3.72,4.25-12.75,11.68-19.65l1.06-1.06,1.06.53c.53.53,15.4,10.09,20.18,42.49.53,1.06,3.19,4.78,4.78,8.5l1.06,1.59-2.12.53c2.12,2.66,6.37,7.44,9.56,13.28l.53.53-.53.53c0,1.06-5.84,23.37-14.87,38.24l-1.59,3.72-1.59-4.78c-3.19,5.31-10.62,15.4-20.18,21.24-1.06,2.66-6.37,13.81-18.06,15.4"/>
    </g>
    <g id="g28">
      <path id="path30" class="cls-3" d="M160.38,54.66l2.12-1.06c-1.59-4.25-4.78-8.5-4.78-8.5-4.78-32.4-19.65-41.42-19.65-41.42-8.5,8.5-11.15,20.71-11.15,20.71-3.72-.53-10.62-1.06-10.62-1.06,0,0-6.9.53-10.62,1.06,0,0-2.66-12.21-11.68-20.71,0,0-14.34,9.03-19.12,41.42,0,0-3.19,4.25-5.31,8.5l2.66,1.06s-6.37,6.9-10.62,14.34c0,0,5.84,22.84,14.34,38.24l1.59-4.78s8.5,16.46,21.77,24.43c0,0,4.78,13.28,16.99,14.87,11.68-1.59,16.99-14.87,16.99-14.87,13.28-7.97,21.77-24.43,21.77-24.43l1.06,4.78c9.03-15.4,14.87-38.24,14.87-38.24-4.25-7.44-10.62-14.34-10.62-14.34"/>
    </g>
    <g id="g32">
      <path id="path34" class="cls-1" d="M84.97,28.64c3.72-7.44,8.5-13.81,8.5-13.81,2.66,3.72,2.66,9.03,2.66,9.03-3.72,5.31-4.78,10.09-4.78,10.09l2.12-.53c-1.59,3.19-2.66,8.5-2.66,8.5,6.9-6.9,14.34-10.62,14.34-10.62,0,0-2.66-.53-4.25-.53l2.66-1.59s-2.66-12.21-10.09-18.59c0,0-11.15,7.43-13.81,31.33,0,0,2.12-5.31,5.31-13.28"/>
    </g>
    <g id="g36">
      <path id="path38" class="cls-1" d="M147.63,28.64c-3.72-7.44-8.5-13.81-8.5-13.81-2.66,3.72-2.66,9.03-2.66,9.03,3.72,5.31,4.78,10.09,4.78,10.09l-2.12-.53c1.59,3.19,2.12,8.5,2.12,8.5-6.37-6.9-13.81-10.62-13.81-10.62,0,0,2.66-.53,4.25-.53l-2.66-1.59s2.66-12.21,10.09-18.59c0,0,11.15,7.43,13.81,31.33,0,0-2.12-5.31-5.31-13.28"/>
    </g>
    <g id="g40">
      <path id="path42" class="cls-5" d="M97.71,66.34s-.53,3.19,2.12,3.72c2.66,1.06,3.19-1.59,3.19-1.59-1.06-.53-2.12-1.06-2.66-1.59,0,.53.53,1.06.53,1.59s-.53.53-.53,0c-1.59,0-1.59-1.59-1.59-1.59-.53-.53-1.06-.53-1.06-.53"/>
    </g>
    <g id="g44">
      <path id="path46" class="cls-5" d="M129.58,68.47s.53,2.66,3.19,1.59c2.66-.53,2.12-3.72,2.12-3.72,0,0-.53,0-1.06.53,0,0,0,1.59-1.59,1.59,0,.53-.53.53-.53,0s.53-1.06.53-1.59c-.53.53-1.59,1.06-2.66,1.59"/>
    </g>
    <g id="g48">
      <path id="path50" class="cls-4" d="M116.3,115.2c-1.59,0-.53-3.19-5.31-3.19,0,3.72,2.66,5.84,5.31,6.37,2.12-.53,4.78-2.66,4.78-6.37-4.25,0-3.72,3.19-4.78,3.19"/>
    </g>
    <g id="g52">
      <path id="path54" class="cls-1" d="M116.3,94.49c1.59,0,3.72.53,4.78,1.59-.53-1.59-2.66-2.12-4.78-2.12s-4.25.53-5.31,2.12c1.59-1.06,3.19-1.59,5.31-1.59"/>
    </g>
    <g id="g56">
      <path id="path58" class="cls-1" d="M123.73,112.55c1.06,4.78-2.66,9.03-2.66,9.03,0-1.06-1.06-1.06-1.06-1.06,0-.53-.53,2.66-3.72,2.66-3.72,0-4.25-3.19-4.25-3.19,0,0-.53.53-1.06,1.59,0,0-3.72-4.25-2.66-9.03-2.66,2.12-2.12,9.03,1.59,11.15,3.72,1.06,3.19,1.59,6.37,1.59,2.66,0,2.66-.53,6.37-1.59,3.19-2.12,3.72-9.03,1.06-11.15"/>
    </g>
    <g id="g60">
      <path id="path62" class="cls-1" d="M128.51,116.79c-2.66,11.15-12.21,11.68-12.21,11.68,0,0-9.56-.53-12.21-11.68-.53-2.66-1.06-4.78-1.59-6.9-.53-2.12-3.19-10.09-6.9-16.46,1.06,0,2.12,1.06,4.25,4.25,3.72,7.44,5.31,10.62,10.62,10.62,5.31.53,4.78-2.66,4.78-2.66,0,0-6.37-1.06-6.37-10.62,0,0,2.66-3.72,7.44-3.72s7.43,3.72,7.43,3.72c0,9.56-6.37,10.62-6.37,10.62,0,0-.53,3.19,4.78,2.66,5.31,0,6.9-3.19,10.62-10.62,1.59-3.19,3.19-4.25,4.25-4.25-3.72,5.84-5.84,13.28-6.37,15.93-1.06,2.12-1.59,4.78-2.12,7.43M154.54,71.12l4.78-3.19-4.78-4.25s-3.19.53-8.5,2.12c0,0-1.06,7.43-5.31,11.68,0,0,2.12-7.97,1.59-14.34,0,0-5.84-1.06-9.56-6.37l1.59-.53s-1.59-3.19-3.72-5.31c-4.25,1.59-7.44,5.31-7.44,5.31-.53,13.28,2.66,15.4,2.66,15.4,3.19-7.97,7.44-10.09,7.44-10.09l-.53,2.66c3.19-.53,6.37,0,6.37,0,0,0-.53,6.37-8.5,9.03,0,0,0,4.78-1.06,9.03,0,0-3.72-5.84-9.56-10.09,0,0-1.06-17.53-3.72-30.8-3.19,13.28-3.72,30.8-3.72,30.8-5.84,4.25-9.56,10.09-9.56,10.09-1.06-4.25-1.06-9.03-1.06-9.03-7.97-2.66-8.5-9.03-8.5-9.03,0,0,3.19-.53,6.37,0l-.53-2.66s3.72,2.12,7.44,10.09c0,0,3.19-2.12,2.66-15.4,0,0-3.19-3.72-7.44-5.31-2.12,2.12-3.72,5.31-3.72,5.31l1.59.53c-3.72,5.31-9.56,6.37-9.56,6.37-.53,6.37,1.59,14.34,1.59,14.34-4.25-4.25-5.31-11.68-5.31-11.68-5.31-1.59-8.5-2.12-8.5-2.12l-4.78,4.25,4.78,3.19-7.97.53c2.66,11.68,7.43,23.37,7.43,23.37l1.59-3.72c6.37,12.21,12.21,16.46,12.21,16.46-1.59-6.37-4.78-13.28-4.78-13.28,9.03,6.37,14.34,20.18,16.46,27.62,3.72,11.15,13.28,11.15,13.28,11.15,0,0,9.56,0,12.75-11.15,2.66-7.43,7.97-21.24,16.99-27.62,0,0-3.19,6.9-4.78,13.28,0,0,5.84-4.25,12.21-16.46l1.59,3.72s4.78-11.68,7.43-23.37"/>
    </g>
  </g>
</svg>