<?xml version="1.0" encoding="UTF-8"?>
<svg xmlns="http://www.w3.org/2000/svg" viewBox="0 0 232.6 144.9">
  <defs>
    <style>
      .cls-1 {
        fill: #a73548;
      }

      .cls-1, .cls-2, .cls-3, .cls-4, .cls-5, .cls-6, .cls-7, .cls-8, .cls-9, .cls-10, .cls-11, .cls-12, .cls-13, .cls-14, .cls-15, .cls-16, .cls-17, .cls-18, .cls-19, .cls-20, .cls-21, .cls-22, .cls-23, .cls-24, .cls-25, .cls-26, .cls-27, .cls-28, .cls-29, .cls-30, .cls-31, .cls-32, .cls-33, .cls-34, .cls-35, .cls-36, .cls-37, .cls-38, .cls-39, .cls-40, .cls-41, .cls-42, .cls-43, .cls-44, .cls-45, .cls-46, .cls-47, .cls-48, .cls-49, .cls-50, .cls-51, .cls-52, .cls-53, .cls-54, .cls-55, .cls-56, .cls-57, .cls-58, .cls-59, .cls-60, .cls-61, .cls-62, .cls-63, .cls-64, .cls-65, .cls-66, .cls-67, .cls-68, .cls-69, .cls-70, .cls-71, .cls-72, .cls-73, .cls-74, .cls-75, .cls-76, .cls-77, .cls-78, .cls-79, .cls-80, .cls-81, .cls-82, .cls-83, .cls-84, .cls-85, .cls-86, .cls-87, .cls-88, .cls-89, .cls-90, .cls-91, .cls-92, .cls-93, .cls-94, .cls-95, .cls-96, .cls-97, .cls-98, .cls-99, .cls-100, .cls-101, .cls-102, .cls-103, .cls-104, .cls-105, .cls-106, .cls-107, .cls-108, .cls-109, .cls-110, .cls-111, .cls-112, .cls-113, .cls-114, .cls-115, .cls-116, .cls-117, .cls-118, .cls-119, .cls-120, .cls-121, .cls-122, .cls-123, .cls-124, .cls-125, .cls-126, .cls-127, .cls-128, .cls-129, .cls-130, .cls-131, .cls-132, .cls-133, .cls-134, .cls-135, .cls-136, .cls-137, .cls-138, .cls-139, .cls-140, .cls-141, .cls-142, .cls-143, .cls-144, .cls-145, .cls-146, .cls-147, .cls-148, .cls-149, .cls-150, .cls-151, .cls-152, .cls-153, .cls-154, .cls-155, .cls-156, .cls-157, .cls-158, .cls-159, .cls-160, .cls-161, .cls-162, .cls-163, .cls-164, .cls-165, .cls-166, .cls-167, .cls-168, .cls-169, .cls-170, .cls-171, .cls-172, .cls-173, .cls-174, .cls-175, .cls-176, .cls-177, .cls-178, .cls-179, .cls-180, .cls-181, .cls-182, .cls-183, .cls-184, .cls-185, .cls-186, .cls-187, .cls-188, .cls-189, .cls-190, .cls-191, .cls-192, .cls-193, .cls-194, .cls-195, .cls-196, .cls-197 {
        fill-rule: evenodd;
        stroke-width: 0px;
      }

      .cls-2 {
        fill: #b07180;
      }

      .cls-3 {
        fill: #d7a3ab;
      }

      .cls-4 {
        fill: #e4c4c9;
      }

      .cls-5 {
        fill: #cf909b;
      }

      .cls-6 {
        fill: #e0b8bf;
      }

      .cls-7 {
        fill: #d0929d;
      }

      .cls-8 {
        fill: #d59fa8;
      }

      .cls-9 {
        fill: #b96776;
      }

      .cls-10 {
        fill: #c7808c;
      }

      .cls-11 {
        fill: #ce8e99;
      }

      .cls-12 {
        fill: #cd8f9a;
      }

      .cls-13 {
        fill: #c47b88;
      }

      .cls-14 {
        fill: #ded1d6;
      }

      .cls-15 {
        fill: #c07380;
      }

      .cls-16 {
        fill: #b0afbb;
      }

      .cls-17 {
        fill: #c37583;
      }

      .cls-18 {
        fill: #c7808d;
      }

      .cls-19 {
        fill: #a93f4f;
      }

      .cls-20 {
        fill: #e6c6cb;
      }

      .cls-21 {
        fill: #ead0d5;
      }

      .cls-22 {
        fill: #b46575;
      }

      .cls-23 {
        fill: #9d1c32;
      }

      .cls-24 {
        fill: #b85e6a;
      }

      .cls-25 {
        fill: #cc8995;
      }

      .cls-26 {
        fill: #d8cfd4;
      }

      .cls-27 {
        fill: #d6a3ab;
      }

      .cls-28 {
        fill: #d097a0;
      }

      .cls-29 {
        fill: #bb6473;
      }

      .cls-30 {
        fill: #c06d78;
      }

      .cls-31 {
        fill: #cc8b97;
      }

      .cls-32 {
        fill: #cb8995;
      }

      .cls-33 {
        fill: #b07483;
      }

      .cls-34 {
        fill: #ca8995;
      }

      .cls-35 {
        fill: #bb6b79;
      }

      .cls-36 {
        fill: #b55663;
      }

      .cls-37 {
        fill: #e5c5cb;
      }

      .cls-38 {
        fill: #ac8493;
      }

      .cls-39 {
        fill: #ce8e9a;
      }

      .cls-40 {
        fill: #ad4c5c;
      }

      .cls-41 {
        fill: #a83b4d;
      }

      .cls-42 {
        fill: #d198a2;
      }

      .cls-43 {
        fill: #c57c89;
      }

      .cls-44 {
        fill: #9f2237;
      }

      .cls-45 {
        fill: #b15f6f;
      }

      .cls-46 {
        fill: #af8d9a;
      }

      .cls-47 {
        fill: #d8a6ae;
      }

      .cls-48 {
        fill: #af98a5;
      }

      .cls-49 {
        fill: #e1bcc3;
      }

      .cls-50 {
        fill: #e0b7be;
      }

      .cls-51 {
        fill: #d7a5ad;
      }

      .cls-52 {
        fill: #b05566;
      }

      .cls-53 {
        fill: #c47a87;
      }

      .cls-54 {
        fill: #cb8793;
      }

      .cls-55 {
        fill: #bb6574;
      }

      .cls-56 {
        fill: #bc6877;
      }

      .cls-57 {
        fill: #bf707e;
      }

      .cls-58 {
        fill: #bf717e;
      }

      .cls-59 {
        fill: #e1bbc2;
      }

      .cls-60 {
        fill: #af8c9a;
      }

      .cls-61 {
        fill: #b3505d;
      }

      .cls-62 {
        fill: #bf707d;
      }

      .cls-63 {
        fill: #a43142;
      }

      .cls-64 {
        fill: #deb0b7;
      }

      .cls-65 {
        fill: #ce909b;
      }

      .cls-66 {
        fill: #ae4a5a;
      }

      .cls-67 {
        fill: #ca8793;
      }

      .cls-68 {
        fill: #ab8492;
      }

      .cls-69 {
        fill: #ebd5d9;
      }

      .cls-70 {
        fill: #c98793;
      }

      .cls-71 {
        fill: #cb8692;
      }

      .cls-72 {
        fill: #c27583;
      }

      .cls-73 {
        fill: #c27683;
      }

      .cls-74 {
        fill: #c37684;
      }

      .cls-75 {
        fill: #c98792;
      }

      .cls-76 {
        fill: #c59397;
      }

      .cls-77 {
        fill: #e4c1c7;
      }

      .cls-78 {
        fill: #ae4d5e;
      }

      .cls-79 {
        fill: #c67d89;
      }

      .cls-80 {
        fill: #ecd5d9;
      }

      .cls-81 {
        fill: #cb8b96;
      }

      .cls-82 {
        fill: #b14d5b;
      }

      .cls-83 {
        fill: #dbacb3;
      }

      .cls-84 {
        fill: #c67f8c;
      }

      .cls-85 {
        fill: #ecd7db;
      }

      .cls-86 {
        fill: #ae9aa7;
      }

      .cls-87 {
        fill: #cd8c98;
      }

      .cls-88 {
        fill: #bf6f7c;
      }

      .cls-89 {
        fill: #c0717f;
      }

      .cls-90 {
        fill: #ead6da;
      }

      .cls-91 {
        fill: #b0aeba;
      }

      .cls-92 {
        fill: #a02238;
      }

      .cls-93 {
        fill: #be6e7c;
      }

      .cls-94 {
        fill: #cd8b97;
      }

      .cls-95 {
        fill: #b65c6b;
      }

      .cls-96 {
        fill: #c67987;
      }

      .cls-97 {
        fill: #cb8a96;
      }

      .cls-98 {
        fill: #c7828f;
      }

      .cls-99 {
        fill: #ad4a5b;
      }

      .cls-100 {
        fill: #ebd6da;
      }

      .cls-101 {
        fill: #c57a87;
      }

      .cls-102 {
        fill: #d1949f;
      }

      .cls-103 {
        fill: #d8a4ad;
      }

      .cls-104 {
        fill: #b45c6c;
      }

      .cls-105 {
        fill: #c07583;
      }

      .cls-106 {
        fill: #a53346;
      }

      .cls-107 {
        fill: #ae4c5e;
      }

      .cls-108 {
        fill: #c6808c;
      }

      .cls-109 {
        fill: #cf919c;
      }

      .cls-110 {
        fill: #c77e8b;
      }

      .cls-111 {
        fill: #ab3e4e;
      }

      .cls-112 {
        fill: #cc8a96;
      }

      .cls-113 {
        fill: #a63246;
      }

      .cls-114 {
        fill: #b75a67;
      }

      .cls-115 {
        fill: #c37885;
      }

      .cls-116 {
        fill: #f3e7ea;
      }

      .cls-117 {
        fill: #d296a1;
      }

      .cls-118 {
        fill: #ca8894;
      }

      .cls-119 {
        fill: #bf717f;
      }

      .cls-120 {
        fill: #ae99a7;
      }

      .cls-121 {
        fill: #aa4052;
      }

      .cls-122 {
        fill: #c0888c;
      }

      .cls-123 {
        fill: #a32d3f;
      }

      .cls-124 {
        fill: #cf929d;
      }

      .cls-125 {
        fill: #9e2035;
      }

      .cls-126 {
        fill: #c37d8a;
      }

      .cls-127 {
        fill: #d9a8b0;
      }

      .cls-128 {
        fill: #ce919c;
      }

      .cls-129 {
        fill: #981c30;
      }

      .cls-130 {
        fill: #c27784;
      }

      .cls-131 {
        fill: #b16777;
      }

      .cls-132 {
        fill: #bc6e7c;
      }

      .cls-133 {
        fill: #c77c89;
      }

      .cls-134 {
        fill: #d1ccd2;
      }

      .cls-135 {
        fill: #fefdfd;
      }

      .cls-136 {
        fill: #e1bbc1;
      }

      .cls-137 {
        fill: #a93d4e;
      }

      .cls-138 {
        fill: #a63347;
      }

      .cls-139 {
        fill: #d0cbd2;
      }

      .cls-140 {
        fill: #b36474;
      }

      .cls-141 {
        fill: #b15969;
      }

      .cls-142 {
        fill: #b45867;
      }

      .cls-143 {
        fill: #c17281;
      }

      .cls-144 {
        fill: #b65764;
      }

      .cls-145 {
        fill: #ae8e9c;
      }

      .cls-146 {
        fill: #ddb2b9;
      }

      .cls-147 {
        fill: #f2e8ea;
      }

      .cls-148 {
        fill: #a83a4b;
      }

      .cls-149 {
        fill: #aa3e50;
      }

      .cls-150 {
        fill: #c08b8f;
      }

      .cls-151 {
        fill: #cc8894;
      }

      .cls-152 {
        fill: #bf6a75;
      }

      .cls-153 {
        fill: #9d2638;
      }

      .cls-154 {
        fill: #d8a3ac;
      }

      .cls-155 {
        fill: #ce8f9a;
      }

      .cls-156 {
        fill: #c57987;
      }

      .cls-157 {
        fill: #ae909d;
      }

      .cls-158 {
        fill: #bc6c7b;
      }

      .cls-159 {
        fill: #bc6672;
      }

      .cls-160 {
        fill: #c57b87;
      }

      .cls-161 {
        fill: #c37b88;
      }

      .cls-162 {
        fill: #c17583;
      }

      .cls-163 {
        fill: #ca8691;
      }

      .cls-164 {
        fill: #c88490;
      }

      .cls-165 {
        fill: #f2e5e8;
      }

      .cls-166 {
        fill: #ae4756;
      }

      .cls-167 {
        fill: #b55865;
      }

      .cls-168 {
        fill: #c57b88;
      }

      .cls-169 {
        fill: #fefefe;
      }

      .cls-170 {
        fill: #b55d6d;
      }

      .cls-171 {
        fill: #b5767c;
      }

      .cls-172 {
        fill: #a53244;
      }

      .cls-173 {
        fill: #c57d89;
      }

      .cls-174 {
        fill: #b45665;
      }

      .cls-175 {
        fill: #e0bac1;
      }

      .cls-176 {
        fill: #d0939e;
      }

      .cls-177 {
        fill: #9c1f33;
      }

      .cls-178 {
        fill: #be6f7d;
      }

      .cls-179 {
        fill: #cb8893;
      }

      .cls-180 {
        fill: #bd6c7b;
      }

      .cls-181 {
        fill: #a1263c;
      }

      .cls-182 {
        fill: #c9c9d0;
      }

      .cls-183 {
        fill: #c27a88;
      }

      .cls-184 {
        fill: #be6f7e;
      }

      .cls-185 {
        fill: #af4d5f;
      }

      .cls-186 {
        fill: #ead7db;
      }

      .cls-187 {
        fill: #daa9b1;
      }

      .cls-188 {
        fill: #a93d4f;
      }

      .cls-189 {
        fill: #c57f8b;
      }

      .cls-190 {
        fill: #b45362;
      }

      .cls-191 {
        fill: #a83e4f;
      }

      .cls-192 {
        fill: #a93c4d;
      }

      .cls-193 {
        fill: #b45461;
      }

      .cls-194 {
        fill: #e2bfc5;
      }

      .cls-195 {
        fill: #ae95a2;
      }

      .cls-196 {
        fill: #9f1f35;
      }

      .cls-197 {
        fill: #ac4758;
      }
    </style>
  </defs>
  <g id="BU">
    <path class="cls-142" d="M59.61,83c0,.51-.05,1.02-.17,1.51-.04.06-.1.1-.17.12.04-.57.16-1.12.35-1.63Z"/>
    <path class="cls-158" d="M61.36,89.18c-.03.54-.14,1.04-.35,1.51.01-.54.13-1.05.35-1.51Z"/>
    <path class="cls-66" d="M61.01,90.93c-.07.31-.11.62-.12.93-.18.35-.25.74-.23,1.17-.11.12-.15.28-.12.47-.07-.07-.11-.17-.12-.29.06-.57.14-1.13.23-1.69.1-.22.21-.41.35-.58Z"/>
  </g>
  <g id="UMASS">
    <g>
      <path class="cls-91" d="M185.23,51.48c-.13.05-.18.16-.15.31-.08,0-.14.06-.15.15,5.4.15,10.79.21,16.19.15.09.04.14.11.15.23-1.9,7.57-3.65,15.18-5.24,22.82.32,1.27.53,2.55.62,3.85-1.22,5.42-2.43,10.84-3.62,16.27-1.01,2.51-2.53,4.64-4.55,6.4-1.91,1.29-4.01,2.01-6.32,2.16-5.09.03-10.18.1-15.27.23-.83,3.59-1.62,7.19-2.39,10.79-1.42,3.77-3.32,7.27-5.71,10.49-.37.53-.8,1-1.31,1.39-.39.32-.78.68-1.16,1.08-.07.15-.1.3-.08.46-.1.21-.26.36-.46.46-.46.15-.77.46-.93.93-.27.5-.63.94-1.08,1.31-.7.62-1.42,1.21-2.16,1.77-.15.05-.26.15-.31.31-.27.42-.63.73-1.08.93-.15.05-.26.15-.31.31l-.31.31c-.1-.02-.17-.07-.23-.15-.07.25-.2.46-.39.62-3.56,3.22-7.72,5.3-12.49,6.25-1.54.21-3.08.41-4.63.62-16.35.03-32.69.11-49.03.23-3.3-.26-6.49-1.01-9.56-2.24-1.11-.48-2.14-1.07-3.08-1.77-.05-.15-.15-.26-.31-.31-.22-.03-.42-.11-.62-.23-.73-.68-1.5-1.29-2.31-1.85-.18-.27-.33-.56-.46-.85-.36-.39-.69-.8-1-1.23-.21-.31-.44-.47-.69-.46v-.15c-.12-.14-.28-.24-.46-.31-.44-.23-.7-.59-.77-1.08-.05-.15-.15-.26-.31-.31-.5-.26-.78-.68-.85-1.23-1.72-2.42-2.96-5.14-3.7-8.17-.1-.1-.21-.21-.31-.31-1.06-3.64-1.37-7.34-.93-11.1.45-2.3.84-4.62,1.16-6.94h-27.29c1.63-8.2,3.38-16.37,5.24-24.52,1.27-.11,2.53-.21,3.78-.31,1.1-4.5,2.1-9.03,3.01-13.57-1.13.03-2.26,0-3.39-.08-.07-.06-.12-.14-.15-.23,1.82-8.04,3.49-16.11,5.01-24.21,6.37-.1,12.75-.21,19.12-.31,2.86-12.41,5.59-24.85,8.17-37.32.12-.2.3-.3.54-.31,40.91.01,81.82.04,122.74.08.16.11.27.27.31.46-3.59,16.05-7.08,32.11-10.49,48.19Z"/>
      <path class="cls-181" d="M190.01,7.69v-.93c-37.84-.1-75.64,0-113.41.31-.31-.14-.65-.19-1-.15.03.41,0,.83-.08,1.23-.28.47-.44.98-.46,1.54-.06.09-.14.14-.23.15.17-1.08.43-2.13.77-3.16,38.24-.13,76.48-.1,114.72.08-.08.33-.19.64-.31.93Z"/>
      <path class="cls-129" d="M190.01,7.69c-2.83,14-5.76,27.98-8.79,41.94h-7.09c-.15,1.68-.46,3.32-.93,4.93-.13.37-.34.7-.62,1,.13.14.28.24.46.31,7.71.08,15.42.1,23.13.08-.04.67-.09,1.34-.15,2-.19,1.52-.49,3.01-.93,4.47-.56.18-.76.54-.62,1.08-.12.66-.2,1.33-.23,2-.33.62-.48,1.28-.46,2-.49,1.21-.82,2.47-1,3.78.14.31.19.65.15,1-.08.72-.19,1.44-.31,2.16-.39-.06-.7.07-.93.39.21.5.44.99.69,1.46.22,1.48.28,2.97.15,4.47-.81,4.15-1.71,8.29-2.7,12.41-.86,1.97-2.09,3.66-3.7,5.09-.71.38-1.43.71-2.16,1-.56.12-1.07.32-1.54.62h-19.12c-.24,1.36-.58,2.69-1,4.01-.24,1.68-.47,3.38-.69,5.09-.17.99-.37,1.96-.62,2.93-.26.53-.47,1.1-.62,1.7-.11.19-.16.39-.15.62-.52.74-.88,1.56-1.08,2.47-.64,1.28-1.28,2.56-1.93,3.85-.64.74-1.15,1.56-1.54,2.47-.58.66-1.12,1.32-1.62,2-.84.63-1.51,1.4-2,2.31-1.05.87-2.08,1.77-3.08,2.7-.25.17-.41.41-.46.69-.7.35-1.32.81-1.85,1.39-.35.09-.6.29-.77.62-.44.14-.8.4-1.08.77-.05.13-.16.18-.31.15-.45.18-.91.33-1.39.46-.12.14-.19.29-.23.46-.25.14-.49.29-.69.46-.42.05-.72.26-.93.62h-.15c-.66.18-1.28.43-1.85.77-.36-.03-.72,0-1.08.08-2.2.59-4.41,1.13-6.63,1.62-16.47.1-32.92.21-49.34.31h-.46c-.61-.07-1.17-.22-1.7-.46-.27-.2-.58-.35-.93-.46-.84-.11-1.66-.29-2.47-.54-.8-.65-1.72-.99-2.78-1-3.23-1.61-5.88-3.93-7.94-6.94-.96-1.46-1.89-2.95-2.78-4.47-2-5.26-2.67-10.66-2-16.19,1.43-6.84,2.81-13.67,4.16-20.51-.39-.71-.73-1.46-1-2.24-.09-.2-.25-.33-.46-.39-1.13,4.92-2.21,9.86-3.24,14.8h-24.67c1.24-5.15,2.42-10.29,3.55-15.42.1-.02.17-.07.23-.15.17-.66.24-1.33.23-2,1.07-.3,2.2-.41,3.39-.31,1.34-6.81,2.78-13.59,4.32-20.35-.06-.11-.17-.19-.31-.23-.82-.08-1.64-.1-2.47-.08-.03-.64.15-1.21.54-1.7.15-.92.26-1.84.31-2.78.22-.27.38-.58.46-.93.05-1.29.3-2.52.77-3.7.08-.82.1-1.64.08-2.47.34-1.84.75-3.63,1.23-5.4,6.03-.1,12.04-.2,18.04-.31h1.08v-.46c2.51-11.31,4.98-22.61,7.4-33.92.1-.02.17-.07.23-.15.02-.56.18-1.07.46-1.54.08-.41.1-.82.08-1.23.35-.04.69.01,1,.15,37.77-.31,75.58-.41,113.41-.31v.93Z"/>
      <path class="cls-138" d="M122.31,16.01c-13.08-.05-26.14,0-39.17.15,0,.1-.05.15-.15.15v-.46c13.13-.05,26.24,0,39.32.15Z"/>
      <path class="cls-52" d="M83.15,16.17c13.03-.15,26.08-.21,39.17-.15.15-.01.28.04.39.15.12.49.1.96-.08,1.39.05-.39,0-.75-.15-1.08-.1-.12-.23-.22-.39-.31-12.97.21-25.95.21-38.94,0Z"/>
      <path class="cls-188" d="M177.98,20.18c.17-.97.33-1.95.46-2.93.14-.16.2-.37.15-.62.02-.11,0-.22-.08-.31-13.08-.05-26.16,0-39.24.15v.31c-.1.02-.17.07-.23.15-.13.85-.31,1.68-.54,2.47-.02-.93.05-1.86.23-2.78.08-.28.26-.46.54-.54,13.16-.08,26.32-.1,39.47-.08.08,1.47-.17,2.86-.77,4.16Z"/>
      <path class="cls-86" d="M83.15,16.17c12.98.21,25.96.21,38.94,0,.15.09.28.19.39.31-13.14-.05-26.3,0-39.47.15v-.31c.1,0,.15-.05.15-.15Z"/>
      <path class="cls-22" d="M139.28,16.48c13.09-.15,26.17-.2,39.24-.15.07.09.1.19.08.31-13.1-.15-26.21-.2-39.32-.15Z"/>
      <path class="cls-16" d="M122.47,16.48c.15.32.2.68.15,1.08-2.79,12.39-5.49,24.83-8.1,37.32-.1.41-.21.82-.31,1.23-.06.09-.14.14-.23.15-.93-.03-1.85,0-2.78.08-.53.11-.79.45-.77,1-3.11,7.71-6.17,15.42-9.17,23.13-.27.49-.5,1.01-.69,1.54-.24.15-.5.2-.77.15.5-2.45.96-4.92,1.39-7.4.24-.25.35-.56.31-.93.21-1.29.46-2.58.77-3.85.11-.06.19-.17.23-.31.08-.51.1-1.03.08-1.54.47-1.45.75-2.94.85-4.47.13-.33.26-.63.39-.93.08-.41.33-.64.77-.69.8-.03,1.57-.1,2.31-.23.34-.27.52-.63.54-1.08.66-3.46,1.38-6.9,2.16-10.33.34-2.01.68-4.01,1-6.01h-2.47c-3.21-.1-6.45-.15-9.71-.15s-6.53.1-9.71.31c-1.73,2.17-3.5,4.32-5.32,6.48-.15-.14-.23-.32-.23-.54.39-1.72.75-3.44,1.08-5.17.5-1.62.91-3.29,1.23-5.01-.06-.35-.21-.43-.46-.23-2.29-.15-4.6-.2-6.94-.15v-.77c1.58-7.51,3.23-15.01,4.93-22.51,13.17-.15,26.33-.2,39.47-.15Z"/>
      <path class="cls-86" d="M139.28,16.48c13.11-.05,26.22,0,39.32.15.04.25-.01.45-.15.62v-.46c-13.06-.2-26.12-.2-39.17,0v-.31Z"/>
      <path class="cls-16" d="M178.44,17.25c-.13.98-.29,1.96-.46,2.93-.44,1.83-.8,3.68-1.08,5.55-.57,2.44-1.08,4.9-1.54,7.4-.31,1.43-.56,2.87-.77,4.32-.18.79-.44,1.56-.77,2.31-2.37-.1-4.68,0-6.94.31-.2.38-.3.8-.31,1.23-1.15,4.69-2.23,9.42-3.24,14.19h-.15c-5.29-.03-10.59,0-15.88.08-.54.11-1.05.24-1.54.39-4.89.56-8.46,2.98-10.72,7.25-.34,1.14-.67,2.27-1,3.39-.1-3.34-.21-6.68-.31-10.02-.05-.1-.1-.21-.15-.31-.79-.15-1.62-.2-2.47-.15.26-1.75.51-3.49.77-5.24,1.07-5.22,2.21-10.41,3.39-15.57.34-1.2.6-2.44.77-3.7.76-4.07,1.58-8.13,2.47-12.18.23-.79.41-1.61.54-2.47.06-.09.14-.14.23-.15,13.05-.2,26.1-.2,39.17,0v.46Z"/>
      <path class="cls-26" d="M120.31,17.56c.02-.1.07-.17.15-.23-6.14-.03-12.28-.05-18.43-.08-6.23,0-12.42.1-18.58.31v-.46c12.44-.05,24.88,0,37.32.15-.08.22-.23.32-.46.31Z"/>
      <path class="cls-169" d="M120.31,17.56c-1,.53-1.98,1.09-2.93,1.7-.33-.02-.64.06-.93.23-.82.51-1.64,1.03-2.47,1.54-.19.14-.31.32-.39.54-.05-.05-.1-.1-.15-.15-.92.65-1.87,1.24-2.85,1.77-.29.22-.55.48-.77.77-.15.1-.27.07-.39-.08-.06.14-.13.27-.23.39-.64.11-1.1.45-1.39,1-1.45.84-2.81,1.82-4.09,2.93-1.07,4.77-2.07,9.55-3.01,14.34-.18.4-.36.81-.54,1.23-3.75-.2-7.53-.2-11.33,0-.26-.18-.51-.18-.77,0-.96,1.4-2.01,2.74-3.16,4.01.54-2.87,1.08-5.75,1.62-8.64-2.48-.01-4.92-.01-7.32,0-.15-.14-.23-.32-.23-.54,1.56-7,3.05-14.02,4.47-21.05,6.16-.2,12.35-.31,18.58-.31,6.14.03,12.28.05,18.43.08-.09.06-.14.14-.15.23Z"/>
      <path class="cls-165" d="M175.51,17.56c-11.83-.05-23.65,0-35.47.15.04-.22.17-.37.39-.46h35.16c.33.2.31.31-.08.31Z"/>
      <path class="cls-169" d="M175.51,17.56c-7.46,3.45-14.97,6.87-22.51,10.25-.23.23-.36.51-.39.85-.54,2.47-1.08,4.94-1.62,7.4-.66,2.76-1.23,5.53-1.7,8.33-.81,3.57-1.64,7.14-2.47,10.72-5.49.41-9.62,2.96-12.41,7.63-.05-2.36-.1-4.73-.15-7.09-.73-.15-1.48-.2-2.24-.15,2.57-12.07,5.06-24.15,7.48-36.24.17-.54.35-1.05.54-1.54,11.81-.15,23.63-.21,35.47-.15Z"/>
      <path class="cls-147" d="M117.38,19.25c-3.13,2.08-6.32,4.08-9.56,6.01.28-.56.75-.89,1.39-1,.1-.12.17-.24.23-.39.11.15.24.17.39.08.22-.29.48-.55.77-.77.98-.53,1.93-1.12,2.85-1.77.05.05.1.1.15.15.07-.22.2-.4.39-.54.83-.51,1.65-1.03,2.47-1.54.28-.17.59-.25.93-.23Z"/>
      <path class="cls-123" d="M138.5,19.41c-.89,4.05-1.71,8.11-2.47,12.18-.1.15-.21.31-.31.46-.16-.71-.19-1.43-.08-2.16.11-.39.34-.68.69-.85-.2-1-.17-2,.08-3.01.11-.13.23-.23.39-.31.13-.87.21-1.74.23-2.62.16-.13.34-.18.54-.15.02-1.08.09-2.16.23-3.24.17-.53.4-.64.69-.31Z"/>
      <path class="cls-191" d="M176.9,25.73c-.17,1.02-.28,2.02-.31,3.01-.35,1.5-.76,2.97-1.23,4.39.46-2.5.97-4.97,1.54-7.4Z"/>
      <path class="cls-60" d="M136.04,31.59c-.17,1.26-.43,2.5-.77,3.7.17-1.08.32-2.16.46-3.24.1-.15.21-.31.31-.46Z"/>
      <path class="cls-140" d="M173.82,39.76c-2.3.11-4.61.21-6.94.31,2.26-.31,4.57-.41,6.94-.31Z"/>
      <path class="cls-140" d="M78.06,39.14v.77c2.34-.05,4.65,0,6.94.15h-6.94c-.15-.05-.25-.15-.31-.31.08-.24.18-.44.31-.62Z"/>
      <path class="cls-188" d="M174.59,37.45c.03.52,0,1.03-.08,1.54-.25.39-.46.8-.62,1.23-2.22-.18-4.46-.2-6.71-.08-.15.43-.35.81-.62,1.16,0-.44.11-.85.31-1.23,2.33-.1,4.64-.2,6.94-.31.33-.76.59-1.53.77-2.31Z"/>
      <path class="cls-41" d="M84.23,45.31c.05-.72.13-1.44.23-2.16.46-.93.58-1.86.39-2.78-2.28-.1-4.54-.2-6.78-.31h6.94c.25-.2.4-.12.46.23-.33,1.72-.74,3.39-1.23,5.01Z"/>
      <path class="cls-139" d="M150.99,36.06c.09.04.14.11.15.23-.59,2.72-1.21,5.42-1.85,8.1.47-2.8,1.03-5.57,1.7-8.33Z"/>
      <path class="cls-14" d="M100.73,42.54c-.02.46-.12.9-.31,1.31-3.87.13-7.72.1-11.56-.08,3.81-.2,7.58-.2,11.33,0,.18-.42.36-.83.54-1.23Z"/>
      <path class="cls-176" d="M67.42,43.77v.46h-18.97c6.19-.13,12.41-.21,18.66-.23.08-.11.19-.19.31-.23Z"/>
      <path class="cls-185" d="M48.45,44.23h17.89c-6,.1-12.01.21-18.04.31-.03-.15.02-.26.15-.31Z"/>
      <path class="cls-120" d="M108.13,44.39c-6.49-.05-12.96,0-19.43.15,3.19-.21,6.42-.31,9.71-.31s6.5.05,9.71.15Z"/>
      <path class="cls-63" d="M105.04,54.72v-.62c.08-.33.19-.64.31-.93.28-1.15.43-2.33.46-3.55v-.31c.22-.22.32-.51.31-.85,0-.21-.05-.39-.15-.54-4.91-.15-9.84-.21-14.8-.15v-.62c5.1-.07,10.19,0,15.27.23.09.11.14.24.15.39-.28,2.28-.67,4.54-1.16,6.78-.1.12-.23.17-.39.15Z"/>
      <path class="cls-99" d="M67.42,48.09h-.15c-.1,0-.15-.05-.15-.15-5.27-.15-10.56-.21-15.88-.15.37-.26.81-.41,1.31-.46,4.21.21,8.43.21,12.64,0,.68.12,1.37.2,2.08.23.13.16.18.34.15.54Z"/>
      <path class="cls-83" d="M51.23,47.78c5.32-.05,10.61,0,15.88.15-5.24-.03-10.49,0-15.73.08-.17.4-.32.78-.46,1.16-.05-.5.06-.96.31-1.39Z"/>
      <path class="cls-169" d="M67.11,47.93c0,.1.05.15.15.15.84,2.41,1.76,4.78,2.78,7.09,1.57,4.23,3.19,8.44,4.86,12.64.11.13.23.23.39.31.83-1.04,1.65-2.07,2.47-3.08.63-.42,1.09-.99,1.39-1.7.65-.98,1.37-1.91,2.16-2.78.6-.43,1.01-.99,1.23-1.7.15.01.28-.04.39-.15.32-.49.68-.95,1.08-1.39.33-.36.56-.77.69-1.23,0-.1.05-.15.15-.15.19-.08.37-.18.54-.31.85-1.29,1.78-2.52,2.78-3.7.12-.19.2-.4.23-.62.15-.4.4-.71.77-.93.48-.51.95-1.05,1.39-1.62.45-.02.66-.25.62-.69h14.65v1.54c-.28,1.15-.43,2.33-.46,3.55-.12.29-.22.6-.31.93-.25.95-.46,1.92-.62,2.93.07.51-.04.97-.31,1.39-.99.06-1.94.21-2.85.46-.9,4.05-1.75,8.11-2.54,12.18-.35,1.14-.61,2.33-.77,3.55-.98,3.91-1.8,7.87-2.47,11.87h2.62c-.11.84-.26,1.66-.46,2.47v.31c-.65,1.35-1.01,2.79-1.08,4.32-.11.54-.26,1.06-.46,1.54-.23.22-.39.51-.46.85-5,.07-9.99.1-14.96.08-.14-.11-.19-.26-.15-.46.23-.75.38-1.52.46-2.31.56-2.17,1.02-4.38,1.39-6.63.51-1.91.92-3.87,1.23-5.86.42-1.45.73-2.94.93-4.47.49-1.62.8-3.26.93-4.93-.12.07-.17.17-.15.31-1.72,2-3.36,4.05-4.93,6.17-.48.46-.9.97-1.23,1.54-.73.68-1.35,1.45-1.85,2.31-.32.17-.53.42-.62.77-.32.17-.53.42-.62.77-.32.17-.53.42-.62.77-.47.47-.88.98-1.23,1.54-.22.07-.32.23-.31.46-.32.17-.53.42-.62.77-.32.17-.53.42-.62.77-.57.57-1.09,1.19-1.54,1.85-.22.01-.43-.04-.62-.15-.3-.4-.56-.81-.77-1.23v-.15c-.04-.38-.19-.69-.46-.93-.35-.76-.66-1.53-.93-2.31-.22-.59-.48-1.16-.77-1.7-.15-.24-.25-.5-.31-.77-.08-.36-.23-.67-.46-.93-.15-.49-.36-.95-.62-1.39-.06-.5-.27-.91-.62-1.23v-.15c-.03-.42-.19-.78-.46-1.08-.05-.1-.1-.21-.15-.31-.04-.38-.19-.69-.46-.93.01-.49-.14-.9-.46-1.23-.37-.72-.73-1.44-1.08-2.16-.02-.25-.12-.45-.31-.62-.61,2.02-1.07,4.08-1.39,6.17-.15.22-.2.48-.15.77-.14.66-.29,1.32-.46,2-.28,1.13-.62,2.26-1,3.39-.16.92-.29,1.85-.39,2.78.02.28-.03.53-.15.77-.32.93-.53,1.91-.62,2.93-.21.79-.36,1.62-.46,2.47-.14.12-.24.28-.31.46-.36.71-.56,1.48-.62,2.31h-15.57c.01-.67.06-1.34.15-2,.5-1.38.75-2.82.77-4.32.4-.65.55-1.37.46-2.16v-.15c.21-.3.37-.63.46-1,1.03-.03,2.06-.1,3.08-.23.34-1.22.59-2.45.77-3.7.25-.63.4-1.3.46-2,.51-1.81.92-3.66,1.23-5.55.22-.42.32-.88.31-1.39.14-.16.2-.37.15-.62.32-.93.52-1.91.62-2.93.43-1.56.79-3.15,1.08-4.78.28-.73.49-1.5.62-2.31v-.31c.3-.89.51-1.81.62-2.78.18-.44.33-.9.46-1.39-.29-.15-.6-.2-.93-.15-.8-.11-1.62-.21-2.47-.31-.13-.61-.13-1.23,0-1.85-.02-.28.03-.53.15-.77.45-1.76.81-3.56,1.08-5.4.08-.33.19-.64.31-.93.14-.38.29-.76.46-1.16,5.24-.08,10.49-.1,15.73-.08Z"/>
      <path class="cls-80" d="M91.17,47.78c4.96-.05,9.9,0,14.8.15.04.3,0,.55-.15.77v-.62h-14.65c.04.45-.16.68-.62.69-.44.57-.9,1.11-1.39,1.62.56-.96,1.22-1.83,2-2.62Z"/>
      <path class="cls-8" d="M105.97,47.93c.1.15.15.33.15.54.02.34-.09.63-.31.85v-.62c.15-.22.2-.48.15-.77Z"/>
      <path class="cls-189" d="M105.81,49.63c-.03,1.22-.18,2.4-.46,3.55.03-1.22.18-2.4.46-3.55Z"/>
      <path class="cls-84" d="M67.27,48.09h.15c.99,2.31,1.87,4.67,2.62,7.09-1.01-2.32-1.94-4.68-2.78-7.09Z"/>
      <path class="cls-177" d="M174.9,51.32h2.47v.46c-.44-.07-.83.03-1.16.31-.18.71-.31,1.43-.39,2.16h-.62c.22-.81.37-1.63.46-2.47h-.77v-.46Z"/>
      <path class="cls-153" d="M177.83,51.32h1.08c-.06.69.02,1.36.23,2,.29-.64.63-1.25,1-1.85.29-.15.6-.2.93-.15-.09.89-.27,1.77-.54,2.62-.11.23-.29.33-.54.31.15-.61.23-1.23.23-1.85-.34.67-.75,1.29-1.23,1.85-.12-.02-.22-.07-.31-.15-.04-.58-.14-1.14-.31-1.7-.23.61-.41,1.22-.54,1.85-.21.02-.42,0-.62-.08.33-.92.54-1.87.62-2.85Z"/>
      <path class="cls-23" d="M185.23,51.48c0,.17.06.33.15.46-.15.03-.26-.02-.31-.15-.03-.15.02-.26.15-.31Z"/>
      <path class="cls-195" d="M185.07,51.79c.05.13.16.18.31.15,5.27-.05,10.51,0,15.73.15-5.4.05-10.8,0-16.19-.15.02-.09.07-.14.15-.15Z"/>
      <path class="cls-160" d="M50.61,50.09c-.26,1.84-.62,3.64-1.08,5.4.21-1.71.49-3.4.85-5.09.04-.14.12-.24.23-.31Z"/>
      <path class="cls-6" d="M88.39,51.32c-.03.22-.11.42-.23.62-1,1.18-1.93,2.41-2.78,3.7-.17.12-.35.23-.54.31,1.11-1.6,2.29-3.14,3.55-4.63Z"/>
      <path class="cls-46" d="M131.87,50.86c-.26,1.75-.51,3.5-.77,5.24.85-.05,1.67,0,2.47.15h-2.62c-.09-.04-.14-.11-.15-.23.33-1.75.69-3.47,1.08-5.17Z"/>
      <path class="cls-192" d="M47.07,49.94c.03.82,0,1.65-.08,2.47-.47,1.18-.73,2.42-.77,3.7-.09.34-.24.65-.46.93-.05.93-.15,1.86-.31,2.78-.39.49-.57,1.05-.54,1.7.82-.03,1.65,0,2.47.08.14.04.24.12.31.23h-3.08c.7-4,1.52-7.96,2.47-11.87Z"/>
      <path class="cls-48" d="M163.18,55.49c-5.24.1-10.49.21-15.73.31-.56.09-1.13.15-1.7.15.49-.14,1-.27,1.54-.39,5.29-.08,10.59-.1,15.88-.08Z"/>
      <path class="cls-33" d="M163.18,55.49h.15c-5.24.31-10.53.41-15.88.31,5.24-.1,10.49-.21,15.73-.31Z"/>
      <path class="cls-1" d="M173.2,54.56c.03.32-.02.63-.15.93.08.11.18.18.31.23,7.71.08,15.42.1,23.13.08-.09.75-.24,1.47-.46,2.16.07-.67.12-1.34.15-2-7.71.03-15.42,0-23.13-.08-.18-.06-.33-.17-.46-.31.28-.3.48-.63.62-1Z"/>
      <path class="cls-128" d="M105.04,54.1v.62c-.05.83-.26,1.6-.62,2.31.16-1.01.36-1.98.62-2.93Z"/>
      <path class="cls-40" d="M113.99,56.26c-.91.28-1.89.41-2.93.39-.22.23-.42.46-.62.69-.02-.56.24-.89.77-1,.92-.08,1.85-.1,2.78-.08Z"/>
      <path class="cls-188" d="M130.95,56.26h2.62c.05.1.1.21.15.31v6.78c-.15-2.23-.2-4.5-.15-6.78-.46.03-.93.08-1.39.15-.48-.02-.89-.17-1.23-.46Z"/>
      <path class="cls-68" d="M133.72,56.57c.1,3.34.21,6.68.31,10.02-.04.12-.12.22-.23.31-.08-1.18-.1-2.36-.08-3.55v-6.78Z"/>
      <path class="cls-175" d="M84.69,56.1c-.13.47-.36.88-.69,1.23-.4.43-.76.9-1.08,1.39-.1.12-.23.17-.39.15.67-.97,1.39-1.9,2.16-2.78Z"/>
      <path class="cls-156" d="M49.38,56.26c-.13.62-.13,1.24,0,1.85.84.1,1.67.2,2.47.31-.93.03-1.85,0-2.78-.08-.05-.05-.1-.1-.15-.15.08-.67.24-1.32.46-1.93Z"/>
      <path class="cls-44" d="M132.18,89.26v-.93h-2.31c.05-9.53,0-19.04-.15-28.53-5.39-.15-10.79-.2-16.19-.15.05-.1.1-.2.15-.31,5.4-.2,10.8-.2,16.19,0,.21-.23.46-.33.77-.31v3.24h-.46c-.03,1.39,0,2.78.08,4.16.13.15.26.31.39.46.18,1.44.21,2.88.08,4.32-.23-.49-.38-1-.46-1.54-.03.28-.05.57-.08.85.09.48.09.94,0,1.39.09.19.19.37.31.54.11-.08.18-.18.23-.31.1.57.1,1.13,0,1.7-.29-.36-.44-.77-.46-1.23-.03.28-.05.57-.08.85.01.51.17.94.46,1.31-.27,1.55-.43,3.12-.46,4.7.01,2.59.04,5.18.08,7.79.33-3.52.48-7.07.46-10.64.1,3.39.1,6.78,0,10.18-.05.37-.18.7-.39,1,.14.28.27.25.39-.08.05.12.12.23.23.31.4-.16.81-.19,1.23-.08.4.44.4.88,0,1.31Z"/>
      <path class="cls-6" d="M82.53,58.88c-.22.7-.63,1.27-1.23,1.7.3-.65.71-1.21,1.23-1.7Z"/>
      <path class="cls-197" d="M164.26,59.81h-18.66c.17-.12.38-.2.62-.23,5.91-.1,11.82-.1,17.73,0,.14.04.24.12.31.23Z"/>
      <path class="cls-28" d="M113.52,59.65c5.4-.05,10.8,0,16.19.15v.31c-5.33-.18-10.68-.2-16.04-.08-.08.11-.19.19-.31.23.05-.21.1-.41.15-.62Z"/>
      <path class="cls-83" d="M145.6,59.81h18.66c.21.26.21.51,0,.77v-.62c-6.53-.05-13.06,0-19.58.15.22-.28.53-.38.93-.31Z"/>
      <path class="cls-154" d="M190.93,64.74c.24-1.6.49-3.19.77-4.78-6.79-.05-13.57,0-20.35.15.06-.11.17-.19.31-.23,6.73-.08,13.47-.1,20.2-.08-.17,1.69-.48,3.33-.93,4.93Z"/>
      <path class="cls-135" d="M129.72,60.11v28.37c.69.15,1.41.2,2.16.15-.38,1.09-.59,2.22-.62,3.39-.25,1.45-.56,2.89-.93,4.32h-11.72c.09-1.08.14-2.16.15-3.24.28-1.93.46-3.88.54-5.86-1.69.09-3.42.2-5.17.31v.31c-.25.12-.35.33-.31.62-1.01,2-1.94,4.06-2.78,6.17-.28.52-.59,1.04-.93,1.54-3.96.15-7.91.21-11.87.15h-.31c.13-1.04.34-2.07.62-3.08.22-.31.32-.67.31-1.08,0-.37.04-.73.15-1.08.27-.73.45-1.5.54-2.31l.23-.23c.95-.03,1.88-.1,2.78-.23.15-.07.28-.17.39-.31.08-.56.26-1.08.54-1.54.42-.65.68-1.37.77-2.16.43-1.38.95-2.72,1.54-4.01.41-.47.62-1.04.62-1.7,2.27-6.13,4.58-12.25,6.94-18.35.12-.04.22-.12.31-.23,5.36-.13,10.7-.1,16.04.08Z"/>
      <path class="cls-135" d="M164.26,60.58c-.29.94-.49,1.92-.62,2.93-.19,1.35-.45,2.69-.77,4.01-.3.64-.53,1.31-.69,2-.08.3-.1.61-.08.93-2.83-.05-5.66,0-8.48.15-.14-.16-.2-.37-.15-.62.24-.25.35-.56.31-.93v-.15c.27-.35.37-.76.31-1.23-2.03-.05-4.04,0-6.01.15-.15.18-.33.33-.54.46-.17.87-.29,1.74-.39,2.62-.17.76-.33,1.54-.46,2.31v.15c-.19.34-.14.68.15,1,3.6.05,7.2.1,10.79.15.36.1.72.18,1.08.23.12.14.28.24.46.31.6.67,1.22,1.33,1.85,2,.04.44.2.8.46,1.08-.13.29-.18.6-.15.93-.77,3.84-1.49,7.69-2.16,11.56-.26.83-.52,1.65-.77,2.47-.32.24-.63.53-.93.85-.15.07-.3.1-.46.08v.46c-.57.41-1.14.82-1.7,1.23-.76.2-1.53.36-2.31.46-6.54.1-13.04,0-19.51-.31-.16.17-.26.12-.31-.15-.05.1-.1.21-.15.31-.07-.57-.04-1.13.08-1.7.1-.62.21-1.23.31-1.85.4-.92.61-1.89.62-2.93v-.15c.4-.76.6-1.58.62-2.47v-.15c.22-.42.38-.89.46-1.39v-.46h9.41v1.08c-.05.1-.1.21-.15.31-.25.73-.36,1.5-.31,2.31,1.65.03,3.29,0,4.93-.08.41-.63.61-1.32.62-2.08v-.15c.57-1.64.98-3.34,1.23-5.09-3.86-.15-7.72-.2-11.56-.15-.16-.18-.36-.28-.62-.31-.63-.47-1.14-1.04-1.54-1.7-.18-.59-.39-1.15-.62-1.7h-.15c-.15-1.44-.1-2.88.15-4.32.32-.83.53-1.7.62-2.62.32-.72.53-1.49.62-2.31-.04-.51.06-.98.31-1.39.47-.39.68-.9.62-1.54.11-.43.26-.84.46-1.23.39-.19.6-.49.62-.93.53-.46,1.05-.95,1.54-1.46.52-.15.98-.39,1.39-.69.6-.41,1.27-.66,2-.77,6.52-.15,13.05-.2,19.58-.15v.62Z"/>
      <path class="cls-135" d="M190.93,64.74c-.35,2.08-.81,4.14-1.39,6.17h-8.79v-1.23c.27-.4.38-.87.31-1.39.14-.16.2-.37.15-.62-1.88-.05-3.73,0-5.55.15-.24.25-.35.56-.31.93-.32.83-.53,1.7-.62,2.62-.31.88-.46,1.81-.46,2.78h.46c3.37.13,6.76.21,10.18.23.29.17.59.25.93.23.47.12.88.33,1.23.62.38.33.64.74.77,1.23.13.14.29.25.46.31.24.54.45,1.1.62,1.7-.13.82-.18,1.64-.15,2.47v.31c-.4.86-.61,1.79-.62,2.78-.38,1.27-.69,2.55-.93,3.85-.27.4-.37.87-.31,1.39-.13.35-.23.71-.31,1.08-.46.78-.87,1.6-1.23,2.47-.35.38-.69.79-1,1.23-.52.39-1.01.8-1.46,1.23-.42.05-.72.26-.93.62-.3-.04-.55.04-.77.23-6.89.08-13.77.1-20.66.08-.11-.14-.26-.19-.46-.15-.04-.51.06-.98.31-1.39.7-1.97,1.16-4.03,1.39-6.17.14-.45.19-.91.15-1.39v-.15c.3-.69.6-1.38.93-2.08,3.03-.08,6.06-.1,9.1-.08-.08,1.3-.24,2.58-.46,3.85,1.65.03,3.29,0,4.93-.08.24-.53.45-1.07.62-1.62.25-.58.4-1.19.46-1.85.4-1.2.66-2.43.77-3.7-3.76.07-7.51,0-11.26-.23-1.91-.65-2.99-1.96-3.24-3.93,0-1.35.13-2.68.39-4.01.46-1.57.79-3.16,1-4.78v-.15c.1-.02.17-.07.23-.15.17-.98.35-1.96.54-2.93.09-.55.26-1.06.54-1.54.63-.85,1.32-1.62,2.08-2.31.46-.12.87-.32,1.23-.62.21.02.42,0,.62-.08.3-.23.61-.41.93-.54,6.78-.15,13.56-.2,20.35-.15-.28,1.59-.53,3.18-.77,4.78Z"/>
      <path class="cls-50" d="M171.35,60.11c-.32.13-.63.31-.93.54-.2.08-.41.1-.62.08.41-.44.92-.65,1.54-.62Z"/>
      <path class="cls-31" d="M169.81,60.73c-.36.29-.77.5-1.23.62.33-.35.74-.56,1.23-.62Z"/>
      <path class="cls-114" d="M52.31,59.96c-.11.96-.32,1.89-.62,2.78-.03-.9.09-1.77.39-2.62.06-.09.14-.14.23-.15Z"/>
      <path class="cls-45" d="M106.89,61.81c-.74.13-1.51.2-2.31.23-.44.05-.7.28-.77.69-.05-.34.05-.63.31-.85.92-.08,1.85-.1,2.78-.08Z"/>
      <path class="cls-97" d="M142.67,60.89c-.41.31-.87.54-1.39.69-.49.52-1.01,1.01-1.54,1.46.63-1.2,1.61-1.92,2.93-2.16Z"/>
      <path class="cls-163" d="M164.26,60.58c-.02,1.04-.22,2.01-.62,2.93.13-1.01.33-1.99.62-2.93Z"/>
      <path class="cls-103" d="M139.74,63.04c-.02.43-.22.74-.62.93.12-.38.33-.69.62-.93Z"/>
      <path class="cls-43" d="M51.69,63.04c-.13.81-.34,1.58-.62,2.31.06-.73.19-1.45.39-2.16.06-.09.14-.14.23-.15Z"/>
      <path class="cls-59" d="M79.14,63.35c-.3.71-.76,1.27-1.39,1.7.41-.61.87-1.18,1.39-1.7Z"/>
      <path class="cls-167" d="M139.12,63.97c-.2.39-.35.8-.46,1.23-.13.27-.28.53-.46.77-.04-.84.27-1.5.93-2Z"/>
      <path class="cls-106" d="M195.1,62.43c-.66,3.32-1.38,6.61-2.16,9.87.04-.35-.01-.69-.15-1,.18-1.3.51-2.56,1-3.78-.02-.72.14-1.39.46-2,.04-.68.11-1.34.23-2-.14-.54.06-.9.62-1.08Z"/>
      <path class="cls-11" d="M165.95,65.2c-.19.97-.37,1.95-.54,2.93-.06.09-.14.14-.23.15.14-1.07.4-2.1.77-3.08Z"/>
      <path class="cls-4" d="M138.66,65.2c.06.64-.14,1.15-.62,1.54-.04-.3,0-.55.15-.77.18-.24.34-.5.46-.77Z"/>
      <path class="cls-54" d="M148.06,67.82c1.98-.15,3.98-.2,6.01-.15.06.47-.04.88-.31,1.23.03-.36.08-.72.15-1.08h-5.86Z"/>
      <path class="cls-156" d="M175.67,67.82c1.82-.15,3.67-.2,5.55-.15.04.25-.01.45-.15.62v-.46h-5.4Z"/>
      <path class="cls-173" d="M51.07,65.36c-.29,1.63-.65,3.22-1.08,4.78.15-1.66.51-3.25,1.08-4.78Z"/>
      <path class="cls-49" d="M148.06,67.82c-.32.84-.53,1.71-.62,2.62-.1.15-.21.31-.31.46.09-.88.22-1.75.39-2.62.21-.13.39-.29.54-.46Z"/>
      <path class="cls-62" d="M175.67,67.82c.04.37-.07.68-.31.93-.04-.37.07-.68.31-.93Z"/>
      <path class="cls-2" d="M102.58,68.13c.03.52,0,1.03-.08,1.54-.04.14-.12.24-.23.31.03-.65.14-1.27.31-1.85Z"/>
      <path class="cls-180" d="M181.06,68.29c.07.52-.04.98-.31,1.39.03-.5.13-.96.31-1.39Z"/>
      <path class="cls-34" d="M119.85,69.21c-.32,1.28-.73,2.51-1.23,3.7.27-1.3.68-2.53,1.23-3.7Z"/>
      <path class="cls-124" d="M175.36,68.75c-.09.92-.29,1.79-.62,2.62.09-.92.3-1.79.62-2.62Z"/>
      <path class="cls-56" d="M120.31,70.29c-.1.72-.21,1.44-.31,2.16,0-1.14.03-2.27.08-3.39-.06.09-.14.14-.23.15.04-.39.17-.75.39-1.08.08.72.1,1.44.08,2.16Z"/>
      <path class="cls-73" d="M153.77,69.06c.04.37-.07.68-.31.93-.04-.37.07-.68.31-.93Z"/>
      <path class="cls-65" d="M137.73,68.13c-.09.82-.29,1.59-.62,2.31.03-.84.23-1.61.62-2.31Z"/>
      <path class="cls-20" d="M162.87,67.52c-.05,1.01-.26,1.99-.62,2.93-.48.26-.99.36-1.54.31-2.39.05-4.76,0-7.09-.15,2.82-.15,5.65-.2,8.48-.15-.02-.31,0-.62.08-.93.17-.7.4-1.37.69-2Z"/>
      <path class="cls-87" d="M137.12,70.45c-.09.92-.29,1.79-.62,2.62.09-.92.3-1.79.62-2.62Z"/>
      <path class="cls-125" d="M120,72.45c0,1.08-.05,2.16-.15,3.24-.17,1.52-.29,3.06-.39,4.63-.51.1-1.03.21-1.54.31-.52-.15-1.06-.2-1.62-.15.05-.41.1-.82.15-1.23.25.02.43-.08.54-.31.08-.83.21-1.65.39-2.47.42-.45.76-.96,1-1.54.08-.51.1-1.03.08-1.54-.04-.2.01-.35.15-.46.5-1.19.92-2.42,1.23-3.7.1-.02.17-.07.23-.15-.05,1.13-.07,2.26-.08,3.39Z"/>
      <path class="cls-149" d="M153.46,69.98c-.04.25.01.45.15.62,2.34.15,4.7.21,7.09.15-.22.12-.48.2-.77.23-2.15.1-4.26.15-6.32.15-.31-.38-.36-.76-.15-1.16Z"/>
      <path class="cls-94" d="M180.75,69.83v1.08h8.79c0,.1-.05.15-.15.15-2.88.03-5.81.03-8.79,0v-.93c-.03-.15.02-.26.15-.31Z"/>
      <path class="cls-194" d="M120.31,70.29c0,1.94-.14,3.84-.46,5.71v-.31c.1-1.08.15-2.16.15-3.24.1-.72.21-1.44.31-2.16Z"/>
      <path class="cls-121" d="M180.6,70.14v.93c2.98.03,5.91.03,8.79,0-.45.13-.91.29-1.39.46-1.14-.09-2.19-.09-3.16,0-.12-.1-.24-.17-.39-.23-1.19-.12-2.37-.1-3.55.08-.3-.12-.46-.35-.46-.69,0-.21.05-.39.15-.54Z"/>
      <path class="cls-95" d="M98.72,71.06c-.12,1.23-.38,2.41-.77,3.55.16-1.22.42-2.4.77-3.55Z"/>
      <path class="cls-10" d="M165.18,68.44c-.21,1.62-.55,3.21-1,4.78-.25,1.33-.38,2.66-.39,4.01-.21-.29-.31-.62-.31-1,.32-2.67.89-5.27,1.7-7.79Z"/>
      <path class="cls-98" d="M49.99,70.14c-.09,1.02-.3,2-.62,2.93.09-1.02.3-2,.62-2.93Z"/>
      <path class="cls-88" d="M147.45,70.45c0,1.01-.26,1.94-.77,2.78.14-.78.29-1.55.46-2.31.1-.15.21-.31.31-.46Z"/>
      <path class="cls-105" d="M174.74,71.37c-.09.88-.19,1.75-.31,2.62,3.6-.03,7.2,0,10.79.08.09.06.14.14.15.23-3.54-.15-7.09-.2-10.64-.15h-.46c0-.97.15-1.9.46-2.78Z"/>
      <path class="cls-25" d="M84.54,76.3c.26-1.54.51-3.08.77-4.63-.02-.14.03-.24.15-.31-.13,1.67-.44,3.32-.93,4.93Z"/>
      <path class="cls-74" d="M129.72,59.81c.15,9.48.21,18.99.15,28.53h2.31v.93c0,.1-.05.15-.15.15v-.93h-2.31v-28.68Z"/>
      <path class="cls-37" d="M174.74,74.15c3.55-.05,7.1,0,10.64.15.15.1.31.21.46.31-.33.02-.64-.06-.93-.23-3.42-.03-6.81-.1-10.18-.23Z"/>
      <path class="cls-27" d="M146.68,73.38c-.01.22.04.43.15.62,3.19.13,6.37.21,9.56.23.46.05.93.1,1.39.15.36.04.67.17.93.39-.36-.05-.72-.13-1.08-.23-3.6-.05-7.2-.1-10.79-.15-.3-.33-.35-.66-.15-1Z"/>
      <path class="cls-101" d="M49.22,73.68c.01.51-.09.97-.31,1.39-.07-.52.04-.98.31-1.39Z"/>
      <path class="cls-131" d="M101.5,73.84c.04.37-.07.68-.31.93-.04-.37.07-.68.31-.93Z"/>
      <path class="cls-36" d="M118.46,73.38c.03.52,0,1.03-.08,1.54-.25.58-.58,1.09-1,1.54.32-1.05.68-2.08,1.08-3.08Z"/>
      <path class="cls-29" d="M159.48,75.07c.67.36,1.18.87,1.54,1.54-.57-.46-1.08-.98-1.54-1.54Z"/>
      <path class="cls-43" d="M136.5,73.07c-.26,1.44-.31,2.88-.15,4.32-.45-1.46-.4-2.9.15-4.32Z"/>
      <path class="cls-67" d="M64.03,74.92c.32.34.48.75.46,1.23-.29-.35-.44-.76-.46-1.23Z"/>
      <path class="cls-69" d="M159.17,75.07h.31c.46.57.98,1.08,1.54,1.54.21.27.37.58.46.93v.62c-.27-.28-.42-.64-.46-1.08-.63-.67-1.25-1.34-1.85-2Z"/>
      <path class="cls-77" d="M187.08,75.23c.69.28,1.11.8,1.23,1.54-.18-.06-.33-.17-.46-.31-.13-.49-.39-.9-.77-1.23Z"/>
      <path class="cls-144" d="M48.92,75.07c-.32,1.89-.73,3.74-1.23,5.55.13-1.23.26-2.47.39-3.7.42-.56.7-1.18.85-1.85Z"/>
      <path class="cls-160" d="M62.95,72.76c-.2-.22-.33-.17-.39.15-.05.46-.1.93-.15,1.39-.44,1.33-.82,2.67-1.16,4.01.32-2.09.78-4.15,1.39-6.17.19.17.29.37.31.62Z"/>
      <path class="cls-43" d="M64.49,76.15c.27.24.42.54.46.93-.27-.24-.42-.54-.46-.93Z"/>
      <path class="cls-128" d="M65.11,77.38c.28.3.43.66.46,1.08-.28-.3-.43-.66-.46-1.08Z"/>
      <path class="cls-82" d="M117.38,76.46c-.18.81-.31,1.63-.39,2.47-.11.23-.29.33-.54.31.22-.97.53-1.89.93-2.78Z"/>
      <path class="cls-119" d="M80.37,77.85c-.26.63-.67,1.14-1.23,1.54.34-.57.75-1.09,1.23-1.54Z"/>
      <path class="cls-39" d="M136.5,77.38c.23.54.43,1.11.62,1.7-.41-.47-.62-1.04-.62-1.7Z"/>
      <path class="cls-74" d="M65.57,78.62c.35.33.56.74.62,1.23-.35-.33-.56-.74-.62-1.23Z"/>
      <path class="cls-130" d="M84.54,76.3c-.19,1.53-.5,3.02-.93,4.47.11-1.55.42-3.04.93-4.47Z"/>
      <path class="cls-77" d="M106.43,78.62c0,.66-.2,1.23-.62,1.7.15-.6.35-1.16.62-1.7Z"/>
      <path class="cls-178" d="M137.12,79.08c.4.66.91,1.22,1.54,1.7-.84-.27-1.35-.84-1.54-1.7Z"/>
      <path class="cls-13" d="M188.93,78.46c.15.83.1,1.65-.15,2.47-.03-.83.02-1.65.15-2.47Z"/>
      <path class="cls-174" d="M61.1,79.08c-.08,1.12-.29,2.2-.62,3.24.01-.42.06-.83.15-1.23.17-.68.32-1.35.46-2Z"/>
      <path class="cls-126" d="M119.85,75.69v.31c.01,1.55-.09,3.1-.31,4.63-1.18.15-2.36.21-3.55.15.03-.56.19-1.08.46-1.54-.05.41-.1.82-.15,1.23.56-.04,1.1,0,1.62.15.51-.1,1.03-.21,1.54-.31.09-1.57.22-3.11.39-4.63Z"/>
      <path class="cls-15" d="M79.14,79.39c-.29.53-.63,1.05-1,1.54-.26.29-.55.55-.85.77.5-.86,1.12-1.63,1.85-2.31Z"/>
      <path class="cls-75" d="M161.48,77.54c.22,1.48.14,2.97-.23,4.47-.06.09-.14.14-.23.15.2-1.02.31-2.04.31-3.08-.03-.33.02-.64.15-.93v-.62Z"/>
      <path class="cls-151" d="M139.28,81.09c3.85-.04,7.7,0,11.56.15-.26,1.75-.67,3.45-1.23,5.09.34-1.6.7-3.19,1.08-4.78-3.7-.13-7.4-.21-11.1-.23-.14-.04-.24-.12-.31-.23Z"/>
      <path class="cls-72" d="M47.68,80.62c-.06.71-.21,1.38-.46,2,.02-.72.17-1.39.46-2Z"/>
      <path class="cls-12" d="M66.8,81.24c.23.26.39.57.46.93-.31-.22-.47-.53-.46-.93Z"/>
      <path class="cls-67" d="M77.29,81.7c-.09.35-.29.6-.62.77.09-.35.29-.6.62-.77Z"/>
      <path class="cls-73" d="M188.77,81.24c-.11.96-.32,1.89-.62,2.78,0-.99.22-1.91.62-2.78Z"/>
      <path class="cls-67" d="M76.67,82.47c-.09.35-.29.6-.62.77.09-.35.29-.6.62-.77Z"/>
      <path class="cls-112" d="M76.05,83.24c-.09.35-.29.6-.62.77.09-.35.29-.6.62-.77Z"/>
      <path class="cls-100" d="M161.33,79.08c0,1.04-.11,2.07-.31,3.08-.07.46-.12.92-.15,1.39-.24.18-.37.44-.39.77-.07.89-.2,1.76-.39,2.62v.15c-.25.24-.38.54-.39.93-.08.51-.1,1.03-.08,1.54-.04.43-.19.79-.46,1.08.67-3.87,1.39-7.73,2.16-11.56Z"/>
      <path class="cls-30" d="M67.57,82.94c.29.54.55,1.1.77,1.7-.54-.41-.8-.98-.77-1.7Z"/>
      <path class="cls-178" d="M160.86,83.55c-.21.86-.34,1.73-.39,2.62-.12.28-.25.54-.39.77.19-.86.32-1.74.39-2.62.02-.33.14-.59.39-.77Z"/>
      <path class="cls-190" d="M144.52,86.02v-1.08h-9.41v.46c-.1.05-.21.1-.31.15v-.93h9.87c.05.5,0,.96-.15,1.39Z"/>
      <path class="cls-133" d="M171.97,84.79c-3.03-.03-6.07,0-9.1.08-.32.7-.63,1.39-.93,2.08.08-.81.34-1.56.77-2.24,3.11-.13,6.19-.1,9.25.08Z"/>
      <path class="cls-89" d="M75.44,84.01c-.24.65-.65,1.16-1.23,1.54.35-.56.76-1.07,1.23-1.54Z"/>
      <path class="cls-3" d="M104.27,84.32c-.09.79-.35,1.51-.77,2.16.18-.76.43-1.48.77-2.16Z"/>
      <path class="cls-162" d="M83.61,80.78c-.32,1.99-.73,3.94-1.23,5.86.22-2.01.63-3.96,1.23-5.86Z"/>
      <path class="cls-155" d="M177.52,85.09c-.06.66-.22,1.27-.46,1.85.01-.67.17-1.29.46-1.85Z"/>
      <path class="cls-146" d="M60.63,81.09c-.09.41-.14.82-.15,1.23-.42,1.66-.83,3.3-1.23,4.93.1-.93.23-1.85.39-2.78.38-1.13.72-2.26,1-3.39Z"/>
      <path class="cls-16" d="M75.75,99.28c-.14.11-.19.26-.15.46-.02.1-.07.17-.15.23,9.87.03,19.74.11,29.61.23-.35,1.63-.6,3.27-.77,4.93,5,.12,9.96.18,14.88.15.4-.1.79-.2,1.16-.31.2-.09.33-.24.39-.46.31-1.28.59-2.57.85-3.85.15-.25.36-.46.62-.62h31.61c-.05.51-.1,1.03-.15,1.54-.34,1.92-.78,3.82-1.31,5.71-.44,1.5-.93,2.99-1.46,4.47-.33.44-.56.95-.69,1.54-.63.78-1.2,1.61-1.7,2.47-.13.36-.26.72-.39,1.08-1.28,1.41-2.48,2.9-3.62,4.47-1.29,1.25-2.65,2.4-4.09,3.47-2.36,1.49-4.88,2.64-7.56,3.47-17.11.18-34.23.2-51.35.08-.35-.15-.71-.23-1.08-.23-.78-.46-1.6-.84-2.47-1.16-.76-.58-1.53-1.12-2.31-1.62-1.2-.92-2.15-2.05-2.85-3.39-1.84-3.58-2.53-7.38-2.08-11.41,1.38-6.75,2.84-13.48,4.39-20.2,1.17-1.64,2.41-3.23,3.7-4.78.03.1.05.21.08.31-1.1,4.46-2.13,8.93-3.08,13.42Z"/>
      <path class="cls-70" d="M73.9,86.02c-.09.35-.29.6-.62.77.09-.35.29-.6.62-.77Z"/>
      <path class="cls-18" d="M47.22,82.63c-.18,1.25-.43,2.48-.77,3.7-1.02.13-2.05.21-3.08.23-.1.37-.25.71-.46,1,0-.42.1-.8.31-1.16,1.03-.08,2.05-.1,3.08-.08.22-1.27.52-2.51.93-3.7Z"/>
      <path class="cls-109" d="M135.11,85.4c-.09.5-.24.96-.46,1.39.05-.41.1-.82.15-1.23.1-.05.21-.1.31-.15Z"/>
      <path class="cls-32" d="M73.28,86.79c-.09.35-.29.6-.62.77.09-.35.29-.6.62-.77Z"/>
      <path class="cls-85" d="M118.77,93.11v-1.7c.15-1.16.25-2.34.31-3.55-1.59-.3-3.23-.41-4.93-.31,1.75-.11,3.47-.21,5.17-.31-.08,1.98-.26,3.93-.54,5.86Z"/>
      <path class="cls-102" d="M114.14,87.56c1.7-.1,3.35,0,4.93.31-1.48-.15-2.97-.2-4.47-.15-.14.09-.29.15-.46.15v-.31Z"/>
      <path class="cls-168" d="M69.27,86.94c.27.24.42.54.46.93-.31-.22-.47-.53-.46-.93Z"/>
      <path class="cls-104" d="M114.6,87.72c1.5-.05,2.99,0,4.47.15-.06,1.21-.16,2.39-.31,3.55-.05-1.04,0-2.07.15-3.08-.07-.15-.18-.28-.31-.39-1.27-.13-2.53-.1-3.78.08-.11-.08-.19-.19-.23-.31Z"/>
      <path class="cls-47" d="M98.1,86.48c.14.86,0,1.69-.46,2.47.2-.81.36-1.63.46-2.47Z"/>
      <path class="cls-58" d="M160.09,87.1c-.07.72-.15,1.44-.23,2.16-.04.14-.12.24-.23.31-.03-.52,0-1.03.08-1.54,0-.38.13-.69.39-.93Z"/>
      <path class="cls-110" d="M102.58,88.33c-.9.13-1.82.2-2.78.23l-.23.23c-.09.81-.27,1.58-.54,2.31.06-.95.27-1.85.62-2.7.98-.08,1.95-.1,2.93-.08Z"/>
      <path class="cls-152" d="M72.66,87.56c-.22.32-.32.68-.31,1.08-.16-.02-.32,0-.46.08-.24.26-.49.49-.77.69.46-.66.97-1.28,1.54-1.85Z"/>
      <path class="cls-94" d="M144.36,86.33c-.08.72-.13,1.44-.15,2.16,1.54.03,3.08,0,4.63-.08.3-.63.56-1.27.77-1.93,0,.76-.21,1.46-.62,2.08-1.64.08-3.29.1-4.93.08-.05-.81.05-1.58.31-2.31Z"/>
      <path class="cls-169" d="M87.31,112.85c0,.32-.16.55-.46.69-2.88,1.44-5.76,2.88-8.64,4.32-.14.11-.24.24-.31.39-1.56.7-3.1,1.45-4.63,2.24-.18.12-.33.09-.46-.08-1.13-2.47-1.59-5.07-1.39-7.79.03-1.05.05-2.11.08-3.16,1.42-6.33,2.86-12.65,4.32-18.97.46-.57.93-1.13,1.39-1.7-.88,3.93-1.78,7.86-2.7,11.8,4.57.05,9.15.1,13.72.15-.65,2.83-1.22,5.69-1.7,8.56.05,1.25.3,2.43.77,3.55Z"/>
      <path class="cls-193" d="M82.38,86.64c-.37,2.25-.83,4.46-1.39,6.63.24-2.03.57-4.04,1-6.01.09-.24.22-.45.39-.62Z"/>
      <path class="cls-93" d="M161.94,87.1c.04.48-.01.94-.15,1.39-.33.75-.59,1.52-.77,2.31.16-1.29.47-2.52.93-3.7Z"/>
      <path class="cls-127" d="M187.23,87.87c-.06.49-.16.95-.31,1.39-.07-.52.04-.98.31-1.39Z"/>
      <path class="cls-81" d="M59.09,88.02c-.05,1.03-.26,2-.62,2.93.09-1.02.3-2,.62-2.93Z"/>
      <path class="cls-166" d="M69.73,88.02c.21.42.47.83.77,1.23.19.12.4.17.62.15v.46c-.28.04-.53,0-.77-.15-.36-.51-.56-1.07-.62-1.7Z"/>
      <path class="cls-118" d="M134.65,86.94c-.02.89-.22,1.71-.62,2.47.06-.87.27-1.7.62-2.47Z"/>
      <path class="cls-42" d="M42.9,87.72c.09.79-.06,1.51-.46,2.16.06-.76.22-1.48.46-2.16Z"/>
      <path class="cls-9" d="M132.03,89.41c-.02.72-.17,1.39-.46,2,.04-.71.19-1.38.46-2Z"/>
      <path class="cls-69" d="M97.64,89.26c-.08.47-.18.93-.31,1.39-.32.83-.53,1.7-.62,2.62v.31h-.15c.07-1.53.43-2.97,1.08-4.32Z"/>
      <path class="cls-21" d="M161.79,88.49c-.23,2.14-.69,4.19-1.39,6.17.05-.62.1-1.23.15-1.85.27-.64.43-1.3.46-2,.19-.79.44-1.56.77-2.31Z"/>
      <path class="cls-111" d="M113.83,88.49c0,.68-.18,1.3-.54,1.85-.18.56-.33,1.12-.46,1.7-.18.33-.41.61-.69.85-.1.38-.18.77-.23,1.16-.42.55-.73,1.17-.93,1.85-.16.29-.39.5-.69.62.42-.54.68-1.16.77-1.85.84-2.11,1.76-4.16,2.78-6.17Z"/>
      <path class="cls-69" d="M129.72,88.49h2.31v.93c-.27.62-.43,1.29-.46,2v.15c-.1.15-.21.31-.31.46.03-1.17.24-2.31.62-3.39-.75.05-1.47,0-2.16-.15Z"/>
      <path class="cls-136" d="M42.44,89.87c-.02,1.5-.27,2.94-.77,4.32.01-.42.06-.83.15-1.23v-.31c.27-.62.43-1.29.46-2-.04-.3,0-.55.15-.77Z"/>
      <path class="cls-179" d="M134.03,89.57c-.01,1.04-.22,2.01-.62,2.93.16-1,.36-1.98.62-2.93Z"/>
      <path class="cls-24" d="M97.33,90.65c.03.47,0,.93-.08,1.39-.23.41-.41.82-.54,1.23.09-.92.29-1.79.62-2.62Z"/>
      <path class="cls-159" d="M186.61,90.34c-.06,1.02-.47,1.84-1.23,2.47.36-.87.77-1.69,1.23-2.47Z"/>
      <path class="cls-164" d="M131.57,91.57c-.3,1.61-.66,3.2-1.08,4.78h-.15c.37-1.42.68-2.86.93-4.32.1-.15.21-.31.31-.46Z"/>
      <path class="cls-51" d="M98.88,92.19c.01.41-.09.77-.31,1.08-.05-.42.05-.78.31-1.08Z"/>
      <path class="cls-108" d="M118.77,92.5v.62c-.01,1.08-.06,2.16-.15,3.24-.16-1.29-.11-2.57.15-3.85Z"/>
      <path class="cls-64" d="M158.4,93.11c-.3.55-.71,1.02-1.23,1.39h-.15v-.46c.16.02.32,0,.46-.08.3-.32.6-.6.93-.85Z"/>
      <path class="cls-79" d="M185.38,92.8c-.46,1.18-1.28,2-2.47,2.47.46-.43.95-.84,1.46-1.23.31-.44.65-.85,1-1.23Z"/>
      <path class="cls-5" d="M160.55,92.8c-.05.62-.1,1.23-.15,1.85-.25.41-.35.87-.31,1.39.2-.04.35.01.46.15h-.62c.05-1.18.26-2.31.62-3.39Z"/>
      <path class="cls-71" d="M182.91,95.27c-.25.28-.56.49-.93.62.2-.36.51-.56.93-.62Z"/>
      <path class="cls-186" d="M96.1,95.12c-.05.31-.1.62-.15.93-5.1.2-10.19.2-15.27,0,4.97.02,9.96,0,14.96-.08.08-.34.23-.62.46-.85Z"/>
      <path class="cls-183" d="M157.01,94.5h.15c-.48.61-1.1,1.02-1.85,1.23.56-.41,1.12-.82,1.7-1.23Z"/>
      <path class="cls-116" d="M57.7,93.88c-.19.81-.35,1.64-.46,2.47h-15.88v-.62c-.03-.56.08-1.07.31-1.54-.09.66-.14,1.33-.15,2h15.57c.05-.83.26-1.6.62-2.31Z"/>
      <path class="cls-187" d="M80.53,95.58c-.04.2.01.35.15.46,5.07.2,10.16.2,15.27,0-.37.26-.81.41-1.31.46-4.66-.11-9.36-.16-14.11-.15-.21-.26-.21-.51,0-.77Z"/>
      <path class="cls-90" d="M133.11,94.35c-.12.56-.15,1.13-.08,1.7.05-.1.1-.21.15-.31.05.28.15.33.31.15,6.47.31,12.97.41,19.51.31-6.71.15-13.44.21-20.2.15v-1.08c-.07-.4.03-.71.31-.93Z"/>
      <path class="cls-117" d="M41.36,95.73v.62h15.88c-5.32.15-10.66.21-16.04.15v-.15c-.04-.25.01-.45.15-.62Z"/>
      <path class="cls-7" d="M111.06,94.65c-.09.69-.35,1.31-.77,1.85h-.15c-3.98.05-7.94,0-11.87-.15,3.96.05,7.92,0,11.87-.15.34-.5.65-1.02.93-1.54Z"/>
      <path class="cls-176" d="M132.8,95.27v1.08c6.76.05,13.49,0,20.2-.15.78-.11,1.55-.26,2.31-.46-.61.38-1.28.64-2,.77h-20.66v-.62c-.04-.25.01-.45.15-.62Z"/>
      <path class="cls-170" d="M58.01,93.42c-.24,1.05-.44,2.11-.62,3.16-5.42.13-10.82.1-16.19-.08,5.37.05,10.72,0,16.04-.15.11-.83.27-1.65.46-2.47.07-.19.17-.34.31-.46Z"/>
      <path class="cls-55" d="M96.56,93.58h.15c-.23.97-.44,1.95-.62,2.93-4.93.17-9.87.2-14.8.08-.29-.03-.55-.11-.77-.23,4.75,0,9.45.05,14.11.15.5-.05.94-.21,1.31-.46.05-.31.1-.62.15-.93.2-.48.35-1,.46-1.54Z"/>
      <path class="cls-141" d="M97.95,96.35h.31c3.93.15,7.89.21,11.87.15-3.98.18-7.99.21-12.03.08-.09-.06-.14-.14-.15-.23Z"/>
      <path class="cls-158" d="M118.61,96.35h11.87c-.02.1-.07.17-.15.23-3.85.1-7.71.1-11.56,0-.09-.06-.14-.14-.15-.23Z"/>
      <path class="cls-188" d="M132.65,95.89v.62h20.66c-.64.13-1.31.2-2,.23-6.27.08-12.54.1-18.81.08-.05-.34,0-.65.15-.93Z"/>
      <path class="cls-107" d="M75.75,99.28c.12.1.22.23.31.39,9.59.03,19.15.1,28.68.23-.1.02-.17.07-.23.15-9.64-.1-19.27-.21-28.91-.31-.04-.2.01-.35.15-.46Z"/>
      <path class="cls-78" d="M153.92,99.9c-10.61-.05-21.2,0-31.76.15-.26.16-.47.36-.62.62.05-.31.1-.62.15-.93,10.77-.05,21.51,0,32.23.15Z"/>
      <path class="cls-57" d="M183.99,99.28c-.44.35-.96.56-1.54.62.47-.29.98-.5,1.54-.62Z"/>
      <path class="cls-38" d="M75.59,99.74c9.64.1,19.27.21,28.91.31.06-.09.14-.14.23-.15.21,0,.31.1.31.31-9.87-.13-19.74-.2-29.61-.23.09-.06.14-.14.15-.23Z"/>
      <path class="cls-38" d="M122.16,100.05c10.56-.15,21.15-.21,31.76-.15.04.61-.06,1.18-.31,1.7.05-.51.1-1.03.15-1.54h-31.61Z"/>
      <path class="cls-172" d="M182.14,99.9c-6.09.13-12.21.21-18.35.23-.23.23-.36.51-.39.85-.6,2.69-1.2,5.36-1.77,8.02.23-1.71.46-3.41.69-5.09.43-1.32.76-2.65,1-4.01h18.81Z"/>
      <path class="cls-169" d="M125.86,116.55h-31.92c-2.28-.19-4.08-1.22-5.4-3.08,4.88-2.44,9.76-4.88,14.65-7.32,6.01-.08,12.03-.1,18.04-.08.4-1.74.87-3.46,1.39-5.17,4.83-.08,9.66-.1,14.49-.08-.44,3.83-1.6,7.43-3.47,10.79-1.91,2.72-4.51,4.36-7.79,4.93Z"/>
      <path class="cls-99" d="M105.04,100.21c.09.04.14.11.15.23-.24,1.09-.37,2.2-.39,3.32-.09.33-.21.63-.39.93.03.09.08.17.15.23,5.24.08,10.49.1,15.73.08-.37.11-.75.21-1.16.31-4.92.02-9.88-.03-14.88-.15.17-1.66.42-3.31.77-4.93Z"/>
      <path class="cls-155" d="M161.02,111.92c.03.67-.17,1.23-.62,1.7.15-.6.35-1.17.62-1.7Z"/>
      <path class="cls-19" d="M150.84,111.77c.02.31,0,.62-.08.93-.76,1.5-1.66,2.89-2.7,4.16.13-.36.25-.72.39-1.08.5-.86,1.07-1.68,1.7-2.47.13-.59.37-1.11.69-1.54Z"/>
      <path class="cls-134" d="M87.31,112.85c.17.17.2.38.08.62-3.14,1.62-6.3,3.21-9.48,4.78.07-.15.17-.28.31-.39,2.88-1.44,5.76-2.88,8.64-4.32.3-.14.45-.37.46-.69Z"/>
      <path class="cls-132" d="M160.25,114.24c-.28.87-.64,1.69-1.08,2.47.2-.91.56-1.73,1.08-2.47Z"/>
      <path class="cls-182" d="M93.94,116.55h31.92c-.32.11-.65.21-1,.31-10.18-.21-20.35-.21-30.53,0-.15-.09-.28-.19-.39-.31Z"/>
      <path class="cls-137" d="M70.66,110.54c-.45,4.03.24,7.83,2.08,11.41.7,1.34,1.65,2.48,2.85,3.39.61.71,1.33,1.3,2.16,1.77.84.42,1.71.75,2.62,1v.15c-.67.26-1.26.15-1.77-.31-.07-.15-.1-.3-.08-.46-.62.04-1.08-.19-1.39-.69-.43-.09-.79-.29-1.08-.62-.25-.08-.51-.1-.77-.08.03-.18-.02-.34-.15-.46-1.13-.99-2.09-2.12-2.85-3.39-.61-1.18-1.12-2.42-1.54-3.7-.2-1.78-.38-3.55-.54-5.32.03-.69.05-1.39.08-2.08.14-.21.27-.42.39-.62Z"/>
      <path class="cls-53" d="M154.08,125.03c-.56.87-1.23,1.64-2,2.31.5-.91,1.16-1.68,2-2.31Z"/>
      <path class="cls-145" d="M75.59,125.34c.79.5,1.56,1.04,2.31,1.62.87.31,1.69.7,2.47,1.16-.91-.25-1.78-.58-2.62-1-.83-.47-1.55-1.06-2.16-1.77Z"/>
      <path class="cls-76" d="M157.47,126.73c-.24.65-.65,1.16-1.23,1.54-.02-.16,0-.32.08-.46.38-.4.76-.76,1.16-1.08Z"/>
      <path class="cls-157" d="M80.37,128.27v-.15c.37,0,.73.08,1.08.23,17.12.13,34.24.1,51.35-.08-.39.26-.82.41-1.31.46-16.4-.12-32.83-.12-49.27,0-.63-.12-1.24-.28-1.85-.46Z"/>
      <path class="cls-17" d="M152.07,127.34c-1.05,1.27-2.23,2.4-3.55,3.39.06-.29.21-.52.46-.69,1.01-.93,2.03-1.83,3.08-2.7Z"/>
      <path class="cls-122" d="M155.77,128.73c-.15.46-.46.77-.93.93.15-.46.46-.77.93-.93Z"/>
      <path class="cls-162" d="M148.53,130.74c-.37.42-.78.8-1.23,1.16-.19.12-.4.2-.62.23.53-.58,1.15-1.04,1.85-1.39Z"/>
      <path class="cls-23" d="M63.26,131.35c.15.05.26.15.31.31-.26.18-.37.08-.31-.31Z"/>
      <path class="cls-161" d="M146.68,132.12c-.17.32-.42.53-.77.62.17-.32.42-.53.77-.62Z"/>
      <path class="cls-92" d="M64.34,132.74c.19.07.34.17.46.31-.26.03-.41-.07-.46-.31Z"/>
      <path class="cls-196" d="M151.61,132.74c0,.21-.1.31-.31.31.05-.15.15-.26.31-.31Z"/>
      <path class="cls-143" d="M145.91,132.74c-.28.37-.64.63-1.08.77.28-.37.64-.63,1.08-.77Z"/>
      <path class="cls-150" d="M64.8,133.2c.25,0,.48.15.69.46.31.44.64.85,1,1.23-.1.02-.17.07-.23.15-.6-.6-1.19-1.19-1.77-1.77.09-.07.19-.1.31-.08Z"/>
      <path class="cls-23" d="M150.22,133.98c.18.26.08.37-.31.31.05-.15.15-.26.31-.31Z"/>
      <path class="cls-61" d="M144.52,133.67c-.12.2-.28.38-.46.54-.6.33-1.22.61-1.85.85.21-.17.44-.32.69-.46.04-.17.12-.33.23-.46.47-.13.94-.29,1.39-.46Z"/>
      <path class="cls-171" d="M149.61,134.59c.13.13.08.26-.15.39-.15.07-.3.1-.46.08.18-.16.31-.36.39-.62.06.09.14.14.23.15Z"/>
      <path class="cls-115" d="M142.21,135.05c-.23.33-.53.53-.93.62.2-.36.51-.56.93-.62Z"/>
      <path class="cls-35" d="M141.13,135.67c-.54.42-1.16.68-1.85.77.57-.34,1.19-.59,1.85-.77Z"/>
      <path class="cls-148" d="M73.9,135.98c1.05.02,1.98.35,2.78,1,.8.25,1.63.43,2.47.54.35.11.65.26.93.46-2.19-.3-4.25-.97-6.17-2Z"/>
      <path class="cls-184" d="M136.81,137.37c-.18.24-.44.37-.77.39-.46.08-.92.1-1.39.08.68-.25,1.4-.4,2.16-.46Z"/>
      <path class="cls-196" d="M69.89,137.83c.15.05.26.15.31.31-.21,0-.31-.1-.31-.31Z"/>
      <path class="cls-113" d="M139.28,136.44c-.14.13-.3.25-.46.39-.69.13-1.36.31-2,.54-.76.06-1.48.22-2.16.46-.4.15-.81.25-1.23.31-.57,0-1.14.09-1.7.23-16.5.08-33,.1-49.5.08,16.42-.1,32.87-.21,49.34-.31,2.22-.49,4.43-1.03,6.63-1.62.36-.08.72-.1,1.08-.08Z"/>
      <path class="cls-96" d="M133.42,138.14c-.47.23-.98.36-1.54.39-16.73.13-33.44.1-50.11-.08h.46c16.5.03,33,0,49.5-.08.56-.14,1.12-.22,1.7-.23Z"/>
    </g>
  </g>
</svg>