<?xml version="1.0" encoding="UTF-8"?>
<svg id="UNH" xmlns="http://www.w3.org/2000/svg" viewBox="0 0 232.6 144.9">
  <defs>
    <style>
      .cls-1 {
        fill: #02225e;
      }

      .cls-1, .cls-2, .cls-3 {
        stroke-width: 0px;
      }

      .cls-2 {
        fill: #fff;
      }

      .cls-3 {
        fill: #c2c3c6;
      }
    </style>
  </defs>
  <path class="cls-3" d="M108.51,5.26c.66.15,1.23.27,1.79.41,2.11.51,4.22,1.02,6.33,1.55,1.48.37,2.89.96,4.29,1.57,2.81,1.22,5.42,2.79,8.01,4.39.3.18.56.26.91.09,1.72-.81,3.54-1.34,5.36-1.84,2.28-.63,4.58-1.2,6.92-1.62,1.3-.23,2.6-.48,3.92-.63.71-.08,1.41-.24,2.13-.25.39-.01.51-.18.35-.55-.22-.52-.42-1.05-.7-1.55-.89-1.59-1.99-3.01-3.31-4.26-.06-.06-.11-.13-.24-.28.75.17,1.34.48,1.95.71,2.57.96,5.13,1.94,7.69,2.91,2.08.78,4.18,1.53,6.15,2.54.93.48,1.89.6,2.87.74,4.27.6,8.42,1.59,12.21,3.75,1.75.99,3.4,2.12,4.96,3.38.81.66,1.6,1.34,2.41,2,.2.16.43.3.65.44.26.16.53.18.8.03,1.1-.64,2.16-.43,3.24.09.95.45,1.85.98,2.62,1.7.85.79,1.55,1.71,2.07,2.75.27.52.52,1.06.72,1.61.11.29.28.46.54.6,1.89,1.03,3.44,2.43,4.61,4.25.32.5.64,1.01.8,1.57.29,1.03.94,1.85,1.47,2.74.66,1.1,1.07,2.28,1.27,3.54.51,3.13-.22,5.96-2.18,8.45-.48.61-1.03,1.19-1.72,1.6-.34.2-.53.51-.74.81-2.29,3.17-5.13,5.72-8.5,7.7-.43.25-.61.74-.46,1.21.05.15.16.2.3.2.24,0,.48,0,.72.01.4.02.46.08.41.47-.09.67-.21,1.33-.31,1.99-.11.69-.24,1.37-.32,2.06-.06.54-.03.54.49.59,1.21.13,2.43.15,3.64.27,2.49.24,4.75,1.06,6.54,2.89,1.32,1.35,2.07,2.99,2.4,4.84.3,1.69.2,3.38-.16,5.05-.67,3.14-1.37,6.28-2.06,9.41-.73,3.33-1.46,6.66-2.16,9.99-.13.64-.13,1.29.05,1.94.14.48.43.78.91.93.54.17,1.09.25,1.69.25-.23,1.28-.45,2.5-.66,3.71-.38,2.11-.76,4.23-1.14,6.34-.31,1.71-.62,3.41-.93,5.12-.34,1.86-.68,3.71-1.02,5.57-.35,1.92-.65,3.85-1.05,5.76-.38,1.78-1.1,3.44-2.23,4.89-.92,1.17-2.08,2.03-3.46,2.6-1.8.74-3.68,1-5.6,1.05-1.06.03-2.12.11-3.18.23-.69.08-1.39.08-2.08.12-.93.05-1.87.12-2.8.19-1.52.11-3.04.15-4.55.34-.69.09-1.39.09-2.08.12-.93.05-1.87.12-2.8.19-1.52.12-3.04.15-4.55.34-.67.09-1.34.07-2.02.12-.82.06-1.65.12-2.47.18-1.65.12-3.3.18-4.94.36-.65.07-1.3.09-1.95.12-.98.04-1.96.12-2.93.19-1.51.12-3.04.15-4.55.34-.67.08-1.35.1-2.02.12-.98.04-1.96.12-2.93.19-1.49.12-2.99.18-4.48.33-.8.08-1.6.13-2.41.17-1.06.04-2.12.12-3.18.24-.69.08-1.39.08-2.08.12-.93.05-1.87.12-2.8.19-1.52.12-3.04.15-4.55.34-.65.08-1.3.09-1.95.12-.98.04-1.96.12-2.93.19-1.52.12-3.04.15-4.55.34-.65.08-1.3.09-1.95.12-.98.04-1.96.12-2.93.19-1.52.12-3.04.15-4.55.34-.64.08-1.3.09-1.95.12-.98.04-1.95.14-2.93.19-1.52.07-3.03.24-4.55.35-.65.05-1.3.09-1.95.11-.98.04-1.95.14-2.93.19-1.52.07-3.03.24-4.55.35-.65.05-1.3.09-1.95.11-.98.04-1.95.14-2.93.19-1.52.07-3.03.24-4.55.35-.65.05-1.3.09-1.95.11-.98.04-1.95.14-2.93.19-1.52.07-3.03.24-4.55.35-.63.05-1.26.08-1.89.11-.91.05-1.82.14-2.73.18-1.58.08-3.16.23-4.74.35-.65.05-1.3.08-1.95.12-.93.05-1.86.2-2.8.17-.28,0-.56.06-.84.09-.58.06-1.16.06-1.75-.08-3.47-.81-6.94-1.58-10.42-2.37-.02,0-.04,0-.06-.01-.73-.17-.78-.25-.83-.99-.07-1.02-.21-2.03-.35-3.04-.14-.97-.2-1.94-.31-2.91-.09-.88-.2-1.77-.3-2.65-.07-.65-.15-1.29-.22-1.94-.1-.88-.2-1.77-.3-2.65-.07-.62-.15-1.25-.22-1.87-.11-.95-.21-1.9-.32-2.85-.11-.99-.23-1.98-.34-2.97-.1-.88-.2-1.77-.31-2.65-.11-.99-.18-1.99-.36-2.97-.19-1.04.19-1.97.46-2.92,1.52-5.35,3.07-10.7,4.6-16.04,1.44-5.01,2.88-10.03,4.31-15.05.26-.9.52-1.8.73-2.71.47-2.01-.9-3.51-2.69-3.54-.13,0-.26.02-.39-.06-.07-.2.05-.37.1-.55,1.17-3.76,2.35-7.51,3.53-11.27.46-1.45.93-2.9,1.35-4.36.11-.38.3-.55.65-.62.98-.21,1.95-.46,2.93-.62,2.66-.44,5.17-1.34,7.65-2.36,2.08-.85,4.11-1.79,6.15-2.73,1.48-.69,2.94-1.42,4.41-2.15,2.09-1.04,4.18-2.06,6.25-3.14,3.13-1.63,6.26-3.27,9.35-4.97,1.81-1,3.65-1.95,5.46-2.95,1.99-1.08,3.96-2.19,5.95-3.28,1.37-.76,2.75-1.51,4.12-2.27,2.52-1.39,5.03-2.78,7.55-4.16,1.55-.85,3.1-1.68,4.65-2.53,1.84-1,3.66-2.02,5.51-3,.32-.17.3-.33.18-.61-.57-1.41-1.02-2.87-1.23-4.38-.23-1.6-.63-3.16-1.2-4.66-.72-1.89-1.49-3.76-2.24-5.64-.13-.32-.24-.64-.4-1.06ZM42.72,69.44c.14.03.23.05.31.06,2.02.25,3.14,1.85,2.68,3.83-.07.3-.18.58-.26.88-1.51,5.27-3.02,10.55-4.53,15.82-2.06,7.2-4.13,14.39-6.19,21.59-.1.33-.19.66-.14,1.02.16,1.23.28,2.47.43,3.7.25,2.14.49,4.28.74,6.42.24,2.1.47,4.2.71,6.3.28,2.47.57,4.93.85,7.4.07.64.06.64.71.79,2.48.56,4.97,1.13,7.45,1.69.34.08.68.13,1.03.11,1.54-.12,3.09-.22,4.63-.33,2.26-.16,4.52-.32,6.79-.48,2.09-.15,4.17-.29,6.26-.44,1.65-.11,3.31-.22,4.96-.33,2.13-.15,4.26-.3,6.39-.45,2.22-.15,4.44-.3,6.65-.45,2.24-.15,4.48-.31,6.72-.47,1.59-.11,3.17-.22,4.76-.33,2.11-.15,4.22-.3,6.33-.45,1.63-.11,3.26-.22,4.89-.33,2.17-.15,4.35-.31,6.52-.46,2.2-.15,4.39-.3,6.59-.45,2.2-.15,4.39-.31,6.59-.47,1.61-.11,3.22-.22,4.83-.33,2.13-.15,4.26-.3,6.39-.45,1.63-.11,3.26-.22,4.89-.33,2.15-.15,4.3-.31,6.46-.46,2.22-.15,4.44-.3,6.65-.46,2.17-.15,4.35-.31,6.52-.46,1.63-.11,3.26-.22,4.89-.33,2.13-.15,4.26-.3,6.39-.45,2.22-.15,4.44-.3,6.65-.46,1.87-.13,3.74-.26,5.61-.38.72-.04,1.43-.1,2.14-.21,2.46-.4,4.14-1.72,4.89-4.14.01-.04.02-.08.04-.13.52-1.38.63-2.84.9-4.27.7-3.77,1.38-7.54,2.06-11.31.44-2.42.88-4.84,1.32-7.26.11-.6.01-.52-.42-.56-.74-.07-1.47-.14-2.21-.2q-.71-.06-.56-.73c.35-1.62.7-3.23,1.05-4.85,1.5-6.87,3-13.74,4.5-20.61.22-1.02.39-2.06.29-3.11-.22-2.35-1.29-4.08-3.59-4.91-.79-.28-1.61-.39-2.43-.45-1.57-.11-3.13-.2-4.7-.31-.93-.06-1.87-.15-2.8-.21-.29-.02-.38-.13-.33-.4.07-.41.13-.82.19-1.23.15-.92.3-1.85.44-2.77.07-.45.04-.47-.43-.48-.45,0-.89,0-1.44,0,.43-1.03.75-1.98.91-2.96.17-.99.23-2.45-.24-3-1.86,2.5-4.26,4.25-7.27,5.3.68-2.25.72-4.49.58-6.87-.46.61-.81,1.16-1.25,1.63-1.67,1.79-3.67,3.14-5.86,4.22-.31.15-.62.19-.95.12-1.11-.24-2.19-.59-3.2-1.11-1-.51-1.79-1.24-2.22-2.3-.46-1.15-.36-2.22.46-3.18.32-.38.66-.76.99-1.14,1.17-1.35,2.11-2.83,2.46-4.62.26-1.34.16-2.62-.72-3.72-.27-.34-.26-.58-.06-.92,1.08-1.91,2.91-2.89,5.09-2.59,1.63.22,2.85,1.12,3.42,2.69.57,1.56.63,3.21.37,4.84-.35,2.16-1.26,4.11-2.32,6-.07.13-.25.25-.14.48.2-.12.39-.22.57-.34,1.44-.91,2.82-1.91,4.1-3.02,1.25-1.09,2.45-2.24,3.28-3.7.21-.38.45-.49.88-.48,2.54.02,4.81-.72,6.69-2.49.19-.18.34-.2.57-.07.29.16.31.34.25.64-.49,2.43-1.3,4.74-2.37,6.97-.16.34-.33.68-.52,1.07.12-.04.17-.05.21-.07,2.97-1.8,5.46-4.1,7.41-6.98.24-.35.5-.63.86-.87,1.82-1.18,2.69-2.93,2.85-5.04.14-1.97-.51-3.68-1.79-5.17-.17-.2-.35-.37-.41-.65-.39-1.78-1.39-3.17-2.8-4.29-.79-.63-1.67-1.1-2.61-1.47-.22-.09-.43-.15-.48-.46-.14-.82-.49-1.58-.84-2.33-.57-1.21-1.39-2.21-2.57-2.88-.37-.21-.68-.25-1.09-.08-1.15.48-2.29.46-3.38-.2-.65-.39-1.31-.78-1.88-1.29-.68-.61-1.39-1.19-2.11-1.76-2.42-1.92-4.99-3.59-7.93-4.61-2.91-1.02-5.93-1.57-8.99-1.93-.8-.09-1.6-.15-2.18-.82-.08-.1-.21-.15-.32-.23-2.32-1.57-4.86-2.72-7.46-3.75-.02,0-.06.03-.12.07.52.62,1.06,1.22,1.52,1.87.43.61.85,1.21,1.12,1.91.21.57.18.61-.44.64-.68.03-1.35.02-2.03.07-2.85.21-5.68.57-8.48,1.15-4.35.9-8.68,1.91-12.71,3.88-.38.19-.66.15-1.02-.07-1.71-1.05-3.42-2.09-5.16-3.09-2.57-1.48-5.24-2.76-8.12-3.54-.16-.04-.33-.14-.52,0,.56,1.58,1.01,3.19,1.25,4.85.26,1.76.76,3.44,1.51,5.05.36.77.81,1.49,1.27,2.24-.22.13-.4.23-.59.34-3.96,2.16-7.92,4.31-11.88,6.48-5.25,2.89-10.48,5.8-15.74,8.68-5.62,3.08-11.24,6.14-16.93,9.09-6.03,3.13-12.09,6.22-18.37,8.82-1.99.82-3.99,1.62-6.11,2.09-.94.2-1.87.4-2.81.59-.34.07-.56.2-.67.58-.75,2.48-1.53,4.95-2.3,7.42-.24.78-.49,1.57-.74,2.38Z"/>
  <path class="cls-1" d="M42.72,69.44c.25-.81.5-1.59.74-2.38.77-2.47,1.55-4.94,2.3-7.42.12-.39.33-.51.67-.58.94-.19,1.88-.39,2.81-.59,2.12-.46,4.12-1.26,6.11-2.09,6.29-2.6,12.34-5.69,18.37-8.82,5.68-2.95,11.31-6.01,16.93-9.09,5.25-2.88,10.49-5.8,15.74-8.68,3.95-2.17,7.92-4.32,11.88-6.48.19-.1.37-.21.59-.34-.46-.75-.91-1.47-1.27-2.24-.75-1.61-1.25-3.29-1.51-5.05-.24-1.66-.69-3.27-1.25-4.85.19-.13.35-.04.52,0,2.88.78,5.55,2.06,8.12,3.54,1.74,1,3.45,2.04,5.16,3.09.36.22.64.26,1.02.07,4.03-1.97,8.35-2.98,12.71-3.88,2.8-.58,5.63-.93,8.48-1.15.67-.05,1.35-.05,2.03-.07.62-.03.65-.07.44-.64-.26-.7-.69-1.31-1.12-1.91-.46-.66-1.01-1.25-1.52-1.87.06-.04.1-.08.12-.07,2.6,1.03,5.13,2.17,7.46,3.75.11.07.24.13.32.23.58.68,1.38.73,2.18.82,3.06.36,6.07.91,8.99,1.93,2.94,1.03,5.51,2.69,7.93,4.61.72.57,1.43,1.15,2.11,1.76.58.51,1.23.9,1.88,1.29,1.1.66,2.24.68,3.38.2.41-.17.72-.13,1.09.08,1.18.67,2,1.67,2.57,2.88.36.75.71,1.5.84,2.33.05.31.26.37.48.46.94.37,1.82.84,2.61,1.47,1.41,1.12,2.41,2.5,2.8,4.29.06.28.24.46.41.65,1.28,1.49,1.93,3.21,1.79,5.17-.15,2.11-1.03,3.85-2.85,5.04-.36.23-.62.52-.86.87-1.95,2.88-4.45,5.18-7.41,6.98-.04.02-.08.03-.21.07.19-.39.36-.73.52-1.07,1.06-2.23,1.88-4.54,2.37-6.97.06-.3.04-.49-.25-.64-.23-.13-.38-.11-.57.07-1.88,1.77-4.15,2.5-6.69,2.49-.43,0-.66.11-.88.48-.83,1.46-2.02,2.61-3.28,3.7-1.29,1.12-2.67,2.11-4.1,3.02-.18.12-.37.22-.57.34-.11-.23.07-.35.14-.48,1.05-1.89,1.97-3.85,2.32-6,.26-1.63.2-3.28-.37-4.84-.57-1.57-1.79-2.46-3.42-2.69-2.18-.3-4,.68-5.09,2.59-.19.34-.21.59.06.92.88,1.1.99,2.38.72,3.72-.35,1.79-1.3,3.26-2.46,4.62-.33.38-.66.75-.99,1.14-.82.96-.92,2.03-.46,3.18.43,1.06,1.22,1.79,2.22,2.3,1.01.52,2.09.87,3.2,1.11.33.07.64.03.95-.12,2.19-1.08,4.18-2.43,5.86-4.22.44-.47.78-1.02,1.25-1.63.14,2.39.1,4.63-.58,6.87,3.01-1.05,5.41-2.8,7.27-5.3.47.55.4,2.01.24,3-.16.99-.48,1.93-.91,2.96.54,0,.99,0,1.44,0,.47,0,.49.03.43.48-.14.93-.29,1.85-.44,2.77-.07.41-.12.82-.19,1.23-.05.27.04.38.33.4.94.06,1.87.15,2.8.21,1.57.11,3.13.2,4.7.31.83.06,1.65.17,2.43.45,2.3.83,3.37,2.56,3.59,4.91.1,1.05-.07,2.09-.29,3.11-1.5,6.87-3,13.74-4.5,20.61-.35,1.62-.7,3.23-1.05,4.85q-.14.67.56.73c.74.07,1.48.13,2.21.2.43.04.53-.04.42.56-.43,2.42-.88,4.84-1.32,7.26-.69,3.77-1.37,7.54-2.06,11.31-.26,1.43-.38,2.9-.9,4.27-.02.04-.02.08-.04.13-.75,2.42-2.43,3.74-4.89,4.14-.71.12-1.43.17-2.14.21-1.87.12-3.74.25-5.61.38-2.22.15-4.44.3-6.65.46-2.13.15-4.26.3-6.39.45-1.63.11-3.26.22-4.89.33-2.17.15-4.35.31-6.52.46-2.22.15-4.44.3-6.65.46-2.15.15-4.3.31-6.46.46-1.63.11-3.26.22-4.89.33-2.13.15-4.26.3-6.39.45-1.61.11-3.22.22-4.83.33-2.2.15-4.39.31-6.59.47-2.2.15-4.39.3-6.59.45-2.17.15-4.35.31-6.52.46-1.63.11-3.26.22-4.89.33-2.11.15-4.22.3-6.33.45-1.59.11-3.17.22-4.76.33-2.24.16-4.48.31-6.72.47-2.22.15-4.44.3-6.65.45-2.13.15-4.26.3-6.39.45-1.65.11-3.31.22-4.96.33-2.09.14-4.18.29-6.26.44-2.26.16-4.52.32-6.79.48-1.54.11-3.09.21-4.63.33-.36.03-.7-.03-1.03-.11-2.49-.56-4.97-1.12-7.45-1.69-.65-.15-.64-.15-.71-.79-.28-2.47-.57-4.93-.85-7.4-.24-2.1-.47-4.2-.71-6.3-.24-2.14-.49-4.28-.74-6.42-.14-1.23-.27-2.47-.43-3.7-.05-.36.05-.69.14-1.02,2.06-7.2,4.13-14.39,6.19-21.59,1.51-5.27,3.02-10.55,4.53-15.82.08-.29.19-.58.26-.88.47-1.98-.65-3.58-2.68-3.83-.08-.01-.17-.03-.31-.06ZM165.96,35.35c.09.04.18.04.27-.02.12,0,.25,0,.37,0,.8.1,1.6.13,2.38.35,2.12.6,3.77,1.87,5.13,3.54,1.12,1.37,2.31,2.67,3.71,3.75,1.32,1.02,2.73,1.85,4.42,2.12,2.24.34,4.8-1.17,5.56-3.33.62-1.16.54-2.34.11-3.52-.33-.91-.88-1.69-1.56-2.38-.92-.94-1.9-1.85-3.15-2.27-1.77-.59-3.58-1.05-5.47-1.14-.27-.12-.55-.09-.83-.1-1.85-.02-3.68-.21-5.5-.52-.22-.04-.42-.1-.59-.24,1.6-.05,2.88-.93,3.39-2.38-.3.02-.55-.35-.86.09-.6.85-1.48,1.08-2.48,1-1.66-.15-2.9-.97-3.77-2.37-.38-.62-.63-1.29-.87-1.97-.35-.99-1.05-1.63-2.03-1.98-.83-.29-1.68-.45-2.56-.39-.48-.11-.98.06-1.49-.05,1.19-1.23,2.65-1.58,3.99-1.49,1.41.09,2.74.51,3.99,1.15.89.46,1.75.98,2.63,1.45,2.34,1.22,4.81,2.05,7.44,2.3,2.82.27,5.56-.14,8.2-1.21.07-.03.17-.05.16-.18-.29-.48-.73-.84-1.21-1.15-.26-.17-.48-.2-.78-.04-.71.37-1.48.5-2.27.54-1.54.08-3.04-.15-4.52-.54-2.19-.57-4.28-1.42-6.29-2.45,1.39.34,2.75.78,4.14,1.08,1.42.3,2.83.6,4.32.52-.08-.25-.24-.27-.37-.34-.77-.42-1.49-.91-2.18-1.44-.95-.73-1.89-1.48-2.86-2.18-3.34-2.41-7.04-3.97-11.12-4.62-1.96-.32-3.94-.42-5.92-.52-3.25-.17-6.49-.07-9.73.25-5.13.51-10.08,1.76-14.89,3.58-.42.16-.84.33-1.33.63.96.37,1.83.67,2.73.92,1.11.35,2.22.73,3.37.95.55.26,1.15.35,1.74.51,1.26.33,2.52.64,3.9.99-.31.04-.48.06-.65.08-.26-.02-.52-.04-.78-.05-3.33-.14-6.65-.29-9.96-.75-1.72-.24-3.36-.69-4.87-1.58-.69-.41-1.39-.82-2.07-1.25-1.66-1.05-3.35-2.02-5.18-2.75-.2-.08-.38-.23-.66-.16.12,1.16.29,2.3.71,3.4.91,3.2,2.72,5.72,5.72,7.42-.87.33-1.69.33-2.49.5,5.58,2.7,11.42,3.06,17.5,1.98-.26.28-.53.3-.77.38-2.86.86-5.75,1.58-8.7,2.04-2.35.37-4.71.56-7.09.49-.82-.02-1.64-.1-2.57-.29,1.21-.5,2.33-.91,3.3-1.74-.85-.26-1.61-.49-2.37-.73-.83-.4-1.65-.81-2.48-1.21-.61-.38-1.28-.63-1.97-.82-.43-.12-.78-.05-1.17.18-5.49,3.25-10.99,6.49-16.58,9.58-3.53,1.95-7.07,3.86-10.74,5.54-1.12.51-2.26.98-3.51,1.53.24-.05.35-.06.45-.09,2.39-.66,4.79-1.31,7.18-1.97.67-.19,1.36-.3,2-.57.06,0,.13,0,.19-.02,2.41-.66,4.82-1.31,7.23-1.98,1.88-.53,3.78-.99,5.65-1.59.07.03.13.02.16-.07.04,0,.07,0,.1-.03.11.04.21.01.32-.02,1.11-.31,2.22-.61,3.34-.92,1.02-.28,2.05-.56,3.21-.88-2.31,3.58-4.55,7.03-6.79,10.49l.08.08c6.04-1.96,12.07-3.92,18.2-5.9.41,2.99.81,5.92,1.23,8.92.13-.11.18-.15.22-.19,2.17-2.82,4.57-5.43,7.07-7.96,3.07-3.1,6.29-6.03,9.82-8.61,2.1-1.54,4.28-2.92,6.68-3.96.26-.11.52-.27.92-.28-.18.12-.29.2-.4.27-5.68,3.68-10.64,8.17-14.88,13.44-4.89,6.07-8.42,12.83-10.35,20.41-.03.12-.11.24,0,.36.15,0,.23-.11.33-.19,2.15-1.64,4.35-3.21,6.64-4.64,2.14-1.35,4.32-2.62,6.72-3.47.26-.09.55-.11.78-.3.13-.02.25-.04.38-.06.11.04.2.01.29-.06.06.02.21-.01.12.13-.06.09-.15.16-.23.23-.94.88-1.79,1.84-2.6,2.84-3.16,3.91-5.53,8.27-7.39,12.92-.58,1.44-1.1,2.91-1.55,4.41.14,0,.19-.07.24-.15.17-.09.28-.23.35-.41.05-.02.06-.06.05-.11.1-.08.28-.07.28-.26.04-.04.08-.08.12-.13.26-.08.41-.32.59-.49,3.55-3.36,7.54-6.02,12.04-7.94,3.11-1.32,6.34-1.99,9.72-1.92,2.73.06,5.43.34,8.13.69,3.45.45,6.89,1.03,10.36,1.3,2.68.21,5.35.33,8.02-.02,1.23-.16,1.11.05,1.25-1.32.04-.26.1-.51.13-.77.05-.46.04-.46-.44-.45-3.47.08-6.93-.08-10.38-.46-3.12-.35-6.21-.89-9.21-1.84-2.32-.73-4.54-1.67-6.49-3.14-1.62-1.21-2.95-2.68-3.58-4.63-1.13-3.56-.54-6.88,1.58-9.94,1.04-1.5,2.47-2.56,4.01-3.5,2.69-1.64,5.59-2.36,8.75-1.98.82.1,1.62.27,2.46.39-.1-.3-.32-.45-.52-.6-.59-.43-1.27-.67-1.98-.8-1.13-.22-2.27-.15-3.53-.03.75-.45,1.49-.56,2.19-.76.27,0,.54.04.78-.13h.01ZM189.52,49.23c1.29-1.12,2.52-2.28,3.27-3.92-.55-.11-1.03-.18-1.48-.32-.42-.12-.45-.19-.59.37-.32,1.29-.76,2.53-1.33,3.73-.13.09-.2.21-.2.37.16-.02.27-.11.33-.25ZM195.28,40.99c.2-.52.21-1.06.13-1.59-.23-1.46-.95-2.69-1.82-3.84-.14-.19-.28-.16-.45-.06-.24.15-.51.26-.72.45-1.63,1.46-2.9,3.12-2.91,5.44-.17.23-.16.54-.29.78-.11.2-.05.31.15.41,1.03.49,2.09.85,3.25.77,1.31-.09,2.46-1.1,2.67-2.34ZM190.18,34.7c.3.05.6.03.9,0,.43.07.81-.13,1.21-.19.24-.04.32-.17.25-.42-.12-.42-.26-.83-.47-1.22-.99-1.84-2.62-2.8-4.59-3.25-.74-.17-1.48-.29-2.26-.15-2.37.43-4.75.61-7.16.4-.46-.04-.91-.07-1.52-.12.29.11.43.17.57.21,3.31.96,6.41,2.35,9.28,4.26.15.1.29.19.47.22,1.1.18,2.19.35,3.31.25ZM178.53,89.65c-.02.15-.02.3-.05.45-.58,2.5-1.16,4.99-1.73,7.49-.48,2.09-.95,4.19-1.42,6.29-.09.4-.14.81.05,1.21.04.41.32.65.65.84.32.19.68.28,1.05.34,1.04.16,2.09.06,3.13.04,3.12-.07,6.23-.12,9.35-.17.17,0,.35,0,.52,0,.29,0,.3-.24.31-.41.02-.31.25-.61.05-.93-.04-.06-.16-.06-.24-.09-.21-.07-.42-.11-.62-.2-.68-.3-1-.9-.91-1.64.03-.22.06-.43.1-.64.97-4.42,1.94-8.84,2.91-13.26,1.13-5.16,2.26-10.33,3.39-15.49.09-.43.14-.86.1-1.3-.03-.33-.1-.65-.4-.85-.25-.41-.67-.53-1.09-.65-.68-.19-1.37-.22-2.07-.26-1.91-.12-3.83-.24-5.74-.35-1.61-.1-3.22-.2-4.83-.29-.49-.03-.49-.02-.61.44-.07.27-.21.57-.14.81.07.24.45.2.68.3.93.4,1.3,1,1.19,2.01-.04.37-.09.74-.17,1.1-.62,2.71-1.25,5.42-1.86,8.14-.13.58-.15.54-.68.52-1.33-.04-2.66-.08-3.99-.12-1.06-.13-2.12-.08-3.23-.18.2-.89.39-1.75.59-2.62.6-2.67,1.21-5.34,1.8-8.01.14-.64.25-1.29-.18-1.88-.19-.37-.53-.56-.9-.71-.53-.22-1.08-.31-1.65-.35-2.5-.16-5-.32-7.5-.48-1.76-.11-3.52-.2-5.28-.32-.35-.02-.51.08-.56.43-.04.3-.27.61-.16.88.11.25.49.2.75.3,1.17.45,1.58,1.17,1.32,2.4-.3,1.38-.63,2.75-.95,4.13-1.69,7.13-3.38,14.26-5.06,21.39-.47,1.99-.94,3.98-1.39,5.97-.13.59-.22,1.2.1,1.78.24.46.66.68,1.13.81.72.2,1.46.25,2.2.23,3.88-.08,7.75-.16,11.63-.23,1.34-.02,1.34-.01,1.56-1.33,0-.02-.01-.04-.03-.07-.37-.14-.79-.17-1.17-.36-.67-.33-.99-.91-.91-1.65.03-.24.06-.48.12-.71.94-4.09,1.88-8.18,2.82-12.27.18-.78.16-.6.81-.62.07,0,.13,0,.2,0,2.33.04,4.66.08,6.99.12ZM126.97,78.14c.04-.08.09-.15.11-.24.92-3.66,2.14-7.21,3.65-10.67.06-.13.16-.26.1-.43-.64-.13-1.3-.14-1.94-.22-.44-.05-.74.09-1.04.39-1.47,1.46-2.91,2.94-4.32,4.46-.8.86-1.59,1.72-2.46,2.66-.39-2.73-.27-5.34.29-7.93-.1-.02-.17-.05-.23-.05-2.26-.14-4.52-.28-6.79-.41-1.25-.07-1.24-.06-1.48,1.16-.04.22.02.33.23.37.32.06.63.16.93.29,1.26.52,1.64,1.26,1.34,2.58-.02.11-.04.22-.06.32-2.11,8.15-4.23,16.3-6.34,24.45-.85,3.28-1.7,6.57-2.55,9.86-.14.55-.25,1.11.05,1.65.36.69,1.03.89,1.71,1.05.81.19,1.64.18,2.47.16,2.42-.04,4.84-.09,7.26-.13,1.63-.03,3.27-.04,4.9-.08.55-.01.56-.03.68-.56.05-.21.06-.43.14-.64.11-.3-.02-.4-.28-.43-.35-.04-.68-.14-1-.28-.87-.37-1.2-.9-1.12-1.84.03-.37.12-.73.21-1.09,1.14-4.51,2.29-9.02,3.42-13.54.24-.95.55-1.88.68-2.86.2-1.55.44-3.1.75-4.64.23-1.13.47-2.25.71-3.38ZM128.91,81.79c-1.13,1.55-2.03,3.24-2.88,4.96-.21.42-.18.74.03,1.15,2.72,5.36,5.42,10.73,8.14,16.09.32.64.66,1.28,1.02,1.9.42.74,1.09,1.11,1.93,1.16.46.03.92.04,1.37.03,3.12-.05,6.23-.1,9.35-.15.51,0,.51-.01.64-.52.02-.08.03-.17.05-.26,2.03-8.55,4.07-17.1,6.1-25.66.73-3.07,1.46-6.14,2.18-9.21.14-.59.25-1.19-.03-1.78-.15-.45-.5-.7-.9-.89-.47-.23-.98-.35-1.5-.41-1.86-.2-3.74-.24-5.61-.38-.24-.02-.47.03-.7.1-1.02.3-2.03.65-3.02,1.05-.49.2-.99.37-1.49.66.63.67.61,1.41.42,2.18-1,4.1-2,8.19-3.01,12.29-.05.19,0,.44-.26.59-1.67-3.42-3.33-6.84-5.01-10.29-.67.47-1.2.97-1.74,1.47-1.92,1.79-3.65,3.74-5.1,5.93ZM74.34,97.63c-.29-.69-.33-1.38-.15-2.11.14-.55.24-1.11.39-1.65,2.43-8.81,4.86-17.61,7.29-26.41.15-.53.25-1.06.23-1.61-.02-.54-.18-1.02-.66-1.34-.67-.59-1.5-.76-2.34-.9-1.36-.23-2.73-.24-4.1-.33-2.46-.16-4.92-.31-7.37-.46-1.89-.12-3.78-.24-5.68-.36-.89-.06-1.78-.1-2.68-.17-.31-.02-.48.06-.55.39-.08.42-.29.81-.35,1.28.22.06.43.11.64.17.55.15,1.08.33,1.56.65.73.48,1.04,1.16.9,2.02-.1.6-.21,1.2-.38,1.79-2.14,7.49-4.29,14.98-6.44,22.47-.65,2.28-1.37,4.54-1.7,6.9-.17,1.18-.2,2.34.15,3.49.62,2.05,2.02,3.41,3.83,4.42.09.14.24.18.37.25,1.38.72,2.84,1.21,4.35,1.58,3.72.93,7.53,1.16,11.34,1.26,2.83.07,5.67-.03,8.5-.19,2.74-.16,5.47-.42,8.17-.94,2.56-.49,5.02-1.25,7.36-2.4,2.86-1.41,4.86-3.55,5.92-6.57.35-1.01.71-2.01.98-3.04,2.34-8.88,4.69-17.76,7.03-26.65.13-.49.21-.98.21-1.48,0-.48-.04-.96-.45-1.31-.54-.61-1.28-.79-2.03-.94-1.46-.28-2.95-.28-4.42-.38-3.46-.23-6.91-.43-10.37-.64-1.07-.06-2.13-.11-3.2-.18-.26-.02-.41.05-.47.31-.1.41-.23.82-.34,1.24.44.13.82.23,1.18.36,1.52.56,1.95,1.39,1.56,2.93-.01.04-.03.08-.04.12-2.17,8.06-4.33,16.13-6.5,24.19-.27,1.01-.54,2.02-1.01,2.96-.69,1.37-1.75,2.25-3.25,2.6-1.59.37-3.2.42-4.8.18-1.08-.16-2.08-.5-2.69-1.52ZM57.38,124.13c0-.25,0-.44,0-.62,0-2.57-.01-5.14-.02-7.72,0-.3,0-.61-.04-.91-.09-.58-.36-.83-.95-.9-.32-.04-.65-.04-.98-.04-.72,0-1.44.03-2.16.04-1.68.04-3.36.1-5.03.13-.32,0-.49.1-.54.41-.02.1-.06.2-.08.3.06.03.1.06.14.07,1.59.21,1.51.82,1.63,1.85,0,.02,0,.04,0,.07.09,1.74.18,3.48.26,5.22.15,3.2.3,6.4.45,9.6.02.37.05.74.11,1.11.08.56.31.78.87.9.41.09.82.07,1.24.04,1.76-.11,3.52-.24,5.29-.31.53-.02.81-.22,1.06-.65,1.72-2.93,3.47-5.84,5.21-8.76.1-.17.16-.39.42-.51,0,.54,0,1.01,0,1.49-.03,2.18-.08,4.36-.09,6.54,0,1.15.25,1.41,1.38,1.37,1.31-.04,2.61-.13,3.92-.21.65-.04,1.31-.09,1.96-.11.38-.01.64-.15.83-.5.35-.63.74-1.23,1.12-1.84,3.18-5.18,6.36-10.36,9.56-15.52.7-1.14.09-1.41-.78-1.45-.02,0-.04,0-.07,0-2.14.05-4.27.11-6.41.16-.35,0-.5.16-.53.51-.03.35.25.21.41.26.61.18.76.46.54,1.08-.09.24-.2.49-.33.71-1.45,2.43-2.91,4.86-4.37,7.28-.06.1-.08.27-.27.19-.03-1.31-.07-2.62-.1-3.92-.04-1.83-.08-3.66-.13-5.49-.01-.46-.03-.47-.47-.46-1.92.05-3.84.12-5.75.14-.51,0-.77.19-1.03.6-1.92,3.12-3.86,6.22-5.8,9.32-.11.17-.17.39-.45.53ZM121.61,112.11s0,.01,0,.02c-.09,0-.17,0-.26,0-2.25.06-4.49.12-6.74.16-.32,0-.54.06-.6.43-.06.37.23.29.41.36.45.18.58.37.53.85-.02.17-.07.34-.12.51-1.32,4.72-2.62,9.43-3.96,14.14-.34,1.2.11,1.36,1.06,1.44.09,0,.17,0,.26,0,2.81-.17,5.61-.33,8.42-.51.98-.06,1.96-.13,2.93-.23,1.23-.12,2.38-.48,3.39-1.25,1.1-.84,1.75-1.99,2.25-3.23.8-2.01,1.4-4.07,1.85-6.18.26-1.24.45-2.49.38-3.76-.1-1.73-1.08-2.73-2.8-2.85-.54-.04-1.09-.05-1.63-.04-1.79.04-3.57.09-5.36.13ZM158.47,111.11s0-.01,0-.02c-1.24.04-2.48.08-3.73.11-.26,0-.4.1-.44.37-.04.26.15.26.31.32.44.18.52.37.33.82-.18.42-.41.82-.64,1.21-2.4,4.17-4.81,8.33-7.21,12.5-.09.15-.18.3-.24.46-.22.56-.02.88.58.95.17.02.35.01.52,0,.65-.04,1.3-.08,1.96-.12.87-.05,1.74-.11,2.61-.15.25-.01.34-.13.37-.36.03-.19-.04-.26-.21-.34-.6-.29-.67-.47-.4-1.06.26-.57.59-1.12.83-1.7.15-.36.38-.46.74-.47,1.09-.03,2.18-.09,3.26-.17.99-.07.98-.08,1.01.94.02.67.04,1.35.1,2.02.04.47.18.59.65.67.17.03.35.04.52.03,1.35-.07,2.7-.15,4.05-.23.33-.02.65-.06.98-.08.25,0,.24-.21.29-.36.07-.21-.06-.27-.22-.3-.53-.12-.73-.5-.75-1.01-.03-.54-.07-1.09-.09-1.63-.15-2.87-.3-5.74-.45-8.61-.05-.98-.1-1.96-.18-2.93-.07-.79-.27-.95-1.08-.97-.17,0-.35,0-.52.01-.98.03-1.96.07-2.94.1ZM102.11,126.85c-.05-.27.03-.43.08-.59,1.12-3.95,2.25-7.91,3.37-11.86.08-.27.16-.55.2-.82.06-.47-.13-.75-.59-.87-.34-.1-.69-.12-1.04-.11-2.05.06-4.09.12-6.14.19-.53.02-.53.02-.64.66.1.03.2.06.3.09.69.24.83.48.66,1.17-.02.11-.07.21-.1.31-1.19,4.14-2.38,8.28-3.57,12.42-.24.84-.49,1.67-.71,2.51-.17.66.08.99.76,1.07.28.03.57.03.85.02,3.35-.19,6.7-.39,10.05-.59.33-.02.65-.06.98-.09,1-.1,1.39-.41,1.67-1.37.3-1.02.58-2.05.87-3.08.02-.08.04-.17.06-.25.02-.1-.02-.17-.11-.2-.22-.08-.74.06-.85.28-.27.51-.72.76-1.26.82-1.6.2-3.21.23-4.84.31ZM148.16,111.42c-.13-.02-.21-.04-.29-.04-2.72.08-5.45.13-8.16.27-2.16.11-3.81,1.12-4.8,3.1-.15.31-.32.62-.45.94-.85,2.06-1.4,4.2-1.88,6.37-.26,1.21-.51,2.43-.4,3.68.12,1.36.84,2.24,2.15,2.65.61.19,1.24.23,1.87.24,2.05.02,4.09-.17,6.13-.31.54-.04,1.08-.12,1.61-.23.69-.14,1.26-.49,1.54-1.18.43-1.08.64-2.23.95-3.41-.34.04-.67-.13-.83.21-.3.65-.88.8-1.5.86-.63.06-1.26.11-1.89.12-.74.02-1.48.13-2.22.04-.67-.08-1.06-.48-1.14-1.14-.05-.42,0-.83.08-1.23.26-1.26.58-2.5.96-3.73.26-.85.52-1.71.9-2.52.36-.78.96-1.2,1.83-1.26.67-.05,1.35-.07,2.02-.09.61-.02,1.22,0,1.83-.09.57-.08.92-.37,1.06-.91.21-.77.42-1.55.63-2.35ZM90.51,130.68c-.06-.02-.12-.05-.18-.07-.87-.18-1.02-.42-.8-1.27.03-.13.07-.25.11-.38,1.35-4.64,2.7-9.27,4.05-13.91.09-.31.19-.63.26-.94.15-.68-.09-1.05-.79-1.15-.34-.05-.7-.04-1.04-.03-1.66.04-3.31.09-4.97.13-.5.01-1,.03-1.5.02-.33,0-.38.21-.45.45-.09.32.17.28.34.34.71.24.84.5.64,1.24-.02.08-.04.17-.07.25-1.06,3.59-2.12,7.18-3.18,10.77-.43,1.46-.87,2.92-1.28,4.39-.22.79.04,1.16.85,1.24.37.04.74.02,1.11,0,2.07-.12,4.13-.25,6.2-.38.56-.03.56-.03.69-.7ZM190.61,110.26c-.6,0-1.12-.02-1.64,0-1.81.08-3.62.03-5.42.18-.9.07-1.62.45-2.2,1.13-.44.52-.77,1.1-1,1.75-.32.91-.54,1.83-.69,2.78-.16,1.03.2,1.78,1.06,2.33.52.33,1.08.56,1.65.78.59.23,1.19.43,1.76.68.64.29.81.79.57,1.46-.16.45-.48.72-.92.86-.25.08-.51.13-.77.15-.74.06-1.48.1-2.22.13-.44.02-.87.02-1.31,0-.35,0-.66-.12-.76-.5-.06-.23-.14-.32-.39-.31-.26.01-.39.12-.44.37-.2.89-.44,1.77-.63,2.67-.15.71.11,1.07.83,1.19.19.03.39.05.58.04,1.96-.11,3.92-.23,5.87-.35,1.56-.1,2.89-.65,3.69-2.09.81-1.45,1.26-3.01,1.35-4.66.05-.9-.33-1.61-1.16-2.03-.45-.22-.91-.42-1.37-.61-.64-.27-1.3-.51-1.93-.8-.5-.23-.61-.53-.5-1.07.11-.55.42-.89.96-1.03.3-.07.6-.11.9-.12.87-.03,1.74-.09,2.61-.1.57-.01.89-.32,1.02-.83.17-.65.31-1.31.48-2.01ZM169.78,113.92c-.58,2.3-1.12,4.47-1.67,6.64-.4,1.58-.8,3.16-1.19,4.75-.24,1,.04,1.34,1.07,1.29,1.39-.07,2.78-.16,4.18-.24.26-.02.52-.06.78-.07.26-.01.21-.24.28-.38.06-.13-.03-.19-.14-.24-.66-.37-.71-.45-.53-1.17.85-3.46,1.71-6.93,2.56-10.39.08-.32.24-.39.55-.4.78-.01,1.57-.08,2.35-.1.51-.01.85-.24.98-.71.28-1.02.53-2.04.81-3.11-.32.01-.63-.14-.79.13-.35.59-.9.63-1.48.64-1.55.05-3.09.09-4.64.13-1.68.05-3.36.1-5.03.14-.6.02-1.07.23-1.24.85-.28,1.03-.53,2.06-.81,3.12.41.07.72.09.91-.33.14-.3.44-.43.75-.46.73-.06,1.47-.07,2.29-.11ZM166.18,60.19c-.17-.22-.42-.22-.64-.3-1.38-.48-2.62-1.17-3.64-2.23-.8-.83-1.07-1.82-.84-2.95.22-1.07.8-1.91,1.58-2.64.85-.79,1.64-1.63,2.23-2.63.64-1.09,1-2.25.99-3.53-.01-1.99-2.24-2.97-3.81-2.15-.23.12-.3.23-.19.51.29.69.25,1.41.05,2.11-.4,1.44-1.23,2.63-2.16,3.77-.09.1-.14.28-.35.23-.01-.17.04-.34.08-.5.34-1.2.59-2.41.66-3.65.05-.83-.03-1.65-.35-2.43-.32-.78-.9-1.27-1.73-1.45-.34-.07-.63-.01-.9.24-.55.51-1.01,1.09-1.37,1.74-1.06,1.9-1.5,3.94-1.35,6.1.2,2.86,1.45,5.11,3.98,6.58,1.11.64,2.24,1.26,3.41,1.8,1.38.64,2.78,1.26,4.34,1.41ZM176.97,44.29c.05,2.36-.28,4.5-1.23,6.52.97-.74,1.84-1.55,2.57-2.51.39-.52.73-1.07.92-1.71.07-.25.06-.4-.18-.54-.74-.46-1.41-1-2.08-1.76ZM170.78,60.85c1.23.22,2.32.25,3.4.36.26.03.34-.15.42-.33.29-.61.52-1.24.67-1.9.12-.54.25-1.08.22-1.75-1.39,1.48-2.87,2.67-4.71,3.62ZM178.36,61.27l.05.13c.87,0,1.74,0,2.6,0,.23,0,.4-.04.54-.26.5-.78.99-2.26,1.06-3.31-1.12,1.56-2.68,2.5-4.25,3.44ZM172.54,28.43c-.31-.11-.55-.26-.79-.26-.22,0-.22.34-.41.45-.2.13-.4.26-.59.39-.13.09-.34.07-.39.29.86.13,1.58-.08,2.18-.88Z"/>
  <path class="cls-2" d="M56.94,105.88c-1.81-1.01-3.21-2.37-3.83-4.42-.35-1.15-.31-2.32-.15-3.49.33-2.36,1.05-4.62,1.7-6.9,2.14-7.49,4.3-14.98,6.44-22.47.17-.58.28-1.19.38-1.79.14-.86-.16-1.54-.9-2.02-.48-.31-1.01-.5-1.56-.65-.21-.06-.42-.11-.64-.17.06-.46.27-.85.35-1.28.06-.33.24-.41.55-.39.89.07,1.78.11,2.68.17,1.89.12,3.78.24,5.68.36,2.46.15,4.92.3,7.37.46,1.37.09,2.75.1,4.1.33.84.14,1.67.3,2.34.9-.02.19-.14.31-.26.44-.88.93-1.76,1.87-2.65,2.79-.26.27-.44.56-.54.94-.46,1.72-.95,3.43-1.43,5.14-.65,2.3-1.29,4.59-1.94,6.89-.71,2.53-1.42,5.06-2.1,7.59-.63,2.32-1.41,4.61-1.77,7-.18,1.18-.06,2.34.3,3.47.09.3.24.32.48.19.36-.2.72-.4,1.09-.58.56-.27,1.06-.69,1.71-.76.61,1.02,1.61,1.36,2.69,1.52,1.61.24,3.21.19,4.8-.18,1.5-.35,2.56-1.23,3.25-2.6.47-.94.74-1.95,1.01-2.96,2.17-8.06,4.34-16.13,6.5-24.19.01-.04.03-.08.04-.12.4-1.54-.04-2.38-1.56-2.93-.36-.13-.74-.23-1.18-.36.12-.42.24-.83.34-1.24.07-.26.21-.33.47-.31,1.06.07,2.13.12,3.2.18,3.46.21,6.92.41,10.37.64,1.48.1,2.96.09,4.42.38.75.15,1.49.33,2.03.94.04.25-.12.4-.27.56-.8.83-1.58,1.68-2.39,2.51-.22.23-.36.48-.44.78-.37,1.39-.73,2.77-1.09,4.16-.67,2.54-1.34,5.08-2.01,7.62-.99,3.72-1.98,7.43-2.97,11.14-.38,1.41-.75,2.81-1.3,4.17-.5,1.23-1.16,2.34-2.32,3.07-1.09.69-2.24,1.25-3.46,1.67-1.88.65-3.8,1.06-5.77,1.34-1.83.25-3.66.47-5.51.5-.09,0-.18,0-.26.01-1.12.19-2.25.17-3.38.21-1.58.05-3.17.01-4.76-.05-2.11-.09-4.21-.17-6.3-.42-1.55-.19-3.1-.42-4.6-.88-.66-.21-1.17-.1-1.72.23-1.58.92-3.17,1.82-4.75,2.73-.16.09-.31.14-.49.14Z"/>
  <path class="cls-3" d="M170.84,31.6c.17.14.37.21.59.24,1.82.31,3.65.5,5.5.52.28,0,.56-.02.83.1-.23.02-.46.05-.76.08.51.8,1.18,1.44,1.58,2.26.39.82.68,1.66.84,2.54-.14.04-.18-.02-.23-.06-2.55-1.98-5.33-3.52-8.42-4.48-1.35-.42-2.74-.75-4.14-.8-1.82-.07-3.65-.12-5.48.09-1.51.17-3.01.38-4.49.75-2.54.64-4.98,1.55-7.27,2.83-2.29,1.28-4.39,2.82-6.26,4.67-1.12,1.1-2.12,2.3-3.13,3.5-1.63,1.93-3.13,3.95-4.57,6.02-2.63,3.77-4.97,7.72-7.17,11.75-.13.24-.28.47-.35.79.27-.1.4-.29.53-.45.8-.95,1.7-1.8,2.63-2.63,1.8-1.61,3.75-2.96,5.97-3.93,1.45-.63,2.96-1,4.52-1.17.16-.02.35-.05.48.12-.22.19-.52.2-.78.3-2.4.85-4.58,2.13-6.72,3.47-2.29,1.44-4.49,3-6.64,4.64-.1.08-.18.19-.33.19-.11-.12-.03-.24,0-.36,1.92-7.58,5.46-14.34,10.35-20.41,4.24-5.27,9.2-9.76,14.88-13.44.11-.07.21-.14.4-.27-.4,0-.66.16-.92.28-2.39,1.04-4.58,2.42-6.68,3.96-3.53,2.58-6.75,5.51-9.82,8.61-2.5,2.53-4.9,5.14-7.07,7.96-.04.05-.09.08-.22.19-.41-2.99-.82-5.92-1.23-8.92-6.12,1.99-12.16,3.94-18.2,5.9l-.08-.08c2.24-3.46,4.47-6.91,6.79-10.49-1.16.32-2.19.6-3.21.88-1.11.31-2.22.61-3.34.92-.11.03-.21.06-.32.02,0-.16.11-.22.23-.29.67-.4,1.35-.8,2.02-1.21,2.62-1.59,5.25-3.17,7.86-4.79,1.14-.71,2.32-1.37,3.39-2.2.76.23,1.53.47,2.37.73-.98.83-2.09,1.24-3.3,1.74.93.18,1.75.26,2.57.29,2.38.07,4.74-.12,7.09-.49,2.95-.46,5.84-1.18,8.7-2.04.24-.07.51-.1.77-.38-6.08,1.08-11.92.72-17.5-1.98.79-.17,1.61-.16,2.49-.5-3-1.7-4.81-4.22-5.72-7.42.2-.04.38,0,.58.05,1.25.31,2.42.83,3.57,1.4,1.07.53,2.12,1.11,3.25,1.53,1.64.6,3.36.86,5.1.92,1.44.05,2.88.06,4.31,0,1.38-.07,2.76-.22,4.14-.41.62-.08,1.25-.11,1.84-.33.17-.02.34-.04.65-.08-1.39-.35-2.65-.66-3.9-.99-.58-.15-1.18-.25-1.73-.51.18-.09.35-.19.53-.25,1.32-.44,2.65-.86,3.99-1.21,2.31-.61,4.63-1.15,7.01-1.47,1.36-.18,2.72-.32,4.08-.35,2.2-.05,4.38.11,6.57.35,1.1.12,2.2.25,3.29.45,3.51.64,6.96,1.51,10.31,2.78.08.03.18.11.26-.03-.61-.37-1.26-.62-1.89-.9-1.81-.81-3.69-1.45-5.59-2-2.07-.6-4.16-1.06-6.3-1.36-1.59-.23-3.19-.39-4.79-.46-2.31-.09-4.61-.03-6.91.22-.99.11-1.99.18-2.98.33-1.54.23-3.08.51-4.61.86-2.04.47-4.04,1.06-6.01,1.75-.16.05-.35.1-.34.34-.89-.24-1.77-.54-2.73-.92.49-.3.91-.47,1.33-.63,4.81-1.82,9.76-3.06,14.89-3.58,3.24-.32,6.48-.42,9.73-.25,1.98.1,3.96.2,5.92.52,4.08.66,7.77,2.22,11.12,4.62.97.7,1.92,1.44,2.86,2.18.69.54,1.41,1.02,2.18,1.44.13.07.29.1.37.34-1.49.08-2.91-.22-4.32-.52-1.4-.3-2.76-.73-4.14-1.08,2.02,1.03,4.1,1.88,6.29,2.45,1.48.39,2.98.62,4.52.54.79-.04,1.56-.17,2.27-.54.3-.16.52-.13.78.04.48.31.91.67,1.21,1.15.01.14-.09.16-.16.18-2.63,1.07-5.37,1.48-8.2,1.21-2.63-.25-5.11-1.07-7.44-2.3-.89-.46-1.74-.99-2.63-1.45-1.25-.64-2.58-1.06-3.99-1.15-1.34-.09-2.8.26-3.99,1.49.51.11,1.01-.06,1.49.05.41.13.83.23,1.23.38,1.02.37,1.89.9,2.14,2.06.12.58.32,1.13.56,1.66,1,2.31,2.61,3.8,5.26,3.89Z"/>
  <path class="cls-2" d="M142.02,54.34c-.12-.18-.31-.14-.48-.12-1.56.17-3.07.54-4.52,1.17-2.22.97-4.17,2.32-5.97,3.93-.93.83-1.83,1.68-2.63,2.63-.13.16-.26.35-.53.45.07-.31.22-.55.35-.79,2.21-4.03,4.54-7.98,7.17-11.75,1.44-2.07,2.94-4.09,4.57-6.02,1.01-1.2,2.02-2.4,3.13-3.5,1.87-1.85,3.96-3.39,6.26-4.67,2.29-1.28,4.73-2.19,7.27-2.83,1.47-.37,2.98-.58,4.49-.75,1.83-.21,3.66-.16,5.48-.09,1.41.05,2.79.39,4.14.8,3.09.96,5.88,2.49,8.42,4.48.05.04.09.1.23.06-.16-.88-.45-1.72-.84-2.54-.4-.83-1.07-1.46-1.58-2.26.3-.03.53-.05.76-.08,1.88.09,3.7.55,5.47,1.14,1.25.42,2.23,1.33,3.15,2.27.67.69,1.23,1.47,1.56,2.38.43,1.18.51,2.37-.11,3.52-.48.25-.95.51-1.45.73-1.51.67-3.05.81-4.64.28-.69-.23-1.31-.59-1.92-.96-1.91-1.17-3.79-2.39-5.52-3.82-.94-.78-1.9-1.52-3.03-2.02-1.31-.59-2.68-.86-4.11-.87-.2,0-.46-.08-.54.22-.12,0-.25,0-.37,0-.1-.12-.19-.12-.27.02,0,0-.01,0-.01,0-.27-.03-.54-.07-.78.13-.7.21-1.44.31-2.19.76,1.26-.12,2.4-.19,3.53.03.71.14,1.39.37,1.98.8.21.15.43.31.52.6-.83-.12-1.64-.29-2.46-.39-3.15-.37-6.06.34-8.75,1.98-1.54.94-2.97,2-4.01,3.5-2.11,3.06-2.71,6.38-1.58,9.94.62,1.96,1.96,3.42,3.58,4.63,1.96,1.47,4.18,2.41,6.49,3.14,3,.95,6.09,1.49,9.21,1.84,3.45.38,6.91.54,10.38.46.48-.01.49,0,.44.45-.03.26-.09.51-.13.77-.45.18-.91.28-1.4.27-2-.04-4,.06-6-.11-.82-.07-1.65-.1-2.47-.19-1.46-.16-2.92-.36-4.38-.6-2.05-.34-4.12-.61-6.17-.97-2.16-.38-4.33-.68-6.51-.84-1.45-.11-2.91-.1-4.37.07-1.82.22-3.59.61-5.33,1.18-1.74.57-3.4,1.34-4.99,2.25-1.34.77-2.62,1.63-3.74,2.71-1.73,1.67-3.2,3.55-4.65,5.45-.11.14-.19.29-.14.48-.04.04-.08.08-.12.13-.18,0-.3.05-.28.26.01.05,0,.08-.05.11-.21.05-.33.19-.35.41-.05.07-.1.14-.24.15.45-1.5.97-2.97,1.55-4.41,1.85-4.65,4.23-9.01,7.39-12.92.81-1,1.66-1.96,2.6-2.84.08-.07.17-.14.23-.23.09-.14-.06-.11-.12-.13-.11-.04-.21-.04-.29.06-.13.02-.25.04-.38.06Z"/>
  <path class="cls-2" d="M128.91,81.79c1.45-2.19,3.18-4.14,5.1-5.93.54-.5,1.07-1.01,1.74-1.47,1.68,3.45,3.34,6.86,5.01,10.29.26-.15.21-.39.26-.59,1.01-4.1,2.01-8.19,3.01-12.29.19-.77.22-1.51-.42-2.18.49-.29,1-.46,1.49-.66.99-.4,2-.74,3.02-1.05.23-.07.46-.12.7-.1,1.87.14,3.74.18,5.61.38.52.06,1.03.18,1.5.41.4.2.75.44.9.89-.51.57-.96,1.2-1.53,1.69-.81.7-1.17,1.59-1.35,2.6-.02.13-.04.26-.07.39-.76,3.17-1.53,6.33-2.29,9.5-.62,2.58-1.24,5.15-1.85,7.73-.86,3.59-1.72,7.18-2.58,10.77-.13.54-.14.55-.69.55-2.2,0-4.41,0-6.61.03-.43,0-.66-.12-.86-.52-3.28-6.59-6.58-13.18-9.88-19.77-.11-.22-.22-.43-.21-.68Z"/>
  <path class="cls-2" d="M57.38,124.13c.28-.14.35-.36.45-.53,1.94-3.1,3.88-6.2,5.8-9.32.26-.41.52-.6,1.03-.6,1.92-.02,3.84-.09,5.75-.14.44-.01.46,0,.47.46.05,1.83.08,3.66.13,5.49.03,1.31.07,2.61.1,3.92.19.08.21-.09.27-.19,1.46-2.43,2.92-4.85,4.37-7.28.13-.22.24-.46.33-.71.22-.62.07-.9-.54-1.08-.15-.05-.44.09-.41-.26.03-.35.18-.5.53-.51,2.14-.06,4.27-.11,6.41-.16.02,0,.04,0,.07,0,.87.04,1.48.31.78,1.45-3.19,5.17-6.37,10.35-9.56,15.52-.38.61-.77,1.21-1.12,1.84-.19.35-.45.48-.83.5-.65.02-1.31.07-1.96.11-1.31.07-2.61.16-3.92.21-1.13.04-1.39-.22-1.38-1.37.01-2.18.06-4.36.09-6.54,0-.47,0-.95,0-1.49-.25.12-.31.34-.42.51-1.74,2.92-3.49,5.83-5.21,8.76-.26.44-.54.63-1.06.65-1.76.07-3.52.2-5.29.31-.41.03-.83.05-1.24-.04-.56-.12-.79-.34-.87-.9-.05-.37-.09-.74-.11-1.11-.15-3.2-.3-6.4-.45-9.6-.08-1.74-.17-3.48-.26-5.22,0-.02,0-.04,0-.07-.11-1.02-.04-1.64-1.63-1.85-.04,0-.08-.04-.14-.07.03-.1.07-.2.08-.3.05-.31.22-.41.54-.41,1.68-.03,3.36-.08,5.03-.13.72-.02,1.44-.04,2.16-.04.33,0,.66,0,.98.04.59.07.86.32.95.9.05.3.04.61.04.91.01,2.57.02,5.14.02,7.72,0,.19,0,.37,0,.62Z"/>
  <path class="cls-2" d="M106.45,106.38c-.3-.54-.2-1.1-.05-1.65.85-3.29,1.7-6.57,2.55-9.86,2.11-8.15,4.23-16.3,6.34-24.45.03-.11.04-.21.06-.32.3-1.32-.08-2.06-1.34-2.58-.3-.13-.61-.23-.93-.29-.21-.04-.27-.15-.23-.37.24-1.22.24-1.23,1.48-1.16,2.26.13,4.52.27,6.79.41.06,0,.13.03.23.05-.57,2.59-.68,5.2-.29,7.93.87-.94,1.66-1.81,2.46-2.66,1.41-1.51,2.85-3,4.32-4.46.3-.3.6-.44,1.04-.39.65.08,1.3.08,1.94.22.06.17-.04.3-.1.43-1.51,3.46-2.74,7.01-3.65,10.67-.02.08-.07.16-.11.24-.56-.79-.83-1.74-1.38-2.54-.13.06-.16.14-.18.23-.48,1.89-.97,3.79-1.45,5.68-1.07,4.23-2.14,8.47-3.21,12.7-.7,2.76-1.46,5.5-2.06,8.28-.1.48-.13.5-.67.5-1.68,0-3.36.01-5.04,0-.33,0-.62.06-.92.24-1.7,1.01-3.42,2-5.13,3-.16.09-.3.17-.48.15Z"/>
  <path class="cls-2" d="M153.18,105.73c-.32-.58-.23-1.19-.1-1.78.45-1.99.92-3.98,1.39-5.97,1.69-7.13,3.38-14.26,5.06-21.39.33-1.37.65-2.75.95-4.13.27-1.23-.15-1.95-1.32-2.4-.26-.1-.64-.05-.75-.3-.11-.27.12-.58.16-.88.04-.35.2-.46.56-.43,1.76.12,3.52.21,5.28.32,2.5.16,5,.32,7.5.48.57.04,1.12.14,1.65.35.36.15.71.34.9.71-.35.56-.8,1.03-1.22,1.53-.68.82-1.26,1.63-1.49,2.75-.71,3.42-1.57,6.8-2.35,10.2-.08.35-.21.71-.18,1.09h0s-.09.09-.1.15c-.42,1.84-.82,3.68-1.25,5.52-.82,3.53-1.68,7.05-2.43,10.59-.06.28-.18.36-.43.35-1.02-.03-2.04.15-3.06.12-1.18-.03-2.35,0-3.53,0-.29,0-.53.08-.78.25-1.3.91-2.62,1.79-3.94,2.68-.16.11-.31.25-.53.2Z"/>
  <path class="cls-2" d="M175.49,82.99c1.33.04,2.66.08,3.99.12.53.02.55.06.68-.52.6-2.72,1.24-5.43,1.86-8.14.08-.36.13-.73.17-1.1.11-1-.26-1.6-1.19-2.01-.24-.1-.61-.07-.68-.3-.07-.24.07-.54.14-.81.11-.45.12-.47.61-.44,1.61.09,3.22.19,4.83.29,1.91.12,3.83.24,5.74.35.7.04,1.39.07,2.07.26.42.12.84.24,1.09.65-.71.99-1.29,2.06-1.89,3.11-.11.18-.15.41-.2.62-.14.63-.27,1.27-.41,1.91-.74,3.37-1.48,6.73-2.23,10.1-.43,1.93-.87,3.85-1.28,5.78-.64,2.97-1.26,5.94-1.9,8.9-.12.58-.13.58-.72.58-1.81,0-3.62.02-5.42,0-.39,0-.72.1-1.05.29-1.06.64-2.12,1.29-3.19,1.9-.35.2-.66.51-1.09.56-.19-.4-.13-.81-.05-1.21.47-2.1.94-4.19,1.42-6.29.57-2.5,1.16-4.99,1.73-7.49.03-.15.03-.3.05-.45.06-.01.13-.01.19-.05,1.42-.89,2.84-1.77,4.26-2.67.13-.08.31-.14.33-.32-.12-.12-.23-.1-.34-.1-1.28-.04-2.56-.04-3.85-.1-1.69-.08-3.39-.14-5.09-.15-1.46,0-2.91-.19-4.37-.15-.09,0-.18,0-.26-.02-.13-.03-.15-.14-.17-.25,0,0,0,0,0,0,.28,0,.42-.23.57-.4.62-.7,1.29-1.36,1.92-2.05.33-.36.68-.47,1.15-.45.87.05,1.74.08,2.61.02Z"/>
  <path class="cls-3" d="M56.94,105.88c.18,0,.33-.05.49-.14,1.58-.92,3.17-1.81,4.75-2.73.55-.32,1.06-.43,1.72-.23,1.49.46,3.04.7,4.6.88,2.1.25,4.2.33,6.3.42,1.59.07,3.18.11,4.76.05,1.12-.04,2.26-.01,3.38-.21.09-.01.17-.01.26-.01,1.85-.04,3.68-.25,5.51-.5,1.97-.27,3.89-.69,5.77-1.34,1.22-.42,2.37-.98,3.46-1.67,1.16-.73,1.82-1.84,2.32-3.07.55-1.35.92-2.76,1.3-4.17.99-3.71,1.98-7.43,2.97-11.14.67-2.54,1.34-5.08,2.01-7.62.37-1.39.73-2.77,1.09-4.16.08-.3.22-.55.44-.78.81-.82,1.59-1.67,2.39-2.51.15-.16.31-.31.27-.56.41.35.45.82.45,1.31,0,.5-.08,1-.21,1.48-2.35,8.88-4.69,17.76-7.03,26.65-.27,1.03-.62,2.04-.98,3.04-1.06,3.01-3.06,5.16-5.92,6.57-2.35,1.15-4.81,1.91-7.36,2.4-2.7.52-5.43.78-8.17.94-2.83.16-5.66.26-8.5.19-3.82-.09-7.62-.33-11.34-1.26-1.5-.37-2.97-.86-4.35-1.58-.13-.07-.29-.11-.37-.25Z"/>
  <path class="cls-2" d="M121.61,112.11c1.79-.05,3.57-.1,5.36-.13.54-.01,1.09,0,1.63.04,1.72.12,2.69,1.11,2.8,2.85.08,1.27-.11,2.52-.38,3.76-.45,2.11-1.06,4.18-1.85,6.18-.5,1.25-1.15,2.39-2.25,3.23-1,.77-2.15,1.13-3.39,1.25-.98.09-1.95.16-2.93.23-2.81.17-5.61.34-8.42.51-.09,0-.17.01-.26,0-.95-.08-1.4-.24-1.06-1.44,1.34-4.71,2.64-9.43,3.96-14.14.05-.17.1-.34.12-.51.05-.48-.08-.67-.53-.85-.18-.07-.47,0-.41-.36.06-.36.28-.42.6-.43,2.25-.05,4.49-.11,6.74-.16.09,0,.17,0,.26,0,0,0,0-.01,0-.02ZM119.49,125.91v.02c.41-.04.82-.07,1.24-.11.66-.06,1.13-.4,1.48-.95.24-.39.44-.8.61-1.23.56-1.4.93-2.85,1.3-4.3.2-.78.38-1.56.41-2.37.04-.98-.31-1.37-1.28-1.4-.46-.02-.91,0-1.37,0-.75.01-.58-.07-.77.6-.82,2.93-1.62,5.86-2.42,8.8q-.29,1.04.75.96s.04,0,.07,0Z"/>
  <path class="cls-3" d="M128.91,81.79c0,.25.1.46.21.68,3.3,6.59,6.6,13.17,9.88,19.77.2.39.43.52.86.52,2.2-.02,4.41-.02,6.61-.03.55,0,.56,0,.69-.55.86-3.59,1.72-7.18,2.58-10.77.62-2.58,1.23-5.15,1.85-7.73.76-3.17,1.53-6.33,2.29-9.5.03-.13.04-.26.07-.39.18-1.01.54-1.89,1.35-2.6.57-.49,1.02-1.12,1.53-1.69.28.59.16,1.19.03,1.78-.72,3.07-1.45,6.14-2.18,9.21-2.03,8.55-4.07,17.1-6.1,25.66-.02.08-.03.17-.05.26-.13.5-.13.51-.64.52-3.12.05-6.23.11-9.35.15-.46,0-.92,0-1.37-.03-.84-.05-1.51-.42-1.93-1.16-.36-.62-.7-1.26-1.02-1.9-2.71-5.36-5.42-10.73-8.14-16.09-.21-.41-.23-.73-.03-1.15.85-1.72,1.74-3.41,2.88-4.96Z"/>
  <path class="cls-2" d="M158.47,111.11c.98-.03,1.96-.07,2.94-.1.17,0,.35-.02.52-.01.81.02,1.01.19,1.08.97.08.98.13,1.96.18,2.93.15,2.87.3,5.74.45,8.61.03.54.07,1.09.09,1.63.03.51.22.88.75,1.01.17.04.3.09.22.3-.05.16-.04.35-.29.36-.33.01-.65.06-.98.08-1.35.08-2.7.16-4.05.23-.17,0-.35,0-.52-.03-.47-.07-.61-.2-.65-.67-.06-.67-.08-1.35-.1-2.02-.03-1.02-.02-1-1.01-.94-1.09.07-2.18.13-3.26.17-.37.01-.59.11-.74.47-.25.58-.57,1.13-.83,1.7-.27.59-.2.77.4,1.06.16.08.24.15.21.34-.04.22-.12.34-.37.36-.87.04-1.74.1-2.61.15-.65.04-1.3.08-1.96.12-.17,0-.35.02-.52,0-.6-.07-.8-.39-.58-.95.06-.16.16-.31.24-.46,2.4-4.17,4.81-8.33,7.21-12.5.23-.4.46-.79.64-1.21.2-.45.11-.64-.33-.82-.16-.07-.34-.06-.31-.32.04-.27.17-.36.44-.37,1.24-.03,2.48-.08,3.73-.11,0,0,0,.01,0,.02ZM157.69,115.02c-.95,1.88-1.91,3.78-2.91,5.77.98-.05,1.85-.09,2.72-.13.49-.02.5-.02.49-.52-.05-1.68-.1-3.35-.15-5.03,0-.06-.01-.09-.15-.09Z"/>
  <path class="cls-2" d="M102.11,126.85c1.63-.07,3.24-.11,4.84-.31.54-.07.99-.31,1.26-.82.11-.21.63-.36.85-.28.09.04.13.11.11.2-.02.09-.03.17-.06.25-.29,1.03-.57,2.05-.87,3.08-.28.95-.68,1.27-1.67,1.37-.33.03-.65.07-.98.09-3.35.2-6.7.4-10.05.59-.28.02-.57.02-.85-.02-.68-.08-.93-.41-.76-1.07.21-.84.47-1.68.71-2.51,1.19-4.14,2.38-8.28,3.57-12.42.03-.1.07-.21.1-.31.16-.7.03-.93-.66-1.17-.1-.03-.2-.06-.3-.09.11-.64.11-.64.64-.66,2.05-.06,4.09-.12,6.14-.19.35-.01.7.01,1.04.11.46.13.65.41.59.87-.04.28-.12.55-.2.82-1.12,3.95-2.24,7.91-3.37,11.86-.05.17-.13.33-.08.59Z"/>
  <path class="cls-2" d="M148.16,111.42c-.21.8-.42,1.57-.63,2.35-.15.54-.5.83-1.06.91-.61.08-1.22.07-1.83.09-.67.02-1.35.04-2.02.09-.87.06-1.46.48-1.83,1.26-.38.81-.64,1.66-.9,2.52-.37,1.23-.7,2.47-.96,3.73-.08.41-.13.82-.08,1.23.08.66.47,1.06,1.14,1.14.74.09,1.48-.02,2.22-.04.63-.01,1.26-.07,1.89-.12.63-.06,1.2-.21,1.5-.86.16-.34.49-.17.83-.21-.31,1.18-.52,2.33-.95,3.41-.28.69-.85,1.04-1.54,1.18-.53.11-1.07.2-1.61.23-2.04.14-4.08.33-6.13.31-.63,0-1.26-.05-1.87-.24-1.31-.41-2.03-1.29-2.15-2.65-.11-1.25.14-2.47.4-3.68.47-2.17,1.02-4.32,1.88-6.37.13-.32.3-.63.45-.94.98-1.98,2.63-2.99,4.8-3.1,2.72-.14,5.44-.19,8.16-.27.08,0,.16.02.29.04Z"/>
  <path class="cls-2" d="M90.51,130.68c-.12.67-.12.67-.69.7-2.07.13-4.13.26-6.2.38-.37.02-.74.03-1.11,0-.81-.08-1.07-.45-.85-1.24.41-1.47.85-2.93,1.28-4.39,1.06-3.59,2.12-7.18,3.18-10.77.02-.08.04-.17.07-.25.2-.74.07-1-.64-1.24-.17-.06-.42-.02-.34-.34.06-.24.12-.46.45-.45.5,0,1,0,1.5-.02,1.66-.04,3.31-.09,4.97-.13.35,0,.7-.02,1.04.03.69.11.93.47.79,1.15-.07.32-.17.63-.26.94-1.35,4.64-2.7,9.27-4.05,13.91-.04.13-.08.25-.11.38-.22.84-.07,1.08.8,1.27.06.01.12.04.18.07Z"/>
  <path class="cls-3" d="M106.45,106.38c.18.03.33-.05.48-.15,1.71-1,3.43-1.99,5.13-3,.3-.18.59-.24.92-.24,1.68,0,3.36,0,5.04,0,.54,0,.56-.02.67-.5.6-2.78,1.37-5.52,2.06-8.28,1.07-4.23,2.14-8.47,3.21-12.7.48-1.9.96-3.79,1.45-5.68.02-.08.05-.17.18-.23.54.8.81,1.75,1.38,2.54-.24,1.13-.48,2.25-.71,3.38-.31,1.54-.55,3.08-.75,4.64-.12.97-.44,1.91-.68,2.86-1.13,4.52-2.28,9.03-3.42,13.54-.09.36-.18.72-.21,1.09-.08.95.25,1.47,1.12,1.84.32.14.65.24,1,.28.27.03.39.13.28.43-.07.2-.09.42-.14.64-.12.52-.12.55-.68.56-1.63.04-3.27.05-4.9.08-2.42.04-4.84.09-7.26.13-.83.01-1.66.02-2.47-.16-.68-.16-1.35-.35-1.71-1.05Z"/>
  <path class="cls-3" d="M169.24,85.85c.02.11.04.22.17.25.08.02.17.02.26.02,1.46-.05,2.91.14,4.37.15,1.7,0,3.39.07,5.09.15,1.28.06,2.57.06,3.85.1.1,0,.22-.02.34.1-.02.18-.2.24-.33.32-1.42.89-2.84,1.78-4.26,2.67-.05.03-.12.03-.19.05-2.33-.04-4.66-.08-6.99-.12-.07,0-.13,0-.2,0-.65.02-.63-.16-.81.62-.94,4.09-1.88,8.18-2.82,12.27-.05.23-.09.47-.12.71-.09.74.24,1.32.91,1.65.37.19.79.22,1.17.36.01.04.03.06.03.07-.22,1.31-.22,1.3-1.56,1.33-3.88.07-7.75.15-11.63.23-.74.01-1.48-.03-2.2-.23-.47-.13-.89-.34-1.13-.81.22.05.37-.09.53-.2,1.31-.89,2.63-1.77,3.94-2.68.25-.17.49-.25.78-.25,1.18,0,2.35-.03,3.53,0,1.03.03,2.04-.15,3.06-.12.26,0,.37-.08.43-.35.75-3.54,1.61-7.06,2.43-10.59.43-1.84.83-3.68,1.25-5.52.01-.06.07-.11.1-.16Z"/>
  <path class="cls-2" d="M190.61,110.26c-.17.7-.31,1.36-.48,2.01-.14.51-.45.82-1.02.83-.87.02-1.74.08-2.61.1-.31.01-.61.04-.9.12-.54.14-.86.48-.96,1.03-.11.54,0,.83.5,1.07.63.29,1.29.53,1.93.8.46.19.92.39,1.37.61.83.41,1.21,1.13,1.16,2.03-.09,1.65-.54,3.21-1.35,4.66-.81,1.44-2.13,1.99-3.69,2.09-1.96.13-3.91.24-5.87.35-.19.01-.39,0-.58-.04-.72-.12-.98-.48-.83-1.19.19-.89.43-1.78.63-2.67.06-.25.18-.36.44-.37.25-.01.34.08.39.31.09.38.41.49.76.5.44.01.87.01,1.31,0,.74-.03,1.48-.08,2.22-.13.26-.02.52-.07.77-.15.44-.14.76-.41.92-.86.24-.66.07-1.17-.57-1.46-.57-.26-1.17-.46-1.76-.68-.57-.22-1.14-.44-1.65-.78-.85-.55-1.22-1.3-1.06-2.33.15-.95.37-1.88.69-2.78.23-.64.55-1.23,1-1.75.58-.68,1.31-1.06,2.2-1.13,1.81-.15,3.62-.1,5.42-.18.52-.02,1.04,0,1.64,0Z"/>
  <path class="cls-3" d="M74.34,97.63c-.65.07-1.15.49-1.71.76-.37.18-.73.38-1.09.58-.24.13-.39.11-.48-.19-.36-1.14-.48-2.3-.3-3.47.36-2.39,1.15-4.67,1.77-7,.68-2.54,1.4-5.06,2.1-7.59.64-2.3,1.29-4.6,1.94-6.89.48-1.71.97-3.42,1.43-5.14.1-.38.28-.67.54-.94.89-.92,1.77-1.86,2.65-2.79.12-.13.24-.25.26-.44.48.32.65.8.66,1.34.02.55-.09,1.08-.23,1.61-2.44,8.8-4.87,17.61-7.29,26.41-.15.54-.25,1.1-.39,1.65-.18.72-.14,1.42.15,2.11Z"/>
  <path class="cls-2" d="M169.78,113.92c-.82.04-1.56.06-2.29.11-.31.02-.61.15-.75.46-.19.41-.51.4-.91.33.27-1.06.53-2.09.81-3.12.17-.62.63-.84,1.24-.85,1.68-.04,3.36-.09,5.03-.14,1.55-.04,3.09-.08,4.64-.13.57-.02,1.13-.06,1.48-.64.16-.27.47-.12.79-.13-.28,1.07-.53,2.09-.81,3.11-.13.47-.47.7-.98.71-.78.02-1.57.08-2.35.1-.3,0-.47.08-.55.4-.85,3.47-1.71,6.93-2.56,10.39-.18.72-.13.8.53,1.17.1.06.2.12.14.24-.06.14-.02.37-.28.38-.26.01-.52.05-.78.07-1.39.08-2.78.17-4.18.24-1.03.05-1.32-.29-1.07-1.29.39-1.58.79-3.17,1.19-4.75.55-2.17,1.09-4.34,1.67-6.64Z"/>
  <path class="cls-3" d="M166.18,60.19c-1.56-.15-2.95-.77-4.34-1.41-1.17-.54-2.29-1.16-3.41-1.8-2.53-1.47-3.78-3.72-3.98-6.58-.15-2.16.29-4.2,1.35-6.1.36-.65.82-1.23,1.37-1.74.27-.25.56-.31.9-.24.83.18,1.4.67,1.73,1.45.33.78.4,1.6.35,2.43-.07,1.24-.32,2.46-.66,3.65-.05.17-.1.33-.08.5.22.06.27-.12.35-.23.93-1.13,1.76-2.33,2.16-3.77.2-.71.23-1.42-.05-2.11-.11-.27-.05-.39.19-.51,1.57-.82,3.79.15,3.81,2.15,0,1.28-.35,2.45-.99,3.53-.59,1-1.38,1.84-2.23,2.63-.78.73-1.37,1.57-1.58,2.64-.23,1.13.04,2.11.84,2.95,1.02,1.06,2.26,1.75,3.64,2.23.22.08.47.07.64.3Z"/>
  <path class="cls-3" d="M175.38,105.09c.43-.05.74-.36,1.09-.56,1.08-.61,2.13-1.26,3.19-1.9.32-.19.66-.29,1.05-.29,1.81.01,3.62,0,5.42,0,.59,0,.6,0,.72-.58.63-2.97,1.26-5.94,1.9-8.9.42-1.93.86-3.85,1.28-5.78.74-3.37,1.49-6.73,2.23-10.1.14-.64.27-1.27.41-1.91.05-.21.09-.43.2-.62.61-1.05,1.19-2.12,1.89-3.11.3.21.37.52.4.85.04.44,0,.87-.1,1.3-1.13,5.16-2.26,10.33-3.39,15.49-.97,4.42-1.94,8.84-2.91,13.26-.05.21-.08.43-.1.64-.09.74.24,1.33.91,1.64.2.09.41.13.62.2.08.03.2.03.24.09.2.31-.03.62-.05.93-.01.17-.02.42-.31.41-.17,0-.35,0-.52,0-3.12.06-6.23.1-9.35.17-1.04.02-2.09.12-3.13-.04-.37-.06-.73-.15-1.05-.34-.33-.19-.6-.43-.65-.84Z"/>
  <path class="cls-3" d="M132.08,73.71c-.06-.19.03-.33.14-.48,1.45-1.9,2.92-3.78,4.65-5.45,1.12-1.08,2.4-1.95,3.74-2.71,1.59-.91,3.24-1.68,4.99-2.25,1.74-.57,3.51-.97,5.33-1.18,1.46-.17,2.92-.18,4.37-.07,2.18.17,4.35.47,6.51.84,2.05.36,4.11.63,6.17.97,1.45.24,2.91.45,4.38.6.82.09,1.65.12,2.47.19,2,.17,4,.07,6,.11.49,0,.95-.09,1.4-.27-.14,1.37-.02,1.16-1.25,1.32-2.67.35-5.34.23-8.02.02-3.48-.27-6.91-.85-10.36-1.3-2.7-.35-5.4-.63-8.13-.69-3.39-.07-6.61.59-9.72,1.92-4.5,1.91-8.49,4.58-12.04,7.94-.19.18-.33.41-.59.49Z"/>
  <path class="cls-2" d="M122.39,29.21c-1.07.83-2.25,1.49-3.39,2.2-2.61,1.62-5.24,3.2-7.86,4.79-.67.41-1.34.81-2.02,1.21-.12.07-.23.13-.23.29-.03.03-.07.04-.1.03-.07-.03-.12,0-.16.07-1.86.6-3.76,1.06-5.65,1.59-2.41.68-4.82,1.33-7.23,1.98-.06.02-.13.02-.19.02-.02-.05-.25-.04-.08-.12,2.73-1.32,5.43-2.67,8.12-4.08,2.18-1.14,4.34-2.32,6.49-3.51,3.16-1.76,6.27-3.59,9.34-5.49.16-.1.31-.14.49-.17.83.4,1.65.81,2.48,1.21Z"/>
  <path class="cls-3" d="M119.92,28.01c-.17.03-.33.08-.49.17-3.07,1.91-6.19,3.73-9.34,5.49-2.15,1.2-4.31,2.37-6.49,3.51-2.68,1.41-5.39,2.76-8.12,4.08-.16.08.07.07.08.12-.64.27-1.33.38-2,.57-2.39.67-4.78,1.32-7.18,1.97-.1.03-.21.04-.45.09,1.25-.54,2.39-1.01,3.51-1.53,3.67-1.68,7.21-3.59,10.74-5.54,5.59-3.09,11.09-6.33,16.58-9.58.39-.23.74-.3,1.17-.18.69.19,1.36.44,1.97.82Z"/>
  <path class="cls-2" d="M134.3,19.79c-.01-.24.18-.28.34-.34,1.97-.68,3.97-1.28,6.01-1.75,1.52-.35,3.06-.63,4.61-.86.99-.15,1.98-.23,2.98-.33,2.3-.25,4.61-.31,6.91-.22,1.6.06,3.2.23,4.79.46,2.13.31,4.23.77,6.3,1.36,1.9.55,3.78,1.19,5.59,2,.63.28,1.28.54,1.89.9-.09.13-.18.06-.26.03-3.34-1.27-6.79-2.14-10.31-2.78-1.09-.2-2.19-.33-3.29-.45-2.19-.24-4.37-.4-6.57-.35-1.37.03-2.73.16-4.08.35-2.37.32-4.7.86-7.01,1.47-1.35.35-2.68.77-3.99,1.21-.18.06-.35.17-.53.25-1.15-.22-2.26-.6-3.37-.95Z"/>
  <path class="cls-2" d="M142.66,22.31c-.59.22-1.23.24-1.84.33-1.37.18-2.75.34-4.14.41-1.43.07-2.88.06-4.31,0-1.74-.06-3.46-.32-5.1-.92-1.12-.41-2.17-1-3.25-1.53-1.15-.57-2.32-1.08-3.57-1.4-.19-.05-.38-.09-.58-.05-.42-1.1-.59-2.24-.71-3.4.28-.06.47.08.66.16,1.82.74,3.52,1.71,5.18,2.75.68.43,1.37.84,2.07,1.25,1.5.89,3.14,1.34,4.87,1.58,3.3.46,6.63.61,9.96.75.26.01.52.03.78.05Z"/>
  <path class="cls-3" d="M190.18,34.7c-1.12.1-2.21-.06-3.31-.25-.18-.03-.32-.12-.47-.22-2.87-1.91-5.98-3.3-9.28-4.26-.14-.04-.28-.1-.57-.21.61.05,1.07.08,1.52.12,2.4.2,4.79.03,7.16-.4.78-.14,1.52-.02,2.26.15,1.97.45,3.6,1.4,4.59,3.25.21.39.34.8.47,1.22.07.25,0,.38-.25.42-.4.07-.79.26-1.21.19.3-.11.45-.29.26-.61-.12-.21-.23-.42-.35-.62-.54-.91-1.18-1.76-2.05-2.34-1.13-.75-2.46-1.05-3.89-1.43.45.46.9.63,1.32.82,1.86.86,2.98,2.4,3.82,4.19Z"/>
  <path class="cls-3" d="M166.61,35.33c.09-.3.34-.22.54-.22,1.43,0,2.8.28,4.11.87,1.13.5,2.08,1.25,3.03,2.02,1.73,1.43,3.61,2.66,5.52,3.82.61.37,1.24.73,1.92.96,1.58.53,3.13.39,4.64-.28.49-.22.97-.49,1.45-.73-.76,2.15-3.32,3.67-5.56,3.33-1.69-.26-3.1-1.1-4.42-2.12-1.4-1.08-2.6-2.38-3.71-3.75-1.36-1.67-3.01-2.95-5.13-3.54-.78-.22-1.58-.26-2.38-.35Z"/>
  <path class="cls-3" d="M175.49,82.99c-.87.06-1.74.03-2.61-.02-.47-.03-.82.09-1.15.45-.64.68-1.3,1.34-1.92,2.05-.15.17-.29.39-.57.4-.03-.38.1-.73.18-1.09.78-3.4,1.64-6.78,2.35-10.2.23-1.12.81-1.93,1.49-2.75.41-.5.87-.97,1.22-1.53.42.59.32,1.25.18,1.88-.59,2.67-1.2,5.34-1.8,8.01-.2.87-.39,1.73-.59,2.62,1.1.09,2.17.04,3.23.18Z"/>
  <path class="cls-2" d="M189.51,41.38c.02-2.32,1.28-3.99,2.91-5.44.21-.18.48-.3.72-.45.17-.1.3-.12.45.06.88,1.16,1.59,2.39,1.82,3.84.09.54.07,1.07-.13,1.59-.29.15-.47.44-.77.59-.96.51-1.96.67-3.01.39-.67-.18-1.33-.39-1.99-.59Z"/>
  <path class="cls-2" d="M170.84,31.6c-2.65-.08-4.26-1.58-5.26-3.89-.23-.54-.44-1.09-.56-1.66-.25-1.17-1.12-1.7-2.14-2.06-.4-.15-.82-.25-1.23-.38.88-.06,1.74.1,2.56.39.98.34,1.68.98,2.03,1.98.24.68.49,1.35.87,1.97.87,1.4,2.11,2.23,3.77,2.37.99.09,1.88-.15,2.48-1,.31-.45.56-.07.86-.09-.51,1.45-1.79,2.33-3.39,2.38Z"/>
  <path class="cls-2" d="M176.97,44.29c.67.76,1.34,1.3,2.08,1.76.23.15.25.3.18.54-.19.64-.53,1.19-.92,1.71-.72.96-1.6,1.77-2.57,2.51.95-2.02,1.28-4.16,1.23-6.52Z"/>
  <path class="cls-2" d="M170.78,60.85c1.84-.95,3.31-2.15,4.71-3.62.03.68-.1,1.22-.22,1.75-.15.66-.38,1.29-.67,1.9-.08.18-.16.35-.42.33-1.08-.11-2.17-.13-3.4-.36Z"/>
  <path class="cls-3" d="M189.51,41.38c.66.2,1.32.42,1.99.59,1.05.28,2.05.12,3.01-.39.3-.16.48-.44.77-.59-.21,1.24-1.36,2.26-2.67,2.34-1.16.08-2.22-.28-3.25-.77-.19-.09-.26-.2-.15-.41.13-.24.12-.55.29-.78Z"/>
  <path class="cls-2" d="M190.18,34.7c-.84-1.79-1.95-3.33-3.82-4.19-.42-.19-.87-.36-1.32-.82,1.44.39,2.77.69,3.89,1.43.87.58,1.51,1.43,2.05,2.34.12.2.23.42.35.62.19.32.05.5-.26.61-.3.03-.6.05-.9,0Z"/>
  <path class="cls-2" d="M189.39,49.1c.57-1.2,1.01-2.44,1.33-3.73.14-.56.17-.5.59-.37.46.13.93.2,1.48.32-.75,1.64-1.98,2.8-3.27,3.92-.04-.04-.09-.08-.13-.12Z"/>
  <path class="cls-2" d="M178.36,61.27c1.57-.94,3.13-1.88,4.25-3.44-.06,1.05-.56,2.52-1.06,3.31-.14.22-.31.26-.54.26-.87,0-1.74,0-2.6,0l-.05-.13Z"/>
  <path class="cls-2" d="M172.54,28.43c-.6.8-1.32,1.01-2.18.88.05-.22.26-.2.39-.29.2-.13.39-.27.59-.39.19-.12.19-.46.41-.45.24,0,.48.15.79.26Z"/>
  <path class="cls-3" d="M189.39,49.1s.09.08.13.12c-.07.14-.17.22-.33.25,0-.17.08-.28.2-.37Z"/>
  <path class="cls-3" d="M165.17,35.48c.23-.2.51-.15.78-.13-.24.17-.51.13-.78.13Z"/>
  <path class="cls-3" d="M131.28,74.6c.02-.22.14-.35.35-.41-.07.18-.18.32-.35.41Z"/>
  <path class="cls-3" d="M131.68,74.09c-.02-.21.1-.26.28-.26,0,.18-.18.18-.28.26Z"/>
  <path class="cls-3" d="M142.4,54.28c.08-.1.18-.1.29-.06-.08.08-.18.11-.29.06Z"/>
  <path class="cls-3" d="M165.96,35.35c.08-.13.17-.13.27-.02-.09.05-.18.06-.27.02Z"/>
  <path class="cls-3" d="M108.63,37.79c.03-.07.08-.09.16-.07-.03.08-.08.1-.16.07Z"/>
  <path class="cls-1" d="M119.49,125.91s-.04,0-.07,0q-1.04.07-.75-.96c.81-2.93,1.61-5.87,2.42-8.8.19-.67.02-.59.77-.6.46,0,.92-.02,1.37,0,.97.04,1.32.43,1.28,1.4-.03.81-.22,1.59-.41,2.37-.37,1.45-.74,2.91-1.3,4.3-.17.43-.37.84-.61,1.23-.34.55-.82.89-1.48.95-.41.04-.82.07-1.23.11v-.02Z"/>
  <path class="cls-1" d="M157.69,115.02c.13,0,.15.04.15.09.05,1.68.11,3.35.15,5.03.01.49,0,.49-.49.52-.87.04-1.73.08-2.72.13,1-1.99,1.96-3.89,2.91-5.77Z"/>
</svg>