<?xml version="1.0" encoding="UTF-8"?>
<svg id="Western_Michigan" data-name="Western Michigan" xmlns="http://www.w3.org/2000/svg" viewBox="0 0 232.6 144.9">
  <defs>
    <style>
      .cls-1, .cls-2, .cls-3, .cls-4, .cls-5 {
        fill-rule: evenodd;
        stroke-width: 0px;
      }

      .cls-2 {
        fill: #fff;
      }

      .cls-3 {
        fill: #704913;
      }

      .cls-4 {
        fill: #947c53;
      }

      .cls-5 {
        fill: #9b9ea0;
      }
    </style>
  </defs>
  <path class="cls-5" d="M207.26,77.12c-9.94-3.39-18.94-16.46-21.84-19.51,9.36.44,16.67-7.88,16.67-7.88l-4.7.73c-3,.54-5.96-.22-9.57-2.48-1.48-1.12-2.94-2.29-4.36-3.43-3.74-2.99-7.6-6.08-11.94-8.39,8.17-1.88,11.01-10.93,11.01-10.93,0,0-2.38,2.01-6.21,3.45-4.85,1.82-11.68-.76-16.77-3.1-2.4-1.29-5.72-2.41-8.36-3.19,2.08-.99,5.41-2.41,9.78-7.69-11.89,5.39-24.97-2.28-32.56-3.09-4.69-.5-10.14-.3-15.59,1.17.54-1.3.85-3.02.56-5.27l-.27-2.1-1.81,1.11c-2.91,1.79-5.49,1.78-8.47,1.78-1.53,0-3.18,0-4.99.24.3-.64.6-1.13.78-2.3.19-1.22.11-4.23.11-4.23,0,0-.39.85-1.03,1.87-.64,1.02-1.56,1.9-1.56,1.9-3.67,2.97-7,3.67-13.21,4.45-3.85.52-7.29,1.56-10.23,3.11-7.1.47-11.21,2.23-12.56,5.37-1.03,2.38-.05,4.79.76,6.18l-.34.16c-3.62,1.73-7.73,3.69-10.46,5.72l-.52.39-.03.65c0,.11-.09,2.49.56,5.51l-3.16,2.61c-2.5,2.05-4.88,4-7.52,6.31l-2.51.05h-.45s-.36.28-.36.28c-2.75,2.12-6.49,6.96-8.29,9.29l-.41.53.17.65c.03.14.8,3.05,2.07,5.33-.47.96-.83,1.9-.85,1.94l-.31.8.58.63c.49.52,1.05,1.39,1.62,2.5l.34.66.74.07,1.24.12.04.19-.48.31-.94.61.42,1.04c.41,1.04.81,2.14,1.11,3.11l.23.73.73.19c.22.06.92.27,1.74.52,4.7,1.43,7.43,2.21,8.4,2.24h.37s.32-.16.32-.16c4.4-2.32,8.58-4.89,12.83-7.54l.34-.21.17-.36c.61-1.28,1.18-2.95,1.45-3.79,3.26-1.9,6.79-3.37,11.32-4.74,5.12,1.7,10.67,3.21,17.29,2.26,3.63,2.4,2.99,5.46,2.62,6.66-.38,1.22-.18,3.35-3.25,4.69-18.77,2.83-36.33,6.46-44.67,9.05l-3.26,1.01s13.87,5.62,17.96,7.25l-15.47,32.51-19.14,18.24c30.53-.96,48.46-11.35,53.49-14.78,11.18-7.62,38.1-22.02,81.07-25.5,5.63-.46,10.71-.37,15.19-.26,5.92.15,10.6.26,13.67-1.18,4.05-1.86,5.21-4.62,6.8-8.42,2.29-5.49,4.1-10.81,12.41-13.75l3.72-1.32-2.21-.59h0Z"/>
  <path class="cls-1" d="M108.87,15.15s3.9-1.54,3.14-7.47c-5.87,3.6-10.41.67-17.59,3.02,2.09-1.68,2.58-3.87,2.58-3.87-4,3.23-7.63,3.95-13.9,4.75-3.46.46-6.96,1.44-10.03,3.09-18.19,1.11-10.29,10.53-10.29,10.53l.3.15c-3.82,1.86-9.04,4.19-12.15,6.51,0,0-.11,2.71.72,5.97-4.25,3.53-7.62,6.19-11.69,9.76-1.19.03-3.02.06-3.02.06-2.58,1.99-6.3,6.79-8.04,9.04,0,0,.9,3.46,2.31,5.62-.59,1.09-1.14,2.49-1.14,2.49.63.68,1.25,1.68,1.84,2.8l2.26.22.4,2.1-1.25.82c.48,1.19.87,2.33,1.15,3.21.95.25,8.53,2.67,9.84,2.72,4.34-2.28,8.5-4.84,12.74-7.49.79-1.66,1.54-4.12,1.54-4.12,3.93-2.35,8.02-3.94,12.48-5.27,5.55,1.86,11.06,3.35,17.7,2.25,2.09,1.31,4.83,4.25,3.51,8.72-1.74,5.89-4.02,5.23-9.32,6.36-.63.59-3.46,6.59-3.5,7.32,59.93-18.19,73.94,3.32,125.88-6.58-5.06-2.8-8.5-5.98-11.72-9.15-4.56-4.6-8.13-9.45-11.3-12.7.81.14,9.04.12,15.31-4.22-3.98.72-7.48-.74-10.59-2.7-11.15-9.04-18.78-12.89-19.4-13.33,0,0,7.83-1.1,11.66-7.12-8.26,7.15-24.76-4.06-27.71-4.71-1.66-.36-5.01-1.36-5.01-1.36,3.61-.85,6.9-2.79,10.05-5.37-9.69,3.08-20.9-3.47-29.63-4.34-7.4-.74-15.97,1.52-18.13,2.28Z"/>
  <path class="cls-4" d="M164.38,63.22c-8.01-9.58-15.8-17.99-27.42-26.72-11.7-8.63-34.95-16.01-48.05-13.71,1.4-.77,4.37-2.97,5.63-4.19.21-5.17,15.08-2.65,15.47-8-4.47,2.79-16.3-.85-22.63,6.78-1.76,1.95-.66,3.97.2,5.56-3.46.83-8.43,2.04-10.68,2.76,2.01-1.48,4.25-2.4,6.29-3.89,0,0-.17-.42-.21-.69-6.14,1.87-16.02,7.88-20.87,10.89.33-1.21.71-3.26,1.13-4.2-2.82,1.41-7.66,3.53-9.01,4.93,0,0-.15,1.72.3,3.38,1.8-1.19,5.52-2.86,5.52-2.86-.04.03-19.48,16.6-19.48,16.6-1.1.16-2.12.22-3.23.56-1.63,1.75-3.72,3.98-5.3,6.39.57,2.17.87,3.08,1.64,4.48-.27.5-.82,1.74-1.01,2.49,0,0,1.26.13,1.81.12.25-.97.76-1.75.94-2.24-.48-1.27-1.53-3.17-1.46-4.27.81-1.26,2.67-3.16,3.66-4.19,1.35-.25,2.88-.25,4.02-.31,0,0-4.65,3.94-3.63,6.69.33.63.94,1.03,1.63,1.22,1.78.37,5.57-1.45,6.86-2.9-.21,1.01-.65,1.88-1.19,2.76,3.2-2.4,5.07-5.91,5.15-9.74-.47-1.09-2.09-.53-3.36-.57,1.42-.75,5.23-2.39,7.14-2.8,0,0,.41.88.56,2.19,3.21-2.17,5.84-3.23,5.84-3.23,0,0,.5.63.52,1.86,0,0-1.21,1.26-2.4,3.34,3.42-2,5.96-3.55,9.18-5.31.17-1.24-.68-2.14-.68-2.14,1.99-1.09,6.95-3.65,8.94-4.71,1.23.45,4.76,1.34,4.76,1.34-2.09,1.62-3.64,3.34-3.86,5.28-.55,2.66.28,4.74,2.25,6.28,3.19,2.12,9.57,1.97,13.83-.74,7.61-3.86,5.32-17.07,3.45-19.18,1.56-.18,3.34-.08,3.34-.08,1.08,1.49,2.25,4.73,2.25,4.73,14.08.37,32.07,11.77,40.86,23.82,8.8,12.05,23.2,9.42,38.84,11.89-7.95-1.92-15.33-6.87-17.53-9.7h0Z"/>
  <path class="cls-3" d="M147.96,19.49c-5.97,3.36-12.57,2.74-18.95,5.23,20.56-3.63,32.75,7.49,40.12,8.1-8.2,2.98-14.97-2.43-23.62,1.2v.06c6.8-.56,20.59,2.03,30.34,9.72,4.8,4.12,8.68,7.06,13.89,9.19-4.71,1.13-8.52-.74-12.76-2.62-4.25-1.87-11.43-4.14-17.51-2.6,8.08.61,15.52,5.3,20.38,10.25,3.46,3.47,5.79,8.44,9.86,11.65,1.4,1.42,2.97,2.3,4.57,3.35-7.48-1.48-13.82-4.62-19.94-8.53-2.05-1.31-3.85-2.91-5.74-4.53,2.68,2.06,10.78,5.36,13.57,5.94-4.62-2.67-11.93-12.83-21.87-15.31-2.24-2.15-2.96-2.61-4.95-4.88,3.67-1.32,11.43-.77,16.53.84-5.87-5.59-15.67-8.31-24.5-7.7-3.18-2.64-4.86-3.96-8.23-6.3l.02-.14c3.82-1.49,7.8-2.16,11.71-1.74.02-.03-7.26-3.91-18.98-1.88-3.9-1.84-6.96-3.41-11.25-4.76,2.95-1.43,8.96-2.74,12.3-3.06-2.59-.78-10.67-2.76-19.99.91-1.78-.41-6.8-1.54-8.65-1.71,6.51-2.73,11.15-4.09,18.95-4.47,8.81-.43,15.47,5.03,24.68,3.8h0Z"/>
  <path class="cls-1" d="M47.3,53.41c-.73,2.11-2.22,4.6-4.77,5.27-.53.06-1.53.17-1.6-.4-.17-2.01,2.17-2.53,3.51-3.56l.21-.2c-.51-.28-1.46.03-2.06.05,1.22-1.14,2.72-1.85,4.52-1.85.24,0,.32.26.19.68Z"/>
  <path class="cls-2" d="M52.18,61.04s-2.62,2.94-3.5,4.61c1.41-.83,5.02-3.9,5.02-3.9-.48,2.16-1.44,4.86-1.44,4.86-1.84,1.44-6.79,4.19-8.51,4.77-1.56-.33-4.5-.82-6.8-1.32-.13-.66-.4-2.23-.4-2.23,2.06,0,4.19.36,6.68.64,1.96-2.6,6.45-6.93,8.95-7.42h0Z"/>
  <path class="cls-4" d="M52.26,57.66s3.63-2.54,6.76-3.34c0,0,1.67.74,2.29,1.42,0,0-3,3.9-3.52,5.37,0,0,.85-3.22-.17-3.93-1.02-.71-2.63-.31-5.36.48ZM123.31,68.98c.27.89,0,2.5-2.05,2.92-2.38.31-9.95,1.27-12.34,1.57.84-.51,2.03-3.15,1.22-5.89-.81-2.74-3.96-8.16-10.54-11.59,2.56-2.15,3.38-5.78,3.38-5.78,11.34,3.57,19.19,14.83,20.33,18.77h0Z"/>
  <path class="cls-1" d="M77.83,31.53s-2.76-.63-3.34-.39c-1.61.64-7.7,3.97-10.39,6.14l-.03.03s-2.19,1.45-5.47,1.68c0,0,4.57,2.44,9.75,1.6,3.12-.5,4.44-1.31,5.94-2.13,4.15-2.26,3.54-6.93,3.54-6.93h0Z"/>
  <path class="cls-2" d="M88.91,22.79s15.08-2.46,37.56,9.62c31.92,17.15,30.8,37.45,55.44,40.5-21.72-5.18-27.46-29.96-55.16-42.85-12.15-5.65-24.24-10.5-37.84-7.27h0ZM32.03,56.82s.42,2.37,1.64,4.48l-1.01,2.49,1.81.12.94-2.24-1.46-4.27,6.63-7.53s-1.87.03-3.23.56c0,0-3.77,3.83-5.3,6.39h0ZM40.57,49.87l2.7-.33,16.78-16.27s-9.61,7.28-19.48,16.6ZM54.23,32.75l1.82.54s5.12-4.42,7.19-5.46c0,0-6.37,2.65-9.01,4.93Z"/>
  <path class="cls-3" d="M75.73,21.3s1.38-3.44,3.57-4.74c2.19-1.3,5.5-2.14,8.41-3.43,0,0-4.71,2.54-4.73,5.86,0,0-3.08.59-7.25,2.32h0Z"/>
  <path class="cls-2" d="M87.71,13.12c-2.4.49-2.25.1-4.62.68-4.86.83-9.96,3.65-12.5,7.81,1.18-1.31,6.25-4.77,8.87-5.14,2.19-1.25,5.41-2.08,8.25-3.35h0Z"/>
  <path class="cls-1" d="M198.47,76.24c-2.06-.19-4.18-.38-6.13-.73-19.06-3.44-41.53-4.71-64.97-3.66-27.47,1.23-69.05,8.58-83.97,13.21,0,0,13.56,5.49,15.99,6.44l-16.13,33.9-17.37,16.14c28.62-1.99,44.72-11.47,50.11-14.94,5.38-3.47,30.25-20.72,81.57-25.19,13.09-1.14,23.47,1.01,28.45-1.33,8.64-3.96,4.09-16.82,19.31-22.22,0,0-4.15-1.38-6.87-1.63h0Z"/>
  <path class="cls-5" d="M101.81,78.42l1.09-.23c.07.92.13,1.79.16,2.75.8-1.15,1.48-2.18,2.2-3.25l.73-.15c.12.89.22,1.73.31,2.67.72-1.12,1.34-2.11,2-3.14.31-.06.62-.12.93-.19-1.01,1.53-1.96,3.05-3.15,4.74l-.73.17c-.04-.94-.11-1.89-.21-2.83-.77,1.16-1.57,2.3-2.4,3.43-.26.06-.51.12-.77.18.02-1.44-.05-2.76-.16-4.15ZM110.96,76.65c1.54-.22,2.94-.42,4.48-.64-.08.23-.16.46-.24.69-1.19.17-2.28.33-3.47.51-.12.32-.23.63-.35.95.7-.11,1.34-.2,2.04-.31-.09.25-.18.48-.27.73l-2.05.32c-.14.37-.27.72-.42,1.1l3.58-.58-.31.83c-1.55.25-3.1.51-4.65.77.64-1.55,1.14-2.94,1.66-4.36h0ZM118.17,76.36c-.12.3-.23.58-.35.88.93-.1,1.77-.2,2.7-.3.84-.08,1.01.05.7.86l-.23.58c-.34.82-.65,1.03-1.5,1.14-.93.11-1.78.22-2.71.33-.85.1-1.01-.05-.67-.9.02-.04.07-.14.09-.18,0,0,.59-.1.91-.14,0,0-.11.26-.18.43l3.09-.37.38-.96c-.93.11-1.78.2-2.71.31-.84.09-.99-.06-.68-.87.06-.15.12-.3.18-.45.33-.79.62-.97,1.45-1.06l2.44-.25c.79-.07,1.03.07.73.75-.01.03-.11.22-.11.22l-.86.07s.09-.22.15-.38l-2.82.3ZM124.66,79l-1,.09c.53-1.2.97-2.27,1.44-3.37l-1.95.15c.1-.23.2-.46.3-.69l4.88-.37-.28.68-1.96.15c-.47,1.12-.94,2.24-1.42,3.36h0ZM129.66,74.73l4.3-.23c-.09.22-.18.42-.28.64-1.14.06-2.19.12-3.33.18-.13.29-.25.58-.38.87l1.95-.11-.3.68-1.95.12c-.15.34-.3.67-.46,1.01,1.15-.07,2.25-.14,3.4-.21l-.35.77-4.4.29c.66-1.44,1.23-2.71,1.8-4h0ZM135.93,74.41c1.22-.04,2.34-.08,3.57-.12.66-.01.85.15.61.69-.14.3-.27.6-.41.9-.27.55-.64.76-1.3.8-.19,0-.37.01-.55.02.42.49.8.94,1.22,1.45-.47.02-.93.04-1.4.06-.32-.49-.64-.98-.97-1.46l-.93.03c-.24.52-.47,1-.73,1.53l-.96.04c.63-1.31,1.25-2.62,1.86-3.94h0ZM136.58,75.03c-.17.36-.33.71-.5,1.08.75-.02,1.44-.05,2.19-.08.31-.01.46-.06.58-.33l.21-.46c.11-.26.01-.3-.3-.29-.74.03-1.45.05-2.18.08h0ZM142.52,74.21h.66c.64.73,2.02,2.46,2.09,2.62.15-.34.95-2.01,1.27-2.68h.87c-.62,1.29-1.26,2.59-1.92,3.88h-.66c-.61-.83-1.97-2.57-2.02-2.7-.12.31-.96,2.01-1.35,2.77h-.87c.72-1.38,1.32-2.61,1.94-3.89h0ZM153.2,74.16l.77.02c.27.79.51,1.54.74,2.37,1.08-.8,2.04-1.52,3.09-2.29l.76.02c-.66,1.31-1.34,2.61-2.05,3.9-.3,0-.58-.01-.88-.02.46-.85,1.41-2.64,1.54-2.85-.18.17-2.13,1.66-3.03,2.33-.06,0-.13,0-.19,0-.15-.67-.32-1.34-.5-2.01-.04-.13-.05-.27-.04-.4-.06.16-1.01,2-1.47,2.85l-.77-.02c.7-1.29,1.37-2.58,2.02-3.89h0ZM160.66,74.35c.32.01.63.02.95.03-.69,1.31-1.41,2.62-2.16,3.9-.32-.01-.63-.02-.94-.03.79-1.37,1.46-2.6,2.15-3.9h0ZM164.28,75.19c-.47.84-.92,1.61-1.43,2.47.87.04,1.67.08,2.54.13.17-.29.38-.65.38-.65l.96.04-.28.46c-.47.76-.79.92-1.57.89l-2.41-.12c-.78-.05-.89-.22-.45-.99.4-.68.8-1.37,1.19-2.06.43-.74.73-.89,1.52-.86l2.44.11c.79.04.92.2.49.96-.07.13-.2.34-.27.46l-.95-.03c.15-.25.27-.46.41-.71-.85-.04-1.71-.08-2.56-.12h0ZM170.25,74.78l.94.06c-.31.51-.61,1-.92,1.5l2.93.19c.32-.51.63-1,.95-1.51l.95.06c-.82,1.32-1.67,2.62-2.53,3.92-.31-.02-.62-.04-.94-.06.38-.58.73-1.12,1.1-1.7l-2.92-.19c-.36.57-.71,1.12-1.08,1.7l-.93-.06c.85-1.32,1.64-2.59,2.44-3.91h0ZM177.28,75.27l.94.08c-.9,1.33-1.75,2.56-2.7,3.91-.31-.03-.61-.05-.92-.08.91-1.29,1.8-2.6,2.68-3.91h0ZM180.7,76.29c-.61.85-1.19,1.65-1.81,2.5.95.1,1.86.2,2.81.3l.65-.88c-.51-.05-.97-.1-1.47-.15.17-.23.33-.44.49-.67l2.36.25c-.34.46-.67.9-1.02,1.36-.58.76-.91.91-1.66.83l-2.66-.28c-.75-.09-.83-.27-.28-1.04.51-.7.99-1.37,1.49-2.08.55-.75.87-.9,1.64-.82l2.72.28c.74.08.85.26.31.99l-.22.27-.85-.11.33-.44-2.85-.3h0ZM188.11,76.42l.87.12c-.27,1.45-.52,2.78-.82,4.23l-.99-.14c.07-.31.13-.61.2-.93l-2.4-.34c-.37.27-.72.53-1.08.8l-.88-.13c1.69-1.21,3.39-2.42,5.09-3.62h0ZM187.55,78.95c.13-.58.26-1.13.39-1.71-.71.51-1.35.97-2.05,1.47l1.67.24ZM192.39,77.09l.6.11c.28.96.73,3.19.73,3.38.24-.34,1.73-2.13,2.29-2.81.26.05.52.1.78.15-1.05,1.29-2.09,2.58-3.12,3.88-.19-.04-.39-.07-.58-.11-.27-1-.73-3.32-.73-3.47-.22.32-1.67,2.19-2.22,2.9-.26-.05-.51-.1-.77-.15,1-1.3,2.01-2.6,3.03-3.88h0Z"/>
  <path class="cls-4" d="M97.5,77.11l-.91.12c-24.73,3.25-44.9,8.57-44.9,8.57,0,0,9.29,2.83,11.93,3.85l-17.78,37.98-11.82,10.11s18.98-2.85,32.16-8.97c14.26-6.62,22.16-26.2,22.89-30.62l.18-1.12-2.92.67c11.24-10.27,11.17-20.58,11.17-20.58h0ZM72.9,90.64c1.49-.5,5.47-1.58,7.75-2.19-2.71,4.56-8.81,9.12-12.12,11.39l4.38-9.2ZM63.16,111.74c1.74-.59,6.08-1.98,8.47-2.75-3.19,6.39-9.12,9.33-11.96,10.43l3.49-7.68ZM133.63,81.48l-2.21.1c-4.81.21-8.44.67-11.62,2.33-3.46,1.8-6.17,4.98-8.55,10-1.97,4.16-2.08,8.42-.29,10.86.99,1.34,2.44,1.95,4.11,1.71,6.88-.97,10.62-8.02,13.63-15.48l.05-.12v-.13c.01-.12-.19-2.46-.83-4.68l5.71-4.58h0ZM120.84,90.55c-1.01,3.52-3.72,6.76-5.38,8.11.08-1.02.53-2.66,1.23-4.09.97-1.97,2.79-4.21,3.95-5.27.09.41.16.88.19,1.25ZM155.39,80.99s-7.78-.13-11.42.91l-2.94,6.12-.1-3.99,2.58-2.77s-6.09.4-8.99,1.18l-9.93,21.08c3.96-.94,12.54-2.63,12.54-2.63l-2.3-2.8,1.86-4.03,1.79,6.55c2.32-.39,8.63-1.24,8.63-1.24l-2.14-3.9,4.97-10.75c1.62-1.51,5.44-3.73,5.44-3.73Z"/>
  <path class="cls-2" d="M88.31,98.02c-.62,3.78-8.16,23.47-22.45,30.06-13,5.99-29.31,8.5-29.31,8.5l9.91-8.47,18.18-38.85c-1.92-.9-10.05-3.37-10.05-3.37,7.65-1.84,21.03-5.09,42.1-7.9,0,0-1.34,11.13-13.24,21.14l4.86-1.11h0ZM82.1,87.29s-8.03,2.1-9.75,2.74l-5.68,11.94s12.41-7.54,15.43-14.69ZM73.03,107.75s-8.36,2.66-10.42,3.38l-4.35,9.57s10.69-2.64,14.77-12.95Z"/>
  <path class="cls-4" d="M111.58,88.85c.62-.93,3.08-3.67,4.01-4.68l1.45-1.57-2.05.29c-10.58,1.51-18.45,4.76-18.52,4.79l-.26.11-.12.27-11.62,26.06-.07.03-.11.25-1.12,2.62-.87,2.03,1.86-1.05c6.07-3.43,12.75-6.14,12.81-6.17l.96-.39-.68-.82-1.88-2.26,1.75-4.08,1.96-.79,1.38,6.21.19.84.76-.31c2.85-1.15,7.9-2.95,7.95-2.96l1.08-.38-.8-.86c-1.26-1.36-2.21-2.19-2.6-2.51l-1.02-4.19c3.81-2.79,5.32-9.41,5.58-10.49h0ZM100.8,91.81l2.67-1.1c-.39.78-.85,1.65-1.27,2.18l-.02.03-.02.03c-.76,1.2-1.69,1.96-3.25,2.91l1.91-4.05Z"/>
  <path class="cls-2" d="M83.81,117.34l12.91-28.96s7.74-3.23,18.36-4.75c0,0-3.55,3.77-4.19,4.84,0,0-1.54,7.85-5.74,10.54l1.26,4.97s1.1.85,2.7,2.59c0,0-5.08,1.8-7.98,2.98l-1.56-7.05-3,1.21-2.06,4.81,2.19,2.63s-6.71,2.72-12.89,6.21h0ZM102.75,93.37c.98-1.24,2.17-4.07,2.17-4.07l-4.62,1.92-3.03,6.36c2.1-.97,4.14-2.07,5.49-4.2Z"/>
  <path class="cls-3" d="M96.57,103.7l3-1.21-.35-1.55-4.16,1.74-2.56,5.91,1.37,1.8s-4.22,1.89-8.93,4.33l-1.12,2.62c6.18-3.49,12.89-6.21,12.89-6.21l-2.19-2.63,2.06-4.81h0Z"/>
  <path class="cls-2" d="M131.45,82.34c-8.98.39-14.65,1.63-19.52,11.9-3.01,6.35-1.15,12.08,3.02,11.49,5.8-.82,9.48-6.22,13.03-15.01,0,0-.19-2.6-.99-4.8l4.45-3.57h0ZM121.61,90.64c-1.26,4.58-4.99,8.53-6.69,9.34-.62-.96.18-3.88,1.1-5.74,1.24-2.5,3.85-5.53,4.97-6.14.52.72.62,2.54.62,2.54h0Z"/>
  <path class="cls-3" d="M131.45,82.34c-.78.03-5.01,2.33-6.28,3.17.8,2.19,1.11,4.86,1.11,4.86-1.21,3.63-3.22,7.61-5.9,10.32-3.38,3.42-8.01,5.01-9.56,2.12,1.25,3.92,4.81,3.49,8.15,1.5,3.35-1.99,6.81-6.91,9.02-13.59,0,0-.19-2.6-.99-4.8l4.45-3.57h0Z"/>
  <path class="cls-2" d="M125.92,102.41l9.13-19.36s2.18-.47,6.62-.9l-1.48,1.59.29,7.12,4.02-8.36s3.66-.66,8.23-.72c-1.72.83-3.38,2.49-3.38,2.49l-5.18,11.21,1.79,3.25s-4.3.41-6.95,1l-2.13-7.8-2.89,6.24,1.79,2.18s-5.41.9-9.86,2.05Z"/>
  <path class="cls-3" d="M136.87,91.94l-.68-2.42-3.94,8.31,1.05,1.51s-2.93.52-6.6,1.4l-.77,1.68c4.44-1.15,9.86-2.05,9.86-2.05l-1.79-2.18,2.89-6.24h0ZM138.59,83.53l1.87,7.33-.29-7.12,1.48-1.59c-1.2.46-3.07,1.38-3.07,1.38ZM147.85,83.58l-5.58,11.87,1.21,2s-2.39.41-4.89.84l.41,1.45c2.66-.58,6.95-1,6.95-1l-1.79-3.25,5.18-11.21s1.66-1.66,3.38-2.49c-.97-.04-4.87,1.8-4.87,1.8h0Z"/>
  <path class="cls-4" d="M194.1,83.96l-1.41-.37c-5.32-1.39-10.35-2.7-13.25,1.99-.66,1.07-.87,1.99-.64,2.83.36,1.29,1.7,1.95,2.77,2.48,1.06.52,1.3.8,1.22,1.24-.27,1.45-4.08,1.41-5.67,1.09l-.39-.06-.21.34-1.81,2.94s-.75,1.23-.75,1.23l-.48.79.9.15c.12.02,2.93.46,6.55.09,2.54-.26,5.65-.98,7.13-4.26.89-1.98,0-3.95-1.27-5.01h0c-.65-.69-1.56-1.11-2.29-1.45-.26-.11-.52-.24-.77-.37.99-.71,3.48.11,5.1,1.02l.54.3,1.52-2.99,3.2-1.96h0Z"/>
  <path class="cls-3" d="M186.42,89.89c.39.65.92,1.88.33,3.07-1.27,2.59-3.51,3.27-6.13,3.52-2.01.19-4.07.28-5.4.28l-.74,1.23s2.81.45,6.39.08c2.62-.27,5.33-1,6.64-3.91.84-1.86-.2-3.52-1.1-4.27h0ZM105.15,99.01c4.2-2.57,5.76-10.51,5.76-10.51.64-1.07,4.17-4.86,4.17-4.86,0,0-4.12,2.73-5.64,4.14,0,0-1.08,7.7-6.23,11.09l1.6,5.74,1.56,1.16s-4.45,1.59-5.62,2.02l.39,1.75c2.9-1.17,7.98-2.98,7.98-2.98-1.6-1.74-2.7-2.59-2.7-2.59l-1.26-4.97h0ZM189.37,84.7l-.97,1.6c-1.71-.96-4.51-.83-5.41.15-.88.96-.15,1.68-.13,1.59-.04-.16-.01-.34.12-.55,1.08-1.62,4.41-.38,6.13.58l1.32-2.59,2.1-1.29c-.74-.19-3.17.51-3.17.51h0ZM96.69,77.98c-1.06.14-1.27.08-2.3.23-.13,1.22-3.66,14.56-17.82,24.41,2.49-.57,5.44-1.2,8.52-1.8-2.66,6.97-10.25,20.48-21.16,25.5-8.48,3.91-18.37,6.33-24.22,7.55l-3.17,2.71s16.31-2.51,29.31-8.5c14.29-6.58,21.83-26.28,22.45-30.06l-4.86,1.11c11.75-9.25,13.24-21.14,13.24-21.14h0Z"/>
  <path class="cls-5" d="M71.77,35.66c-.11.77-.81,1.36-1.65,1.38-.51,0-.91-.22-1.14-.58-.49.31-.93.6-1.34.87.49.7,1.3,1.13,2.32,1.14,1.7-.03,3.14-1.24,3.37-2.81.07-.61-.06-1.16-.36-1.62-.47.27-.92.53-1.39.81.16.23.24.5.2.81Z"/>
  <path class="cls-2" d="M70.12,37.03c.83-.02,1.54-.61,1.65-1.38.04-.29-.03-.58-.2-.81-.87.52-1.74,1.06-2.59,1.61.24.35.64.57,1.14.58ZM145.4,24.25c-11.65-1.61-19.73,1.53-19.73,1.53.87.29,1.9.81,2.51,1.07,12.54-3.1,21.83-.25,25.83,1.68,3.3,1.59,8.63,4.82,15.11,4.29-8.01-1.38-15.41-7.41-23.73-8.56h0ZM166.79,38.33c-14.74-6.74-24.79-3.66-24.79-3.66.8.54,1.58,1.12,2.34,1.73,9.55-1.32,20.83,1.63,31.9,9.75,2.95,2.17,8.03,5.59,13.51,6.83-8.02-3.37-13.4-10.28-22.95-14.65h0ZM175.12,53.97c-12.34-8.23-17.32-5.74-17.32-5.74.61.59,1.24,1.17,1.88,1.73,16.56.36,27.02,20.47,34.61,23.04-7.28-4.76-10.43-13.21-19.17-19.03ZM96.62,32.55s-1.69.17-2.58.39c3.79,5.39,2.87,16.55-3.7,20.13.99-.33,1.94-.78,2.83-1.34,7.61-3.86,5.32-17.07,3.45-19.18h0Z"/>
  <path class="cls-4" d="M64.7,23.55c.96-2.34,2.44-4.43,4.31-6.13-7.87,1.27-4.39,6.08-4.39,6.08l.08.04ZM181.26,81.97s-7.7-.74-10.59.56c-2.59,1.16-5.03,3.7-6.77,7.31-1.44,2.99-1.52,6.06-.22,7.81.72.96,1.92,1.44,3.15,1.38,6.62-.31,10.29-11.64,10.29-11.64,0,0-.17-1.25-.56-2.62l4.71-2.81h0ZM170.91,87.6c-.69,2.36-2.53,4.53-3.65,5.44.06-.69.36-1.79.84-2.74.66-1.32,1.9-2.82,2.69-3.53.06.27.11.59.13.84Z"/>
  <path class="cls-2" d="M179.24,82.45c-6.79-.27-11.14.24-14.69,7.63-2.19,4.57-.85,8.69,2.2,8.27,4.23-.59,6.91-4.47,9.51-10.8,0,0-.1-1.57-.68-3.15l3.66-1.95h0ZM171.6,87.49c-.92,3.29-3.65,6.14-4.88,6.72-.45-.69.13-2.79.8-4.13.9-1.8,2.81-3.98,3.63-4.42.38.52.45,1.83.45,1.83Z"/>
  <path class="cls-3" d="M179.24,82.45c-.57.02-4.11.75-5.04,1.35.59,1.58.81,3.5.81,3.5-.88,2.61-2.35,5.48-4.3,7.43-2.46,2.46-5.85,3.6-6.97,1.52.91,2.82,3.5,2.51,5.94,1.08,2.44-1.43,4.96-4.97,6.58-9.78,0,0-.1-1.57-.68-3.15l3.66-1.95h0Z"/>
  <path class="cls-4" d="M155.32,91.23c-.65.87-1.63,1.59-2.17,2.04.03-.75.33-1.95.82-3,.69-1.46,2.21-3.17,3.07-3.97.08.29.26.66.3.92-.16.61-.38,1.19-.65,1.76l6.65-.27c.46-1.19.7-1.98.7-1.98,0,0-.36-1.6-.79-3.15l5.53-3.06s-9.03-.3-12.24,1.23c-2.87,1.37-5.51,4.23-7.31,8.21-1.49,3.3-1.45,6.62.11,8.46.85,1.01,2.23,1.47,3.61,1.36,4.55-.39,7.68-5.17,9.42-8.83l-7.05.28h0Z"/>
  <path class="cls-2" d="M155.59,92.04c-.99,1.27-2.33,2.19-2.99,2.52-.54-.73.02-3.03.72-4.51.94-1.98,3.19-4.46,4.09-4.97.45.55.71,1.98.71,1.98-.08.35-.19.69-.31,1.03l4.88-.2c.13-.32.25-.65.38-.98,0,0-.24-2.02-.97-3.7l4.1-1.95c-7.68,0-12.56.75-16.23,8.91-2.27,5.04-.56,9.44,2.86,8.85,3.5-.61,5.98-3.12,8.1-7.2l-5.33.21h0Z"/>
  <path class="cls-3" d="M161.23,87.96l1.53-.06c.11-.32.22-.65.32-.98,0,0-.24-2.02-.97-3.7l4.1-1.95c-.64.05-4.6,1-5.62,1.69.73,1.68,1.07,3.74,1.07,3.74-.13.41-.27.83-.42,1.25ZM159.4,91.89c-.66,1.12-1.41,2.16-2.27,3.05-2.67,2.77-6.44,4.16-7.8,1.95,1.15,3.02,4.07,2.56,6.76.91,1.77-1.09,3.55-3.17,5.01-5.97l-1.69.07h0Z"/>
  <path class="cls-2" d="M182.86,86.81c.95-1.7,3.73-1.19,5.44-.23l1.06-1.86,3.18-.52c-5.6-1.46-9.98-2.49-12.59,1.72-2.75,4.44,4.12,4.21,3.5,6.33-.79,2.7-6.41,1.58-6.41,1.58l-1.81,2.93c6.47.65,10.63-.86,11.58-3.8,1.56-4.84-5.14-4.03-3.94-6.15h0ZM123.12,17.36c8.81-.42,15.9,5.13,24.83,2.13-9.21,1.23-15.88-4.23-24.68-3.8-7.79.38-12.44,1.74-18.95,4.47.65.06,1.7.24,2.86.47,5.07-1.93,9.4-2.94,15.94-3.26h0Z"/>
</svg>