<?xml version="1.0" encoding="UTF-8"?>
<svg xmlns="http://www.w3.org/2000/svg" xmlns:xlink="http://www.w3.org/1999/xlink" viewBox="0 0 232.6 144.9">
  <defs>
    <style>
      .cls-1 {
        stroke-width: 0px;
      }

      .cls-1, .cls-2 {
        fill-rule: evenodd;
      }

      .cls-2 {
        fill: #a00000;
        stroke: #a00000;
        stroke-miterlimit: 5;
        stroke-width: .83px;
      }
    </style>
  </defs>
  <g id="Minnesota">
    <image width="2400" height="2400" transform="translate(-7.33 -216.08) scale(.1)" xlink:href="../RAW/Minnesota.png"/>
  </g>
  <g id="Wisconson">
    <g>
      <path class="cls-1" d="M145.33,6.74c-2.52.27-4.02.46-4.02.46l-3.89,37.4s2.3-.06,3.19,1.59c.87,1.64.66,3.76-.09,6.19l-5.72,20.29,1.7,7.95,8.49-31.43c.76-2.41.56-3.73-.32-5.39-.88-1.68-3.31-1.72-3.31-1.72l3.97-35.34h0ZM99.43,15.12c-2.54.81-4.08,1.36-4.08,1.36l-4.24,37.16s1.51-.29,2.83,1.55c1.33,1.86.71,3.69,0,6.72l-5.51,22.95,1.71,7.85,8.09-32.7c.7-3.01,1.21-4.13,0-6.46-1.06-2.03-2.92-2.07-2.92-2.07l4.13-36.37h0ZM49.58,40.53c-2.68,2.26-4.26,3.8-4.26,3.8l-4.24,39.25s3.52-2.17,6.19-1.33c1.94.62,2.57,1.79,3.27,3.97l19.51,57.67c8.83-14.38,20.03-20.59,33.59-24.68l.64-3.07c-13.38,3.43-25.35,9.28-33.26,20.88l-17.49-53.82c-.69-2.2-1.32-4.06-3.71-4.81-2.41-.76-4.33.44-4.33.44l4.08-38.32h0ZM114.8,83.67l-1.9,9.63,5.56,23.65s5.88-1.33,17.1-.93c9.81.36,19.18,2.91,19.18,2.91l1.08-3.55c-3.8-1.02-10.89-2.54-20.31-3.03-8.89-.46-14.54.3-14.54.3l-6.18-28.99h0Z"/>
      <path class="cls-2" d="M168.8,1.02c-11.93.14-22.98,1.37-22.98,1.37l-.49,4.35-3.98,35.34s2.43.05,3.31,1.73c.88,1.67,1.07,2.99.31,5.39l-8.49,31.42-1.7-7.94-4.14-19.41c-.54-2.18-.49-5.62.44-7.65,1.13-2.46,3.09-2.56,3.09-2.56l4.24-40.04s-9.95.95-20.73,3.18c-9.59,1.99-17.77,4.38-17.77,4.38l-.51,4.56-4.12,36.37s1.86.04,2.92,2.08c1.21,2.32.7,3.45,0,6.45l-8.09,32.71-1.71-7.85-4.17-19.15c-.53-2.31-.49-6.03.35-7.87,1.5-3.27,3.49-3.67,3.49-3.67l4.24-41.63s-13.92,4.73-25.28,11.4c-9.95,5.84-17.01,12.15-17.01,12.15l-.47,4.42-4.08,38.32s1.92-1.2,4.33-.44c2.39.76,3.02,2.62,3.71,4.82l17.49,53.82c7.9-11.6,19.87-17.45,33.26-20.88,1.43-.37,2.87-.7,4.32-1.02l4.3-21.83,1.89-9.63,6.19,29s5.65-.77,14.54-.31c9.42.49,16.51,2.02,20.31,3.04,2.05.55,3.16.94,3.16.94l21.03-68.1s.96-4.98,3.45-6.72c1.77-1.24,4.07-1.06,4.07-1.06l3.98-38.8s-7.78-.8-22.72-.62"/>
    </g>
  </g>
</svg>