<?xml version="1.0" encoding="UTF-8"?>
<svg id="Yale" xmlns="http://www.w3.org/2000/svg" viewBox="0 0 232.6 144.9">
  <defs>
    <style>
      .cls-1 {
        fill: #0a2240;
      }

      .cls-1, .cls-2 {
        stroke-width: 0px;
      }

      .cls-2 {
        fill: #fff;
      }
    </style>
  </defs>
  <g id="g38">
    <g id="g3265">
      <path id="path196" class="cls-1" d="M123.64,3.61v30.68h10.13l-17.47,24.95-17.47-24.95h10.13V3.61H41.22v30.68h20.16l37.69,53.83v22.49h-23.2v30.68h80.86v-30.68h-23.2v-22.49l37.69-53.83h20.16V3.61h-67.74Z"/>
      <path id="path2534" class="cls-2" d="M188.43,31.34h-18.75l-39.11,55.85v26.37h23.2v24.78h-74.96v-24.78h23.2v-26.37L62.91,31.34h-18.75V6.56h61.84v24.78h-12.85l23.14,33.05,23.14-33.05h-12.85V6.56h61.84v24.78Z"/>
      <path id="path192" class="cls-1" d="M116.3,69.53l-28.81-41.14h15.57V9.51h-55.94v18.87h17.33l40.52,57.87v30.26h-23.2v18.87h69.06v-18.87h-23.2v-30.26l40.52-57.87h17.33V9.51h-55.94v18.87h15.57l-28.81,41.14Z"/>
    </g>
  </g>
</svg>